<?xml version="1.0" encoding="UTF-8"?><svg id="Ebene_2" xmlns="http://www.w3.org/2000/svg" viewBox="0 0 34.02 34.02"><defs><style>.cls-1{fill:#fff;}.cls-2{fill:#547bbd;}</style></defs><g id="Capa_1"><path class="cls-2" d="M17.01,34.02c9.39,0,17.01-7.61,17.01-17.01S26.4,0,17.01,0,0,7.62,0,17.01s7.61,17.01,17.01,17.01"/><path class="cls-1" d="M12.9,14.13h1.76v-1.71c0-.75,.02-1.92,.57-2.64,.58-.76,1.37-1.28,2.73-1.28,2.22,0,3.15,.32,3.15,.32l-.44,2.61s-.73-.21-1.42-.21-1.3,.25-1.3,.93v1.99h2.8l-.2,2.54h-2.61v8.84h-3.3v-8.84h-1.76v-2.54Z"/></g></svg>