<?xml version="1.0" encoding="utf-8"?>
<!-- Generator: Adobe Illustrator 26.5.0, SVG Export Plug-In . SVG Version: 6.00 Build 0)  -->
<svg version="1.1" id="Ebene_2_00000163782965691739533100000018440692043925248417_"
	 xmlns="http://www.w3.org/2000/svg" xmlns:xlink="http://www.w3.org/1999/xlink" x="0px" y="0px" viewBox="0 0 100 100"
	 style="enable-background:new 0 0 100 100;" xml:space="preserve">
<style type="text/css">
	.st0{fill:#888989;}
</style>
<g id="Ebene_1-2">
	<path class="st0" d="M45.6,19.6c2.2-4.4,5.7-4.4,7.8,0l4.3,8.7c2.2,4.4,7.9,8.5,12.7,9.2l9.6,1.4c4.8,0.7,5.9,4.1,2.4,7.5l-7,6.8
		c-3.5,3.4-5.7,10.1-4.8,14.9l1.6,9.6c0.8,4.8-2,6.9-6.3,4.6l-8.6-4.5c-4.3-2.3-11.4-2.3-15.7,0L33,82.3c-4.3,2.3-7.2,0.2-6.3-4.6
		l1.6-9.6c0.8-4.8-1.4-11.5-4.9-14.9l-7-6.8c-3.5-3.4-2.4-6.8,2.4-7.5l9.6-1.4c4.8-0.7,10.5-4.8,12.7-9.2L45.6,19.6z"/>
</g>
</svg>
