<?xml version="1.0" encoding="utf-8"?>
<!-- Generator: Adobe Illustrator 26.5.0, SVG Export Plug-In . SVG Version: 6.00 Build 0)  -->
<svg version="1.1" id="Ebene_2_00000127012322150010103050000009975050693736659631_"
	 xmlns="http://www.w3.org/2000/svg" xmlns:xlink="http://www.w3.org/1999/xlink" x="0px" y="0px" viewBox="0 0 100 100"
	 style="enable-background:new 0 0 100 100;" xml:space="preserve">
<style type="text/css">
	.st0{fill:#888989;}
</style>
<g id="Ebene_1-2">
	<g>
		<path class="st0" d="M75.5,58.8c6,0,12.7-4.5,14.9-10.1l8.9-22.1c2.2-5.5-0.8-10.1-6.8-10.1H36.2c-6,0-9,4.5-6.8,10.1l8.9,22.1
			c2.2,5.5,8.9,10.1,14.9,10.1H75.5L75.5,58.8z"/>
		<path class="st0" d="M52.6,77.1c0,3.5-2.9,6.4-6.4,6.4s-6.4-2.9-6.4-6.4s2.9-6.4,6.4-6.4S52.6,73.5,52.6,77.1z"/>
		<path class="st0" d="M86.5,77.1c0,3.5-2.9,6.4-6.4,6.4s-6.4-2.9-6.4-6.4s2.9-6.4,6.4-6.4S86.5,73.5,86.5,77.1z"/>
		<path class="st0" d="M36.3,69.5l-3.4-2.2L18.6,33.6H3.7c-2,0-3.7-1.6-3.7-3.7s1.6-3.7,3.7-3.7H21l3.4,2.2l14.3,33.6h46.3
			c2,0,3.7,1.7,3.7,3.7c0,2-1.7,3.7-3.7,3.7C85.1,69.5,36.3,69.5,36.3,69.5z"/>
	</g>
</g>
</svg>
