<?xml version="1.0" encoding="UTF-8"?><svg id="Ebene_2" xmlns="http://www.w3.org/2000/svg" viewBox="0 0 34.02 34.02"><defs><style>.cls-1{fill:#d97da6;}.cls-2{fill:#fff;}</style></defs><g id="Capa_1"><path class="cls-1" d="M17.01,34.02c9.39,0,17.01-7.62,17.01-17.01S26.4,0,17.01,0,0,7.61,0,17.01s7.61,17.01,17.01,17.01"/><g><path class="cls-2" d="M12.76,8.5c2.83,0,5.67,0,8.5,0,.05,.01,.09,.03,.14,.03,.45,.06,.89,.17,1.3,.36,1.4,.65,2.31,1.72,2.68,3.23,.05,.21,.09,.42,.13,.63v8.5c-.03,.15-.05,.3-.08,.45-.45,2.23-2.36,3.79-4.63,3.8-2.52,0-5.05,0-7.57,0-.3,0-.61-.02-.91-.08-1.85-.35-3.33-1.8-3.71-3.65-.07-.33-.1-.67-.1-1,0-2.51,0-5.03,0-7.54,0-.68,.12-1.33,.41-1.95,.65-1.39,1.72-2.29,3.22-2.66,.21-.05,.42-.09,.63-.13Zm-2.73,8.5h0c0,1.23,0,2.47,0,3.7,0,.38,.04,.75,.16,1.11,.4,1.23,1.6,2.19,3.09,2.18,2.49-.02,4.98,0,7.47-.01,.36,0,.73-.06,1.07-.16,1.24-.39,2.19-1.59,2.18-3.08-.01-2.49,0-4.98-.01-7.47,0-.36-.06-.73-.16-1.07-.39-1.24-1.59-2.19-3.08-2.18-2.49,.01-4.98,0-7.47,0-.53,0-1.05,.09-1.52,.35-1.06,.58-1.68,1.46-1.71,2.67-.04,1.32,0,2.65,0,3.97Z"/><path class="cls-2" d="M17.01,21.39c-2.42,0-4.39-1.97-4.39-4.39,0-2.41,1.97-4.38,4.38-4.38,2.42,0,4.39,1.97,4.39,4.39,0,2.41-1.97,4.38-4.38,4.38Zm2.86-4.39c0-1.59-1.28-2.87-2.87-2.86-1.58,0-2.85,1.27-2.86,2.86,0,1.59,1.27,2.87,2.86,2.87,1.59,0,2.87-1.28,2.86-2.87Z"/><path class="cls-2" d="M21.58,13.56c-.61,0-1.11-.49-1.11-1.1,0-.6,.5-1.11,1.11-1.11,.6,0,1.11,.5,1.11,1.11,0,.61-.5,1.11-1.11,1.11Z"/></g></g></svg>