<?xml version="1.0" encoding="utf-8"?>
<!-- Generator: Adobe Illustrator 26.5.0, SVG Export Plug-In . SVG Version: 6.00 Build 0)  -->
<svg version="1.1" id="Ebene_2_00000031888883246297325550000016570879095654426503_"
	 xmlns="http://www.w3.org/2000/svg" xmlns:xlink="http://www.w3.org/1999/xlink" x="0px" y="0px" viewBox="0 0 100 100"
	 style="enable-background:new 0 0 100 100;" xml:space="preserve">
<style type="text/css">
	.st0{fill:#FFFFFF;}
</style>
<g id="Ebene_1-2">
	<path class="st0" d="M60.4,38.8c5.3-3.1,8.7-8.6,8.7-14.8c0-9.8-8.6-17.7-19.1-17.7S30.9,14.2,30.9,24c0,6.2,3.5,11.7,8.7,14.8
		c-11.8,4.8-20.3,17.8-20.3,33c0,2.3,0.2,4.6,0.6,6.8C27.2,87.8,38,93.7,50,93.7s22.9-5.8,30.1-15.1c0.4-2.2,0.6-4.4,0.6-6.8
		C80.7,56.6,72.2,43.7,60.4,38.8z"/>
</g>
</svg>
