<svg id="Ebene_1" data-name="Ebene 1" xmlns="http://www.w3.org/2000/svg" viewBox="0 0 134.54 80.97"><defs><style>.cls-1{fill:#1e1e1e;}.cls-2{fill:#ea5901;}</style></defs><title>logo-faltradxxs_RZ</title><path class="cls-1" d="M388.67,403.33h6.51v14H380.3L357,375.42h-6.51v-14h14.88Zm-16.93,2.51-6.33,11.44H350.53v-14H357l6.7-12ZM374,372.91l6.33-11.44h14.88v14h-6.51l-6.7,12Z" transform="translate(-350.16 -336.31)"/><path class="cls-1" d="M436.3,403.33h6.51v14H427.93l-23.26-41.86h-6.51v-14H413Zm-16.93,2.51L413,417.28H398.16v-14h6.51l6.7-12Zm2.23-32.93,6.33-11.44h14.88v14H436.3l-6.7,12Z" transform="translate(-350.16 -336.31)"/><path class="cls-1" d="M465.79,403.33H470v-5.12l-24.19-7.44v-20l9.3-9.3h8.84v14h-4.19v5.12L483.93,388v20l-9.3,9.3h-8.84v-14Zm-1.86,14H445.79V398.67h14v4.65h4.19v14Zm1.86-55.82h18.14v18.61H470v-4.65h-4.19v-14Z" transform="translate(-350.16 -336.31)"/><path class="cls-2" d="M350.16,336.43h14.78v6.67h-6.56v1.13h5.24v5h-5.24v7.14h-8.22v-20Z" transform="translate(-350.16 -336.31)"/><path class="cls-2" d="M370.62,336.43h7.86l7.61,20h-8.88l-0.69-2.62h-4.58l-0.77,2.62H363Zm4.58,12.33-0.88-4.05h-0.05l-0.88,4.05h1.82Z" transform="translate(-350.16 -336.31)"/><path class="cls-2" d="M387.48,336.43h8.22v12.88h6.18v7.09h-14.4v-20Z" transform="translate(-350.16 -336.31)"/><path class="cls-2" d="M404.82,343.21h-5.57v-6.78h19.36v6.78H413V356.4h-8.22V343.21Z" transform="translate(-350.16 -336.31)"/><path class="cls-2" d="M420.76,336.31H429c4.11,0,9.71,1,9.71,6.34a5.58,5.58,0,0,1-2.51,4.74l4.55,8.88h-8.63l-3-6.56H429v6.56h-8.22v-20Zm8.82,8.83c1.3,0,1.88-.69,1.88-1.54s-0.61-1.52-1.88-1.52H429v3.06h0.61Z" transform="translate(-350.16 -336.31)"/><path class="cls-2" d="M448.54,336.43h7.86l7.61,20h-8.88l-0.69-2.62h-4.58l-0.77,2.62h-8.16Zm4.58,12.33-0.88-4.05h-0.06l-0.88,4.05h1.82Z" transform="translate(-350.16 -336.31)"/><path class="cls-2" d="M464.6,356.4v-20H473a12.43,12.43,0,0,1,8.85,3.12,9.62,9.62,0,0,1,.06,13.71A12.43,12.43,0,0,1,473,356.4H464.6Zm8.22-6.51H473a4.16,4.16,0,0,0,3.09-1.13,3.34,3.34,0,0,0,.91-2.34,3.43,3.43,0,0,0-.91-2.4,4,4,0,0,0-3-1.08h-0.25v6.95Z" transform="translate(-350.16 -336.31)"/></svg>