<?xml version="1.0" encoding="utf-8"?>
<!-- Generator: Adobe Illustrator 22.0.1, SVG Export Plug-In . SVG Version: 6.00 Build 0)  -->
<svg version="1.1" id="Ebene_2_1_" xmlns="http://www.w3.org/2000/svg" xmlns:xlink="http://www.w3.org/1999/xlink" x="0px" y="0px"
	 viewBox="0 0 94.6 33.8" style="enable-background:new 0 0 94.6 33.8;" xml:space="preserve">
<style type="text/css">
	.st0{fill:#FFCC00;}
	.st1{fill:#D50029;}
</style>
<metadata><?xpacket begin="﻿" id="W5M0MpCehiHzreSzNTczkc9d"?>
<x:xmpmeta xmlns:x="adobe:ns:meta/" x:xmptk="Adobe XMP Core 5.6-c143 79.161210, 2017/08/11-10:28:36        ">
   <rdf:RDF xmlns:rdf="http://www.w3.org/1999/02/22-rdf-syntax-ns#">
      <rdf:Description rdf:about=""
            xmlns:xmp="http://ns.adobe.com/xap/1.0/"
            xmlns:xmpGImg="http://ns.adobe.com/xap/1.0/g/img/"
            xmlns:xmpTPg="http://ns.adobe.com/xap/1.0/t/pg/"
            xmlns:stDim="http://ns.adobe.com/xap/1.0/sType/Dimensions#"
            xmlns:xmpG="http://ns.adobe.com/xap/1.0/g/"
            xmlns:dc="http://purl.org/dc/elements/1.1/"
            xmlns:xmpMM="http://ns.adobe.com/xap/1.0/mm/"
            xmlns:stEvt="http://ns.adobe.com/xap/1.0/sType/ResourceEvent#">
         <xmp:CreatorTool>Adobe Illustrator CC 22.0 (Windows)</xmp:CreatorTool>
         <xmp:CreateDate>2017-11-27T16:28:36+01:00</xmp:CreateDate>
         <xmp:Thumbnails>
            <rdf:Alt>
               <rdf:li rdf:parseType="Resource">
                  <xmpGImg:width>256</xmpGImg:width>
                  <xmpGImg:height>92</xmpGImg:height>
                  <xmpGImg:format>JPEG</xmpGImg:format>
                  <xmpGImg:image>/9j/4AAQSkZJRgABAgEASABIAAD/7QAsUGhvdG9zaG9wIDMuMAA4QklNA+0AAAAAABAASAAAAAEA&#xA;AQBIAAAAAQAB/+4ADkFkb2JlAGTAAAAAAf/bAIQABgQEBAUEBgUFBgkGBQYJCwgGBggLDAoKCwoK&#xA;DBAMDAwMDAwQDA4PEA8ODBMTFBQTExwbGxscHx8fHx8fHx8fHwEHBwcNDA0YEBAYGhURFRofHx8f&#xA;Hx8fHx8fHx8fHx8fHx8fHx8fHx8fHx8fHx8fHx8fHx8fHx8fHx8fHx8fHx8f/8AAEQgAXAEAAwER&#xA;AAIRAQMRAf/EAaIAAAAHAQEBAQEAAAAAAAAAAAQFAwIGAQAHCAkKCwEAAgIDAQEBAQEAAAAAAAAA&#xA;AQACAwQFBgcICQoLEAACAQMDAgQCBgcDBAIGAnMBAgMRBAAFIRIxQVEGE2EicYEUMpGhBxWxQiPB&#xA;UtHhMxZi8CRygvElQzRTkqKyY3PCNUQnk6OzNhdUZHTD0uIIJoMJChgZhJRFRqS0VtNVKBry4/PE&#xA;1OT0ZXWFlaW1xdXl9WZ2hpamtsbW5vY3R1dnd4eXp7fH1+f3OEhYaHiImKi4yNjo+Ck5SVlpeYmZ&#xA;qbnJ2en5KjpKWmp6ipqqusra6voRAAICAQIDBQUEBQYECAMDbQEAAhEDBCESMUEFURNhIgZxgZEy&#xA;obHwFMHR4SNCFVJicvEzJDRDghaSUyWiY7LCB3PSNeJEgxdUkwgJChgZJjZFGidkdFU38qOzwygp&#xA;0+PzhJSktMTU5PRldYWVpbXF1eX1RlZmdoaWprbG1ub2R1dnd4eXp7fH1+f3OEhYaHiImKi4yNjo&#xA;+DlJWWl5iZmpucnZ6fkqOkpaanqKmqq6ytrq+v/aAAwDAQACEQMRAD8A67nhz1zsVdirsVdirsVd&#xA;irsVdirsVdirsVdirsVdirsVdirsVdirsVdirsVdirsVdirsVdirsVdirsVdirsVdirsVdirsVdi&#xA;rsVdirFfKv5m+TPNOoXOnaNfete2q85YJI3iYqG4krzC8gp608Rmx1nZOo00BPJGoy682jFqYTNR&#xA;O6O83+c/L/lHTYtS1ydre0mmW2R0jeQmRkZwKICfsxnKtFoMuqmYYxcgL7tvwWWXNHGLkmthe299&#xA;Y299bMWt7qJJoWIIJSRQymh3GxzGyYzCRieYNNkTYsK+QS7FUo83eYU8ueWtQ1x4DcrYRGUwBuBe&#xA;hApyIanXwzK0Wm8fNHGDXEatry5OCJl3JP8Alj+YUPnvQbjV4rJrBYLp7QwtIJSSkccnLkFT/ftK&#xA;UzK7W7MOjyjGZcVxvu6kfoa9NqPFjdVuy/NW5DsVdirsVYh+Z35hQ+RNBt9Xlsmv1nuktBCsgiIL&#xA;xyScuRV/99UpTNp2T2YdZlOMS4ajff1A/S4+p1HhRur3Tvyxri695e07WUhNuuoW8dwIS3IoJF5c&#xA;eVBWnyzD1en8HLLHd8JIbcU+OIl3ppmOzdirsVdirsVdirsVdirsVdirsVdirsVdirsVdirsVdir&#xA;sVfEWgxeZ7HUNS816ASJfLtyktwy1JVJndeTL+1H8PFx4Hwrnr2pOGcI4MvLLGh8K+3u9zzMBIEz&#xA;j/C9U/OPz3pnnT8m9J1azpHONWhjvrStWhmFrccl/wBU9VPcZznYfZ09Jr5wly8M0e8cUfwXO1ec&#xA;ZMII/nfoLO9Tu/zSh8neUo/Itna3Il06L9IS3JQGIrBF6XH1JYweVW/ZPTNLhhojnzHUykKmeGuu&#xA;5vofJy5HKIR8MDkxHT/zh/M3y9540/y152sbRxfyQoTBxEiJcP6aurROyEBq1VhX5ZtMnYejz6aW&#xA;bTyl6QefLbetxbjR1eWGQRmBumP5h/nL5ui87nyX5IsIrrUIyI5ZpF9R3mKeoyRqWRFVF+0ze/Sl&#xA;TR2Z2FgOm/MamREf0ct/f0pnqNZPj4MY3U9Vv/zXuPy485RefLCG0SOyRrGSL0TzZn+MEwySLsAM&#xA;OHHoo6vCdNIy9W938OYCyllOOfiDowT8qfM35qaZ5J1GDydosV3Yw3U13ealNQ8GEEQaONWkjDMq&#xA;oGoOR36Zue2dJosmoidRMxkYgCI953Ox/Q4mlyZYwPANr5s98gfnP5l13yD5s1K8jt/0t5dtxcQT&#xA;KhWOQSJIyB05dVaI9CNs0vaXYWHDqcMIk8GU0e/av1uXg1kpY5E84pRov5w/nV5k8vT3mhaBazrZ&#xA;GT69qYFE+BQ/GOOSVByVGBIHInwzK1HYfZ+nyiOXJIcVVH9ZA/U1w1eecbjEbdWR/lP+afnLzn5W&#xA;8x0trabzFpEavp5C+nFO8ySGJHUuoB5w0ryUbj3OYHbPY+n0mbHuRimfV3iqvp5+bdpdVPJCX84J&#xA;F5k88f8AORHlfT21vWbHT49OjdVkQCKQD1DxUERy+pTkQNjmZpez+ytRPw8cp8Xx/SKasmbUQHFI&#xA;CkN+cPnAeb/yQ0HXvQ+rSXOqos8ANQskUNzG/E/ykrUZb2HofyvaOTFd1j+wmJY6vN4mCMvP9aXw&#xA;/mL+cuh/l5pd/YaLBY+WbG2t4E1GULLJICAiSFWcMFdiKUjpv1y6XZfZ+bVTjKZlmlInhG1da5dP&#xA;exGozRxggVEMs1386fMkP5QaL5wsre2i1S9vvqV1G6M8NEWfkyLyDDkYVO526ZrdP2DhOvnp5GRh&#xA;GPEO/wDh/W3z1khhExzJr72O+YPzq/OW10TT/Mf6HtdN0K79OOC4ZRL60hTnUgyc1V+JK/CNu5zO&#xA;03YPZ8sksPHKeSN2OVfZ097Tk1mYREqAiu8wfnZ+cKaFZ+ZYNFttL8v3JSOK5YCf1ZCpJPxOGVGK&#xA;nj8HtyODTdgaA5ThM5TyjpyofLn8fgnJrc3CJVUWV+Z/z2m0n8t9B8wQ2UT65ryP6Ns5b0IzAeM8&#xA;hAPIqHpxXlXfrtmt0ns6MuryYjI+Hj69d+Q/a35ddw4oyr1SY3ffm1+dPlI6bqvm7SbY6LqDCkSh&#xA;Fk4kcioMcjGN+O4Eg/jmfj7F7P1PFDBOXiR/HduPc0y1WfHRmPSXv9tcRXNtFcwnlFMiyRt0qrio&#xA;P3HOJnExJB5h2wNi1XIpdirsVdirsVdirsVdirsVdirsVdirsVfPH/OM0MM+tecIJkWWGVYkljcB&#xA;lZWkmDKwPUEZ3PtXIjHhI5i/ui6fs0XKTCPzm/Le+8kaq62JkPlbVJRNaCpKpNGGpDJ/lIrtwJ6q&#xA;fHlm47C7Vjq4er++gKPu7x76F+fwcbWac4jt9JTr87L/AMwQ6T5Ltme4Xy1Jo1oXSJikctxx/eqx&#xA;FVLCLhx5A0qffMPsDFiM8x28bxJfAdPttt1spAQH8PCGNT2/l4efPKt15c0m+0vRbi4sxC2oVL3E&#xA;qXI9WVDVl4/Eq/Cabds2EZZfy2WOacZ5AJfT0HDsGgiPiRMQRHbn72XecrrVPy6/PKXzZeWEl1pV&#xA;3I8sMigqsiTw+m6q5qvONj9k/hWuazQwhruzRgjKpx/Qb+RcjMThz8ZGzL9a/NrSPPn5decYdPsr&#xA;i1FhYo7tcFPi9VyKAIW6cPHNXg7FyaLV4TOQPFLp5ORPVDLjnQ5Bv/nGv/yV2tf9tC5/6hIMfav/&#xA;AByH9SP+6kvZ390fefuDz38n/wDyXH5nf9s+D/iF1m87c/xvS/1z98HE0n93k9363oX/ADjX/wCS&#xA;u1r/ALaFz/1CQZo/av8AxyH9SP8AupOX2d/dH3n7g83/ACouddtfy5/MWfQjKuppFpvptBX1VjMs&#xA;wmZKbgiEuajcdc33bMMUtXphlrgufPlyjX204elMhjycPPZi1iNAv/J2qFtK1G/82RsJm1VXL2sF&#xA;srIWeWhqCVqnxA9Qa9s2WTxYaiHrhHBy4f4ifL79miPCYHYmff0Zfrv/AKzV5d/7bkn/ABG7zV6f&#xA;/jXyf8KH+8cif+LR/rfrehea/wD1lyD/ALZ+mf8AUTBmj0X/ABsn+vP/AHMnLy/4r8B94ee67/6z&#xA;V5d/7bkn/EbvN5p/+NfJ/wAKH+8cSf8Ai0f6362U/mT/AOs4+Vv+jD/kxJmt7K/41sv+f94b9R/i&#xA;0fg7zh/6zHof/Rr/AMnHx0P/ABsT/wA77lzf4qPgxbzh5V1XUPyY8k63YwPcQabFeR3wjBYoks5Z&#xA;JCAK8QUIY/LNjodZCHaGfHI0ZmNfAcvtaM2InDCQ6WgY9c/JS4sbdJ9G1641EqvqQC5RovUpvwcu&#xA;WP8AwAy46btGMiRPEI9/Dv8Ad+ljx4COUr9762tLaK1tYbWKoigRYowTU8UAUVPyGeZTmZEk8y78&#xA;ChSrkUuxV2KuxV2KuxV2KuxV2KuxV2KrXkRF5OwVfFjQfjhAJ5JAJU/rlp/v+P8A4Jf64fDl3FPB&#xA;Lud9ctP9/wAf/BL/AFx8OXcV4Jdzvrlp/v8Aj/4Jf64+HLuK8Eu5a9xYSLxeSJ1qDRmUio3HXCIy&#xA;HIFfDPcu+uWn+/4/+CX+uDw5dxXgl3LZJ7CVDHJJE6N1RipB+g4RGQ3AKnGe5VihhhUrFGsak1Ko&#xA;Aor47ZEyJ5sAF+BLsVU3ubdGKvKisOqlgDkhAnoyESei365af7/j/wCCX+uPhy7ivBLuWpcWCAhJ&#xA;IlBJJCso3PU7YTGR6FfDPcrI6OoZGDKejA1GQIpBFNSTRR09R1SvTkQK/fhESeSiJPJZ9ctP9/x/&#xA;8Ev9cPhy7ingl3O+uWn+/wCP/gl/rj4cu4rwS7l8csUlfTdXp14kH9WAxI5oII5tSTwRnjJIqHrR&#xA;iAafTiIk8goiTyUY20uJy8ZgR22LLwBNd+oyZEzsbXwz3Kn1y0/3/H/wS/1yPhy7ingl3L45oZK+&#xA;m6vTrxIP6sBiRzQYkc1+BDsVdirsVdirsVdirsVdirRIAqdgOpxV4V+ZvnU67qX1GzeulWbEIQdp&#xA;ZOhk+Q6L9/fPQOw+zPy8OOQ/eS+wd363sOytD4MOKX1y+wdzCc3ztnYq7FXYq7FXYqn/AJa8669o&#xA;FwjWtw0lqCPUspGJiZe4AP2T7jNdruy8OoieIVL+cOf7XD1Whx5huN+/q+g9L1G31PTra/tjWC5j&#xA;WRK9RyHQ+46HPN8+GWKZhLnE08TmxHHMxPMJb5w80WvlzR5L2Wjzt8FpB/PIRt/sR1Y5ldnaCWpy&#xA;iA5dT3Bv0WkOfJwjl19z53vr66vrya8upDLcTsXlc9STnpeLFHHERiKiHuceMQiIx5BD5YyT7yb5&#xA;VufMmsJZpVLVKPeTj9iP2/ym6Lmv7T7QjpcRkfqP0jzcPXasYMfF16PoB20vQtILHja6dYxfQqKP&#xA;vJP3k55wBkz5P505l4sCeaffKRfPnm7zPd+Y9YkvpqpAvwWkHaOMHYf6x6sfHPSOztBHTYhAc+p7&#xA;z+OT2ui0kcGMRHPr70kzPctE6dp93qN9BY2kZkubhgkaDxPc+w6k5VmzRxQM5GohhlyRhEylyD3m&#xA;yttH8heUmeVg3pDnO42eedhQKvz6DwH0555lnl7Q1O3Xl/RDxs55NZn26/YHhmua1e61qk+o3jVm&#xA;maoUfZRR9lF9lGegaTSwwYxCPIfi3r9PgjigIR5BAZkNytZ2lzeXUVrbRmW4nYJFGvUsxoMhkyRh&#xA;EykaiGM5iIMjsA+h/JflS28t6OlqtHu5aSXk4/bkp0B/lXov398807T7QlqspkfpH0jy/X3vEa7W&#xA;HPk4v4eif5r3CdirsVdirsVdirsVdirsVQWsaYmqabPYSTy28dwvCSSAqsnE/aUFlcUYbHbLtNnO&#xA;KYmACR38m3Bl8OYkADXewz/lSflX/lqvv+RkP/VLN7/oo1H82HyP/FO1/l7N3R+39bFNV0D8qtM1&#xA;CaxuNR1Jp4Dxl9L0nUN3FRF1HfNvp9Z2jlgJxhjo99/8U7LDqNbkiJCMKPv/AFoT6n+Uf/Ldq3/A&#xA;xf8AVLLvF7S/mYvt/wCKbePXfzcf2/rd9T/KP/lu1b/gYv8Aqlj4vaX8zF9v/FLx67+bj+39bMLT&#xA;8nfKF1aw3UN3f+lOiyx8niU8XAYVBhqNjmlye0mphIxMYWDXX/inVz7bzxJBELHv/W8889aLoGja&#xA;x+jtIuJrgwrS7aZkYLIT9hSip0HXOl7K1WbPi48oAvlV8viS7vs/Ply4+OYAvlXcxzNm5y6ON5HW&#xA;ONS7uQqKoqSTsABgJAFnkpNCy+i/LVsPL3k60j1J1h+pQGS6YnZKkuw96cqbZ5lrZ/mdTI4xfFLb&#xA;7nhtVLx85MN+I7PEfOnmq58yay929UtI6x2cB/Yjr1I/mbq39md72Z2fHS4uH+I/UfP9Q6PW6HRj&#xA;Bj4evVIM2LmOxVnnlL8y7Ly3pQsrfRfVlY87i5NxxaR/GnpGgA6Cuc92h2HPVZOOWSh0HDy/2Tp9&#xA;Z2VLPPiM67hXL7UH51/Me98zW8Nolv8AUbOM85IhJ6hkcdCzcU2HhTL+y+xYaWRkTxy91V9pbdB2&#xA;ZHTkyvil7qYfm6dm7FXtv5YeTE0TTjrOpKI7+5Tkok29CCld69Gbq3gNvHOD7d7T8efhY/oif9Mf&#xA;xyeT7W13iy8OH0j7S8//ADE85v5i1X07diNLtCVtl6cz0aUj37e3050fY3Zn5bHcv7yXPy8nddma&#xA;HwIWfrPP9TEs3LsnYq9l/KfyT9Qtl12/jpe3K/6HG3WOJh9r/Wcfh884f2g7U8SXgwPojz8z+z73&#xA;lu2Nfxnw4/SOfmf2PR85l0TsVdirsVdirsVUjd2oJBmQEbEFh/XJcEu5lwHua+uWn+/4/wDgl/rj&#xA;4cu4rwS7nfXLT/f8f/BL/XHw5dxXgl3O+uWn+/4/+CX+uPhy7ivBLubF1asQqzISdgAwqT9+PBLu&#xA;XgPcxT8x/Oi+XtL9C1cfpW8BFuOpjTo0pHt0X3+Rzcdi9mfmcly/u48/Py/W7LsvQ+POz9Eefn5P&#xA;BGZmYsxLMxqSdySc9EAp7IBrFWY/lp5Xs9Z1c3GoSRixseLvA7KDK5+yvE/s7fF92aTtzXywYuGA&#xA;PHPr3ft7nV9q6uWKFRvil9j2rV7id9MuY9MuYI79oyts8rjgrHappXp8s4TTxiMgOQEwvenlMMQJ&#xA;gzB4erxt/wAqfM8js73dkzuSzMbgkkncknjnbj2h04FCM/8AS/tepHbGEbVL5Nf8qm8yf8tNj/yP&#xA;P/NOH/RFg/mz+X7U/wAs4u6XyZb+X/5YzaTqJ1TV2hmliA+pRxMXQMeshJC7j9n7/DNN2v26M0PD&#xA;xWAfqv7v1us7S7VGSHBCxfP9SP8AzF0rzDr8UWn6bcWsWnrR7j1JuLySA7KQAfhXr8/lmN2NqcGn&#xA;JnkEjPpQ5Bp7MzYsJMpiRl02YH/yqbzJ/wAtNj/yPP8AzTnRf6IsH82fy/a7n+WcXdL5O/5VN5k/&#xA;5abH/kef+acf9EWD+bP5ftX+WcXdL5Kv/KmvN389p/yNb/mjIf6JdN3T+Q/Ww/lzB/S+X7VN/wAo&#xA;vM6NxeeyVh2MxB/FckPaPTnpP5ftZDtnCekvk1/yqbzJ/wAtNj/yPP8AzTh/0RYP5s/l+1P8s4u6&#xA;Xyd/yqbzJ/y02P8AyPP/ADTj/oiwfzZ/L9q/yzi7pfJkHkz8p7u21eO/1l4JrWD44YoXMgeQHblU&#xA;AcV65re0/aGM8RhiEhI8ydtnB13bEZQMcdgnv7mU+f7TXdV039F6RPbQxzEi9kll4OVHSMAA7H9r&#xA;7vHNR2Rlw4cniZRIkfTQ+39Truzp48c+OYJrlt9rzb/lU3mT/lpsf+R5/wCac6n/AERYP5s/l+13&#xA;/wDLOLul8nf8qm8yf8tNj/yPP/NOP+iLB/Nn8v2r/LOLul8k28rflXLBq8VxrlxavZQfH6MUvMyO&#xA;D8KtUL8Pc/dmFr/aASxGOESEj1I5ftcXV9rgwIxiXEfJ619btP8Af0f/AAS/1zjuCXcXmuCXc765&#xA;af7/AI/+CX+uPhy7ivBLubW6tmYKsyFjsAGBOJhLuXgPc29xBG3F5FRutGYA/jgESeQQIk8gt+uW&#xA;n+/4/wDgl/rh8OXcU8Eu531y0/3/AB/8Ev8AXHw5dxXgl3O+uWn+/wCP/gl/rj4cu4rwS7nj2rWH&#xA;lttVvGk8s6vLIZ5C8sbNwY8zVl+HoeoztdPmzjHGs2IDhG23c9RhyZeAVlxjYIX9H+V/+pV1n/gm&#xA;/wCaMt8bUf6vh+xt8TN/quP8fF36P8r/APUq6z/wTf8ANGPjaj/V8P2L4mb/AFXH+Pi79H+V/wDq&#xA;VdZ/4Jv+aMfG1H+r4fsXxM3+q4/x8WR6LpXlDRdLbzZc6Xc2DWjMLS3u5OUjvSilUIFCW2Wvz981&#xA;up1Gpz5Py0ZxnxczEbD4/f8AJwM+bPln4AlGV8yPx+OTzDXNavda1SfUbxqzTNUKPsoo+yi+yjOs&#xA;0mlhgxiEeQ/FvQafBHFAQjyCAzIbnYq7FXYq7FWdeQfy3u9amjv9SRoNIU8gD8Lz07L3CeLfd7c/&#xA;2v23HADDGbyf7n9vl83Udo9qRxDhhvP7mb/mV5xj8v6WmlaaRHqFzHwjCUAggA48gB0JpRPv7Zoe&#xA;xOzTqcniT3hE/wCmP45uo7L0RzT45/SPtP45vD87565rFWefld5J/TN/+k76OumWbfCjdJZRuF91&#xA;Xq33Zz3b3angQ8OB/eS+wfrdP2tr/CjwR+uX2B6v5s8y2nl3R5b+ejSfYtoa0MkhGw+Xc+2cf2fo&#xA;ZanKIDl1PcHm9HpZZ8giPj7nzrqOoXeo3099dyGS5uGLyOfE9h7DoBnpmHDHFAQiKiHucWOMIiMe&#xA;QQ2Ws078oeWLrzHrEdjFVIF+O7nA2jjHU/M9F98wO0dfHTYjM8+g7y4mt1ccGMyPPoPN7b5mvY/K&#xA;nk2eTTIQgtI0htUpUKXYIGPjTly36nOD0OI6vVAZD9Rs/e8npMZ1OcCZ+rcvnqWWWaV5pWLyyMXk&#xA;djUszGpJPuc9KjERAA5B7YAAUOSzCl2KuxV2KuxV6Z+XflxNK0yTzfqNtJcMin9GWcaF5GJ29QKA&#xA;evRT2FT4ZyvbOt8bINNAgfziTt7v1/J0HaWq8SfgQIH84/o/HuUdWm0XVtQmv77yzrMtzMas3JgA&#xA;BsFUcNgBsMlp45cMBCGbCIj3M8IyY4iMcuOh+O9Cfo/yv/1Kus/8E3/NGXeNqP8AV8P2NviZv9Vx&#xA;/j4u/R/lf/qVdZ/4Jv8AmjHxtR/q+H7F8TN/quP8fF36P8r/APUq6z/wTf8ANGPjaj/V8P2L4mb/&#xA;AFXH+Pizu78jeapruaaLzddQRyyM6QrGxCKxJCj98OnTpmgx9qaeMQDgiSBzvn/sXTQ7QwiIBwxP&#xA;x/Ypf4A83f8AU53f/Ip/+q+T/lfTf8o8fn/x1l/KOD/UY/P/AI67/AHm7/qc7v8A5FP/ANV8f5X0&#xA;3/KPH5/8dX+UcH+ox+f/AB1Vs/InmWO6ikufN15cW6MGlgVXjLqDuvP1WpX5ZDJ2rgMSI4ICXfzr&#xA;/YsZ9oYSCBiiD+PJW86+Q73zRcQl9W+q2cA/dWog5jmftOzeotT26bZDsvtaGkif3fFI9eKvhyY6&#xA;DtCOnB9FyPW/2MZ/5UX/ANrv/p1/6/Ztf9Ff+1/7L/jrn/6IP6H+y/Y7/lRf/a7/AOnX/r9j/or/&#xA;ANr/ANl/x1f9EH9D/Zfsd/yov/td/wDTr/1+x/0V/wC1/wCy/wCOr/og/of7L9jv+VF/9rv/AKdf&#xA;+v2P+iv/AGv/AGX/AB1f9EH9D/ZfsXxfkZEHrLrLMncLbhT95kb9WRl7VGtsf+y/Yg+0B6Q+39jJ&#xA;dD/K7yppTrMYGvrhd1kuiHAPsgCp94OavVdu6nMKvhj/AEf183A1Ha2bIKvhHky2m1Bt4ZpnWPNd&#xA;V/J681TUJ7+8171Li4Yu5+q7DwUfvtgBsM6nT+0ccMBCOL0j+l/x13+HtuOOIjHHsP6X7EJ/yov/&#xA;ALXf/Tr/ANfsu/0V/wC1/wCy/wCOtn+iD+h/sv2Nr+Ra8hy1sla7gW1DT5+qcB9q/wDa/wDZf8dX&#xA;/RB/Q/2X7HpemabZ6ZYQWFnGI7a3UJGv6yfEk7k5y2fNLLMzkbkXQZcsskjKXMsR84/lze+ZtSF1&#xA;NrPoW8S8La1FvyCD9o19Valj1NP1Zueze2oaXHwjHcjzPFz/ANi7PRdpx08OEQs9Tf7Eh/5UX/2u&#xA;/wDp1/6/Zsf9Ff8Atf8Asv8Ajrmf6IP6H+y/Y7/lRf8A2u/+nX/r9j/or/2v/Zf8dX/RB/Q/2X7G&#xA;c+UPKVl5a0z6pA3rTSNzuborxMjdtqtQKOgrnP8AaPaE9Vk4jsByHc6jW6yWefEdh0CbX1jaX1pL&#xA;Z3cQmtp1KSxt0IPyzDxZZY5CUTUg42PJKEhKJoh53f8A5IaZLKWsdSltoyaiOWNZqewIaLOmw+1O&#xA;QD1wEvca/W7zH29MD1RB+z9aE/5UX/2u/wDp1/6/Zd/or/2v/Zf8dbP9EH9D/Zfsd/yov/td/wDT&#xA;r/1+x/0V/wC1/wCy/wCOr/og/of7L9jv+VF/9rv/AKdf+v2P+iv/AGv/AGX/AB1f9EH9D/Zfsd/y&#xA;ov8A7Xf/AE6/9fsf9Ff+1/7L/jq/6IP6H+y/Yr2H5IWsN5DLd6obm3jYNLbiD0+YH7PP1WpX5ZXm&#xA;9qZSiRGHDI9eK6+xhk7eJiRGNHvv9jJ9f8q6/qN2j6f5gk0mziRY4rS3hNBTqSyypX222GanR6/D&#xA;ijU8QySJ5k/sLr9Nq8UI+rHxyPUn9iWf4A83f9Tnd/8AIp/+q+Zf8r6b/lHj8/8Ajrkfyjg/1GPz&#xA;/wCOu/wB5u/6nO7/AORT/wDVfH+V9N/yjx+f/HV/lHB/qMfn/wAdd/gDzd/1Od3/AMin/wCq+P8A&#xA;K+m/5R4/P/jq/wAo4P8AUY/P/jrv8Aebv+pzu/8AkU//AFXx/lfTf8o8fn/x1f5Rwf6jH5/8dZ3n&#xA;PundirsVdirsVdirsVdirsVdirsVdirsVdirsVdirsVdirsVdirsVdirsVdirsVdirsVdirsVdir&#xA;sVdiqr/o3+X+GX/uv6X2MPV5O/0b/L/DH91/S+xfV5O/0b/L/DH91/S+xfV5O/0b/L/DH91/S+xf&#xA;V5O/0b/L/DH91/S+xfV5O/0b/L/DH91/S+xfV5O/0b/L/DH91/S+xfV5O/0b/L/DH91/S+xfV5O/&#xA;0b/L/DH91/S+xfV5O/0b/L/DH91/S+xfV5O/0b/L/DH91/S+xfV5O/0b/L/DH91/S+xfV5O/0b/L&#xA;/DH91/S+xfV5O/0b/L/DH91/S+xfV5O/0b/L/DH91/S+xfV5O/0b/L/DH91/S+xfV5O/0b/L/DH9&#xA;1/S+xfV5O/0b/L/DH91/S+xfV5O/0b/L/DH91/S+xfV5O/0b/L/DH91/S+xfV5O/0b/L/DH91/S+&#xA;xfV5O/0b/L/DH91/S+xfV5O/0b/L/DH91/S+xfV5O/0b/L/DH91/S+xfV5O/0b/L/DH91/S+xfV5&#xA;O/0b/L/DH91/S+xfV5O/0b/L/DH91/S+xfV5O/0b/L/DH91/S+xfV5O/0b/L/DH91/S+xfV5O/0b&#xA;/L/DH91/S+xfV5O/0b/L/DH91/S+xfV5O/0b/L/DH91/S+xfV5P/2Q==</xmpGImg:image>
               </rdf:li>
            </rdf:Alt>
         </xmp:Thumbnails>
         <xmp:MetadataDate>2017-11-27T16:28:36+01:00</xmp:MetadataDate>
         <xmp:ModifyDate>2017-11-27T16:28:36+01:00</xmp:ModifyDate>
         <xmpTPg:MaxPageSize rdf:parseType="Resource">
            <stDim:w>33.372777</stDim:w>
            <stDim:h>11.935648</stDim:h>
            <stDim:unit>Millimeters</stDim:unit>
         </xmpTPg:MaxPageSize>
         <xmpTPg:NPages>1</xmpTPg:NPages>
         <xmpTPg:HasVisibleTransparency>False</xmpTPg:HasVisibleTransparency>
         <xmpTPg:HasVisibleOverprint>False</xmpTPg:HasVisibleOverprint>
         <xmpTPg:PlateNames>
            <rdf:Seq>
               <rdf:li>Cyan</rdf:li>
               <rdf:li>Magenta</rdf:li>
               <rdf:li>Yellow</rdf:li>
               <rdf:li>Black</rdf:li>
            </rdf:Seq>
         </xmpTPg:PlateNames>
         <xmpTPg:SwatchGroups>
            <rdf:Seq>
               <rdf:li rdf:parseType="Resource">
                  <xmpG:groupName>Standard-Farbfeldgruppe</xmpG:groupName>
                  <xmpG:groupType>0</xmpG:groupType>
               </rdf:li>
            </rdf:Seq>
         </xmpTPg:SwatchGroups>
         <dc:format>image/svg+xml</dc:format>
         <xmpMM:DerivedFrom rdf:parseType="Resource"/>
         <xmpMM:DocumentID>xmp.did:ef94fef5-65a5-0442-81a3-7b274d58a75e</xmpMM:DocumentID>
         <xmpMM:InstanceID>xmp.iid:ef94fef5-65a5-0442-81a3-7b274d58a75e</xmpMM:InstanceID>
         <xmpMM:OriginalDocumentID>xmp.did:ef94fef5-65a5-0442-81a3-7b274d58a75e</xmpMM:OriginalDocumentID>
         <xmpMM:History>
            <rdf:Seq>
               <rdf:li rdf:parseType="Resource">
                  <stEvt:action>saved</stEvt:action>
                  <stEvt:instanceID>xmp.iid:ef94fef5-65a5-0442-81a3-7b274d58a75e</stEvt:instanceID>
                  <stEvt:when>2017-11-27T16:28:36+01:00</stEvt:when>
                  <stEvt:softwareAgent>Adobe Illustrator CC 22.0 (Windows)</stEvt:softwareAgent>
                  <stEvt:changed>/</stEvt:changed>
               </rdf:li>
            </rdf:Seq>
         </xmpMM:History>
      </rdf:Description>
   </rdf:RDF>
</x:xmpmeta>
                                                                                                    
                                                                                                    
                                                                                                    
                                                                                                    
                                                                                                    
                                                                                                    
                                                                                                    
                                                                                                    
                                                                                                    
                                                                                                    
                                                                                                    
                                                                                                    
                                                                                                    
                                                                                                    
                                                                                                    
                                                                                                    
                                                                                                    
                                                                                                    
                                                                                                    
                                                                                                    
                           
<?xpacket end="w"?>
	</metadata>
<g>
	<rect class="st0" width="94.6" height="33.8"/>
</g>
<g>
	<path d="M20.8,5.1h1.2l2.8,3.6l0.5,0.8h0.1V5.1h1.3v6.7h-1.2l-2.8-3.6l-0.6-0.8h-0.1v4.4h-1.4V5.1z"/>
	<path d="M29.2,11.9c-0.5,0-0.8-0.1-1.1-0.4c-0.2-0.2-0.4-0.6-0.4-1c0-0.5,0.1-0.9,0.5-1.1C28.5,9.1,29,9,29.6,8.9l1.1-0.1V8.8
		c0-0.2,0-0.3,0-0.4c0-0.1-0.1-0.2-0.1-0.3C30.5,8.1,30.4,8,30.2,8c-0.1,0-0.3,0-0.5,0c-0.2,0-0.5,0-0.8,0c-0.3,0-0.5,0.1-0.8,0.1
		l-0.1-1C28.4,7,28.7,7,29,6.9c0.3,0,0.6,0,0.9,0c0.8,0,1.4,0.1,1.7,0.4s0.6,0.7,0.6,1.2v3.3H31l-0.1-0.6h-0.1
		c-0.2,0.2-0.5,0.4-0.8,0.5C29.7,11.8,29.5,11.9,29.2,11.9z M29.8,10.8c0.2,0,0.3,0,0.5-0.1c0.2-0.1,0.3-0.1,0.4-0.2V9.6l-0.7,0.1
		c-0.3,0-0.5,0.1-0.6,0.2c-0.1,0.1-0.2,0.2-0.2,0.4C29.3,10.6,29.4,10.8,29.8,10.8z"/>
	<path d="M35.6,11.9c-0.8,0-1.5-0.2-1.9-0.6c-0.4-0.4-0.6-1-0.6-1.9c0-1.7,0.8-2.5,2.5-2.5c0.3,0,0.5,0,0.8,0C36.6,6.9,36.8,7,37,7
		v1.2c-0.5-0.1-0.9-0.1-1.3-0.1c-0.4,0-0.7,0.1-0.9,0.3c-0.2,0.2-0.3,0.5-0.3,1c0,0.5,0.1,0.8,0.3,1c0.2,0.2,0.5,0.3,0.9,0.3
		c0.3,0,0.5,0,0.7,0c0.2,0,0.4,0,0.6-0.1v1.2c-0.2,0-0.4,0.1-0.7,0.1C36.1,11.9,35.8,11.9,35.6,11.9z"/>
	<path d="M38,4.5h1.5v2.9c0.4-0.2,0.8-0.3,1.1-0.4s0.6-0.2,0.9-0.2c0.4,0,0.8,0.1,1,0.4c0.2,0.2,0.4,0.6,0.4,1v3.6h-1.5V8.7
		c0-0.2,0-0.4-0.1-0.5C41.1,8.1,40.9,8,40.7,8c-0.2,0-0.3,0-0.6,0.1s-0.5,0.1-0.7,0.2v3.4H38V4.5z"/>
	<path d="M43.9,6.9h1.3l0.1,0.6h0.1c0.5-0.2,0.8-0.4,1.2-0.5s0.6-0.2,0.9-0.2c0.4,0,0.8,0.1,1,0.4s0.4,0.6,0.4,1v3.6h-1.5V8.7
		c0-0.2,0-0.4-0.1-0.5C47,8.1,46.9,8,46.7,8c-0.2,0-0.4,0-0.6,0.1s-0.5,0.1-0.7,0.2v3.4h-1.5V6.9z"/>
	<path d="M50.9,11.9c-0.5,0-0.8-0.1-1.1-0.4c-0.2-0.2-0.4-0.6-0.4-1c0-0.5,0.1-0.9,0.4-1.1c0.3-0.2,0.8-0.4,1.4-0.4l1.1-0.1V8.8
		c0-0.2,0-0.3,0-0.4c0-0.1-0.1-0.2-0.1-0.3C52.2,8.1,52.1,8,52,8c-0.1,0-0.3,0-0.5,0c-0.2,0-0.5,0-0.8,0c-0.3,0-0.5,0.1-0.8,0.1
		l-0.1-1c0.3-0.1,0.7-0.1,1-0.1c0.3,0,0.6,0,0.9,0c0.8,0,1.4,0.1,1.7,0.4S54,8,54,8.5v3.3h-1.2l-0.1-0.6h-0.1
		c-0.2,0.2-0.5,0.4-0.8,0.5C51.5,11.8,51.2,11.9,50.9,11.9z M51.6,10.8c0.2,0,0.3,0,0.5-0.1s0.3-0.1,0.4-0.2V9.6l-0.7,0.1
		c-0.3,0-0.5,0.1-0.6,0.2c-0.1,0.1-0.2,0.2-0.2,0.4C51,10.6,51.2,10.8,51.6,10.8z"/>
	<path d="M55.1,4.5h1.5v2.9C57,7.3,57.4,7.1,57.7,7c0.3-0.1,0.6-0.2,0.9-0.2c0.4,0,0.8,0.1,1,0.4c0.2,0.2,0.4,0.6,0.4,1v3.6h-1.5
		V8.7c0-0.2,0-0.4-0.1-0.5S58.1,8,57.9,8c-0.2,0-0.3,0-0.6,0.1s-0.5,0.1-0.7,0.2v3.4h-1.5V4.5z"/>
	<path d="M61,6.9h1.3l0.1,0.6h0.1c0.3-0.2,0.7-0.4,0.9-0.5c0.3-0.1,0.6-0.2,0.8-0.2c0.6,0,1,0.2,1.2,0.7h0c0.3-0.2,0.7-0.4,0.9-0.5
		c0.3-0.1,0.6-0.2,0.8-0.2c0.4,0,0.8,0.1,1,0.4c0.2,0.2,0.4,0.6,0.4,1v3.6h-1.5V8.7c0-0.2,0-0.4-0.1-0.5c-0.1-0.1-0.2-0.2-0.4-0.2
		c-0.1,0-0.3,0-0.4,0.1c-0.2,0.1-0.4,0.1-0.5,0.2v3.4H64V8.7c0-0.2,0-0.4-0.1-0.5c-0.1-0.1-0.2-0.2-0.4-0.2c-0.1,0-0.3,0-0.5,0.1
		c-0.2,0.1-0.4,0.1-0.5,0.2v3.4H61V6.9z"/>
	<path d="M71.9,11.9c-1.7,0-2.5-0.8-2.5-2.5c0-0.8,0.2-1.5,0.6-1.9c0.4-0.4,1-0.6,1.9-0.6c1.4,0,2.1,0.7,2.1,2.2
		c0,0.3,0,0.5-0.1,0.7h-3.1c0,0.2,0.1,0.4,0.1,0.5s0.1,0.2,0.2,0.3c0.1,0.1,0.2,0.1,0.3,0.2c0.1,0,0.3,0,0.5,0c0.1,0,0.3,0,0.4,0
		c0.2,0,0.3,0,0.5,0c0.2,0,0.3,0,0.5-0.1s0.3-0.1,0.4-0.1l0,1.1c-0.3,0.1-0.6,0.2-0.9,0.2C72.6,11.9,72.3,11.9,71.9,11.9z M71.9,7.9
		c-0.3,0-0.5,0.1-0.7,0.2S71,8.6,70.9,9h1.8c0-0.4-0.1-0.7-0.2-0.8S72.2,7.9,71.9,7.9z"/>
</g>
<g>
	<path class="st1" d="M30.7,19.7c-0.4,0.6-1.1,1.5-1.5,2.1c-0.2,0.3-0.6,0.8,0.7,0.8c1.3,0,6.7,0,6.7,0s1.1-1.5,2-2.7
		c1.2-1.7,0.1-5.2-4.3-5.2c-3.9,0-17.4,0-17.4,0l-3,4.1c0,0,15.6,0,16.4,0C31.2,18.8,31.1,19.1,30.7,19.7z M25.8,23.6
		c-1.3,0-0.9-0.5-0.7-0.8c0.4-0.6,1.1-1.5,1.5-2.1c0.4-0.5,0.4-0.9-0.4-0.9c-0.8,0-7.5,0-7.5,0l-6,8.2c0,0,10.8,0,14.7,0
		c4.9,0,7.6-3.3,8.4-4.5C35.9,23.6,27.2,23.6,25.8,23.6z M35.4,28h8.7l3.3-4.5l-8.7,0C38.7,23.6,35.4,28,35.4,28z M57.7,14.7
		l-3.3,4.5h-3.9l3.3-4.5h-8.6l-5.8,7.9h21.2l5.8-7.9H57.7z M47.9,28h8.6l3.3-4.5h-8.6C51.2,23.6,47.9,28,47.9,28z M0.4,25.3v0.9h12
		l0.7-0.9H0.4z M14.4,23.6h-14v0.9h13.3L14.4,23.6z M0.4,28h10.8l0.7-0.9H0.4V28z M81.9,26.3h12.7v-0.9h-12L81.9,26.3z M80.6,28h14
		v-0.9H81.3L80.6,28z M83.9,23.6l-0.7,0.9h11.4v-0.9H83.9z M72.6,22.6l5.8-7.9h-9.2c0,0-5.8,7.9-5.8,7.9H72.6z M62.7,23.6
		c0,0-0.6,0.9-0.9,1.3c-1.1,1.5-0.1,3.2,3.4,3.2c4.1,0,13.9,0,13.9,0l3.3-4.5L62.7,23.6L62.7,23.6z"/>
</g>
</svg>
