<?xml version="1.0" encoding="utf-8"?>
<!-- Generator: Adobe Illustrator 22.0.1, SVG Export Plug-In . SVG Version: 6.00 Build 0)  -->
<svg version="1.1" id="svg2785" xmlns:svg="http://www.w3.org/2000/svg"
	 xmlns="http://www.w3.org/2000/svg" xmlns:xlink="http://www.w3.org/1999/xlink" x="0px" y="0px" viewBox="0 0 1024 507"
	 style="enable-background:new 0 0 1024 507;" xml:space="preserve">
<style type="text/css">
	.st0{fill:#FE0000;}
	.st1{fill:#FFFFFF;}
</style>
<metadata><?xpacket begin="﻿" id="W5M0MpCehiHzreSzNTczkc9d"?>
<x:xmpmeta xmlns:x="adobe:ns:meta/" x:xmptk="Adobe XMP Core 5.6-c143 79.161210, 2017/08/11-10:28:36        ">
   <rdf:RDF xmlns:rdf="http://www.w3.org/1999/02/22-rdf-syntax-ns#">
      <rdf:Description rdf:about=""
            xmlns:xmp="http://ns.adobe.com/xap/1.0/"
            xmlns:xmpGImg="http://ns.adobe.com/xap/1.0/g/img/"
            xmlns:xmpTPg="http://ns.adobe.com/xap/1.0/t/pg/"
            xmlns:stDim="http://ns.adobe.com/xap/1.0/sType/Dimensions#"
            xmlns:xmpG="http://ns.adobe.com/xap/1.0/g/"
            xmlns:dc="http://purl.org/dc/elements/1.1/">
         <xmp:CreatorTool>Adobe Illustrator CC 22.0 (Windows)</xmp:CreatorTool>
         <xmp:CreateDate>2018-01-11T17:21:54+01:00</xmp:CreateDate>
         <xmp:Thumbnails>
            <rdf:Alt>
               <rdf:li rdf:parseType="Resource">
                  <xmpGImg:width>256</xmpGImg:width>
                  <xmpGImg:height>128</xmpGImg:height>
                  <xmpGImg:format>JPEG</xmpGImg:format>
                  <xmpGImg:image>/9j/4AAQSkZJRgABAgEASABIAAD/7QAsUGhvdG9zaG9wIDMuMAA4QklNA+0AAAAAABAASAAAAAEA&#xA;AQBIAAAAAQAB/+4ADkFkb2JlAGTAAAAAAf/bAIQABgQEBAUEBgUFBgkGBQYJCwgGBggLDAoKCwoK&#xA;DBAMDAwMDAwQDA4PEA8ODBMTFBQTExwbGxscHx8fHx8fHx8fHwEHBwcNDA0YEBAYGhURFRofHx8f&#xA;Hx8fHx8fHx8fHx8fHx8fHx8fHx8fHx8fHx8fHx8fHx8fHx8fHx8fHx8fHx8f/8AAEQgAgAEAAwER&#xA;AAIRAQMRAf/EAaIAAAAHAQEBAQEAAAAAAAAAAAQFAwIGAQAHCAkKCwEAAgIDAQEBAQEAAAAAAAAA&#xA;AQACAwQFBgcICQoLEAACAQMDAgQCBgcDBAIGAnMBAgMRBAAFIRIxQVEGE2EicYEUMpGhBxWxQiPB&#xA;UtHhMxZi8CRygvElQzRTkqKyY3PCNUQnk6OzNhdUZHTD0uIIJoMJChgZhJRFRqS0VtNVKBry4/PE&#xA;1OT0ZXWFlaW1xdXl9WZ2hpamtsbW5vY3R1dnd4eXp7fH1+f3OEhYaHiImKi4yNjo+Ck5SVlpeYmZ&#xA;qbnJ2en5KjpKWmp6ipqqusra6voRAAICAQIDBQUEBQYECAMDbQEAAhEDBCESMUEFURNhIgZxgZEy&#xA;obHwFMHR4SNCFVJicvEzJDRDghaSUyWiY7LCB3PSNeJEgxdUkwgJChgZJjZFGidkdFU38qOzwygp&#xA;0+PzhJSktMTU5PRldYWVpbXF1eX1RlZmdoaWprbG1ub2R1dnd4eXp7fH1+f3OEhYaHiImKi4yNjo&#xA;+DlJWWl5iZmpucnZ6fkqOkpaanqKmqq6ytrq+v/aAAwDAQACEQMRAD8A55nHP0e7FXYq7FXYq7FX&#xA;Yq7FXYq7FXYq7FXYq7FXYq7FXYq7FXYq7FXYq7FXYq7FXYq7FXYq7FXYq7FXYq7FXYq7FXYq7FUy&#xA;8uaDfeYNcs9HsADdXknBC2yqACzM1K7KoLHLMWMzkIjmXE12shpsMss/piPx8ygrq3ktrma3k2kh&#xA;do3Hupof1ZAijTkY5icRIciLUsDN2KuxV2KuxV2KuxV2KuxV2KuxV2KuxV2KuxV2KuxV2KuxV2Ku&#xA;xV2KuxV2KuxV2KuxV2KuxV2KvSfy/spfJnm/yjrWsOkdrrccjxjvHFOphid2Ow5Fw3suZ+mj4U4S&#xA;lyk8n21lGv0uow4t5YiPiY+ogfKvemf58flxLpOqyeZ9PjJ0vUJK3iqP7m5c7k/5Mp3r/Nt3GWdo&#xA;6XhlxjkfvcP2P7dGbGNNkP7yA9P9KP64/d8Xkeax7h2KuxVN9B8o+ZtfZl0bTZ70IaPJGv7tSezO&#xA;aID8zluPDOf0i3B1naWn0397OMPfz+XNMtQ/K78wdPiM1zoV16airNEomoPE+kXplktJljziXEwe&#xA;0Ghymo5Y357ffTFsxncuxV2KuxV2KuxV2KuxV2KuxV2KuxV2Ksn8kfl9rXm+7MNhLb28atxeW4lC&#xA;705EJGKyOQu+y08SMyNPppZTtTp+1u2sOhjcxKR7oj7zyHzW/mF5OHlDzE2jfWvrhSGOVp+Hp1Mg&#xA;qQF5NsPnjqcHhT4btPYvan57B43Dw7kVd8vkxrMd27sVdirsVdirsVdirsVdiq+KGaUsIkaQopd+&#xA;IJoq7ljTsPHCBbGUgOZp9ESeXNP/ADM/KPR2sGRNZ0m3WG33A4zwxrHLC/8AKsoRWH+xObw4hqMA&#xA;r6ovlsddk7J7Uycd+FllZ/qk2JDzjZHzVfyq80nzRouo+Q/NcTNqVjC0Eqy7PJbqfTPKv+7ImoK/&#xA;I9a4dHm8SJxT5hh7Rdn/AJPNDW6Y/u5mxXIS5/6WX6w+e9Z0u40vVLqwnVle2leOrqVLBWKhqHsa&#xA;ZpJwMSQX0/S6iObHGcf4gCg8g5DsVe//AJ3abqnlzyPoel+XhJb6Dbl4tRaCq8m4p6RlK70duZau&#xA;xanembrXxOPHER+nq+ZeyefHqtZlyZ6lmlRjfxuvdtXkwD8o/wAx7zyz5ht4L+9ceXrmsd3FIWdI&#xA;qj4JUUcuJVgK0G4+jMPRao45UT6XpvaXsKGrwGUIjx47xI5nvB/HN5/mC9O7FXYq7FXYqq2trc3d&#xA;zFa2sTT3EzBIoYwWZmY0AUDcnCASaDDJkjCJlI1EcyU586+Ubrypq8elXcwluvq8M8/EUCPKtWjB&#xA;q3LgduXfLs+E45cJ504HZXaUdbiOWIqPEQPMDr5X3JDlDsnYq7FXYq7FXYqyz8p//JjaB/zFD/iJ&#xA;zJ0f97H3uk9o/wDEMv8AVT7/AJyD/wDJjTf8wsH/ABE5d2l/e/B1vsV/iA/rSea5gPWuxV2KuxV2&#xA;KuxV2KuxV61+UP5NReZbZdd14umjlitraxkq9wUPFmZhusYIptufbvs9FofEHFL6fveI9pvak6SX&#xA;g4P73qf5v6z9nvfQGn+WvL+nac+m2OnwW1jKhjlgjRVDqw4nnTdqg7k5uo4oxFAbPmWbX58uQZJz&#xA;lKYNgk8vd3PD1Gp/k75+CkvL5O1h+pqQsdf+TsHL/ZL89tRvpcv9CX4+x9EPh9u6K9hqsQ+3/iZf&#xA;Yft6fc+S0f8AMzTPNtiAkTWdwmoyIQFkeiJAdj8RZZG38EGbA4P3wmO43+h4/H2qR2dPSz58ceHy&#xA;5mXyIH+mLJdY0HRtZtTa6rZQ3sBrRJkDUr3UndT7jfMieOMxUhbqdLrM2CXFikYHyL5x/OL8pIfK&#xA;fp6vpDO+i3EnpPC55PbyEVUcurI1DQncdDXNFrdH4fqj9P3Pqvsx7SnW3iy0MsRd/wA4freX5rns&#xA;XuP5dfnvp0elw6D5wjLRRoII9RC+qrRAcQtxHuxoNuSg17jqTuNN2gK4cnz/AFvnXbnsfkOQ59Id&#xA;yb4eW/8ARP6DVdD0TXzd+SvlPzLpba35JmhhuHVpI4YHDWk5H7C0JETdtth3AyzNoIZBxY/2OH2Z&#xA;7V6rSZPB1gJjysj1x8/6Q+3zeT/lpoXl3UfN62fmicWen28css6Sv6IZ4f8AdbuSvEdSe+1M1ulx&#xA;wlOp7B7Xt7WZ8Wl49MOKciAKF8+oHV6F+W/nx9b87v5WudK05vLt0LiO3tLe2j9KJYVZ1blT4wwS&#xA;hLdSR0zN0uo48nAQOE30eX7d7HGn0Y1McmTx48JJMjZuh8KvowTztpWgeVvzO1CyksTf6NayrINP&#xA;9VoarPAsqp6ihmARpPpAzDzwjjzEVcR0ek7J1OfWdnQmJcGWQriq/plV1y3r7XrX5mz+VPLHlDRN&#xA;TsfLlnPWVTp9rMgEEbzRF/UmjSnrEBaULdTXNnqzDHCJER5PEdgQ1Os1WXHPNMbeoj6iAaqJP0/L&#xA;yUPKuo6b+afkrWbfWtKtLbULAUhuLWMoELIzROnIsylSp5DlQjI4ZDUY5CQFht7RwZOx9ZjlhyTl&#xA;CfMSN3vuD0922zz78i9emsfO9jp0VrbONQdklupI+VwiLE7cYpK/ACRvtvmF2fkrIBQ3en9r9GMm&#xA;jlkMpegcgfSdxzHVk35z+dpNI87S2S6Lo98Bbwt9YvrKO4m+IHbmx6DtmRrs/DkrhifeHUey3ZIz&#xA;6MT8XND1HaEzEfJjHlmTyxonkC780kWd75skujb2dneBXWFQVLSR23RiFevIig2+nHxcEMRnsZ31&#xA;/U7fXjU6jXR03rhphDilKN789jLpy5cz9050eS3/ADE/KbWL3XbKAatpYuPq2oQwrG1YYhMjAqB1&#xA;Pwuo2I98y4VnwEyHqF7vO6oS7L7Txwwyl4WThuJN8zwn9YLDPyKj8r3vmmPS9V0aO/vJxJJbXkzl&#xA;44/STnxMBHBq8T8R9sxezxAzqQs/jo7/ANrzqcemOTFkMIigYjmbNfVz+DIfPv5h2/k3z/qdpo/l&#xA;/T3uOULX17do0ksnqQo4WLiyCJQjBab1O+X6jUjFlIjEebq+xuxJa/QwllzZBHfhjHYCpEb8+I37&#xA;u5b+eWhaDdeU9C86adaJY3GpGETRxqF5pdQNOhfiACycKVpvX5YO0McTCOQCr/SLT7I6zPDVZdHk&#xA;kZxx3V9OGXCa8jaF8k+U9C8t/l3c/mDrtkmpXbCulWM45RLWT0o2dDsxZzy9l3G+RwYY48RyyFno&#xA;G7tbtLNq9fHQ4ZHHH+OQ58rNHyG3v57Nfl3+a/mXVfPGm2Gow2U1ldzcEhW2ij9A0PFoXUcwV/yi&#xA;dsdNrJyyAGqPkntv2c0+HRznjMxOMefETxf1hy+VJd+fFtPd/mh9VgXnPPDaxRIO7v8ACo+knK+0&#xA;Reah5OV7H5BDs7ilyEpE/Bm+reRPMHk7Q9PsfI2ixahrUyltU12VIJJFYADjELg0UMSdqUoO5Ncz&#xA;J6eWKIGONy6n+157TdsYNdmnPWZTDEPoxgyA+PDz/HR2ueSb/wAzflte6j5m0iLS/N2lpNLHcwrF&#xA;GZ0gT1Bz9MlSHWq0J2YVFBjkwHJiJmKmF0na0NJ2hHHp8hyaXJQo2eEyNbX3c/dtup/kFZeUtV0W&#xA;+4aLHDqlmEhuNQkb13k9ZCC6cx+6+yfhX8cHZ0YSifTuOrL2zy6rDmjeUnHKyIj0gUeRr6veWD3/&#xA;AOa2jN5e1Lyxp2gQ2eiyQNDp8y/FdcwwpLOx2YvSrU39zmJLWR4TARqPTveiw+zuUZ4anJlMsolc&#xA;h/DXdH3dHmua9612KuxV2KvqD8ifOOlap5QtdFWRY9U0pTHLbE0Zo+RKSoO4oaN4H5jOh7PzxljE&#xA;eofHvbDsvLh1Us1Xjybg+fUH9Hl8XpmbB5Fjvn/ylbeavK17pMiqbhkMljI23p3CAmNq70Ffhb/J&#xA;JyjU4RkgYu07G7Slo9THKPp5S849f1jzpN9IsTYaTZWLP6htIIoDJ/MY0C1+mmWwjUQO5wtTl8TL&#xA;KfLikT8zaLyTQ8Y/5yH866Ymir5WtpFm1G4ljlvFUg+jHGeShvB3alB4fMV1XaeccPAOb33sR2Vk&#xA;Ob8zIVCIIj/SJ/QPv+L5/s0V7uBHFVaRVYeILAHNJHm+nZSREkdzM/zZ8g3PlTzLcehbsmiXjmXT&#xA;pRUoFbcwljX4kO1Ca0ocy9ZpjjnsPSeToPZvtmOt04s/voipDr/W+P3ss/5xxl1i21PVrp3aHy3F&#xA;as17NKeMCzqylCCduQTlX/J69syezDIEn+CnS+3McU8eOI3zmXpA+qt7+F18fil/5e+VdB8//mNr&#xA;17fczpYmnv47RSUaQTzkorEUYKA29N8hpsMc2WRPLn9rk9t9o5+zNBihD+84YwvnXDHdk/kLU/N8&#xA;n5mppVro50XyvYT3KXVpa2wiiAWGRYTcTBayOzcSKtv1AzI088njcIHDAX0+91HbGn0o7O8WWTxd&#xA;ROMalKVn6o8XDHoOfTyLCfz10rU4/wAw9W1B7SZbCZrVIbsxsIXb6pGOKyU4k/u22r2OYnaED4pN&#xA;bbfc9B7IajGdBjxiQ4xxXG9/rPTn1HzZ3+fUUq/lv5cqjD05oBJUH4T9WYUPhmZ2iP3Ufx0ec9jp&#xA;D+UM2/MS/wB2EP8A843xStoPmchGIcxKhAO7COSoHifiGR7LHpk2e3Uh42D4/fF5x+Ucsdt+ZehG&#xA;c+n/AKQ0XxbfG8bIq/MswGYGiNZo29X7SxM+z8vDv6b+RB+5l/56eUvM+oefvrGn6VdXkFxbRCKW&#xA;3heVSUBDAlAaEe+ZXaGGcstgE7Oj9kO0tPi0PDPJGJjI3ZA5+9U8teStL0j8qm86x6Wmu67MC0EF&#xA;whlgt0ExiLeiNpOIUseQ+4A4cWARw+JXFL7mGv7VyZ+0/wAmchw4RzINSl6b+rpfIUzP8vp/OWq/&#xA;lx5il12Gf61dR3C6dA8PogxG24osMSqoClulBvmVpjklilxczdfJ0PbUNJh1+EYTHhiY8Ru9+Pfi&#xA;O+9PMvyQ07ULP80rGC7tZreaOCd5IpY2RlVoG4sysAQDyFMwNBEjMAQ9d7W58eTs2UoyEgZR5G/4&#xA;kD+eaOv5o6yWUgOLYqSKVH1WIVH0gjIdof3x+H3OR7IkHs3H/nf7uTPfzYhmH5G+UlKMDF+jfVFD&#xA;VaWEi/F4fEaZmawf4PD/ADfueb9nJD+WdRvz8Sv+VgR9jZjzv+QkWnaXSTUrCJIxbg7+vaMDwPvJ&#xA;H9n/AFhk4x8bTVHmP0ONmy/yf22cmXbHMk35T6/A8/c80/Kny35gX8x9KD6bcx/Urjndl4nQRKqm&#xA;pcsBx+nMDR4peKNjs9b7Ra7AdBkqcTxx9O439zJ/zkh1TTPzUs/MhsZpNNsfqNy1ysbGL91KPhL0&#xA;KgllpQ5ka4GOYTrYU6f2Xljzdmy0/FEZJ+JGr33HdzZB+e/k+98zadpfmfy/GdRjhiKypbjm7W8n&#xA;7yOVAN2AJNQN9/nl3aGA5AJx3dZ7H9pw0mTJps54CTte3qGxB/HT3PD7fyt5juLe5uYtNuPq1lG0&#xA;t1O0bJHGiCrcnai126dTmoGGZBNHZ9En2jp4yjEzjxTNAXZN+Qe1/wDOMSONO19yp4NNbgNTYkLI&#xA;SK+1Rm27J5S+D597fkeJiHlL9DwF0dHZHUq6khlIoQRsQQc0r6YCCLDWKXYq7FXYqq2l3d2dzHdW&#xA;kz29zEeUU0TFHU+KstCMIkQbDDJijkiYyAlE9DuHpmgf85Ded9OjSHUFg1aJRTnMpjmoOn7yOin5&#xA;lSc2GPtLJHn6nkdb7E6PKbhxYz5bj5H9bKYf+cnrcoPW8vOH78LoEfjEMyB2sP5v2uml/wAD+V7Z&#xA;tv6n/Hltz/zk8np0tvLx9Q9Gkuth9Cxb/eMT2t3R+1OP/gfm/Vm28o/8eYZ5j/Pnz7rEbQQTR6Vb&#xA;tsRZqVkI95XLOD7rxzFy9o5JbDb3O/0PsdosBuQOSX9Ll8ht87eeSSSSSNJIxeRyWd2NSSdyST1J&#xA;zBJepjEAUOTSsysGU0ZTVSOoIwKRezPIPzv/ADDS2Ntc3sN/CRThdW8Mm3vRV5fTmaNflqib+Dzc&#xA;/ZLQGXFGJgf6MpD9KUeYfzI84a9Ziwvr7hpw6WNsiQQ0rWhWMLyAP81cqyarJMUTs52i7C0umnxw&#xA;j+8/nSJkft5fBK/L/mPWfL2pJqWj3LWt4gK81AYMp6qysCrKadCMrx5ZQNxNFzNbocOqxnHljxRT&#xA;zU/zY8/6le2l3c6tJzspFmt4olSKIOhqC0aBVf8A2VdtsunrMsiCTyddp/ZvQ4oSjHGPWKN2TXvP&#xA;L4IO5/MPznd6vBq11qklzeWrGS29ZY5YY3KleSQOrQg0bb4NuvXIHU5DLiJ3/HRvx9iaSGI4owEY&#xA;y2NWCffIHi+1MNR/OD8xNSsZrC/1Rbi0uFKTQva2lGU/88qg+BG4yyWtyyFE7e4fqcbB7MaDFMTh&#xA;j4ZR5Hjn/wAUt0r83PzA0nT4dP03U1trO3UJFElrabBQBuTESx23Ymp74Ia3LEUDt7h+pOp9mtDn&#xA;mcmSHFKXM8c/+K+zkx/V9f1bV9UbVb6YNqDEM08UccB5LuGpCsa8v8qlcpnklI8R5uz02ixYMfhQ&#xA;Ho7iTL/dE7eSeaj+a35hajpZ0y81qZ7NlCuqrHG7KBSjyoqyMD3q2/fLZazLIUZbOuwezuhxZPEh&#xA;iHF8SPgCaHy2WeWfzN86+WbF7HSNQMNmzFxC8ccqqx6lPUVuNfbbHFq8mMVE7Mu0OwNJq58eWFy7&#xA;7I+dOtvzQ8/W899PFrU/r6iFFzKxVmolePDkD6dOR+xTEavKLPFzXJ7P6KQjE4o1Dl8e/v8AjazR&#xA;PzJ87aJJcy6fqbJcXjB7q4mihuJpCAAOUs6SPQU6Vpgx6rJC6PNlq+wtHqBEZIemPIAyiB8IkBvV&#xA;PzK85ate2d9qN7Fc3Vgxa1le0tCVJBG49KjDfo1RXfrjPVZJEEnceQRp+wdJhhKGOJjGfP1z/wCK&#xA;2+COu/zm/Mi8tpLW61VZ7eZeMsUlpZsrA9iDDk5a7KRRP2D9Tj4vZbs/HISjjqQ68c/+KSDy55s8&#xA;xeW7trrRb6SzlcASBaMjgdA8bBkanaoynFmljNxNOy13ZuDVx4c0RIfaPceYTnWvza/MDWFiS71Z&#xA;0jhdJUSBUgHqRtyRm9NVLUYAgHbLcmsyy5lwNJ7N6HBZjjFkEb2djz58ks8x+ePNfmN66zqc11HW&#xA;ot6hIQR3EScUr70yvLqJ5PqLmaHsnTaUfuoCJ7+Z+Z3Rfln8yvOvlq3+q6TqTxWlSRbSKk0YJ3PF&#xA;ZA3Hff4aZLFqsmMVE7NGv7B0mrlxZYXLvFg/Zz+K3zN+ZHnTzLCLfV9SeW1FD9VjVIYiRuCyxhQ2&#xA;+/xVxy6rJk2kdk6DsLSaQ8WKAEu82T9vL4InR/zY8/aNp8WnaXqS2tnAKRxJa2nyqWMRZj4kmuSh&#xA;rMsBQND3Bq1Xs5os+Q5MkOKZ68U/+KSTzB5k1jzBe/XtWlSa6pxMqQwwFtyat6KRhjU9TvlOTLKZ&#xA;uXN2Gi0OLTQ4MQIj3cUj/uiaSzK3MdirsVdirsVdirsVdirsVdirsVdirsVdirsVdirsVdirsVdi&#xA;rsVdirsVdirsVdirsVdirsVdirsVdirsVdirsVdirsVdirsVdirsVdirsVei682h+SbbStMh0Wz1&#xA;TV7mzhvdVvNRWSZQ1wOSwxIroqhF/aG5zOycOIAcIMqs28toxm7QlkyHLPHijMxhGFD6f4iaN33K&#xA;GgWvl++tvMfnO/0mFbHSktltNEieRbd7q4IjBY8jJ6alS5Xl3p0wYxEiWQjYVt5s9bkz45YdJDIe&#xA;PIZcWQgcQjHfuq+gNdG7aPRvN/lrXJ10m10rXNEgF9DLYB4oZrdWCypJGzOvJQaqw3P31QI5YS2A&#xA;lHfZcksuh1GIeJLJhyy4Dx0TGXQg0OfUJl5x8haI3krStV0GL09VstLsrzXbUFmMkN3ED9aUEn7M&#xA;itzp28Kb2Z9PHwxKP1CIJ+PVxOy+2cw1mTFnN455ZxxnuMT9HyqlSw8r+Wv8f6ppkdnbS3Uem2ku&#xA;haXdyOlvNeyW1vIyu3NSxJdyELUNcMcMPFIoXQoHvoMc3aGo/IwyGUhE5JjJOIBlGAnMbbeQ3rZA&#xA;+WdGtdW/MlNL13QIdMMVrcC602ISxRmWKF3WQAuxFdjs3E5DFASy1KNbHZyNfqpYez/Ew5TkuUak&#xA;aJoyArl+i0g8q6Tp155a81XdzCJLjT7SCWzkJIMbvcIjEUIBqppvlOGAMJk9B+l2faOpyY9RgjE1&#xA;Gc5CXn6SWSeb/Jeir+Xmg6xo1sU1OKG1/TCoWYyC+T91KQS1P3kZUUpucvzYI+FGURvtfxdT2Z2r&#xA;m/P5cWWX7smXB5cB3HyN/BMPMfkXyzpeofl7p0Vusk15fGy1+QM5E8sc1skyfa2CtI6/DTJ5dPCJ&#xA;xjvNH7HF0Pa+ozY9ZkJoRhxY+XpBjMxPxoHdJvzK0O/0Z7+I+U7XS9I+uvbafqyC59V0V2MVC9xI&#xA;hLxx1PwfdlWqxmN+gCN7Hf8AW7DsHVwziB/MSyZeASlD00DQvlAHYnvZP5s8naFaS+bILjy3FpGj&#xA;6bamTRtc5XMbS3XFGihX1ZHSb1GLL8K7fPMjNgiOMGPDEDY78/0un7N7UzTGnlHMcuXJOp4/Sajv&#xA;ctgDGhR3LzHyLp9nqPnLRbC9jE1pc3kMU8RJAZGcAioIOa/TxEskQeVvX9r5p4tJlnA1KMCQfgzH&#xA;8xPLGnaZ5WjurvRItB1l9SkhsYYHlb6xYohrJIkjy8Dy403qfDMrU4hGFmPDK/mHQ9idoZM2pMY5&#xA;TmxeGDIkD0zvkCAL6/rVLXyHoMn5fSWzRn/Gr2J8wRGrV+pLJxEXGtKtEOYFK1PhhGnj4Vf5SuL4&#xA;McnbGYa4Sv8AwTxPBP8AXrn/AKbbuUvIXkry75h8iXwuitvr1zqH1LRbx2YL64t/XSFt+PGTgy1I&#xA;6nbBp8EJ4zf1XQ+TPtntXPpdbHh9WGOPinHy4uEy79rBQEPlfT4tI8pfXLL07+81qey1NXLBmSKW&#xA;FPTYV248mG2QGECMLG5lR+xyZ9oTll1HBK4RwxlD3kSN/cifO/ljQ/KB1Zbu0WTU9UubkaFZEv6d&#xA;nYJO6JcMQfidwtI1JNBu3hks+KOK7G5JryF82rsntDNrvD4ZVjxxj4ktrnPhBMR3AfxHbuDznMB6&#xA;p2KuxV2KuxV2KuxV2KuxV2KuxV2KuxV2KuxVn1/rnkvzZp2mPrt3daPrmm20dlNcw24uobmGHaN+&#xA;POJkkp9rtmbLJjyAcRMZAV328zh0mr0WSYwxjlw5JGQBlwmJPMcjY7kNonmTyrpsmuaA4vJ/KmtR&#xA;QRtcMsYu45rejpOIweHES8vg5fZpvUZHHlhHijvwS+fvbtXodTlGLOOAanEZbb8BEtjG+f01vXNt&#xA;tc8reXvLmq6Z5furjVNR1pEt7nUJ4Baxw2qtyaOOPnKzNIRRiTSnTHxIQgREkmXXlsgaTU6rUY8m&#xA;eMcePFuIiXETLvJobDort+Y6WXmHy/qmmo8kOn6RaaXqdrKAFnWJOE8dKsCrfsk996ZL81UoyHSI&#xA;B/S1jsM5MGbFkNGeaeSBH8Nm4n396zzHqnkTzL5w1XUZby80qxlS1XTJEt1nKiC3SJ1lj9RW/wB1&#xA;/CQ3zwZZ48mQmyBtW3ky0On1uk0uPGIwyTBnx+qvqkSKPD577JnN+Z2lQedtA1KP6xqOn6NZfo67&#xA;vJ1C3V0jq6SSULN09SqAtXxO+WHVxGSJ3IiK8y4cewMktHmxnhhPLPjjEfTCqIHLy329wSu51XyT&#xA;ovlzWtP8v3l5qV1rYih5XMCwLbwRSiU1IZvUditNgBlZnjhCQiSTJzMen1moz4p54wxxxWfTLi4p&#xA;EV3bD5pjon5paZpN9Zu9k+oWCaPaWN1ZyURTd2UnrRSftVVH6fPLMerESNrHCB8Q4ur9nsmaEgJC&#xA;E/GnMS/oTHCR8QgE892Mo8mTXhmku9F1S51DVpOI+MXF3FcVj3+JiI2r03yv8wPRfOMiT87ck9jz&#xA;H5kQoRy4owh/mwlHf5hB+cpvI2o3mq6xpuo3z6hfXMl1HZzWsccQM83NlMomc/CrGnw75HOcciZA&#xA;mye79rkdlw1mKGPFkhDghER4hMk+mNcuEc/eyDUvzM0XVvMnmC21MXM/lHXApjQqDcWs8UQEU8KF&#xA;uIIcGoruPuy+eqjKcgb4JfY6vB2Bmw6fDLHwjVYf9LIE7xka7uvRhPlHVbPR/Nml6ncF3tLG7jmk&#xA;KL8ZRHqaKSN6dq5iYZiMwTyBeh7S088+lyY4/VOBHxIZlqHnHyV+gZtAhn1C+s9T1WO+vJbiJEFt&#xA;AH5SLbIJX/eMNq1FRmVLPj4eHcgyv3e50OHsvV+OM5GOEseIwiIknilW3EeEbfNan5zasnnVdTWO&#xA;AaIs4jW0+qWvrCwB4el63D1a+l/l0r7YPz0vEv8Ah9w5JPstiOk8MmXjcN3xzrj53w3w/V5fak+o&#xA;+ZtDh8s3mj6K1xGw14app0jKEKWyQPGgLBiRIrMP15VLLEQMY/z7Huc7BoM0tRHLm4T+48OXnLiB&#xA;PTkU78x/mfpWux+U7ma2eDUdMvPretGNFCSOGirJHQ7s6xVIoN8uy6uM+A1uDZdfofZ/LpzqIiV4&#xA;8kOHHZ3H1bH3WhdR8+aHr/6c0zXlnfTZry6vvLt+qhrizeeVnEbIWFYnB+JeWx6e0ZaiM+IS5WTE&#xA;9zdg7HzabwsmDh8QQhDLH+GdCruvqHQ1v9/PcwXqHYq7FXYq7FXYq7FXYq7FXYq7FXYq7FXYq7FX&#xA;Yq7FXYq7FXYq7FXYq7FXYq7FXYq7FXYq7FXYq7FXYq7FXYq7FXYq7FXYq7FXYq7FXYq7FXYq7FXY&#xA;q7FXYq7FXYq7FXYq7FXYq7FXYq7FXYq7FXYq7FXYq7FXYq7FXYq7FXYq7FXYq+kPzG0H8kPy+0BN&#xA;c1/Qz9TkuEtY1t2lkkaWRWcAK0qD7MbHrnTfkcP818P/ANFPaH+qn5R/U85s/wA3f+cU7i5SGXRb&#xA;y0RyAbiaGYote7elPI/3KcfyOH+av+intD/VT8o/qezad+Vf5S6lYW+oWGk29zZXcazW1xHLMyPG&#xA;45KykSdCDj+Rw/zV/wBFPaH+qn5R/UiP+VNfln/1Yov+Rk//AFUx/I4f5q/6Ke0P9VPyj+pKdf8A&#xA;JH5F+XmtV1y3sdNa+Yx2a3NzLGZXWlVTlJ8RHIdPHH8jh/mr/op7Q/1U/KP6k2/5U1+Wf/Vii/5G&#xA;T/8AVTH8jh/mr/op7Q/1U/KP6nf8qa/LP/qxRf8AIyf/AKqY/kcP81f9FPaH+qn5R/U7/lTX5Z/9&#xA;WKL/AJGT/wDVTH8jh/mr/op7Q/1U/KP6nf8AKmvyz/6sUX/Iyf8A6qY/kcP81f8ART2h/qp+Uf1O&#xA;/wCVNfln/wBWKL/kZP8A9VMfyOH+av8Aop7Q/wBVPyj+p3/Kmvyz/wCrFF/yMn/6qY/kcP8ANX/R&#xA;T2h/qp+Uf1O/5U1+Wf8A1Yov+Rk//VTH8jh/mr/op7Q/1U/KP6nm35kD8s/J/nXyr5TtvJcWq33m&#xA;aZYi31ye3+rrJMkKORxm5glmJ3WnH7n8jh/mr/op7Q/1U/KP6npP/Kmvyz/6sUX/ACMn/wCqmP5H&#xA;D/NX/RT2h/qp+Uf1PNnH5ZN+diflhbeS4pylv9YvNW+uzL6P+jm4C/V6HlUFBX1B9rH8jh/mr/op&#xA;7Q/1U/KP6npP/Kmvyz/6sUX/ACMn/wCqmP5HD/NX/RT2h/qp+Uf1O/5U1+Wf/Vii/wCRk/8A1Ux/&#xA;I4f5q/6Ke0P9VPyj+p3/ACpr8s/+rFF/yMn/AOqmP5HD/NX/AEU9of6qflH9Tv8AlTX5Z/8AVii/&#xA;5GT/APVTH8jh/mr/AKKe0P8AVT8o/qd/ypr8s/8AqxRf8jJ/+qmP5HD/ADV/0U9of6qflH9Tv+VN&#xA;fln/ANWKL/kZP/1Ux/I4f5q/6Ke0P9VPyj+p3/Kmvyz/AOrFF/yMn/6qY/kcP81f9FPaH+qn5R/U&#xA;7/lTX5Z/9WKL/kZP/wBVMfyOH+av+intD/VT8o/qd/ypr8s/+rFF/wAjJ/8Aqpj+Rw/zV/0U9of6&#xA;qflH9Tv+VNfln/1Yov8AkZP/ANVMfyOH+av+intD/VT8o/qd/wAqa/LP/qxRf8jJ/wDqpj+Rw/zV&#xA;/wBFPaH+qn5R/U7/AJU1+Wf/AFYov+Rk/wD1Ux/I4f5q/wCintD/AFU/KP6nf8qa/LP/AKsUX/Iy&#xA;f/qpj+Rw/wA1f9FPaH+qn5R/U7/lTX5Z/wDVii/5GT/9VMfyOH+av+intD/VT8o/qd/ypr8s/wDq&#xA;xRf8jJ/+qmP5HD/NX/RT2h/qp+Uf1O/5U1+Wf/Vii/5GT/8AVTH8jh/mr/op7Q/1U/KP6nf8qa/L&#xA;P/qxRf8AIyf/AKqY/kcP81f9FPaH+qn5R/U8X/5zN1mzefyZ5cu5/Qsp7mW81GWjN6cSlIVfigZj&#xA;RZJTsK7bZlugUvzp/Nv8svOfkv8AwX5AtV8weYNYnggs4oLGaFoBG4cuhliiblROA49iSduqrNb2&#xA;X8y/yz/J7yv5a8q6HLr/AJqMPoTyojT29mxPqSFypAPFpeEdWC7cjsKFViUH5i/n35G/NXyv5a88&#xA;6nYa5ZeZpoIvQtYok9Fbib0CVeOG3cNEzV+LkpA6+CrFfzpsfzO8zf8AOQOj+VP0hYTXcEzXvliI&#xA;BvRtYGYzAXREPIvwtA7ji4pTc4q9K/Mb82fzC0O58tflt5e+ran+ZmqW0J1XUQqm2hkZTzaNCqL1&#xA;Rnq60WMVK77KoT8tfzM/NnSfzjX8s/zGu7XVri+t3mtL21jjQIyQvcAgxR24ZGSNgQyVrT6VUr8v&#xA;/mf+ffnrzn5z0ryTNpy6Vpd1JDaX1+iqlvEs0iwhSiO0kkyxH7Sso3r2OKp9/wA4/wD5n/mT5x07&#xA;znoWtzW9z5k0D93Y6mUjjhNxKJo1Sb6unplFlgqGRDVa9aDFWF/mR58/5yU8gS6daap5q0a/1XVZ&#xA;BHY6TptsJ7twx4h/Te0iHEv8I3qx6A0NFXpeu+a/zw8u/ldoix6M3mD8wtUZxevBAGtrJWYsvqrD&#xA;wTkqMqdePLkakDdVhMH5i/n35G/NXyv5a886nYa5ZeZpoIvQtYok9Fbib0CVeOG3cNEzV+LkpA6+&#xA;CqU/mPL5w8y/85Vw2vlGG2uNW8t2Ucdu96xFrD+5Mpnl41Y+nJeDZQSWAFMVZZ+T/wCZn5rj84NX&#xA;/Lnz/c2+p3FtbtOtzaxxIsLBY5UCtEkQaNo5f215Bqe4xVjv5Vaylz+bf5vfmTKA9rodtdJCzdDG&#xA;jsYyP+eVh+OKvQfyK/Mnzbrf5Tav50843SXLWkt3LbskUcIFrZwK7VEYUH4w+KsH0D88PzGH/OPf&#xA;mDz1q19HJrY1GOw0N/q8KIByhDtwVQrfbk6g/ZxVLvNH5kf85OaZ+XOkefbm80zTtHlS3LQJHC93&#xA;Os+8cs0ckbIqyhgeMTBgOoG5xVm35k/n9r2leRPJr+XrGN/Onna2tprS0ZTIkHrolSiE/GXklCxc&#xA;tj1PSmKsG86/mT/zk75BtNI03zBfadcal5jlH6OuoooHmhaIqslu6JFHEameP4grezYq+rYUkSGN&#xA;JH9WRVAeSgXkwG7UGwriq/FXYq7FXYq7FXYq7FXYq7FXYq7FXzP5mtbXzp/zmBp2k3cKXmmeXNPX&#xA;63byKJIjxge4HJWBU/vbqMGvyxVLv+crfLPlrRtY8j/4c0+20TXL+8lC6hYxpbFRC0ARnEQWpV5Q&#xA;VbqKYq3/AM5EecZbv849J8leYddu/LnkOO3im1Ke09QNL6iu5ZhGrlqsixLVWVDVqdcVYt+WWk+S&#xA;9X/5yW0eLymbyby5pcTXcU2oM5mmaK3Z1mUSBXCNK6FQQNt6YqyjTvNmgWv/ADmFrmoeZbr6kIIx&#xA;p2jgxySB7l44LWKMcFcr6iPI3I7e+KpD+amjeT0/5yY1T/lZzXFv5Z1S2hlsb2L1FUcbaOONv3au&#xA;3APE8ZoPtbnFWZfl3pn/ADj1pV15i83+QJby71Dybp014by4Mv1c+rbzKRGsyozMAhU/D+0KVxVX&#xA;/wCcVkXy5+S3mTzhdCryz3d60j1+OCwtwdz3/eCTFWL/AJG+d9P/AC1/JPX/AD3qqNc6jrmqta6d&#xA;bjrczRQ8o+TD7Kc2lLt2A2qSBiqF/J78wvyqj8xXn5jfmX5mW587Xsj/AFSyNnezRWMdaDgVgkTl&#xA;x+FOLEInepNFU4/5yG85yXv5waR5M8wa9d+XPIQtorjUprQSq8nqLI/JlRWZqsqxLVWVD8RHXFWK&#xA;/llpXkrWP+cltHi8pG7m8t6XG11FNqDOZpXht2dZVEnFlVpXQqCBtvTFWf8A/OM//Oxfmr+ZPnci&#xA;sU1ybazkPeK4uHl4g/5KQRfhiqVflFraT/mF+cX5nSMGh0mC6FpIdwYi8ksYHifTskH0++KpD5B0&#xA;2/03/nEvz1rkKO97rN1xaTcs1qksEEjE96c5iTiq6L85PI2k/wDOMSeS9IuZJvMtxaS2t5aLDKBD&#xA;9auGa4kllZVj4lZSq0Y7kCngqg/zEsJ9P/IL8q/JNt/vb5iuTqRQdWMxLR8qf8x6gfL2xV6D/wA5&#xA;eSfU/I3lHyVpoob++SO2i7mOzhEKJ8uVwmKpH+bL6f5H/wCcgvy81DXOSeVNK0y2tra54MyILUzR&#xA;k8VBJMTyRu1KmlPYYqoeZvO2g/mv/wA5IeRrPy9K15oujSLL9YdGRJZLdmvJiqSBW4cYFX4hufam&#xA;KvrLFXYq7FXYq7FXYq7FXYq7FXYq7FXYqgoND0SDUpdUg0+2i1O4XjPfJDGs7qabPKBzYfCOp7Yq&#xA;1qmgaFqxhOqada35tyTbm6hjmMZalSnqK3GvEdPDFVDWfKXlXXJoZ9a0ax1Sa2/3nlvbaG4aOpr8&#xA;DSqxXcdsVVYPL2gQaj+koNMtItRKCM3qQRrPwVQgX1AvPiEULSvQUxVQuvJ/lG81iPW7vRNPuNZh&#xA;KNDqctrC90jR/wB2VmZTICn7NDtiqrrfljy1r0UcWu6TZ6rFCS0Ud9bxXKox2JUSq4B+WKus/LPl&#xA;uy0t9Is9Js7bSpQRJp8NvFHbsG+1yiVQhr32xVVh0PRYdMOkw6fbR6WysjWCQxrblXJLqYgOFGJN&#xA;dt8VQ0nlHynLp8WnSaLYPp8DGSCza1hMKO1eTJGV4qTU1IGKoZfy/wDISsGXy3pSspqrCytwQR3H&#xA;wYqitZ8p+Vdclhm1rRrHVJbb/eeS9tobho96/AZVYrv4YqqweXtAg1H9JQaZaRaiUEZvUgjWfgqh&#xA;AvqBefEIoWlegpiq/StD0TSIni0nT7bT4pW5SR2sMcCswFKsIwoJpiqja+V/LVpZ3Fja6TZQWV3/&#xA;AL12sVvEkUu1P3iKoV9vEYqiLXR9JtNO/RlrZW8GnFXQ2UUSJBxkJLr6agJRuRrtviqWWv5f+Q7S&#xA;2ntbTy3pdvbXJU3MEVlbokhU1UuqoA1D0riqOn8ueXriSzkuNLtJpNP4jT3kgiZrcIQV9ElT6fHi&#xA;KcadMVXX+haJqNxb3OoafbXlxaHlazXEMcrxNUNWNnBKmqg7Yq8h/OXWvzPXzAdOsfy3sPOPlVYo&#xA;2tJb2KO7P1s15v6ZZuCrzC0KDoTypiqXfkP+UPm2z833/wCYnnezttL1W6iNvpeiWixpHaxMFUsE&#xA;iLJEBGgREDE0J5b4q99xV2KuxV2KuxV2KuxV2KuxV2KuxV2Kv//Z</xmpGImg:image>
               </rdf:li>
            </rdf:Alt>
         </xmp:Thumbnails>
         <xmpTPg:MaxPageSize rdf:parseType="Resource">
            <stDim:w>361.244444</stDim:w>
            <stDim:h>178.858333</stDim:h>
            <stDim:unit>Millimeters</stDim:unit>
         </xmpTPg:MaxPageSize>
         <xmpTPg:NPages>1</xmpTPg:NPages>
         <xmpTPg:HasVisibleTransparency>False</xmpTPg:HasVisibleTransparency>
         <xmpTPg:HasVisibleOverprint>False</xmpTPg:HasVisibleOverprint>
         <xmpTPg:PlateNames>
            <rdf:Seq>
               <rdf:li>Cyan</rdf:li>
               <rdf:li>Magenta</rdf:li>
               <rdf:li>Yellow</rdf:li>
               <rdf:li>Black</rdf:li>
            </rdf:Seq>
         </xmpTPg:PlateNames>
         <xmpTPg:SwatchGroups>
            <rdf:Seq>
               <rdf:li rdf:parseType="Resource">
                  <xmpG:groupName>Standard-Farbfeldgruppe</xmpG:groupName>
                  <xmpG:groupType>0</xmpG:groupType>
               </rdf:li>
            </rdf:Seq>
         </xmpTPg:SwatchGroups>
         <dc:format>image/svg+xml</dc:format>
      </rdf:Description>
   </rdf:RDF>
</x:xmpmeta>
                                                                                                    
                                                                                                    
                                                                                                    
                                                                                                    
                                                                                                    
                                                                                                    
                                                                                                    
                                                                                                    
                                                                                                    
                                                                                                    
                                                                                                    
                                                                                                    
                                                                                                    
                                                                                                    
                                                                                                    
                                                                                                    
                                                                                                    
                                                                                                    
                                                                                                    
                                                                                                    
                           
<?xpacket end="w"?>
	</metadata>
<g id="layer1" transform="translate(-273.70062,-493.68468)">
	<path id="path2462" class="st0" d="M285.4,505.1H1286l-0.1,382.1H285.4L285.4,505.1"/>
	<path id="path2464" class="st1" d="M442.7,554.1c-4.4,2.1-9.1,9.5-9.1,19.8c0,27.5,31.2,40.9,31.2,65c0,0,0.1,14.3-7.7,17.3v-5.7
		c0-17.4-33.8-38.8-33.8-57.9v-7.4c-4.4,2.1-9.1,9.7-9.1,19.9c0,26.3,31.2,38.2,31.2,65c0,0,0,11.2-6.9,14.8
		c0.2-0.6,0.2-1.3,0.2-1.9c0-1.2-0.2-2.2-0.2-2.2c-0.7-12.3-32.7-42.9-32.7-52.5c-28.1,7.5-51.4,21.6-51.4,39.1
		c0,23.3,38.2,42,85.2,42c0.3,0,0.5,0.2,0.8,0c47.5-0.1,85.8-19.5,85.8-42.9c0-17.4-21.5-32.3-51.9-38.6c0.9-2.3,0.9-4.3,0.9-4.3
		c0-21.8-32.4-43-32.4-62V554.1z M1073.7,582.8l-23.5,9.9v4.5l2.9-0.9c1.4-0.5,3-0.8,4.3-0.8c2.4,0,4.3,1,4.3,4.6v34.4
		c-3.6-1.5-8.5-2.9-15.4-2.9c-20.7,0-36.3,16.4-36.3,36.4c0,22.8,16.9,33.3,31,33.3c10.1,0,17.2-5.7,21.1-9.9
		c0.8,3.5,2.4,7.6,5.7,9.9l21-7.9V689l-3.6,1.2c-1.6,0.6-2.5,0.6-3.7,0.6c-4.1,0-4.9-3.4-4.9-9.1v-98.9H1073.7z M601,592.5
		c-22.4,0-34.1,13.6-34.1,29.3c0,12.6,9.1,21.6,20.2,27.2l11.7,5.9c8.1,4.1,20.2,9.6,20.2,21.8c0,11.4-9.2,18.7-22.2,18.7
		c-13.1,0-24.4-11.4-26.5-26.4h-4.2v28.4c0,0,11.9,4.6,28.2,4.6c24.8,0,38.4-12.9,38.4-32.4c0-15.3-13.3-24.4-23.9-29.8l-11.7-5.9
		c-8.4-4.2-15.6-8.9-15.6-19.3c0-8,6.6-15.7,18.1-15.7c15.3,0,22.9,10.7,25.3,24.2h4v-25.5C629,597.6,616.4,592.5,601,592.5z
		 M822.7,615.2c-6.5,15.5-23,21.8-23,21.8v3.9h11v35.8c0,16.2,7.1,23.9,20.2,23.9c1.4,0,4-0.5,4-0.5l13.6-8.5l-1.7-3.7
		c-3.8,2.1-7.8,2.9-10.3,2.9c-6.3,0-10.7-4.5-10.7-12.8v-37.2h21l2.6-6.5h-23.6v-19.1H822.7z M1210.1,631.3c-7.4,0-13.9,4.5-19.3,15
		v-14.7h-3.1l-21.5,9.4v4.5l2-0.8c1.2-0.5,2.3-0.6,3.4-0.6c3,0,4.8,1.8,4.8,5.2v40.1c0,3-2.2,5.3-5.1,5.9l-5.1,0.9v3.6h38.3v-3.6
		l-7.3-0.9c-2.9-0.5-5.9-2.9-5.9-5.9v-36.9c4.2-8.7,10.2-10.2,15-10.2c4.5,0,7.4,2.1,8.2,6.3h2.9v-15.9
		C1217.5,632.8,1216.1,631.3,1210.1,631.3z M677.1,631.6c-3.8,0-9.1,1-15.3,4.8c-6.3,3.8-10.8,7.4-11.6,12.8c0,0.5-0.2,1.1-0.2,1.7
		c0,3.2,1.4,6.2,2.6,8.3l9.9-4.5c0,0-1.5-3-1.5-5.6c0-1.5,0-3.4,0.9-4.8c2.3-3.6,6.8-5.9,11.3-5.9c6.6,0,11.1,5.8,11.1,15.3v6.3
		l-20.4,7.4c-11.6,4.2-16.8,9.8-16.8,17c0,10.1,6.6,16.8,16.8,16.8c7.2,0,15.7-5.5,20.7-9.7c0.6,3.5,2.2,7.5,5.4,9.7l21-7.9V689
		l-3.7,1.2c-1.7,0.6-2.4,0.6-3.6,0.6c-4.1,0-4.5-3.2-4.5-8.2v-31C699.4,646.7,696.1,631.6,677.1,631.6z M737.3,631.6l-21.6,9.4v4.5
		l2-0.8c1.2-0.5,2.3-0.6,3.4-0.6c3,0,4.6,1.8,4.6,5.2v40.1c0,3-2.1,5.3-5.1,5.9l-4.9,0.9v3.6h35.5v-3.6l-4.9-0.9
		c-3-0.6-5.4-2.9-5.4-5.9v-41.5c3.3-3,8.8-6.9,15.4-6.9c12,0,13.3,10,13.3,14.5v34c0,3-2.5,5.3-5.6,5.9l-4.9,0.9v3.6h35.8v-3.6
		l-5.1-0.9c-3-0.5-5.2-2.9-5.2-5.9v-34.1c0-12.8-7.4-23.8-22.7-23.8c-6.9,0-14.7,3.8-21.3,11.1v-11.1H737.3z M885.2,631.6
		c-3.8,0-9,1-15.1,4.8c-6.3,3.8-11,7.4-11.7,12.8c0,0.5-0.2,1.1-0.2,1.7c0,3.2,1.4,6.2,2.6,8.3l9.9-4.5c0,0-1.5-3-1.5-5.6
		c0-1.5,0.2-3.4,1.1-4.8c2.3-3.6,6.8-5.9,11.3-5.9c6.6,0,11,5.8,11,15.3v6.3l-20.4,7.4c-11.6,4.2-16.8,9.8-16.8,17
		c0,10.1,6.6,16.8,16.8,16.8c7.2,0,15.9-5.5,20.8-9.7c0.6,3.5,2.1,7.5,5.2,9.7l21-7.9V689l-3.6,1.2c-1.7,0.6-2.5,0.6-3.7,0.6
		c-4.1,0-4.5-3.2-4.5-8.2v-31C907.4,646.7,904.1,631.6,885.2,631.6z M945.4,631.6l-21.6,9.4v4.5l2-0.8c1.2-0.5,2.3-0.6,3.4-0.6
		c3,0,4.6,1.8,4.6,5.2v40.1c0,3-2.1,5.3-5.1,5.9l-4.9,0.9v3.6h35.5v-3.6l-4.9-0.9c-3-0.6-5.4-2.9-5.4-5.9v-41.5
		c3.3-3,8.8-6.9,15.4-6.9c12,0,13.3,10,13.3,14.5v34c0,3-2.4,5.3-5.4,5.9l-5.1,0.9v3.6h35.8v-3.6l-5.1-0.9c-3-0.5-5.2-2.9-5.2-5.9
		v-34.1c0-12.8-7.4-23.8-22.7-23.8c-6.9,0-14.7,3.8-21.3,11.1v-11.1H945.4z M1129.4,631.6c-19.2,0-34.1,16-34.1,35.5
		c0,16.7,10.4,34.3,33.8,34.3c11.3,0,20.4-4.6,26.4-10.2v-6c-5.3,4.1-11.8,6.8-19,6.8c-14.3,0-25.8-10.1-25.6-30.1v-0.8h46.6v-2
		C1157.5,642.7,1145.2,631.6,1129.4,631.6z M1047.9,637.9c6.3,0,11.9,3.1,13.9,8V685c-1.2,2.4-6.2,7.1-14.2,7.1
		c-13.2,0-21.6-10.3-21.6-27.2C1026,644.8,1037.1,637.9,1047.9,637.9z M1127.8,637.9c7.5,0,13.9,5.4,13.9,16.7v0.3h-30.4
		C1113.1,643.5,1119.4,637.9,1127.8,637.9z M684.4,664.9v22.2c-3.8,3-9.1,5.2-12.8,5.2c-7.8,0-10-6.4-10-10.3
		c0-7.2,5.5-9.8,8.6-11.1L684.4,664.9z M892.5,664.9v22.2c-3.8,3-9.1,5.2-12.8,5.2c-7.8,0-10-6.4-10-10.3c0-7.2,5.5-9.8,8.6-11.1
		L892.5,664.9z M591.5,761.1c-7,0-12.4,1.9-16.2,6c-3.8,4.1-5.9,9.9-5.9,17.3c0,7.4,1.9,13.2,5.7,17.3c3.8,4.1,9.1,6,16.1,6
		c5.2,0,10-1.1,14.4-3.4v-5.4c-4.8,2.6-9.4,3.9-13.6,3.9c-4.9,0-8.7-1.5-11.6-4.8c-2.8-3.3-4.2-7.7-4.2-13.4c0-6,1.2-10.6,3.9-13.9
		c2.6-3.3,6.4-4.9,11.3-4.9c3.3,0,8,1.1,14,3.2v-6C600,761.6,595.5,761.1,591.5,761.1z M634.2,761.1c-6.3,0-11.3,2.1-15.1,6.3
		c-3.8,4.2-5.7,9.9-5.7,17c0,7,2,12.7,5.7,17c3.8,4.3,8.8,6.3,15,6.3c6.5,0,11.5-2.1,15.3-6.3c3.8-4.2,5.7-9.9,5.7-17.1
		c0-7.1-1.9-12.6-5.7-16.8C645.6,763.2,640.5,761.1,634.2,761.1z M723,761.1c-3.8,0-7.1,1-9.6,3.2c-2.5,2.2-3.7,5.1-3.7,8.5
		c0,2.5,0.8,4.7,2.3,6.6c1.5,1.9,4.2,4,8,6.2l3.1,1.9c2.7,1.5,4.4,2.8,5.4,4c1,1.2,1.5,2.7,1.5,4.5c0,2.1-0.8,3.8-2.3,5.1
		c-1.5,1.3-3.4,2-5.9,2c-3.2,0-7.5-1.2-12.5-3.6v6.3c4.6,1.3,8.6,1.9,11.6,1.9c4.7,0,8.4-1,11.3-3.4c2.9-2.3,4.3-5.6,4.3-9.4
		c0-2.7-0.8-5-2.3-6.9s-4.2-4-8-6.2l-3.2-1.9c-2.8-1.6-4.7-2.9-5.7-4c-1-1.1-1.5-2.5-1.5-4c0-1.8,0.7-3.2,2.2-4.3
		c1.4-1.2,3.2-1.9,5.4-1.9c2.3,0,5.8,0.9,10.5,2.8v-5.7C730,761.6,726.4,761.1,723,761.1z M665.4,762.2v44.5h5.4v-34.3l22.4,34.3
		h6.2v-44.5H694v34.4l-22.4-34.4H665.4z M746.4,762.2v27.9c0,6,1.2,10.6,3.9,13.4c2.6,2.9,6.8,4.2,12.3,4.2c5.5,0,9.4-1.2,11.9-4
		c2.5-2.8,3.7-7.2,3.7-13.3v-28.2h-5.4v28.2c0,4.6-0.8,7.8-2.3,9.7c-1.5,1.9-3.9,2.9-7.4,2.9c-3.6,0-6.2-1.1-7.9-3.1
		c-1.7-2-2.5-5.3-2.5-9.7v-28.1H746.4z M790.7,762.2v44.5h5.4v-36.3l11.9,33.3h6.2l12.2-33.2v36.1h6v-44.5h-7.9l-12.7,34.4
		l-12.3-34.4H790.7z M845.2,762.2v44.5h26.2V802h-19.9v-16.2h15.6v-4.6h-15.6v-14.4h18.5v-4.6H845.2z M880.1,762.2v44.5h6.2v-18.8h6
		l12.7,18.8h7.7l-14.8-20.8c6-2.5,9-6.7,9-12.7c0-3.6-1.1-6.3-3.4-8.2c-2.3-1.9-5.6-2.8-9.9-2.8H880.1z M937.2,762.2v44.5h13.1
		c4.5,0,7.9-0.9,10.3-2.8c2.4-1.9,3.7-4.7,3.7-8.3c0-5.8-3.7-9.8-11-12c6.1-2.3,9.1-6.2,9.1-11.6c0-3.2-1.2-5.6-3.6-7.3
		c-2.4-1.7-5.7-2.5-10.2-2.5H937.2z M986.5,762.2l-17.8,44.5h5.9l4.9-12.3h18.8l4.9,12.3h6.8l-17.4-44.5H986.5z M1017.9,762.2v44.5
		h5.4v-34.3l22.4,34.3h6.2v-44.5h-5.4v34.4l-22.4-34.4H1017.9z M1064.7,762.2v44.5h6v-22.5v-21.9H1064.7z M1070.7,784.1l19.4,22.5
		h7.9l-20.5-23.3l17.4-21.1h-6.3L1070.7,784.1z M634.2,765.7c4.4,0,7.8,1.7,10.3,4.9c2.5,3.3,3.9,7.8,3.9,13.6
		c0,6-1.4,10.6-3.9,13.9c-2.5,3.3-5.9,4.9-10.5,4.9c-4.3,0-7.7-1.8-10.2-5.1c-2.5-3.3-3.7-7.8-3.7-13.6c0-5.8,1.2-10.5,3.7-13.7
		C626.4,767.4,629.8,765.7,634.2,765.7z M886.3,766.8h4c6.7,0,10,2.4,10,6.9c0,6.2-4,9.4-11.9,9.4h-2.2V766.8z M943.4,766.8h2.5
		c6.8,0,10.2,2.3,10.2,6.6c0,2.6-0.9,4.6-2.8,6c-1.9,1.4-4.5,2.3-7.9,2.3h-2V766.8z M988.9,770.5l7.6,19.1h-15.1L988.9,770.5z
		 M943.4,785.6h1.9c3.6,0,6.4,0.9,8.8,2.6c2.4,1.8,3.6,4,3.6,6.6c0,3-1.3,5.1-3.9,6.2c-1.4,0.6-4.3,0.9-9,0.9h-1.4V785.6z"/>
</g>
<g>
	<path d="M37,452.1l-6.2,31.3H18.4L33.4,408h26.2c7.3,0,12.9,1.9,16.7,5.8c3.8,3.9,5,9.2,3.6,16.1c-0.8,4.2-2.5,7.6-4.9,10.4
		c-2.4,2.7-5.6,4.9-9.7,6.6c3.5,1.4,5.8,3.6,7.1,6.7c1.2,3.1,1.4,6.7,0.6,11l-1.2,6.3c-0.5,2.3-0.7,4.5-0.5,6.6
		c0.1,2,0.7,3.6,1.7,4.7l-0.3,1.2H59.9c-1.1-1.1-1.5-2.9-1.4-5.4c0.1-2.5,0.4-4.9,1-7.2l1.2-6.1c0.8-4.1,0.5-7.2-1-9.4
		c-1.5-2.2-3.9-3.2-7.4-3.2H37z M39,442h13.2c4.2,0,7.6-1,10.1-3s4.3-4.9,5.1-8.8c0.8-4,0.4-7.1-1.2-9.1c-1.6-2-4.5-3.1-8.7-3.1
		H43.8L39,442z"/>
	<path d="M113.9,483.3c-0.1-1.2-0.2-2.3-0.2-3.5c0-1.1,0-2.3,0.1-3.4c-2.1,2.3-4.6,4.2-7.4,5.7c-2.8,1.5-5.7,2.3-8.6,2.3
		c-4.9,0-8.7-1.5-11.2-4.6c-2.5-3.1-3.2-7.2-2.2-12.2c1.1-5.8,3.9-10.1,8.4-12.9c4.5-2.8,10.4-4.3,17.7-4.3h8.2l1-4.9
		c0.6-3.1,0.3-5.4-0.9-7c-1.2-1.6-3.2-2.4-6.1-2.4c-2.5,0-4.6,0.7-6.5,2.1c-1.9,1.4-3.1,3.2-3.5,5.3H90.8l-0.1-0.3
		c0.8-4.7,3.4-8.7,8-12c4.6-3.3,10.1-4.9,16.6-4.9c5.7,0,10.2,1.7,13.6,5.1c3.3,3.4,4.4,8.1,3.2,14.2l-5,24.9
		c-0.5,2.5-0.8,4.7-1,6.8c-0.1,2,0,4.1,0.2,6.1H113.9z M102.5,474.3c2.3,0,4.6-0.6,7-1.9s4.3-2.7,5.6-4.5l2-9.7h-8.4
		c-3,0-5.6,0.9-7.8,2.7c-2.2,1.8-3.6,4-4.1,6.4c-0.5,2.3-0.3,4,0.7,5.2C98.5,473.7,100.1,474.3,102.5,474.3z"/>
	<path d="M166.4,413.7l-2.7,13.6h9.3l-1.9,9.3h-9.3l-6.2,31c-0.5,2.5-0.4,4.2,0.3,5.1c0.7,0.9,1.8,1.3,3.3,1.3
		c0.8,0,1.7-0.1,2.7-0.2c1-0.1,1.8-0.3,2.6-0.5l-0.6,9.2c-1.3,0.6-2.8,1-4.6,1.4c-1.7,0.3-3.5,0.5-5.4,0.5c-4.1,0-7.2-1.4-9.3-4.1
		c-2.1-2.8-2.6-7-1.4-12.7l6.2-31h-7.8l1.9-9.3h7.8l2.7-13.6H166.4z"/>
	<path d="M196,484.4c-7.2,0-12.6-2.6-16.3-7.9c-3.7-5.2-4.9-11.9-3.6-19.9l0.3-2.1c1.3-8.5,4.6-15.3,9.8-20.5
		c5.2-5.2,11.1-7.8,17.7-7.8c6.9,0,11.9,2.3,15,6.9c3.1,4.6,4.1,10.7,2.9,18.3l-1.2,7.4h-32.3c-0.5,4.7,0.1,8.5,1.8,11.2
		c1.7,2.8,4.5,4.2,8.4,4.2c2.9,0,5.6-0.4,8.1-1.3c2.4-0.8,4.8-2,7.1-3.5l2.6,8.2c-2.2,1.9-5.1,3.4-8.5,4.7
		C204.2,483.8,200.4,484.4,196,484.4z M202.3,436.4c-2.6,0-5,1.2-7.2,3.7c-2.2,2.5-3.8,5.6-4.8,9.4l0.1,0.3h19.5l0.2-1.3
		c0.6-3.7,0.2-6.6-1-8.8C207.8,437.5,205.5,436.4,202.3,436.4z"/>
	<path d="M247.2,434.8c2.2-2.7,4.8-4.8,7.6-6.3c2.8-1.5,5.9-2.2,9-2.2c5.1,0,8.9,1.8,11.3,5.4c2.5,3.6,3,9.1,1.6,16.4l-7,35.2h-12.4
		l7-35.1c0.9-4.5,0.7-7.5-0.4-9.2c-1.2-1.6-3.4-2.5-6.7-2.5c-2,0-4,0.6-6,1.7c-2,1.1-3.7,2.6-5.3,4.6l-8.1,40.5h-12.4l11.2-56h11.3
		L247.2,434.8z"/>
	<path d="M297.4,473l0.1,0.3h27.2l-2,10.1h-42.4l1.7-8.3l33.3-37.4l-0.1-0.3h-25.3l2-10.1h40.8l-1.6,7.9L297.4,473z"/>
	<path d="M364.1,483.3c-0.1-1.2-0.2-2.3-0.2-3.5c0-1.1,0-2.3,0.1-3.4c-2.1,2.3-4.6,4.2-7.4,5.7c-2.8,1.5-5.7,2.3-8.6,2.3
		c-4.9,0-8.7-1.5-11.2-4.6c-2.5-3.1-3.2-7.2-2.2-12.2c1.1-5.8,3.9-10.1,8.4-12.9c4.5-2.8,10.4-4.3,17.7-4.3h8.2l1-4.9
		c0.6-3.1,0.3-5.4-0.9-7c-1.2-1.6-3.2-2.4-6.1-2.4c-2.5,0-4.6,0.7-6.5,2.1c-1.9,1.4-3.1,3.2-3.5,5.3H341l-0.1-0.3
		c0.8-4.7,3.4-8.7,8-12c4.6-3.3,10.1-4.9,16.6-4.9c5.7,0,10.2,1.7,13.6,5.1c3.3,3.4,4.4,8.1,3.2,14.2l-5,24.9
		c-0.5,2.5-0.8,4.7-1,6.8c-0.1,2,0,4.1,0.2,6.1H364.1z M352.7,474.3c2.3,0,4.6-0.6,7-1.9s4.3-2.7,5.6-4.5l2-9.7h-8.4
		c-3,0-5.6,0.9-7.8,2.7c-2.2,1.8-3.6,4-4.1,6.4c-0.5,2.3-0.3,4,0.7,5.2C348.7,473.7,350.3,474.3,352.7,474.3z"/>
	<path d="M409.2,433.8c2.2-2.4,4.6-4.3,7.3-5.6c2.7-1.3,5.5-1.9,8.5-1.9c5.2,0,9.1,1.9,11.6,5.7c2.5,3.8,3,9.5,1.5,17.2l-6.8,34.1
		h-12.4l6.8-34.2c0.9-4.7,0.8-8-0.3-9.8c-1.1-1.8-3.4-2.7-6.7-2.7c-2,0-4,0.5-6,1.6s-3.7,2.5-5.3,4.2l-8.2,40.9H387l16.1-80.7h12.4
		L409.2,433.8z"/>
	<path d="M456.8,483.3h-12.4l16.1-80.7H473L456.8,483.3z"/>
	<path d="M503.2,483.3l0.7-7.1c-2.2,2.7-4.6,4.7-7.4,6.1s-5.7,2.1-9,2.1c-5.3,0-9.2-1.9-11.7-5.8c-2.6-3.9-3-9.8-1.4-17.8l6.7-33.5
		h12.3l-6.7,33.6c-1.1,5.2-1.1,8.8-0.1,10.6c1,1.8,3,2.7,5.9,2.7c2.5,0,4.8-0.6,7-1.7c2.1-1.1,3.9-2.7,5.5-4.8l8.1-40.4h12.4
		l-11.2,56H503.2z"/>
	<path d="M548.2,434.8c2.2-2.7,4.8-4.8,7.6-6.3c2.8-1.5,5.9-2.2,9-2.2c5.1,0,8.9,1.8,11.3,5.4c2.5,3.6,3,9.1,1.6,16.4l-7,35.2h-12.4
		l7-35.1c0.9-4.5,0.7-7.5-0.4-9.2c-1.2-1.6-3.4-2.5-6.7-2.5c-2,0-4,0.6-6,1.7c-2,1.1-3.7,2.6-5.3,4.6l-8.1,40.5h-12.4l11.2-56H549
		L548.2,434.8z"/>
	<path d="M586.7,455.1c1.9-9.5,5-16.7,9.2-21.5c4.2-4.8,9.6-7.2,16.2-7.2c2.9,0,5.5,0.7,7.8,2c2.3,1.3,4.2,3.2,5.6,5.5l2.2-6.5h10.6
		l-10.9,54.8c-1.6,7.8-4.9,13.7-9.8,17.8s-11.3,6.1-19.1,6.1c-2.4,0-5-0.4-7.9-1.2c-2.9-0.8-5.4-1.8-7.5-3.1l4.6-9.9
		c1.7,1.1,3.6,1.9,5.8,2.5c2.2,0.6,4.6,0.9,7,0.9c3.8,0,6.9-1.2,9.4-3.5c2.5-2.3,4.2-5.6,5-9.6l0.6-3.1c-1.9,1.8-4,3.1-6.2,4
		c-2.2,0.9-4.6,1.4-7,1.4c-6,0-10.5-2.7-13.6-8.2c-3.1-5.5-3.8-12.1-2.2-20.1L586.7,455.1z M598.9,456.2c-1.1,5.5-1,9.9,0.4,13.1
		c1.3,3.3,4,4.9,8,4.9c2.1,0,4.1-0.6,5.9-1.8c1.8-1.2,3.4-2.9,4.8-5l5-25c-0.8-1.8-1.9-3.2-3.5-4.2c-1.6-1-3.5-1.5-5.8-1.5
		c-3.6,0-6.7,1.7-9.1,5c-2.5,3.3-4.3,7.8-5.4,13.5L598.9,456.2z"/>
</g>
</svg>
