<?xml version="1.0" encoding="utf-8"?>
<!-- Generator: Adobe Illustrator 21.0.2, SVG Export Plug-In . SVG Version: 6.00 Build 0)  -->
<svg version="1.1" id="svg14712" xmlns:svg="http://www.w3.org/2000/svg"
	 xmlns="http://www.w3.org/2000/svg" xmlns:xlink="http://www.w3.org/1999/xlink" x="0px" y="0px" viewBox="0 0 1024 271"
	 style="enable-background:new 0 0 1024 271;" xml:space="preserve">
<style type="text/css">
	.st0{fill:#003087;}
	.st1{fill:#002F86;}
	.st2{fill:#009CDE;}
	.st3{fill:#012069;}
</style>
<metadata><?xpacket begin="﻿" id="W5M0MpCehiHzreSzNTczkc9d"?>
<x:xmpmeta xmlns:x="adobe:ns:meta/" x:xmptk="Adobe XMP Core 5.6-c137 79.159768, 2016/08/11-13:24:42        ">
   <rdf:RDF xmlns:rdf="http://www.w3.org/1999/02/22-rdf-syntax-ns#">
      <rdf:Description rdf:about=""
            xmlns:xmp="http://ns.adobe.com/xap/1.0/"
            xmlns:xmpGImg="http://ns.adobe.com/xap/1.0/g/img/"
            xmlns:xmpTPg="http://ns.adobe.com/xap/1.0/t/pg/"
            xmlns:stDim="http://ns.adobe.com/xap/1.0/sType/Dimensions#"
            xmlns:xmpG="http://ns.adobe.com/xap/1.0/g/"
            xmlns:dc="http://purl.org/dc/elements/1.1/">
         <xmp:CreatorTool>Adobe Illustrator CC 2017 (Windows)</xmp:CreatorTool>
         <xmp:CreateDate>2017-07-24T11:51:14+02:00</xmp:CreateDate>
         <xmp:Thumbnails>
            <rdf:Alt>
               <rdf:li rdf:parseType="Resource">
                  <xmpGImg:width>256</xmpGImg:width>
                  <xmpGImg:height>68</xmpGImg:height>
                  <xmpGImg:format>JPEG</xmpGImg:format>
                  <xmpGImg:image>/9j/4AAQSkZJRgABAgEASABIAAD/7QAsUGhvdG9zaG9wIDMuMAA4QklNA+0AAAAAABAASAAAAAEA&#xA;AQBIAAAAAQAB/+4ADkFkb2JlAGTAAAAAAf/bAIQABgQEBAUEBgUFBgkGBQYJCwgGBggLDAoKCwoK&#xA;DBAMDAwMDAwQDA4PEA8ODBMTFBQTExwbGxscHx8fHx8fHx8fHwEHBwcNDA0YEBAYGhURFRofHx8f&#xA;Hx8fHx8fHx8fHx8fHx8fHx8fHx8fHx8fHx8fHx8fHx8fHx8fHx8fHx8fHx8f/8AAEQgARAEAAwER&#xA;AAIRAQMRAf/EAaIAAAAHAQEBAQEAAAAAAAAAAAQFAwIGAQAHCAkKCwEAAgIDAQEBAQEAAAAAAAAA&#xA;AQACAwQFBgcICQoLEAACAQMDAgQCBgcDBAIGAnMBAgMRBAAFIRIxQVEGE2EicYEUMpGhBxWxQiPB&#xA;UtHhMxZi8CRygvElQzRTkqKyY3PCNUQnk6OzNhdUZHTD0uIIJoMJChgZhJRFRqS0VtNVKBry4/PE&#xA;1OT0ZXWFlaW1xdXl9WZ2hpamtsbW5vY3R1dnd4eXp7fH1+f3OEhYaHiImKi4yNjo+Ck5SVlpeYmZ&#xA;qbnJ2en5KjpKWmp6ipqqusra6voRAAICAQIDBQUEBQYECAMDbQEAAhEDBCESMUEFURNhIgZxgZEy&#xA;obHwFMHR4SNCFVJicvEzJDRDghaSUyWiY7LCB3PSNeJEgxdUkwgJChgZJjZFGidkdFU38qOzwygp&#xA;0+PzhJSktMTU5PRldYWVpbXF1eX1RlZmdoaWprbG1ub2R1dnd4eXp7fH1+f3OEhYaHiImKi4yNjo&#xA;+DlJWWl5iZmpucnZ6fkqOkpaanqKmqq6ytrq+v/aAAwDAQACEQMRAD8A9QapqNvpmmXepXNfq1lD&#xA;JcTcaFuESF2pUjei5KETIgDqiRoW/PW8u7q8u5ru7lee6uHaWeeQlnd3PJmZjuSSd87aMQBQ5OhJ&#xA;tRwodiq6OSSNw8bFHU1VlJBB9iMBCvVPy3/5yD83+WtQhg1u7n1vQXalzDcN6tzGrUHOCZzyqtPs&#xA;M3E7j4SeQ12q7NhkHpHDL7HKxaqUTvuH15Y31pf2NvfWcgmtLuJJ7eZejxyKGRhXsVNc5mUSDR5h&#xA;2oNi1fAl2KuxV2KuxV2KuxV2KuxV2KuxV2KuxV2KuxV2KuxV2KuxV2KuxV2KuxV2KuxVhf5z6qdL&#xA;/K3zJchQ3qWbWtD/AMvjC2r1HT1q5laGHFmiPP7t2nUSqBfDWde6VpmVRVjQYCaSBa314v5sjxhP&#xA;AXevF/NjxheAtiWM9GGHiC8Jfa//ADj5LJJ+T/l9pGLMFulBJr8KXkyqPoApnLdpD9/L4fcHbaX+&#xA;7D0TMFyHYq7FXYq7FXYq7FXYq7FXYq7FXYq7FXYq7FXYq7FXYq7FXYq7FXYq7FXYq7FXkP8AzlHq&#xA;VxaflitvEaJqGoW9tOPFFWS4A/4OBc2fZMQc19w/Y4msNQ+L5EzpnVIe7P2R8zlWRtxofKmx2Kux&#xA;V9TfkX5mvtAbTPLV1IW0+5VYhExqIriT4qp4BpDQj3rlHaWhjLFxgeuI+bpOze1pfmTAm8c5beXd&#xA;830HnLvZOxV2KvlL8/8A8zfOMP5iXuj6TrV3p+n6WsUccdlM9vykkiSSRnaIqznk1Pi6U2716Ps7&#xA;S4ziEpRBJ73V6rNLjoHk82/5WT+Yv/U06v8A9J91/wBVMz/yuL+bH5Bx/Gn3n5q9p+av5lWsnqRe&#xA;Z9TZqg0lupZl2/yZWcZE6TEf4Y/JIzTHUvePyN/PrVPMurR+WPM4STUZkZrDUY1EfqtGpdo5UWiB&#xA;uIJDKANqUrmn1/Z4xx44cuoc3TakyPDJ7vmnc52KuxV2KuxV2KuxV2KsS/NDXrzRfKks9lKYbq4l&#xA;S3jlH2l51ZivvxU5sOzMEcuYCQsDd1Hbeqlh05MTUiaeHf4v82f9Xu//AOkqb/mrOp/KYf5kfkHh&#xA;/wCUNR/qk/8ATH9bh5w82gg/pu/28bmY/wDG2P5PD/Mj8gv8oaj/AFSf+mKe6D+bHmzTbhDdXJ1G&#xA;0r+8gnoWI78ZKcgfnUe2YufsrDMbDhPl+pztL27qMZ9R449x/W930vUrbU9OttQtTyt7qNZIyetG&#xA;FaH3HQ5ymXGYSMTzD3mDNHLATjykLRWVtrsVdiqUeb9Sl0zyxqd9C/pzQ27+jJt8MjDih322YjMj&#xA;SYxPLGJ5EuH2hmOLBOY5iJr39Hz/AGPmvzjLe28cWtXxlklRUDXErKWLACqlqEV7HOunpcIiSYR+&#xA;QfP8Wu1JkAMk7v8AnFFf85eX6FvLOnrJ8YF3cSxb7A+kkbeHZ803Y0fqPue81x5B855vHXoS6NZK&#xA;eAyjJzbsfJSyDN2Ksq8keWpb28TUblONlA3KPl/uyRelP8lT1+7LsOOzZ5On7V14xxMI/WfsD2Hy&#xA;hDJN5r0eOOvI3tuajqAJFJP0AVyzVmsM/wCqfuef7PiTqMYH8+P3vp7OGfT3Yq7FXwR+Yup/pPz7&#xA;5hvq1SbULkxn/itZWVP+FAzstNDhxxHkHR5TcifN71/zjZ+X3lbUPI1zq2taPaalc3l5IkMl5BHP&#xA;xhhVVAQSBuPxl6kdfozTdqamccgjEkUOjnaTFExsi2F/85MeR/KvlnV9Gn0G2SxbUYpzd2cO0Y9F&#xA;kCSKvRefMig2+HMvsvUTyRIkbpp1eOMSKYX+TEFxP+aXlpIK8xeLIafyRgvJ/wAIpzK1xAwyvuad&#xA;OPWH2T5q87+VPKlqtzr+pRWKPX0o2JaWSnXhEgaRqd6DbOXw4J5DURbt55Ix5lgS/wDOTv5Wm49I&#xA;zXip/v8ANseHWnQMX/4XMz+Ss1dPm0fnIMku/wA5/wAsLTSLTV5teh+o3rvFbuiTSOXjALq0UaNK&#xA;nEMteSjqPEZQNDmMjHh3DYdRAC7RXlP81PIPmy/k0/y/qy3l5FGZnhMU8LcAQpYetHHyoWHTI5tJ&#xA;kxi5CgmGaEjQKV3/AOfP5TWF9cWN1ryrc20jRTKttdyKHQ8WAdIWRqEdQcsj2fmIsR+0frYnU4wa&#xA;tmOia5pGu6XBqukXSXmn3I5Q3EZ2NDQgg0KkHYgioPXMXJjlA8MhRbYyEhYV7+/stPsp76+mS3s7&#xA;ZGlnnkPFERRUsScjGJkaHNJIAssBP/OQ35PBqf4gFa0/3kvaff6OZv8AJuf+b9o/W0fmsff96Xfn&#xA;lqMUmmaNbwuJIrl5LlWUgqVRFCsCPES7ZsOw8fqke7b8fJ532nyeiEe8k/L+1gX5e6Tb6r5w06zu&#xA;Y1lty7STRtupWNGehHgStM2/aGU48MpDm6DsnAMuphGQsfqFvY/N/kfyi/l7UJxptvay29tLLFPA&#xA;iwlWjQsp+AKDuO+c3pNbmGSI4ibI57vY9odmac4ZHgjEiJNgVy9z56zsHzx9E/lifq/5f6Y9wwjV&#xA;UmkZ3NAEM0jAknoOOcd2nvqJV5fcH0XsX06OBl5/eVHUfzb8k2cpjW6e7ZdmNvGWWvszcVP0HJY+&#xA;yc8hdV72Gbt7SwNXxe4IzRvzI8oatIYbe9EU4Ut6U6mIkKKmhPwnYdAcrzdnZsYsjbybtP2xp8po&#xA;So+eyj/ytbyDWn6V36f3FxT7/TyX8laj+b9o/Ww/l3Sfz/sl+pBfm9qEcfkWQRuGS+lhjR1IIYV9&#xA;XY+BEeWdkY7z7/wg/qae38oGlNfxEfr/AEPIvIVl9c85aRDSoFykpHWoh/en8EzotfPhwyPl9+zy&#xA;HZePj1MB/Sv5bsc/5yk1OG7/ADMS2jry07T4LeavTm7ST7f7CZc13ZMKw33n9j22sNz+Dx/No4if&#xA;WH5f3l9apdyXSQesA6R8Cx4kbE7r1yPgk7utzdswxyMRG6RSfli9fj1EAe0Vf1uMP5fzaT28OkPt&#xA;/Ym2nfl/olqwkn53bjekhASo/wAlev0k5OOCIcPP2zmntH0jy5slVVRQqAKqiiqBQADwy51JJO5e&#xA;ifkx5elvPMLavIp+q6crcGPRppFKhfoUk/dmn7Z1Ajj4Osvueh9ndIZ5vEP0w+8vcs5Z7l2KoPWd&#xA;QTTdIvtRenCyt5bhq1pSJC56fLJQjxSA70SNC356O7O7O5LMxJZj1JPU52zoHp/k/wD5yD81+UvK&#xA;1n5e0nTtPaC09Qi4uEmeRjLI0hLcJYxWr7e2a/N2bDJMykTu5OPVSjGgAwrzh5z8web9YbVtcuPX&#xA;uiojjVQEjjjUkhI1HRQST+JzLw4I4o8MeTTkyGZsvRfyf09vJ2hap+aer259Czha08v28nwm5u5/&#xA;g5r34KCVLDty/lzB1svFkMMevPyDkYBwAzPweZ67ruveaddl1HUpZL7VL1wAACxJJokcaDoBWiqM&#xA;z8eOOONDYBxpSMjZ5vTtK/5xa/MS901bu4nsbCeReS2U8khlG1QHMcbop+k5gT7WxA0LLkx0cyHl&#xA;3mLQNY8vaxc6Lq8Btr+zbjLCSCPiAYMpFQQykEEds2GLJGcRKPIuNOJiaL2X/nEnTPV8063qZWot&#xA;LJLetOhuZQw3+Vuc1fbE/REd5/H3uZoR6iWFfnz5X/w9+ZmqRxpwtdRI1G12oONxUyUHgJg4GZXZ&#xA;+XjwjvGzTqYcMy9Z/wCcS/MnraNrPlyVvjtJkvbcH+SdeEgHsrRg/wCyzXdsYqkJ9+zlaGexCR/8&#xA;5M/mkby7PkjSZa2lqyvrMqHZ5l3WDb9mP7Tf5VP5ct7K0lDxJc+n62GszX6Qwv8AIv8AK9vOvmYT&#xA;30Z/w/pZWW/JqBK/VLcH/KpVvBfcjMvtDV+FCh9R5fradNh45b8g9d/O25VvMlnZR0WK0tFogAAV&#xA;ndtgB/kquR7FhWInvk897S5Lzxj3R+8sT8q+Zbny5qo1K2hjnmEbRqsvLiOdKn4Su+2bHVaYZocJ&#xA;NB1Gh1ktPk44gE11TbzH+aHmjXrFrG4MNtayf3yWysvMDejF2c09hmPp+zMWKXELJ83L1nbefPDg&#xA;NRj5dftKR+XtBv8AXdVh06yQtJKfjelVjSvxO3suZWozxxQMpODpNLPPkEI8z9nmyf8AMbzS0kye&#xA;WNMdo9G0hVtSoNPWkhHEl6dQpFB775g9naWh4svrnv7rdp2vrbPgQ2x49veR+P0pV5U8g6/5lDS2&#xA;SJFaIeL3c5Kx8hvxWgZmPyGX6rX48G0ufcHE0PZWbU7x2j3lW82fl1r/AJZgju7lop7RmC+vAWIR&#xA;z0DBgpFexyOl7Rx5zQ2Pmz1/ZGbTASlRj3hjNvC89xFAn25XVF+bGgzOlKhbrIRMiAOr1v8APGdL&#xA;fS9F0yM/u+buF9oUVFr/AMjDnPdiRuc5H8W9d7TS4ceOA8/s2/Sxv8mLP1/OYmptaW0stfdqRf8A&#xA;MzM3tmdYK7yP1ut9ncfFqb/mxJ/R+l4r+c+qtqn5p+ZbllCmO8a0oKgUs1FsDuT19GpyWhhw4Yjy&#xA;+/d6PUSuZYWqlmCjck0AzLaSXsEESwwxxL9mNQg+SimZDw85cRJ71WOOSWRY4lLyOQqIoJYk7AAD&#xA;qcBIAsoAJNDmm8fkzzdI4RdFvgT/ADW8qj72UDMc6zCP44/MOWOztQf8nP8A0pZR5e/JrzHezI+q&#xA;8dNtK1cFlkmYf5KqSo/2R+jMHUdsYoj0eo/Y7TSezuaZvJ6I/MvZ9G0bTtG06LT9PiEVvENh1Zie&#xA;rMe7HvnNZs0skjKR3ez0+nhhgIQFAI3Km92KsI/OzU/0b+VfmOflxMlqbUe/1p1gp/yUzL0MOLNE&#xA;ef3btOoNQL4eVWZgqgliaADcknOudK+pNJ/5xN8njTbf9LapqL6kUBujbPBHDzO5CK8MrUHTdt85&#xA;6fbE79IFfjzdnHRRrcm2ReX/APnG38sNHuEuJLa41aSM8kGoSiRAfeOJYkb5MpGUZO1M0hV17myO&#xA;kgPNi/8AzllK8HlTQLGBRHZteOxRKKgMMPGNQo8FdqUzI7HFzketNWt+kB5B+Qp0tfzX0E6kVWIS&#xA;S+gXpx+sei4h69/Upx/yqZs+0L8GVOJpq8QW+2SQBU9M5N3L4r/PzzRpnmL8yb660x0ms7WOOzW5&#xA;joVlaIHm4I+0OTFQe4HhnV9nYjDEAeZ3dPqZiU9nr3/OJWmel5U1rUytGu75YA1Oq28QYfRWc5rO&#xA;2J3OI7g5ehHpJa/5yu8qi68u6b5lhSs2mzG1uiB/ui43Vm/1ZFAH+vj2RmqRh3o1sLAl3PAPI3nn&#xA;WPJmq3Gp6SQLm4tJrMluiiUDi9O5R1VwD4ZutRp45Y1LvtwceQwNhA6Does+aPMNtpdirXOp6jNQ&#xA;M5J+JjyeSRtzRRVmOSyZI44knkGMYmRoc33N5G8m6Z5P8s2mhaeKxwDlPOQA00zbyStTux+4UHbO&#xA;R1Gc5ZmRd3jxiEaDxH8zrz61541RwfhidYVHh6Uaof8Ahgc63syHDgi+edtZOPVT8tvkEy/Lb8vL&#xA;PzRFdXd/cSw2tuwiVIOIdnIDV5MHAAHamUdo9oSwECIBJ73J7H7JjqhKUyREbbM5i/JHygkgZp72&#xA;VR1R5IwD/wADGp/HNUe2sx6R+39bvI+zWnB5zPxH6mWaV5f0fQLCWLSbRLccSzEVZ3KjbmxJZvvz&#xA;Ay6ieWVzNu3waTHp4EY40+YZHeR2kc8nclmY9STuTncAU+Xkkmy+kfy8Nl/gvSPqZBiFuvOn+/f9&#xA;21/56cs4vtDi8eXF3/Z0+x9J7J4fy0OHlw/b1+1JPzk1mytfKkmmu4N5fvGIov2gscgkZ6eHwcfp&#xA;zK7Hwylm4ukXB9odRGOnMD9U6+w3byTyJZ/XPOOjw0qPrMcjDxER9Q/gmdDrp8OGR8vv2eS7Lx8e&#xA;pgP6Q+zdlH54Xnq+Z7W2BqtvaKSPBpHYn/hQuYHYkKxE98nae0uS88Y90fvJTP8AIezrLq96R9lY&#xA;YUP+sWZv+IrlHbs9ox95cn2Xx7zl7h975N1XUbjUtUvNRuW5XF7PJcTN4vK5dj97ZtoREQAOjsJG&#xA;zapokPraxZx0qDMhYewNT+AyY5uNqp8OKR8i9Wy94xmn5Q2X1nzvauV5Laxyzn/gOAP/AATjNZ2v&#xA;PhwHzoO67Ax8WqB/mgn9H6X0DnIvoLsVdirsVdiryD/nKS7uIfyzWGJGZLm/gjuGUEhY1V5KsRsP&#xA;jRRvmz7JAOb4OJrD6Pi+afy50C617zxounQQPOj3kDXQRS4S3WVTLI3+SqVrXN9qcghjkT3OuxR4&#xA;pAPvXOOd47FWC/nN+X0nnjyXNp1pxGq2si3emlzxUyoCpjY9g6Mw8K0J6ZmaHU+Fks8jzaNRi441&#xA;1fFepaZqmkX8llqNtLZX0DUeGZWjkUjoaGn0HOqjMSFg2HTkEGiyfS9c/Nfzdx8vWGparqqSgI1m&#xA;s8zpwPw/vSW4hPHmeOUTx4cfqIiG2Msk9gSWK6jYXenX9xYXcZiurWR4Z42BBV0JVhv7jMiMhIAj&#xA;kWoijT7O/ILQbrRfyu0qC8ge2vLhprqeGRSjj1JW4clbcVjCnOW7RyCeYkcnb6aNQCdfmnb6Rc/l&#xA;35gh1eZbexazk5Tv0SQCsLUG5IlC0Hc7ZTpDIZY8PO2eYDgNvg/OxdI+tv8AnHX8rP8ADWh/4i1W&#xA;EDXNWjBhRh8VvatRlT2eTZm+geOc12lq/ElwR+kfaXa6XDwizzL2PNW5b5Z1+aWfXdRnlVklluZn&#xA;dHFGBaQkgjsRneYIgY4gdwfLNVIyyyJ5mR+97h+T1hJaeS4pHQobyaS4AIoSDSNT9IjqM5ftfJxZ&#xA;z5CnuPZ/EYaYE/xEn9H6GbZq3duxV87/AJg+Sb7y/q88scLNpE7l7WdQSqhjX02I+yV6DxGdjoNb&#xA;HNAAn1jn+t877W7Nnp8hIH7s8j+hItM17XNMDJp19cWqyGrJDIyqx8SoNK5l5MGOf1RBcDDqsuLa&#xA;EpR9xVta0zzHFFb6prMc/wDp5b0p7ksXfhTc8vi/a2r1yGHLiJMIV6e5nqcOYAZMoPq6llH5MaXP&#xA;cebRfCJjb2UMjNNT4Q7r6YWviQx2zB7ZygYeHrIu09ncBlqOKtog/qSz80p5ZvPWpmRWQIY0QMKf&#xA;CsSio9j1y/suIGCP46uN23InVTvy+4PTfyZ0uey8qPNPE0b3tw0ycwVJiCKqHfsaEjNH2zlEs1A/&#xA;SHp/Z3AYaeyK4pX8NlBv+ce/yfZix8vipNTS6vAN/ACamY/8pZ/532D9TtvyuPuY15+/KP8ALbyx&#xA;5efVdH0b6tqSyxxwXH1i6l4cz8XwySum6Ajcfjmf2bq8uTMBI7b9zp+3ccIaY0NyQHmedI8I9R/I&#xA;iyLalql9TaKGOAN/xlcsR/ySzRduT9MY+d/j5vU+y+O5zl3AD5/2PZM5t7J2KuxV2KuxV2KuxV2K&#xA;uxV2KoW/0nStQQJf2cF4g2CzxpKBX2cHJRmY8jSDEHmvs7CxsovSs7eK2i6+nCixr9ygDBKRPNQA&#xA;OSvgS7FXyj/zkj+aEmua4/lTTZCuk6RKVvSKj17xCVav+TFuo8TU7/DnR9maTgjxn6pfc6vV5uI8&#xA;I5BCf848flYfNGvfp/VIeWg6TICqOPhuLpaMse/VU2Z/oHc5LtLV+HHhH1H7AjS4eI2eQfXOc07V&#xA;2KuxV2KuxV2KuIDAqwqDsQehGKoWHStLhl9aGzgil6+okaK223UCuWHLMiiS1RwY4mxEA+5FZW2u&#xA;xV2KuxV2KoXVP0X9Ql/Svofo+g9f61w9GlRTn6nw/ap1yzFx8Q4L4vLm1Z/D4D4lcHW+X2sc/wCQ&#xA;Tf8Aah/6c8zP8L/2z/ZOt/1v/wBp/wBgnmh/4e+qt+gvqn1Xl8f1H0vT507+l8Ncxc/iX+84r87/&#xA;AEufpvB4f3XDw/0ar7ExylyHYq7FXYq7FXYq7FXYq7FXYq7FXYq7FXYqwbWv+VH/AKVuf03/AIZ/&#xA;S3P/AEz679Q+sc/+LfV+Pl/rZmY/zHCOHj4fK2mXhXvw38GVaF+gf0VB+gPqv6Jp/ov1D0/q/Gv+&#xA;6/S+CnyzGycXF6r4vNsjVbckfkGTsVdirsVdirsVdirsVdirsVdirsVf/9k=</xmpGImg:image>
               </rdf:li>
            </rdf:Alt>
         </xmp:Thumbnails>
         <xmpTPg:MaxPageSize rdf:parseType="Resource">
            <stDim:w>361.244444</stDim:w>
            <stDim:h>95.602778</stDim:h>
            <stDim:unit>Millimeters</stDim:unit>
         </xmpTPg:MaxPageSize>
         <xmpTPg:NPages>1</xmpTPg:NPages>
         <xmpTPg:HasVisibleTransparency>False</xmpTPg:HasVisibleTransparency>
         <xmpTPg:HasVisibleOverprint>False</xmpTPg:HasVisibleOverprint>
         <xmpTPg:PlateNames>
            <rdf:Seq>
               <rdf:li>Cyan</rdf:li>
               <rdf:li>Magenta</rdf:li>
               <rdf:li>Yellow</rdf:li>
               <rdf:li>Black</rdf:li>
            </rdf:Seq>
         </xmpTPg:PlateNames>
         <xmpTPg:SwatchGroups>
            <rdf:Seq>
               <rdf:li rdf:parseType="Resource">
                  <xmpG:groupName>Standard-Farbfeldgruppe</xmpG:groupName>
                  <xmpG:groupType>0</xmpG:groupType>
               </rdf:li>
            </rdf:Seq>
         </xmpTPg:SwatchGroups>
         <dc:format>image/svg+xml</dc:format>
      </rdf:Description>
   </rdf:RDF>
</x:xmpmeta>
                                                                                                    
                                                                                                    
                                                                                                    
                                                                                                    
                                                                                                    
                                                                                                    
                                                                                                    
                                                                                                    
                                                                                                    
                                                                                                    
                                                                                                    
                                                                                                    
                                                                                                    
                                                                                                    
                                                                                                    
                                                                                                    
                                                                                                    
                                                                                                    
                                                                                                    
                                                                                                    
                           
<?xpacket end="w"?>
	</metadata>
<path id="path14499" class="st0" d="M192.5,26.9c-11.8-13.5-33.2-19.3-60.6-19.3H52.4c-5.6,0-10.4,4.1-11.2,9.6L8.1,227.1
	c-0.7,4.1,2.5,7.9,6.7,7.9h49.1l12.3-78.1l-0.4,2.4c0.9-5.5,5.6-9.6,11.2-9.6h23.3c45.8,0,81.6-18.6,92.1-72.4
	c0.3-1.6,0.6-3.1,0.8-4.7c-1.3-0.7-1.3-0.7,0,0C206.4,52.7,203.2,39.2,192.5,26.9"/>
<path id="path14519" class="st1" d="M699.3,126.2h-26.4c-2.5,0-4.9,1.3-6.3,3.3l-36.4,53.6l-15.4-51.5c-1-3.2-3.9-5.4-7.3-5.4h-25.9
	c-3.1,0-5.3,3.1-4.3,6l29.1,85.3l-27.3,38.6c-2.1,3,0,7.2,3.7,7.2H609c2.5,0,4.8-1.2,6.3-3.3L703,133.3
	C705.1,130.3,703,126.2,699.3,126.2 M522.8,177.3c-2.5,15-14.4,25.1-29.6,25.1c-7.6,0-13.7-2.5-17.6-7.1c-3.9-4.6-5.3-11.2-4.1-18.4
	c2.4-14.9,14.5-25.3,29.4-25.3c7.5,0,13.5,2.5,17.5,7.2C522.3,163.4,523.9,170,522.8,177.3 M559.4,126.2h-26.3
	c-2.2,0-4.2,1.6-4.5,3.9l-1.2,7.3l-1.8-2.7c-5.7-8.3-18.4-11-31-11c-29,0-53.8,22-58.6,52.8c-2.5,15.4,1.1,30.1,9.8,40.4
	c8,9.4,19.4,13.4,33.1,13.4c23.4,0,36.4-15,36.4-15l-1.2,7.3c-0.4,2.8,1.7,5.3,4.5,5.3h23.6c3.8,0,6.9-2.7,7.5-6.4l14.2-89.9
	C564.3,128.7,562.2,126.2,559.4,126.2 M401.8,126.8c-3,19.7-18,19.7-32.6,19.7h-8.3l5.8-36.8c0.3-2.2,2.3-3.9,4.5-3.9h3.8
	c9.9,0,19.2,0,24.1,5.6C402,114.9,402.9,119.9,401.8,126.8 M395.4,75.4h-54.8c-3.8,0-6.9,2.7-7.5,6.4l-22.2,140.6
	c-0.4,2.8,1.7,5.3,4.5,5.3h26.2c3.7,0,6.9-2.7,7.5-6.4l6-37.9c0.6-3.7,3.8-6.4,7.5-6.4H380c36.1,0,57-17.5,62.4-52.1
	c2.5-15.1,0.1-27.1-7-35.4C427.6,80.3,413.8,75.4,395.4,75.4"/>
<path id="path14523" class="st2" d="M981.5,79.3L959,222.5c-0.4,2.8,1.7,5.3,4.5,5.3h22.6c3.7,0,6.9-2.7,7.5-6.4l22.2-140.6
	c0.4-2.8-1.7-5.3-4.5-5.3h-25.3C983.8,75.4,981.9,77.1,981.5,79.3 M914,177.3c-2.5,15-14.4,25.1-29.6,25.1c-7.6,0-13.7-2.5-17.6-7.1
	c-3.9-4.6-5.3-11.2-4.1-18.4c2.4-14.9,14.5-25.3,29.4-25.3c7.5,0,13.5,2.5,17.5,7.2C913.6,163.4,915.1,170,914,177.3 M950.6,126.2
	h-26.3c-2.2,0-4.2,1.6-4.5,3.9l-1.2,7.3l-1.8-2.7c-5.7-8.3-18.4-11-31-11c-29,0-53.8,22-58.6,52.8c-2.5,15.4,1.1,30.1,9.8,40.4
	c8,9.4,19.4,13.4,33.1,13.4c23.4,0,36.4-15,36.4-15l-1.2,7.3c-0.4,2.8,1.7,5.3,4.5,5.3h23.6c3.8,0,6.9-2.7,7.5-6.4l14.2-89.9
	C955.6,128.7,953.4,126.2,950.6,126.2 M793,126.8c-3,19.7-18,19.7-32.6,19.7h-8.3l5.8-36.8c0.3-2.2,2.3-3.9,4.5-3.9h3.8
	c9.9,0,19.2,0,24.1,5.6C793.2,114.9,794.1,119.9,793,126.8 M786.7,75.4h-54.8c-3.8,0-6.9,2.7-7.5,6.4l-22.2,140.6
	c-0.4,2.8,1.7,5.3,4.5,5.3h28.1c2.6,0,4.9-1.9,5.3-4.5l6.3-39.9c0.6-3.7,3.8-6.4,7.5-6.4h17.4c36.1,0,57-17.5,62.4-52.1
	c2.5-15.1,0.1-27.1-7-35.4C818.8,80.3,805,75.4,786.7,75.4"/>
<path id="path14527" class="st0" d="M192.5,26.9c-11.8-13.5-33.2-19.3-60.6-19.3H52.4c-5.6,0-10.4,4.1-11.2,9.6L8.1,227.1
	c-0.7,4.1,2.5,7.9,6.7,7.9h49.1l12.3-78.1l-0.4,2.4c0.9-5.5,5.6-9.6,11.2-9.6h23.3c45.8,0,81.6-18.6,92.1-72.4
	c0.3-1.6,0.6-3.1,0.8-4.7c-1.3-0.7-1.3-0.7,0,0C206.4,52.7,203.2,39.2,192.5,26.9"/>
<path id="path14531" class="st1" d="M89.5,72.9c0.5-3.3,2.7-6,5.5-7.4c1.3-0.6,2.8-1,4.3-1h62.3c7.4,0,14.3,0.5,20.5,1.5
	c1.8,0.3,3.6,0.6,5.2,1c1.7,0.4,3.3,0.8,4.9,1.3c0.8,0.2,1.6,0.5,2.4,0.7c3.1,1,6,2.2,8.6,3.6c3.1-19.9,0-33.4-10.8-45.7
	c-11.8-13.5-33.2-19.3-60.6-19.3H52.4c-5.6,0-10.4,4.1-11.2,9.6L8.1,227.1c-0.7,4.1,2.5,7.9,6.7,7.9h49.1l12.3-78.1L89.5,72.9
	L89.5,72.9z"/>
<path id="path14535" class="st2" d="M203.3,72.6L203.3,72.6c-0.2,1.5-0.5,3.1-0.8,4.7c-10.5,53.8-46.3,72.4-92.1,72.4H87
	c-5.6,0-10.3,4.1-11.2,9.6L63.9,235l-3.4,21.5c-0.6,3.6,2.2,6.9,5.9,6.9h41.3c4.9,0,9.1-3.6,9.8-8.4l0.4-2.1l7.8-49.4l0.5-2.7
	c0.8-4.8,4.9-8.4,9.8-8.4h6.2c40.1,0,71.4-16.3,80.6-63.3c3.8-19.7,1.8-36.1-8.3-47.6C211.5,77.9,207.7,75,203.3,72.6"/>
<path id="path14539" class="st3" d="M192.3,68.3c-1.6-0.5-3.2-0.9-4.9-1.3c-1.7-0.4-3.5-0.7-5.2-1c-6.3-1-13.2-1.5-20.6-1.5H99.3
	c-1.5,0-3,0.3-4.3,1c-2.9,1.4-5,4.1-5.5,7.4l-13.2,83.9l-0.4,2.4c0.9-5.5,5.6-9.6,11.2-9.6h23.3c45.8,0,81.6-18.6,92.1-72.4
	c0.3-1.6,0.6-3.1,0.8-4.7c-2.7-1.4-5.5-2.6-8.6-3.6C193.9,68.7,193.1,68.5,192.3,68.3"/>
</svg>
