<?xml version="1.0" encoding="utf-8"?>
<!-- Generator: Adobe Illustrator 21.0.2, SVG Export Plug-In . SVG Version: 6.00 Build 0)  -->
<svg version="1.1" id="svg4722" xmlns:svg="http://www.w3.org/2000/svg"
	 xmlns="http://www.w3.org/2000/svg" xmlns:xlink="http://www.w3.org/1999/xlink" x="0px" y="0px" viewBox="0 0 817.3 260.3"
	 style="enable-background:new 0 0 817.3 260.3;" xml:space="preserve">
<style type="text/css">
	.st0{fill:#EE7F00;}
	.st1{fill:#383A41;}
</style>
<metadata><?xpacket begin="﻿" id="W5M0MpCehiHzreSzNTczkc9d"?>
<x:xmpmeta xmlns:x="adobe:ns:meta/" x:xmptk="Adobe XMP Core 5.6-c137 79.159768, 2016/08/11-13:24:42        ">
   <rdf:RDF xmlns:rdf="http://www.w3.org/1999/02/22-rdf-syntax-ns#">
      <rdf:Description rdf:about=""
            xmlns:xmp="http://ns.adobe.com/xap/1.0/"
            xmlns:xmpGImg="http://ns.adobe.com/xap/1.0/g/img/"
            xmlns:xmpTPg="http://ns.adobe.com/xap/1.0/t/pg/"
            xmlns:stDim="http://ns.adobe.com/xap/1.0/sType/Dimensions#"
            xmlns:xmpG="http://ns.adobe.com/xap/1.0/g/"
            xmlns:dc="http://purl.org/dc/elements/1.1/">
         <xmp:CreatorTool>Adobe Illustrator CC 2017 (Windows)</xmp:CreatorTool>
         <xmp:CreateDate>2017-07-24T11:50:43+02:00</xmp:CreateDate>
         <xmp:Thumbnails>
            <rdf:Alt>
               <rdf:li rdf:parseType="Resource">
                  <xmpGImg:width>256</xmpGImg:width>
                  <xmpGImg:height>80</xmpGImg:height>
                  <xmpGImg:format>JPEG</xmpGImg:format>
                  <xmpGImg:image>/9j/4AAQSkZJRgABAgEASABIAAD/7QAsUGhvdG9zaG9wIDMuMAA4QklNA+0AAAAAABAASAAAAAEA&#xA;AQBIAAAAAQAB/+4ADkFkb2JlAGTAAAAAAf/bAIQABgQEBAUEBgUFBgkGBQYJCwgGBggLDAoKCwoK&#xA;DBAMDAwMDAwQDA4PEA8ODBMTFBQTExwbGxscHx8fHx8fHx8fHwEHBwcNDA0YEBAYGhURFRofHx8f&#xA;Hx8fHx8fHx8fHx8fHx8fHx8fHx8fHx8fHx8fHx8fHx8fHx8fHx8fHx8fHx8f/8AAEQgAUAEAAwER&#xA;AAIRAQMRAf/EAaIAAAAHAQEBAQEAAAAAAAAAAAQFAwIGAQAHCAkKCwEAAgIDAQEBAQEAAAAAAAAA&#xA;AQACAwQFBgcICQoLEAACAQMDAgQCBgcDBAIGAnMBAgMRBAAFIRIxQVEGE2EicYEUMpGhBxWxQiPB&#xA;UtHhMxZi8CRygvElQzRTkqKyY3PCNUQnk6OzNhdUZHTD0uIIJoMJChgZhJRFRqS0VtNVKBry4/PE&#xA;1OT0ZXWFlaW1xdXl9WZ2hpamtsbW5vY3R1dnd4eXp7fH1+f3OEhYaHiImKi4yNjo+Ck5SVlpeYmZ&#xA;qbnJ2en5KjpKWmp6ipqqusra6voRAAICAQIDBQUEBQYECAMDbQEAAhEDBCESMUEFURNhIgZxgZEy&#xA;obHwFMHR4SNCFVJicvEzJDRDghaSUyWiY7LCB3PSNeJEgxdUkwgJChgZJjZFGidkdFU38qOzwygp&#xA;0+PzhJSktMTU5PRldYWVpbXF1eX1RlZmdoaWprbG1ub2R1dnd4eXp7fH1+f3OEhYaHiImKi4yNjo&#xA;+DlJWWl5iZmpucnZ6fkqOkpaanqKmqq6ytrq+v/aAAwDAQACEQMRAD8A9U4q7FXYqkPm7zZa+XrJ&#xA;ZGX1ryaotretK06sx/lGa3tLtKOlhfOR5D8dHP7P0EtRKuURzLyfUvOnmbUJS8t/LEp6RQMYkA8K&#xA;IRX6a5xWftXUZTZmR5DYfY9bh7NwYxQiD790t/Sepf8ALXN/yMb+uYn5jJ/OPzLleDD+aPk79J6l&#xA;/wAtc3/Ixv64/mMn84/Mr4MP5o+S+G91eeVIYbieSWQhURXckk7AAA5KOXLIgAyJPmWMseOIsiNM&#xA;6h+p+TrWO61ieS/12VecFh6jFIq9C25H+y/4Hxzo4cGhiJZSZ5jyjew/Hf8ALvdDLi1kjHEBDEOc&#xA;q5/j+1i+s+d/Mequ3q3TQQE7W8BMaAeBpu3+yJzTartbPmO8qHcNvx8Xa6fszDiG0bPed0iJLEkm&#xA;pPUnNcS59J55f8463o1wjRzvNag/vLSRiUK9+Na8T7jNjou1M2CQo3HuPL9jg6vs7FmG4qXf+Ob2&#xA;zTr+31Cxgvbc1huEDpXqK9j7joc9BwZo5YCceUg8PmxHHMxPMMP88fmCdLlbTdL4vfL/AH87DksV&#xA;RsAOhb8Bmi7W7a8E+Hj+vqe79ruezOyfFHHk+noO/wDY82u/MOu3bl7i/nkJ3p6jBR8lBAH0ZyeT&#xA;W5pm5Tkfi9Lj0mKAqMY/JQ/Sepf8tc3/ACMb+uV/mMn84/Mtngw/mj5O/Sepf8tc3/Ixv64/mMn8&#xA;4/Mr4MP5o+TLvL2hXH1D9OeYb+e10ld44vUcSTeFN6gHtTc/jm70WjlweNnnKOLus3L8fa6fV6oc&#xA;fhYYiWT3Cgo63+ZGqXC/VdIH6OsEHGPjvMVHi+/H6PvOQ1fbuSXpxeiH2/P8e9npuxscfVk9c/sY&#xA;lPc3NxIZLiV5pD1eRix+81zSTySkbkST5u3hCMRQFK2n6rqWnyiWyuZLdwa/AxAPzHQ/TlmHUZMR&#xA;uEjFhlwQyCpgF7F5F81Nr+mv9YCrf2xCzhdgwb7Lgdq0Nc7vsjtH8zjPF9cef63je1ND+Xnt9EuX&#xA;6kJ+Z2tPYaEttC5S4vXCBlNGEafE5BH0D6co7f1RxYeEGpTP2Dm3di6YZMvERtEfa8n/AEnqX/LX&#xA;N/yMb+ucV+Yyfzj8y9b4MP5o+Tv0nqX/AC1zf8jG/rj+Yyfzj8yvgw/mj5I6x82+ZLJw8Goz0H7E&#xA;jmRP+BfkMyMPaWoxm4zl8Tf3tGXQYJjeA+77mY3l8/mzypPqcTPa6xpSkzrC7KjoByO1ehFSPcUz&#xA;fZcx1umOQenLj511DpceL8pqBjPqx5OV9GAfpPUv+Wub/kY39c5n8xk/nH5l6HwYfzR8nfpPUv8A&#xA;lrm/5GN/XH8xk/nH5lfBh/NHyd+k9S/5a5v+Rjf1x/MZP5x+ZXwYfzR8nfpPUv8Alrm/5GN/XH8x&#xA;k/nH5lfBh/NHyTPyymp6rrtnY/WpjHJIDN+8f+7T4n7/AMozL0AyZs0YcUqJ33PLq4utMMWKU6Gw&#xA;7uvR7rno7wbsVdirwjzfrb6xr9zdcqwKxith2EaGgp/rfa+nPN+09Wc+eUunIe4fi3vez9N4OER6&#xA;8z70qtbd7m5ht0IDzOsaltgCxoKn6cwscDOQiOppy5zEYmR6PS4/yfseC+pqMpkp8RVFAr7Ak51s&#xA;fZmFbzN+55k+0M72gPmu/wCVQab/ANXCb/gFyX+hnH/PP2I/0QT/AJoWy6DonkW2l1gyNeXxHpWE&#xA;coApIwNSAPbqfD54JaPD2dE5b458o33rHVZddIY64Y85V3PNr29ur26lu7qQyzzNyd26k/0HbOSy&#xA;5ZZJGUjci9NjxxhERiKAZT5J8hPra/Xr5mh05TxQLs8rDrxJ6KO5zddk9jnUDjntj+/9jqe0u1Rg&#xA;9EN5/cjPzB8maPoum297p4eMvMIXjZi4IKM3LfevwZf212ViwYxOFjevsP6mnsntHJmmYz7rYHnN&#xA;O/eueUNUGm/lyL+TcWyztGD0Leo3Ffpc0zuOzNR4Wg4z/Dxfea+15DtDB4ut4B/FX3fqeTTTSzTP&#xA;NKxeWRi8jnqWY1JP05xMpGRJPMvXRiIihyCe+TfKreYb+WFpTBbQJzllUcjUmiqK+O/3Zsey+zjq&#xA;pkXUQN3A7R135eANWSzL/lUGm/8AVwm/4Bc3/wDoZx/zz9jpv9EE/wCaFS3/ACs0OymW8u7x5ba3&#xA;/eyxyBVQqgqeR/l8clD2ew4zxykTGO5vkwn25lmOGMQJHZhHnDzRNruokoSmnwVW0h6AL05keLfh&#xA;0znu0+0Dqcm30D6R+l3nZ2hGCG/1nmUJ5c8v3mu6kllbfCKcppiKqiDqx/gMo0OinqMnBH4nuDdr&#xA;NXHBDil8PN6Nd/lf5ch0mYK031mONmFyz/tKpO6gcafRnVZPZ/TxxHnxAc7ebx9t5jkHLhvk8lzi&#xA;Xrmd/lE0n6cvFH92bYlvmJFp+s50ns0T40u7h/SHQ+0AHhR/rfoKX/mVq/1/zJJCjVhsV9BfDmN5&#xA;D/wW30Zi9vanxNQQOUNv1/jycjsbT+HgBPOW/wCpI9A0t9U1m0sFrSeQByOoQbufoUHNfo9Oc2WM&#xA;O8/Z1+xztVn8LFKfcP7Ho3mzyH5Ws9BvL23ha1lt4+UbCR2BatFUhy32iaZ1XaXY+mx4ZTiOExHe&#xA;f0285oO1NRPLGMjxAnuH6HlWcW9W9K/KzS3n0bWGclIr3jbBh/ko3Ij/AJG51vs9pzLFkvlP0/Yf&#xA;1vNduZ+HLjrnHf7R+pQ138tdJ0rSLrUHv5mFuhZVKqOTnZF+liBles7BxYcUshmfSPL4M9L2zky5&#xA;BARG5eeZyz0TL/JfkRPMFncXdxO9vFG4ji4AHkQKt18KjN72V2ONTAykTEA0HT9pdqHTyEQLNWyP&#xA;/lUGm/8AVwm/4Bc2v+hnH/PP2Ou/0QT/AJoTnyv5EsNAvZLuKd7iV4/TXmAAoJBNKeNMz+z+x4aa&#xA;ZmCZGqcLXdqT1EREihdsmzburdiqjeRySWk8cf8AePG6pvT4ipA3yvKCYkDnTPGQJAnlb52likil&#xA;eKVSkkZKujChBBoQRnlsomJo8w+jRkCLHJbkUsg0vz35n07gsd408KUHo3H7xaDtU/EPoObTT9sa&#xA;jFylY7jv+11+fsvBk5xo942eq+UvNFv5h08zqnpXMJCXMNa0JFQQf5W7Z2fZvaEdVj4htIcw8nr9&#xA;CdPOucTyLzT8x9cbUvMElujVtrCsEY7Fwf3jf8EKfRnJdu6vxc5iPpht8ev48np+x9L4eEE/VPf9&#xA;TH9K0+XUdStrGL7dxIsYPgCd2+gb5rNPhOXJGA5yLsM+UY4GZ6B9A2Vnb2VpDaW68IIECRr7AUz0&#xA;3FijjiIx5B89yZDORlLmXm/5u6oHurLTEP8AcqZ5R7v8Kj6Ap+/OT9pdRco4x03Px5PS+z+Coyme&#xA;uzzzOXeiZ75zlbSfKOjeXh8MzoJ7tO4p8RB+cjH7s6XtWXgaXHg61Z/HvP2Og7Oj42oyZunIfj3f&#xA;ewLOad+nOg+bdX0OKWOwMaiZg0jOgYmgoBXwGbDR9pZdOCIVv5OFqtBjzkGd7Ms8p+dvNWs69bWT&#xA;vF6BJe4IjAIjQVO/v0+nN12b2tqc+aMCRXXbo6nX9m6fDiMxd9N+qafmprjWmlRaZC1Jb4ky06iJ&#xA;Kbf7JqfcczPaLV8GMYxznz9w/W4vYWm48hyHlH73k2cS9a9n/LfQ103y/HcOtLm/pNIe4T/da/8A&#xA;A7/TnfdhaTwsAkfqnv8ADp+PN4vtjU+JmIH0w2/WivPmpjT/ACvePWklwv1aL3Muxp8k5HL+2NR4&#xA;WmkesvSPj+y2nsvB4meI6Df5fteHZ50909C/LvjpPl/WPMEw+FV9OEHapjFaf7J3UZ1HYn7nBkzn&#xA;4fD9ZIed7X/e5seEfH4/sefyyySyvLI3KSRizsepJNSc5mUjI2eZehjEAUOTIPJXmDTdC1Ca9u4J&#xA;J5TH6cAj40HI1YnkR4UzZ9la3HppmcwSaoU6/tLSTzwEYkAXur+b/Pl3r8a2scX1WxVuRj5cmdh0&#xA;LGg2HhlnafbEtSOEDhh9/va+z+y46c8RPFL7ko0HQNR1u9W1s0r09WY/YjX+Zj/DvmDo9Fk1E+GA&#xA;956BzNVq4YI8Uj8O97louk2uk6ZBYWw/dwrQserMd2Y+5Oei6XTRwYxCPIPC6nUSzTM5cywn83NW&#xA;4W1ppSH4pSbiYf5K1VB9Jr92c97S6moxxDruf0fjyd32Bp7lLIemw/S8xAJNB1zkHqHvvlfSRpOg&#xA;2dkRSREDTf8AGR/if8TTPTOz9N4OGMOoG/v6vAa7P4uWUul7e5NMzHEdirsVdirsVY/5g8j6Frch&#xA;nnjaC7IobiEhWanTkCCrfdXNZreyMOoNyFS7x+l2Gk7Ty4BQNx7i8384+RpvL0UV0lytzayv6YqO&#xA;DqxBYVFTUUU75yfanZB0oEhLiiTXm9L2d2oNQTGqkBfkxbNM7Vn/AOWMsllp2vakR+6t4VYe7RrI&#xA;9Po/jnTdgSOPHlydIx+6y8/23ETnjh1J++gwF3Z2LseTMSWJ6knOaJs2XoAKZt+U+nrPrs94wqLS&#xA;E8PZ5Txr/wADyzofZzDxZjM/wj7T+y3R9vZeHEI/zj934D1a5uIba3luJ2CQwqXkc9AqipOdnkmI&#xA;RMjyDycIGRERzLwDXNVl1XVrrUJKgzuSqn9lBsi/QoAzzPV6g5sspnqf7H0HS4BixiA6Jv5A0E6t&#xA;5giMi1tbOk89eh4n4F/2TfhXM7sbR+NnF/THc/oDh9rarwsJr6pbBDeddX/SnmS7nVuUMbehB4cI&#xA;9qj/AFjVvpyntXU+NqJS6DYe4fi23s3T+FgiOp3PxS3StOm1LUraxh2kuJFjDUrxBO7U/wAkb5i6&#xA;fAcuSMBzkXJz5hjgZnoGf/8AKnP+1v8A9O//AF9zpf8AQv8A7Z/sf+PPP/6Iv6H+y/46yDyf5Hi8&#xA;uz3E5uvrc06rGren6fBQasPtPXkafdm07M7IGlkZcXET5V+kuu7Q7TOoAFcIHnf6A89/Me+a682X&#xA;S1qlsqQR+wVeTf8ADMc5ft3Nx6mX9Gh+Pi9F2Pi4NOP6W6RaVZG+1O0s+n1iaOIkdg7AE5rdPi8T&#xA;JGH84gOfnycGOUu4EvoaNEjRY0AVEAVVHQAbAZ6iAAKD52SSbLyj81NdW71SLS4WrFZAmanQzP2/&#xA;2K/rOcX7RazjyDGOUOfv/Y9Z2FpeDGch5y5e5hVtbTXNxFbwIXmmYJGg6lmNAM5/HjM5CMdyXdzm&#xA;IxMjyDP/AD80WieWdM8t27VZh6lwR+0E3JP+vIxP0Z03bJGn08NPH3n8eZ+55/soHPnnnPw/HkHn&#xA;mcs9EueN048lK8hyWu1Qe+EgjmgEFUsntku4Xuo/VtldTNECVLJX4gCKEbZPEYiQMhcb39zHIJGJ&#xA;ETUuj6B0y0061so006JIrVlDxiMUBDCob3qO5z07T48cIAYwBHyfPc2ScpEzJMkVlzU8H84av+lf&#xA;MV5dKeUIf0oPD04/hUj/AFqcvpzzbtPU+NnlLpyHuH4t73s/T+FhjHrzPvKI8h6R+k/MtqjCsNuf&#xA;rE3hSMggH5tQZb2PpvF1ER0jufh+1r7U1HhYCep2Hx/Y9wz0R4Z2KuxV53+YPnbVtN1eOw0q4EHp&#xA;Rhrk8Eervuq/GrUotDt45y3bXa2XFlEMRqhvsDz9/l970fZPZuPLjM8guztz/Qxb/lY3nL/q4f8A&#xA;JGD/AJozTfy5q/5/2R/U7X+R9N/N+2X63f8AKxvOX/Vw/wCSMH/NGP8ALmr/AJ/2R/Uv8j6b+b9s&#xA;v1u/5WN5y/6uH/JGD/mjH+XNX/P+yP6l/kfTfzftl+tKtW13VtWkSTUblrhkqEqAAtetFUADMLU6&#xA;vLnN5JcVOXg0uPCKgKQcMMs8qQwoZJZCFRFFSSdgABlEYmRAAslulIRFnk9ksPK76d5FutLABvZ7&#xA;eV5uO9ZnQ0WvtQLneYezzi0csf8AGYm/fX4DxmXXDJq45P4RIV7r/BeMZwL2ie+UvNdx5du5Zo4V&#xA;uIp1CyxFuBPE1UhqNSlfDNl2b2jLSyJA4geYcDX6AaiIBNEI3zR+YGpa7b/VFiWzsyQZIlYuzkdO&#xA;TUXb2pl/aHbWTUR4QOGH3/Fp0PZMMB4r4pMbsrK6vbqO1tYzLcSnjHGvUnNVixSySEYi5F2WTJGE&#xA;TKRoB6y1lD5L8k3JRgb+RaPMP2p5PhXjXslaj5Z2pxDQaOVfWev9I/qeSGU63VC/o7vIfreQZwz2&#xA;DPfym0j1tTuNTdfgtE9OIn/fknUj5ID9+dL7N6biyHIf4RQ95/Z97oO3tRwwGMfxfcP2/c9Uzs3l&#xA;HYq8N8920lv5s1FXB+OQSKT3V1DCn35512xjMdVO++/m932XMS08a7qSewvJrG9gvIaerbyLKldx&#xA;VTUV9swcOU45iY5xNuZlxicTE8iKZvf/AJuajNaGK0sktbhhQzmQyUr3VeK7/MnOhze0uSUajERl&#xA;33f6HR4uwIRlcpcQ7qpgcjvI7SSMWdyWZiakk7kk5zRJJs83fAACg9N/LXydJbU1vUIyszLSyhYb&#xA;qrDeQjxI2HtnX9g9lmH76Y3/AIR+l5jtntES/dQO3X9TDfO+r/pTzLdzqawxN6EHhwj2qP8AWarf&#xA;Tmh7W1PjaiR6DYfD8W7nszT+FgiOp3PxSmxs5r29gs4RWW4kWNPmxpU5hYcRyTEBzkaczLkEImR5&#xA;AMx/NDRYdPl0t7daQC3+rD/nhShPuQ+b32g0gxHGY8uHh/0v9rpexNScgmDz4r+bB8513r2v8udT&#xA;N95Wt1Y1ktC1s/yTdP8AhGAz0HsPP4mmHfH0/q+x4ntjDwag90t/x8UV511b9F+W7u4U0mkX0YPH&#xA;nJ8NR8hU/Rl3aup8HTyl1Ow95aezdP4ueI6cz8HhWecPePVvym0j0NKuNTdfju34RH/iuPbb5tX7&#xA;s7T2b03DjOQ85H7B+15Pt7UcWQQH8P3n9jO86R0LsVdiryLVvInnPUdTub6W1TncSNJT1o9gTsvX&#xA;sNs4bU9j6vLklMx+o94ewwdqabHAQB5DuKE/5Vp5v/5ZU/5Gx/8ANWU/yDqv5o+Ybf5a03f9hd/y&#xA;rTzf/wAsqf8AI2P/AJqx/kHVfzR8wv8ALWm7/sLv+Vaeb/8AllT/AJGx/wDNWP8AIOq/mj5hf5a0&#xA;3f8AYUZZ/lP5hlcfWZYLaP8AaPIu30Koof8AgsvxezmeR9RjEfP8fNpydvYR9IMvsZ15Z8jaRoRE&#xA;0dbm+pQ3MlKivXgo2X9fvnR6DsjFptx6p95/R3Oh1vaeTPsdo9362RZtXXPOfNn5Yzz3Ul9ohT96&#xA;S8lm540Y7kxsdqHwNKfhnKdpdgGUjPD1/h/U9JoO2hGIhl6df1sRfyN5tR+B02Wo2qCpH3gkZpD2&#xA;Rqga4C7cdp6ci+MJlpv5X+ZbqQfWljsYv2mkYO1PZUJ/EjMvB7P6iZ9VQHz+79jjZu28ER6bkfx3&#xA;vR/LflHSdAiP1ZTJdOKS3UlC5HgP5V9hnVaDszFph6d5d55vN6ztDJqD6to9yUfmJonmDWo7S106&#xA;EPbRlpZiXVav9lRRiOgr9+YXbekz6gRjjFxG536uZ2RqcOEylM+o7DZhP/KtPN//ACyp/wAjY/8A&#xA;mrOe/kHVfzR8w7v+WtN3/YXpnkzQn0XQYbSZQLpi0tzQgjmx6VHgoAzruytGdPgET9XM+95jtHVD&#xA;NmMh9PIJ5mxcF2KsZ85eSrfzBEk0biDUIRxjlIqrL14PTeleh7ZqO1Oyo6kWDUx1/QXadndpHTmj&#xA;vA/jZ5tdfl95tt3K/UTKtaB4mVwfxr94zk8nYuqifov3U9Lj7W08h9Ve9dafl35tuWA+pegp6vM6&#xA;KB9FS34YcXYmqmfpr3kf2oydr6eP8V+5m/ln8srDTpEutSdb26XdIwP3Knxod3+n7s6HQdgQxHiy&#xA;Hjl9n7fxs6PW9tTyDhh6Y/b+xler/Xv0XdCwXnetGy24qF+NhQGpoNuubrU8fhy4PrrZ1On4PEHH&#xA;9N7vIv8AlWnm/wD5ZU/5Gx/81Zw/8g6r+aPmHr/5a03f9hZF5F8h6tp2ti/1SFY0gRvQAdXrI3w1&#xA;+EnopObXsjsfLizceQVQ236uu7U7Ux5MXBjPM7+5kPn/AMvXet6MkNmge6hmWRASFqtCrCp271+j&#xA;Nn2zopajEBD6gbdd2Vq44MpMvpIeef8AKtPN/wDyyp/yNj/5qzl/5B1X80fMPRfy1pu/7CzT8uvL&#xA;+vaIb2HUYRHBPweIh1b41qDspPUEfdm/7D0WfT8QyCga6ul7X1eLPwmB3Hk1+Ymg+YdaNpb6dCHt&#xA;YeUkjF1Wsh2AoxH2R+vHtvR59Rwxxi4jfn1/H3r2RqsODilM+o+XRhg/LTzdX/eVB7+rH/XNB/IO&#xA;q/mj5h3X8tabv+wvXtK0+LTtNtrGL7FvGsdfEgbn6Tvnc6fCMWOMB/CHj8+U5JmZ6lFZc1OxV2Ku&#xA;xV5t5n1z82G/MfT9J0DTVj8so0LXuoyxh0kRvimrIfs8V+EKu9R4HDshu+1z815/zTh0uw01bbyf&#xA;bvH9ZvpYwVlj4B5GEh/ar8Cqvfrjsl6RgV2KuxV2KuxV2KuxV2KuxV2KuxV2KuxV2KuxV2KuxV2K&#xA;uxV2KuxV2KuxV2KuxV2KuxV2KuxV4l/zk35zutM0nTNA0+5e3ur6Q3Ny8LFHEEXwqpKkGju1f9jk&#xA;ohBejfllol7ovkXR7G/lkmvxAJrtpmZnEs5MrISxP2OfH6MBS8S89axq3nb88bXyzpt7PDp1pMll&#xA;IsErxjjDWW8k+Aj4hRlr/kjCOSGef85Gec7nQPJ8On2Fw9tqOrzemJImKSLBEA0pVhuKkou3YnBE&#xA;KXmF5+VvnSx/Loec7nzPNB/osd4dPd5lYLKRwX1Of22DLQceu2StXo//ADjX5h8z6z5b1P8ATF3L&#xA;e21pcJFYzzku4+DlInqNuwWq0qdq4JKGGfm3r2vebfzbs/J2h38ttBbPHZ1hd1T1n/eXErBCpPpr&#xA;sf8AVOI5KnA/5xx84V387zU/1J/+q2PEtJ/+evmSbyf+XFjomnXciX16I7GG45kTehboPVk59eRo&#xA;qk/5WIUvNovyn88N+XR85SeZpYSLJtR/R8jzg+ioLqBLz+08YBUcepp74bVmX/OMvmrzVq8Ws2Wq&#xA;Xc1/p9kIGt5rhmkeN5C4KK7VJUqlaV27dcElDGbDVdX1j/nJNrQX1x9Vh1SdfQEr+nwsY3qvGoWn&#xA;7np+vD0Vmv8AzkV+ZMmhaPH5b0q4MWramvO6ljajw2oNNiNw0rCg9gfbBEKUN/zi7NqN1oeuXd5d&#xA;S3Ia6iij9V2fj6cZZqciaV9QYyUMf8w61rf5p/mvF5f0K+ntvLmlllnubZ2RTGjD15yVO5dvgj7d&#xA;D3OPIKjP+cj/ADZqFrdaL5O0S4mhk4LPcpA7B35H0raMsDyP2WJBO9QcYhSvi/5xz86NEjSedZUk&#xA;KgugWdgDTcV9YVpjxLTNPMMsv5afk3cQtfyXmpQQtbwXshYSPdXTmjLyLkenzLAV6Lg5lUg/5xp0&#xA;/U/8O6n5j1S7nmW9l9G19eR3URW4JeQciftOxX/Y4ZKGITeafOP5yed5tA0fU20Xy9BHJMEQsC1v&#xA;Gyp6sqqUaV3Z1ohbiv0El5KyzyX+Rnm3yp540/UYPMRutEjLvfBTJbySHieMbQ8pUdWcjq344krS&#xA;Xf8AOTPnHUIbvSPK+lXEsVw9by6EDMrsXJigSqEHqHPH/VxiFL2Xydo0+i+VtL0u4lae5tbdEuZn&#xA;YuzS0rIeRJNOZNN+mRKXgbavq3nz8/haWd7cJoun3HEpFK6x/V7A1c/CaUllB3/yhkuiGW/85Ked&#xA;L/StH03QNKuJYL7VJDLO0DFZPQi2CVX4v3kjDp14kYxCliv/ADjN5m1V/Nup6PqF5PMk9oZo4p5H&#xA;cCWCRVNAxNDxc1+WMlCL/NzWdX80/m5pHknSL2a3t7do4bv6vIyD1Jv3s7ngRX04AOvQ1xHJXqP5&#xA;m/mXpPkLQ0mkX6zqVwCmm2PI1cqBV3bchEqKnqemABLyPSPKH5w/mlbrrWs622k6Lc1a1hBdUZa0&#xA;DR20ZUcfBpGqffrhsBCrP+Qn5naBqtndeW/MJulMyLLOkj2ssSFt3aN3dHRR1XkSenE42tPozIpd&#xA;ir5dnI/Mj/nINYyfV0myuOAB3U2un1LD/VmkB/4PJ8gh9E+cvMUHlvytqetzEUsoGkjU9GlPwxJ/&#xA;spCBkAl4l/zjB5dmvNS1nzhe1kkqbSCVv2pZSJbh/nTh/wAEclJAY9+bL6p+YX5wf4c0YrIbIGxt&#xA;ubcYw8KtLcOxHKlG5L/sRhGwVLfzWs/zZ0eLT7Xzpf8A13S5WrawwyqLZjCFqrJEsVCobaq/LEUr&#xA;6A8q65oGiflHa6/Z2KadptvpxvPqSn/dnEsV5tuxeTYMdzXI9Uvnj8uPKP5k+atV1DzR5bvIrXUI&#xA;Z3M9/K5jZpbkM0nCiSb0PxfPJEofQP5W+XfzK0p9Ql866wNRMojSygSQyKlORkckom5+EDIlLxX8&#xA;673VfPH5rjy5okRvJdPX6jaW6sqhplUy3DVcqqlTVTU/sZIckJfqfmT8w9f8wWf5e+btUbR7VriG&#xA;yntooIQkbMV9HmsJQOm60+Pj3xV9NeSPJOieTtDj0jSkbgGMk9xJQyzSnYu5AA6CgHYZElL5v/LH&#xA;XdPsvzN8yebtRalppsOoX7tvVnmnEaRrX9uQzUWuSKFC60vUvMPlHzZ+aHmBazXbx2ujxGpUNJPH&#xA;FIyV/YiirGnvXuMVRuiedH8p/kd+jtPcjWvM99c+jxrzjtwqQSyCnc+nwX3JI6Y1ur2b8l/y+i8l&#xA;eURJfKsesagoudTkag9MAVSEk9BGp+L/ACq9siSl4LDZ+a/zO/M/VdX8uvHFdQS/XLWediixQwOs&#xA;dvvxf4+IU9PE5Lkh7X+XHlT84bDzF9b8368t5pUcLhbWOUyc5WoF5AxpQKKnr1pkTSsH/wCcnfME&#xA;9/rWjeT7GssiUuZoVoeU859KBPZgvL/gsMVL27y35Vs9H8nWXlsCsEFoLaZk25s6kSuPd2Zm+nIp&#xA;fLnnf8sfO35aakus2Nw506OWlnrFqxR05fZWVRuhI2PVT49smDaHvn5I+fdV84eTZL7WAv12xuGt&#xA;ZrlVCJKEjSQSECihqP8AEBt375EhIeReSh/ysX8+59blBk06yma+QEGno2hWO1HsS3psR88kdgh7&#xA;x+Z3mpfK/kfVdWVwl0kRist9zcTfBHTx4k8j7A5EJeYf84teV/R0vVPM86/vLxxZWjHr6UVHlI9n&#xA;cqP9jhkgJJb/APIRP+ciWl/vdJ0OTkD1X0bBqL81kuWr8mx5BWM+VNRt/JP54Xsl2THY2FzqUc1O&#xA;8IjmKdPGikYeisy/5xz0u71/zfr/AJ51EcpebpEx6fWLpjJLx/1EovybBJQx++ZfzH/5yBWxvG56&#xA;XBdPbpET8JtbBWZlHtM0bH/ZYeQV6r+beqfmtpBF35QW2tfLunWTTX1xJ9XryQsWVUl3okarxCjc&#xA;mmRFKlP5B+ffP3nHUNUn1y6SfSrKFERVhjiJuJWqpDIFJ4ojVHuMJCh7PkUuxV8g6Rp/5k/lV5yk&#xA;vI9HkuZEV7cyejJLbXELkGqyR+PEN1qO4yfNDKtUi/Ob83JrexutNOheXUcSO0kckEO3+7G9X95O&#xA;wB+EL8NfDrg2CvbbDRbfyP5CksNCtZLt9LtJZLeBFLzXFwFL1IXctJJ2HyGBL5r8i/8AK0/KPmC6&#xA;16Dydf3+oXUbxtJdWN4eJlcO7jgq/ExXrkihl83kb81/zU1+0vfN9sNC0O0NFh4+kyoxBdYoXLye&#xA;o4Aq8m33ccFgKy/8+tP1uLyDp3lfytpN1dWsskcU0dlDJOI7a0UFEYRhiKvwIJ/lxCl5/wCRPN35&#xA;u+TPL6aLpvkW5liEjzSTzWF96jvIerceI2UBenQYSAr3PRvMfmd/y+Ov6zpLQ64ttPcnSII5PULJ&#xA;yMMfptykDuoWo6iuRS8p/wCcdfJWujzFq3mzzBZ3FvccTFbNdxvG0ktwxeeUBwpNAtK/5RwyKAk/&#xA;5s+V/M0/52xX9hpV3PbyS2EqXUEEjp+7WNWbmqkfDw332phHJX0leyyw2VxLEjSSxxu8aKOTMyqS&#xA;AB3JOQS+MvKX5YeeNb1qDRm0y90+0uZVF/dT28sUcUaElmZnVRUCvFa7tTJkoe7/AJ7eXri1/Kqy&#xA;0Ly7p01xb291bQi3to2mZIY45DzYKCftKtW8T74BzUsG/Ij8q9ZvNeh1/wAy2U9tp+igDTLa7jaM&#xA;yTF2kVlVwDwiZi9f5qeBxJUPZPzeutch/L7VY9Es7i91G8jFpHFaxtLIEnPCR+KAttGW3HQ4Al4F&#xA;+XGp/mr5Dhvk03yReXMl+yNNNcWN7y4xAhVHAKKfGTkjSHv/AOWXmPzl5g0We+80aQNGuBOY7a1M&#xA;csLtGqgl2SYlgCxoPlkSl4/5D8teY/Nn523XmrW9Lu7PT7WeS9iN5BJEKxUjtIquB8aDi3+xwnkh&#xA;ln5reefzV8secIJ9D0x7zy2tsodPq7TwySkkuXeIepGyigA5Ad6HEAKw7XNX/OD82YYNEi0I6Rox&#xA;kWS5uHSWKJip2Lyy/aC9eCCtfox2CvZ/Lf5fWflzyFL5V06Y+pNbzpLesOLPcToVaUgVpTag7ADr&#xA;gtL5w8qy/mV+VfmW5k/QEssksfoTxSRSSQyJyDBopYvhPTYgn3GS5oZReaF+cH5u6larrdmdB8v2&#xA;z8gJI3gjWooXSKQ+pNJxqAfsjxFcGwV7Nrtv/gv8tLu18t2cssmm2Zh063gRpZTK/wAAkKoOTEO/&#xA;qOfmcCWFf842+R7/AEPQdQ1jVbSW01DU5VjiiuEaORbeEVDcXAYc3dvmADhkUB5z+eP5eebJ/wAy&#xA;NRvtK0W9vrK/WGdJrS3lmQN6So4LRqwDc0JofHCCpe8/lJ5Sfyt5D03TZ4/TvnU3N+ppUTzfEymn&#xA;dFon0ZElLwHzh5D/ADB8ifmBN5i0KynubZbqS7sL63iadAkpYtHMqglfhco3KlR0yQKEy8y/mJ+b&#xA;3n3QpPL0HleSG3uuAu5ba2uatwcPTm54RqSBWv340Fey/k55JuPKHke20+9jEep3DvdagoIaksmw&#xA;XkpIPGNVGxpXIkpZvgV2Kv8A/9k=</xmpGImg:image>
               </rdf:li>
            </rdf:Alt>
         </xmp:Thumbnails>
         <xmpTPg:MaxPageSize rdf:parseType="Resource">
            <stDim:w>288.322108</stDim:w>
            <stDim:h>91.814626</stDim:h>
            <stDim:unit>Millimeters</stDim:unit>
         </xmpTPg:MaxPageSize>
         <xmpTPg:NPages>1</xmpTPg:NPages>
         <xmpTPg:HasVisibleTransparency>False</xmpTPg:HasVisibleTransparency>
         <xmpTPg:HasVisibleOverprint>False</xmpTPg:HasVisibleOverprint>
         <xmpTPg:PlateNames>
            <rdf:Seq>
               <rdf:li>Cyan</rdf:li>
               <rdf:li>Magenta</rdf:li>
               <rdf:li>Yellow</rdf:li>
               <rdf:li>Black</rdf:li>
            </rdf:Seq>
         </xmpTPg:PlateNames>
         <xmpTPg:SwatchGroups>
            <rdf:Seq>
               <rdf:li rdf:parseType="Resource">
                  <xmpG:groupName>Standard-Farbfeldgruppe</xmpG:groupName>
                  <xmpG:groupType>0</xmpG:groupType>
               </rdf:li>
            </rdf:Seq>
         </xmpTPg:SwatchGroups>
         <dc:format>image/svg+xml</dc:format>
      </rdf:Description>
   </rdf:RDF>
</x:xmpmeta>
                                                                                                    
                                                                                                    
                                                                                                    
                                                                                                    
                                                                                                    
                                                                                                    
                                                                                                    
                                                                                                    
                                                                                                    
                                                                                                    
                                                                                                    
                                                                                                    
                                                                                                    
                                                                                                    
                                                                                                    
                                                                                                    
                                                                                                    
                                                                                                    
                                                                                                    
                                                                                                    
                           
<?xpacket end="w"?>
	</metadata>
<g id="layer1" transform="translate(85.788367,-282.23124)">
	<path id="path66" class="st0" d="M186.2,287.2c-11,0-21.7,2.5-31.8,7.3c-14.4,6.8-27.4,18.1-38,33.2c-6.9,9.8-12.8,21.1-17.5,33.8
		c-8.7,23.9-8.6,43.3,0.3,56.1c5.1,7.2,15.6,15.9,37,15.9h0.1c39,0,68.1-25.5,86.5-75.9c4.9-13.3,11.3-38.2-0.4-55
		C215.2,292.4,203.1,287.2,186.2,287.2L186.2,287.2z M421.3,287.2c-11,0-21.7,2.5-31.8,7.3c-14.4,6.8-27.4,18.1-38,33.2
		c-6.9,9.8-12.8,21.1-17.5,33.8c-8.7,23.9-8.6,43.3,0.3,56.1c5.1,7.2,15.6,15.9,37,15.9h0.1c39,0,68.1-25.5,86.5-75.9
		c4.9-13.3,11.3-38.2-0.4-55C450.3,292.4,438.2,287.2,421.3,287.2z M61.1,289.3c-12.8,0-25.3,0-36.4,5.7c-11.2,5.7-21,17-28.6,39.7
		c-1.6,4.9-2.5,9.1-2.6,12.7c-0.1,3.7,0.5,6.8,1.9,9.5c1.7,3.3,4.5,6.4,7.9,9c3.5,2.6,7.6,4.7,12.1,6.1c0.2,0,2.5,0.7,5.4,1.5
		c2.8,0.8,6.1,1.8,8.2,2.4c1.2,0.4,2.6,0.9,3.8,1.6c1.2,0.7,2.3,1.7,3,3.1c0.5,0.9,0.7,1.9,0.7,2.9c0,1.1-0.1,2.2-0.6,3.4
		c-1,3.1-2.6,5.1-5.6,6.3c-3,1.2-7.4,1.6-14.1,1.7h-83.7l-13.2,36.3H8.8c8.4,0,23.8,0,38.7-6.3c14.8-6.3,29-18.9,35-44
		c2.3-9.5,1.6-17.2-2.1-23.2c-3.7-6-10.4-10.4-20.2-13.2c0,0-2.2-0.6-4.8-1.4c-2.6-0.7-5.5-1.6-7-2c-2.5-0.7-4.4-2.2-5.6-4
		c-1.1-1.8-1.5-4.1-0.8-6.4c0.7-2.4,2.3-4.3,4.6-5.6c2.4-1.3,5.5-2,9.1-2h52.1c0.4-0.5,0.7-1.1,1.1-1.6c9.5-13.5,21-24.3,33.6-32
		H61.1z M295.1,289.3c-23.2,0-40.4,11.7-48.6,33.7l-39.4,108.2h43.1l20.2-55.6l38.1,0l10.8-29.8l-38,0l6.1-17.2
		c1.3-3.1,4.3-5.5,8.8-5.5c2.5,0,30.5,0,44.9,0c0.4-0.5,0.7-1.1,1.1-1.6c9.5-13.5,23-24.3,35.6-32L295.1,289.3L295.1,289.3z
		 M495.2,289.3l-51.6,141.8h43.9l18.8-49.9c0.9,2.1,12,49.9,12,49.9h46.1c0,0-8.4-35.2-14.6-49.4c-1.6-3.7-3.2-7.7-5.5-11.2
		c13-4.8,31.9-15.2,39.7-36.3c4.8-12.9,4.5-23.4-0.8-31.1c-6.5-9.3-19.6-13.9-40.3-13.9H495.2L495.2,289.3z M585.2,289.3
		c2.8,2.2,5.2,4.7,7.2,7.6c5.1,7.4,7.1,16.1,5.9,26.1h26.1L585,431.2h39.3L663.7,323h50.5l12.3-33.7H585.2z M524.1,318.6h7.2
		c13.2,0,18.2,3.9,13.7,16c-4.2,11.3-11.8,18.3-26.2,18.3h-0.1l-7.4,0L524.1,318.6L524.1,318.6z M175.9,319.3L175.9,319.3
		c13.5,0,16.6,7.8,4.7,40.2h0c-12.2,33.3-21,41.6-34.3,41.6h0c-12.9,0-17.5-8.2-5.4-41.3C150,335.1,161.7,319.3,175.9,319.3
		L175.9,319.3z M411,319.3L411,319.3c13.5,0,16.6,7.8,4.7,40.2c-12.1,33.3-21,41.6-34.2,41.6h0c-12.9,0-17.5-8.2-5.4-41.3
		C385.1,335.1,396.8,319.3,411,319.3L411,319.3z"/>
	<path id="path98" class="st1" d="M-38.1,446.1c-2.8,0-4.8,0.5-6.2,1.5c-1.4,1-2.5,2.8-3.5,5.4c-0.9,2.5-1,4.2-0.4,5.2
		c0.6,1,2.3,1.5,5.1,1.5c2.8,0,4.9-0.5,6.2-1.5c1.4-1,2.5-2.8,3.4-5.3c0.9-2.5,1.1-4.2,0.4-5.2C-33.6,446.6-35.3,446.1-38.1,446.1z
		 M-14.4,446.1c-2.8,0-4.9,0.5-6.2,1.5c-1.4,1-2.5,2.8-3.4,5.4c-0.9,2.5-1,4.2-0.4,5.2c0.6,1,2.3,1.5,5.1,1.5c2.8,0,4.9-0.5,6.3-1.5
		c1.4-1,2.5-2.8,3.5-5.3c0.9-2.5,1.1-4.2,0.4-5.2C-9.9,446.6-11.6,446.1-14.4,446.1z M429.6,464.6c-3.2,0-6.4,0.4-9.6,1.2
		c-3.2,0.8-6.2,2.1-8.9,3.8c-2.7,1.7-5.2,3.8-7.4,6.4c-2.2,2.6-3.9,5.5-5.1,8.9c-1.1,2.9-1.6,5.5-1.4,7.6c0.1,2.1,0.6,3.9,1.4,5.5
		c0.8,1.5,1.9,2.9,3.3,4c1.4,1.1,2.8,2.1,4.4,3c1.6,0.9,3.1,1.7,4.6,2.5c1.5,0.8,2.8,1.6,3.8,2.5c1.1,0.9,1.8,1.9,2.3,3
		c0.5,1.1,0.4,2.5-0.2,4.1c-0.5,1.4-1.2,2.6-2.1,3.8c-0.9,1.1-2,2.1-3.2,2.8c-1.2,0.8-2.6,1.4-4.2,1.8c-1.5,0.4-3.2,0.6-4.9,0.6
		c-2.7,0-4.9-0.3-6.7-0.9c-1.8-0.6-3.3-1.3-4.5-2c-1.2-0.7-2.1-1.4-2.8-2c-0.7-0.6-1.3-0.9-1.8-0.9c-0.4,0-0.7,0.1-1.1,0.3
		c-0.3,0.2-0.7,0.5-1,1s-0.7,1.1-1,1.9c-0.3,0.8-0.7,1.7-1.1,2.8c-0.6,1.7-1,3-1.1,3.8c-0.1,0.9,0,1.6,0.3,2c0.3,0.5,0.9,1,1.7,1.6
		c0.8,0.6,2,1.2,3.4,1.8s3.1,1,5,1.4c1.9,0.4,4.1,0.6,6.6,0.6c3.6,0,7.1-0.5,10.6-1.4c3.5-0.9,6.8-2.4,9.8-4.2c3-1.9,5.8-4.2,8.2-7
		c2.4-2.8,4.3-6,5.6-9.7c1-2.8,1.5-5.3,1.4-7.4c-0.1-2.1-0.6-3.9-1.4-5.4c-0.9-1.5-2-2.9-3.4-4c-1.4-1.1-2.9-2.1-4.5-3
		c-1.6-0.9-3.1-1.7-4.6-2.5s-2.8-1.6-4-2.5c-1.1-0.9-1.9-1.9-2.3-3c-0.4-1.1-0.4-2.5,0.2-4.1c0.4-1,0.9-2,1.7-3
		c0.7-0.9,1.6-1.7,2.6-2.4c1-0.7,2.2-1.2,3.5-1.6s2.7-0.6,4.3-0.6c2,0,3.7,0.2,5.2,0.7c1.5,0.5,2.8,1,3.8,1.6c1,0.6,1.9,1.1,2.6,1.7
		c0.7,0.5,1.2,0.8,1.6,0.8c0.4,0,0.8-0.1,1.1-0.3s0.6-0.6,0.9-1c0.3-0.5,0.6-1.1,0.9-1.8c0.3-0.7,0.7-1.6,1.1-2.7
		c0.3-0.9,0.6-1.7,0.8-2.4c0.2-0.6,0.3-1.2,0.4-1.6c0.1-0.4,0.1-0.8,0-1c0-0.3-0.2-0.6-0.4-0.9s-0.8-0.8-1.7-1.4
		c-0.9-0.5-2-1-3.3-1.5c-1.3-0.4-2.7-0.8-4.3-1C432.9,464.7,431.3,464.6,429.6,464.6L429.6,464.6z M655.6,464.6
		c-5.5,0-10.9,0.9-16,2.6s-9.9,4.2-14.3,7.4c-4.4,3.2-8.3,7.1-11.7,11.7c-3.4,4.6-6.2,9.8-8.3,15.5c-2,5.6-3,10.6-3,15
		c0,4.4,1,8.2,3,11.2c2,3.1,4.9,5.4,8.7,7c3.8,1.6,8.6,2.4,14.2,2.4c1.9,0,3.9-0.1,5.8-0.3c2-0.2,4-0.5,6-0.8c2-0.4,4-0.8,5.9-1.3
		s3.6-1,4.9-1.5c1.4-0.5,2.4-1.1,3.1-1.9c0.7-0.8,1.2-1.8,1.6-2.9l10.2-28c0.3-0.7,0.4-1.4,0.4-1.9c0-0.6-0.1-1-0.3-1.4
		c-0.2-0.4-0.5-0.7-0.9-0.9c-0.4-0.2-0.9-0.3-1.4-0.3h-23.8c-0.3,0-0.7,0.1-1,0.3c-0.3,0.2-0.7,0.5-1,0.9c-0.3,0.4-0.7,1-1,1.7
		c-0.3,0.7-0.7,1.5-1.1,2.5c-0.7,2-1,3.4-1,4.2c0.1,0.8,0.4,1.2,1.1,1.2h13.3l-5.9,16.3c-1.6,0.7-3.3,1.3-4.9,1.6
		c-1.7,0.4-3.3,0.5-4.9,0.5c-3.3,0-6.1-0.5-8.4-1.6c-2.3-1.1-4.1-2.6-5.2-4.7c-1.2-2.1-1.7-4.6-1.7-7.7c0-3.1,0.8-6.6,2.3-10.6
		c1.3-3.7,3.1-7,5.2-10c2.1-3,4.6-5.6,7.3-7.8c2.8-2.2,5.7-3.8,8.9-5c3.2-1.2,6.5-1.8,9.9-1.8c3.2,0,5.9,0.3,8.1,1
		c2.2,0.7,4,1.4,5.5,2.1c1.5,0.8,2.6,1.5,3.4,2.1c0.8,0.7,1.5,1,1.9,1c0.3,0,0.6-0.1,0.9-0.3c0.3-0.2,0.6-0.5,1-1
		c0.3-0.5,0.7-1.1,1-1.8c0.4-0.8,0.7-1.7,1.1-2.7c0.7-1.8,1.1-3.2,1.2-4.1c0.1-0.9,0-1.6-0.3-2.1c-0.3-0.5-1-1.1-1.9-1.8
		c-1-0.7-2.3-1.3-4-1.9c-1.6-0.6-3.6-1.1-6-1.5C661.4,464.8,658.7,464.6,655.6,464.6z M210.7,465.5c-1.9,0-3.3,0-4.4,0.1
		c-1.1,0.1-1.9,0.3-2.5,0.7c-0.6,0.4-1,1-1.2,1.7c-0.2,0.7-0.4,1.8-0.6,3.1l-6.4,61.4c-0.1,0.9-0.1,1.6,0,2.1
		c0.1,0.5,0.5,0.9,1.1,1.2c0.6,0.3,1.5,0.5,2.8,0.5c1.2,0.1,2.9,0.1,5,0.1c2,0,3.6,0,4.9-0.1c1.2-0.1,2.3-0.3,3.1-0.6
		c0.8-0.3,1.5-0.7,2-1.2c0.5-0.5,1-1.2,1.5-2L243,488h0.1l-5,44.6c-0.1,0.9-0.1,1.6,0,2.1c0.1,0.5,0.5,0.9,1.1,1.2
		c0.6,0.3,1.5,0.5,2.8,0.5c1.2,0.1,2.9,0.1,4.9,0.1c1.8,0,3.4,0,4.6-0.1c1.2-0.1,2.3-0.3,3.1-0.5c0.9-0.3,1.6-0.7,2.1-1.2
		c0.6-0.5,1.1-1.2,1.7-2.1l38.5-61.3c0.8-1.3,1.4-2.4,1.7-3.2c0.3-0.8,0.4-1.4,0.1-1.8c-0.3-0.4-0.8-0.6-1.7-0.7
		c-0.9-0.1-2.1-0.1-3.7-0.1c-1.7,0-3.1,0-4,0.1c-1,0.1-1.8,0.3-2.4,0.5c-0.6,0.2-1.1,0.6-1.4,1c-0.3,0.4-0.7,0.9-1,1.5l-31.9,53.8
		h-0.1l6.2-53.6c0.1-0.7,0.1-1.3,0-1.7c-0.1-0.4-0.4-0.8-0.9-1c-0.5-0.2-1.2-0.4-2.2-0.5c-1-0.1-2.4-0.1-4.1-0.1c-1.6,0-3,0-4,0.1
		c-1,0.1-1.8,0.3-2.5,0.5c-0.7,0.2-1.2,0.6-1.6,1c-0.4,0.4-0.8,1-1.2,1.7l-32.3,53.6h-0.1l7.3-53.9c0.1-0.7,0.2-1.2,0.1-1.6
		c0-0.4-0.3-0.7-0.7-0.9c-0.4-0.2-1.1-0.3-2.1-0.4C213.8,465.5,212.4,465.5,210.7,465.5L210.7,465.5z M380.6,465.5
		c-1.4,0-2.5,0.1-3.5,0.2c-0.9,0.1-1.7,0.3-2.4,0.4c-0.6,0.2-1.1,0.4-1.5,0.7c-0.3,0.3-0.6,0.6-0.7,1l-24.2,66.5
		c-0.1,0.4-0.1,0.7,0,1c0.1,0.3,0.4,0.5,0.9,0.7c0.5,0.2,1.2,0.3,2.1,0.4c0.9,0.1,2,0.2,3.4,0.2c1.4,0,2.6-0.1,3.5-0.2
		c0.9-0.1,1.7-0.3,2.3-0.4c0.6-0.2,1.1-0.4,1.4-0.7c0.3-0.3,0.6-0.6,0.7-1l24.2-66.5c0.1-0.4,0.1-0.7,0-1c-0.1-0.3-0.4-0.5-0.9-0.7
		c-0.5-0.2-1.1-0.3-2-0.4C383.1,465.5,382,465.5,380.6,465.5L380.6,465.5z M-54.8,465.5c-1.4,0-2.6,0.1-3.5,0.2
		c-0.9,0.1-1.7,0.3-2.4,0.4c-0.6,0.2-1.1,0.4-1.4,0.7c-0.3,0.3-0.6,0.6-0.7,1l-15.6,42.8c-1.6,4.5-2.4,8.4-2.4,11.8
		c0.1,3.4,0.9,6.2,2.5,8.4c1.6,2.3,4,3.9,7.1,5c3.1,1.1,6.9,1.7,11.3,1.7c4.7,0,9.1-0.6,13.2-1.8c4.1-1.2,7.8-3,11.1-5.4
		c3.3-2.4,6.2-5.2,8.8-8.7c2.5-3.4,4.6-7.3,6.1-11.6l15.4-42.2c0.1-0.4,0.1-0.7,0-1c-0.1-0.3-0.4-0.5-0.9-0.7
		c-0.5-0.2-1.1-0.3-2-0.4c-0.8-0.1-2-0.2-3.3-0.2c-1.4,0-2.5,0.1-3.5,0.2c-1,0.1-1.7,0.3-2.4,0.4c-0.6,0.2-1.1,0.4-1.4,0.7
		c-0.3,0.3-0.5,0.6-0.7,1l-15.4,42.4c-0.9,2.5-2,4.7-3.4,6.6c-1.4,1.9-2.9,3.6-4.6,4.9c-1.7,1.3-3.6,2.3-5.6,3c-2,0.7-4.2,1-6.4,1
		c-2.2,0-4.1-0.3-5.7-1c-1.5-0.7-2.7-1.7-3.5-3c-0.8-1.3-1.2-3-1.1-5.1c0.1-2,0.6-4.5,1.6-7.3l15.1-41.6c0.1-0.4,0.1-0.7,0-1
		c-0.1-0.3-0.4-0.5-0.9-0.7c-0.5-0.2-1.2-0.3-2-0.4C-52.3,465.6-53.4,465.5-54.8,465.5L-54.8,465.5z M473.2,465.5
		c-1.4,0-2.6,0.1-3.5,0.2c-0.9,0.1-1.7,0.3-2.4,0.4c-0.6,0.2-1.1,0.4-1.4,0.7c-0.3,0.3-0.5,0.6-0.7,1l-15.6,42.8
		c-1.6,4.5-2.4,8.4-2.4,11.8c0.1,3.4,0.9,6.2,2.5,8.4c1.6,2.3,4,3.9,7.1,5c3.1,1.1,6.9,1.7,11.3,1.7c4.7,0,9.1-0.6,13.2-1.8
		c4.1-1.2,7.8-3,11.1-5.4c3.3-2.4,6.2-5.2,8.8-8.7c2.5-3.4,4.5-7.3,6.1-11.6l15.4-42.2c0.1-0.4,0.1-0.7,0-1
		c-0.1-0.3-0.4-0.5-0.9-0.7c-0.5-0.2-1.1-0.3-2-0.4c-0.8-0.1-2-0.2-3.3-0.2s-2.5,0.1-3.5,0.2c-1,0.1-1.7,0.3-2.4,0.4
		c-0.6,0.2-1.1,0.4-1.4,0.7c-0.3,0.3-0.5,0.6-0.7,1l-15.4,42.4c-0.9,2.5-2,4.7-3.4,6.6c-1.4,1.9-2.9,3.6-4.6,4.9
		c-1.7,1.3-3.6,2.3-5.6,3c-2,0.7-4.2,1-6.4,1c-2.2,0-4.1-0.3-5.6-1c-1.5-0.7-2.7-1.7-3.5-3c-0.8-1.3-1.2-3-1.1-5.1
		c0-2,0.6-4.5,1.6-7.3l15.1-41.6c0.1-0.4,0.1-0.7,0-1c-0.1-0.3-0.4-0.5-0.9-0.7c-0.5-0.2-1.2-0.3-2-0.4
		C475.7,465.6,474.5,465.5,473.2,465.5L473.2,465.5z M595.5,465.6c-1.3,0-2.4,0-3.3,0.1c-0.9,0.1-1.6,0.2-2.2,0.5
		c-0.6,0.2-1,0.5-1.4,0.8c-0.3,0.3-0.6,0.6-0.7,1l-12,33c-0.9,2.5-1.8,5.1-2.8,7.9c-1,2.8-1.8,5.4-2.6,7.9h-0.1
		c-0.1-1.5-0.3-2.9-0.4-4.4c-0.2-1.5-0.3-2.9-0.5-4.4c-0.2-1.5-0.4-3-0.6-4.5c-0.2-1.5-0.5-3-0.7-4.6l-4.3-25.7
		c-0.2-1.4-0.4-2.6-0.7-3.6c-0.3-1-0.7-1.7-1.3-2.3c-0.6-0.5-1.3-0.9-2.1-1.2c-0.9-0.2-2-0.3-3.4-0.3h-7.7c-1.4,0-2.8,0.4-4.1,1.3
		c-1.3,0.9-2.3,2.1-2.9,3.8l-23,63.3c-0.1,0.4-0.2,0.7-0.1,1c0.1,0.3,0.3,0.5,0.7,0.7c0.4,0.2,1,0.4,1.8,0.5
		c0.8,0.1,1.8,0.2,3.1,0.2c1.3,0,2.4-0.1,3.3-0.2c0.9-0.1,1.6-0.3,2.1-0.5c0.6-0.2,1-0.4,1.3-0.7c0.3-0.3,0.5-0.6,0.6-1l13.4-36.8
		c1-2.8,1.9-5.4,2.8-8c0.9-2.6,1.7-5.2,2.5-7.8h0.1c0,2.1,0.2,4.3,0.4,6.6c0.2,2.3,0.5,4.4,0.8,6.3l5.5,32.9
		c0.3,1.8,0.5,3.3,0.8,4.4c0.3,1.1,0.7,2,1.3,2.7c0.5,0.7,1.2,1.1,2.1,1.4c0.8,0.3,1.9,0.4,3.2,0.4h6.1c0.7,0,1.4-0.1,2.2-0.3
		c0.7-0.2,1.4-0.5,2.1-1c0.6-0.4,1.2-1,1.8-1.6c0.5-0.7,0.9-1.4,1.2-2.2l23-63.3c0.1-0.4,0.2-0.7,0.1-1c-0.1-0.3-0.3-0.5-0.7-0.8
		s-1-0.4-1.8-0.5C597.8,465.7,596.8,465.6,595.5,465.6L595.5,465.6z M87.4,465.8c-1.2,0-2.3,0.4-3.4,1.1c-1.1,0.7-1.9,1.9-2.5,3.5
		l-22.3,61.4c-0.6,1.6-0.6,2.8,0,3.5c0.6,0.7,1.4,1.1,2.6,1.1h35.4c0.3,0,0.7-0.1,1-0.3c0.3-0.2,0.7-0.5,1-0.9c0.3-0.4,0.7-1,1-1.7
		c0.3-0.7,0.7-1.6,1.1-2.6c0.4-1,0.7-1.9,0.8-2.6c0.2-0.7,0.2-1.3,0.2-1.7c0-0.4-0.1-0.7-0.3-1c-0.2-0.2-0.5-0.3-0.8-0.3H75.9
		l7.2-19.9h21.3c0.3,0,0.7-0.1,1-0.3c0.3-0.2,0.7-0.5,1-0.9c0.3-0.4,0.7-1,1-1.7c0.3-0.7,0.7-1.6,1.1-2.6c0.4-1,0.6-1.9,0.8-2.6
		c0.2-0.7,0.2-1.3,0.2-1.7c0-0.4-0.1-0.7-0.3-0.9c-0.2-0.2-0.5-0.3-0.8-0.3H87.1l6.2-17.2h25.1c0.3,0,0.7-0.1,1-0.3
		c0.3-0.2,0.7-0.5,1-1c0.3-0.4,0.7-1,1-1.7c0.3-0.7,0.7-1.6,1.1-2.6c0.4-1.1,0.7-2,0.8-2.7c0.2-0.7,0.2-1.3,0.2-1.7
		c0-0.4-0.1-0.8-0.3-0.9c-0.2-0.2-0.4-0.3-0.8-0.3L87.4,465.8L87.4,465.8z M146.5,465.8c-1.2,0-2.3,0.4-3.4,1.1
		c-1.1,0.7-1.9,1.9-2.5,3.5l-23.3,63.9c-0.1,0.4-0.1,0.7,0,1c0.1,0.3,0.4,0.5,0.9,0.7c0.5,0.2,1.2,0.3,2,0.4c0.9,0.1,2,0.2,3.4,0.2
		c1.4,0,2.6-0.1,3.5-0.2c1-0.1,1.7-0.3,2.3-0.4c0.6-0.2,1.1-0.4,1.4-0.7c0.3-0.3,0.6-0.6,0.7-1l9.8-26.8h4.5c1.5,0,2.8,0.2,3.8,0.7
		c1,0.5,1.8,1.2,2.3,2.1s0.9,2.1,1.2,3.5c0.2,1.4,0.4,3,0.5,4.7l0.6,15.7c0,0.4,0,0.8,0.1,1.1c0.1,0.3,0.4,0.6,0.8,0.8
		c0.4,0.2,1.1,0.3,2,0.4c0.9,0.1,2.1,0.1,3.6,0.1c1.8,0,3.3,0,4.3-0.1c1.1-0.1,1.9-0.2,2.5-0.4c0.6-0.2,1-0.4,1.3-0.7
		c0.2-0.3,0.4-0.6,0.6-1c0.1-0.4,0.2-0.9,0.3-1.5c0-0.6,0.1-1.6,0-3l-0.9-13.9c-0.1-1.7-0.2-3.2-0.5-4.5c-0.2-1.3-0.6-2.5-1-3.5
		c-0.4-1-1-1.9-1.7-2.6c-0.7-0.7-1.4-1.3-2.3-1.8c2.4-0.7,4.7-1.6,6.8-2.7c2.1-1.1,4-2.4,5.7-4c1.7-1.5,3.2-3.2,4.5-5.2
		c1.3-1.9,2.4-4.1,3.2-6.4c1-2.8,1.5-5.3,1.5-7.4c-0.1-2.2-0.6-4-1.6-5.6c-1-1.6-2.5-2.9-4.4-3.8c-1.9-1-4.2-1.7-6.9-2.1
		c-0.9-0.1-2-0.2-3.2-0.3c-1.2-0.1-2.7-0.1-4.5-0.1L146.5,465.8L146.5,465.8z M318.4,465.8c-1.2,0-2.3,0.4-3.4,1.1
		c-1.1,0.7-1.9,1.9-2.5,3.5l-22.3,61.4c-0.6,1.6-0.6,2.8,0,3.5c0.6,0.7,1.4,1.1,2.6,1.1h35.4c0.3,0,0.7-0.1,1-0.3
		c0.3-0.2,0.7-0.5,1-0.9c0.4-0.4,0.7-1,1-1.7c0.3-0.7,0.7-1.6,1.1-2.6h0c0.4-1,0.7-1.9,0.8-2.6c0.2-0.7,0.2-1.3,0.2-1.7
		c0-0.4-0.1-0.7-0.3-1c-0.2-0.2-0.5-0.3-0.8-0.3h-25.4l7.2-19.9h21.3c0.3,0,0.7-0.1,1-0.3c0.3-0.2,0.7-0.5,1-0.9s0.7-1,1-1.7
		s0.7-1.6,1.1-2.6c0.4-1,0.6-1.9,0.8-2.6c0.2-0.7,0.2-1.3,0.2-1.7c0-0.4-0.1-0.7-0.3-0.9c-0.2-0.2-0.5-0.3-0.8-0.3h-21.3l6.3-17.2
		h25.1c0.3,0,0.7-0.1,1-0.3c0.3-0.2,0.7-0.5,1-1c0.3-0.4,0.7-1,1-1.7c0.4-0.7,0.7-1.6,1.1-2.6c0.4-1.1,0.7-2,0.8-2.7
		c0.2-0.7,0.2-1.3,0.2-1.7c0-0.4-0.1-0.8-0.3-0.9c-0.2-0.2-0.4-0.3-0.8-0.3L318.4,465.8L318.4,465.8z M19.9,465.8
		c-1.2,0-2.3,0.4-3.4,1.1c-1.1,0.7-1.9,1.9-2.5,3.5l-22.3,61.4c-0.6,1.6-0.6,2.7,0,3.5s1.4,1.1,2.6,1.1H13c2.8,0,5.5-0.2,7.9-0.5
		c2.4-0.3,4.8-0.9,7.1-1.6c2.3-0.7,4.5-1.7,6.6-2.8c2.1-1.1,4-2.5,5.8-4c1.8-1.6,3.4-3.4,4.8-5.4c1.4-2,2.6-4.3,3.5-6.8
		c0.9-2.4,1.3-4.6,1.3-6.5c0-1.9-0.4-3.6-1.1-5c-0.7-1.4-1.8-2.6-3.1-3.5c-1.4-0.9-3-1.5-4.8-1.9c1.8-0.6,3.4-1.3,5-2.3
		c1.6-0.9,3-2,4.3-3.3c1.3-1.2,2.4-2.6,3.4-4.1s1.8-3.1,2.4-4.8c1.1-3,1.5-5.7,1.3-7.9c-0.3-2.3-1.2-4.1-2.7-5.6
		c-1.5-1.5-3.6-2.6-6.4-3.3c-2.7-0.7-6.2-1.1-10.6-1.1C37.6,465.8,19.9,465.8,19.9,465.8z M25.8,476.5H33c2.2,0,3.9,0.2,5.1,0.6
		c1.2,0.4,2.1,1,2.7,1.7c0.6,0.7,0.9,1.7,0.9,2.8c0,1.1-0.2,2.4-0.7,3.8c-0.5,1.3-1.1,2.5-1.9,3.6c-0.8,1.1-1.8,2.1-2.9,3
		c-1.1,0.9-2.4,1.5-3.8,2c-1.4,0.5-3.1,0.7-5.2,0.7h-8C19.1,494.8,25.8,476.5,25.8,476.5z M152.6,476.8h6.4c1.6,0,2.9,0.1,3.8,0.2
		c0.9,0.1,1.7,0.3,2.3,0.4c2.2,0.7,3.5,1.8,3.9,3.4c0.5,1.6,0.3,3.6-0.6,5.9c-0.6,1.5-1.3,2.9-2.3,4.1c-1,1.2-2.1,2.3-3.4,3.2
		c-1.3,0.9-2.9,1.6-4.6,2.1c-1.7,0.5-3.6,0.7-5.6,0.7h-7.3L152.6,476.8z M15.3,505.3h8.5c2.6,0,4.6,0.2,6.1,0.7
		c1.5,0.5,2.6,1.1,3.3,2c0.7,0.9,1.1,2,1.2,3.2c0.1,1.3-0.2,2.7-0.8,4.4c-0.6,1.6-1.4,3-2.4,4.2c-1,1.2-2.2,2.2-3.5,3
		c-1.3,0.8-2.7,1.4-4.2,1.9c-1.5,0.4-3.3,0.6-5.2,0.6H8.1C8.1,525.3,15.3,505.3,15.3,505.3z"/>
</g>
</svg>
