<?xml version="1.0" encoding="utf-8"?>
<!-- Generator: Adobe Illustrator 22.0.1, SVG Export Plug-In . SVG Version: 6.00 Build 0)  -->
<svg version="1.1" id="Ebene_2" xmlns="http://www.w3.org/2000/svg" xmlns:xlink="http://www.w3.org/1999/xlink" x="0px" y="0px"
	 viewBox="0 0 94.6 21.5" style="enable-background:new 0 0 94.6 21.5;" xml:space="preserve">
<style type="text/css">
	.st0{fill:#009EA8;}
	.st1{fill:#383838;}
</style>
<metadata><?xpacket begin="﻿" id="W5M0MpCehiHzreSzNTczkc9d"?>
<x:xmpmeta xmlns:x="adobe:ns:meta/" x:xmptk="Adobe XMP Core 5.6-c143 79.161210, 2017/08/11-10:28:36        ">
   <rdf:RDF xmlns:rdf="http://www.w3.org/1999/02/22-rdf-syntax-ns#">
      <rdf:Description rdf:about=""
            xmlns:xmp="http://ns.adobe.com/xap/1.0/"
            xmlns:xmpGImg="http://ns.adobe.com/xap/1.0/g/img/"
            xmlns:xmpTPg="http://ns.adobe.com/xap/1.0/t/pg/"
            xmlns:stDim="http://ns.adobe.com/xap/1.0/sType/Dimensions#"
            xmlns:xmpG="http://ns.adobe.com/xap/1.0/g/"
            xmlns:dc="http://purl.org/dc/elements/1.1/">
         <xmp:CreatorTool>Adobe Illustrator CC 22.0 (Windows)</xmp:CreatorTool>
         <xmp:CreateDate>2017-11-27T16:19+01:00</xmp:CreateDate>
         <xmp:Thumbnails>
            <rdf:Alt>
               <rdf:li rdf:parseType="Resource">
                  <xmpGImg:width>256</xmpGImg:width>
                  <xmpGImg:height>56</xmpGImg:height>
                  <xmpGImg:format>JPEG</xmpGImg:format>
                  <xmpGImg:image>/9j/4AAQSkZJRgABAgEASABIAAD/7QAsUGhvdG9zaG9wIDMuMAA4QklNA+0AAAAAABAASAAAAAEA&#xA;AQBIAAAAAQAB/+4ADkFkb2JlAGTAAAAAAf/bAIQABgQEBAUEBgUFBgkGBQYJCwgGBggLDAoKCwoK&#xA;DBAMDAwMDAwQDA4PEA8ODBMTFBQTExwbGxscHx8fHx8fHx8fHwEHBwcNDA0YEBAYGhURFRofHx8f&#xA;Hx8fHx8fHx8fHx8fHx8fHx8fHx8fHx8fHx8fHx8fHx8fHx8fHx8fHx8fHx8f/8AAEQgAOAEAAwER&#xA;AAIRAQMRAf/EAaIAAAAHAQEBAQEAAAAAAAAAAAQFAwIGAQAHCAkKCwEAAgIDAQEBAQEAAAAAAAAA&#xA;AQACAwQFBgcICQoLEAACAQMDAgQCBgcDBAIGAnMBAgMRBAAFIRIxQVEGE2EicYEUMpGhBxWxQiPB&#xA;UtHhMxZi8CRygvElQzRTkqKyY3PCNUQnk6OzNhdUZHTD0uIIJoMJChgZhJRFRqS0VtNVKBry4/PE&#xA;1OT0ZXWFlaW1xdXl9WZ2hpamtsbW5vY3R1dnd4eXp7fH1+f3OEhYaHiImKi4yNjo+Ck5SVlpeYmZ&#xA;qbnJ2en5KjpKWmp6ipqqusra6voRAAICAQIDBQUEBQYECAMDbQEAAhEDBCESMUEFURNhIgZxgZEy&#xA;obHwFMHR4SNCFVJicvEzJDRDghaSUyWiY7LCB3PSNeJEgxdUkwgJChgZJjZFGidkdFU38qOzwygp&#xA;0+PzhJSktMTU5PRldYWVpbXF1eX1RlZmdoaWprbG1ub2R1dnd4eXp7fH1+f3OEhYaHiImKi4yNjo&#xA;+DlJWWl5iZmpucnZ6fkqOkpaanqKmqq6ytrq+v/aAAwDAQACEQMRAD8AmP53anM3m+O3ilZFtrSN&#xA;WVWI+JmdydvZhm30MfRfm8N7R5j+YAB5RH6WKWnl/wA4XmmnU7W1uprABmM6ElaJUN0NdqZkHJAG&#xA;iRbq4aXUThxxEjHvT38tvO+vWHmTT7B7uW40+9nS3ltpWLqDK3BWTlXiQzA7dcp1OCJiTW4c7sjt&#xA;HLDNGBkTCRAo+b37UL+20+xuL66fhb20bSyt4Kgqae+aeMSTQe7y5Y44mUuQFvl3XfMWpazrF3qU&#xA;srq9zIXEasaIg2VR7KoAzf48YjEB8z1OrnmyGZPMsm/J/WZrfzvbQyys0d7FLbnkxIqV9Revi0YG&#xA;UayF4/c7LsHUGOpAJ+oEfp/Q9q87Xn1PyhrFwDRltJVQ+DOhRT97Zq8EbmB5vY9o5ODTzP8ARL5m&#xA;shq99dR2tmZ7i5lJEcMZZmYgV2A9hm9lwgWXzjH4k5cMbJKMuP8AFugXKfWDfaZcN8UZYywlgO6n&#xA;atK5AcExtRbZ/mMB344H4h7T+UfnS/8AMOlXVvqT+re6cUBnpQyRyBuJYD9ocCCflms1eAQII5F7&#xA;LsLtCWeBE95Q694Lxy+0/wA33V7cXP1DUB68jyU9KYfbYt4e+bKMoAVYeQyYtRKRlwz3PcUqnl1O&#xA;3laGd5opkNHjcurA+4O4ywAFxZSnE0bBZ/8AklbX935se6YyPbWdu5eQligd6Iqk9KkEkfLMPXEC&#xA;Fd7vvZ2E5Z+LeogvRfzV80/oHyvKkD8b/Ua29tQ0ZVI/eSD/AFVNPmRmHpMXHPyD0Hbet8DAQPqn&#xA;sP0l88fW72lfWkoNieTd/pzc0HgPEl3l7h+RerPdeXb2ylcvLZ3PIFjUiOZQVG/+UjZqtdCpA972&#xA;ns3n4sMonnGX3/goP8+9QkhsdItI3KNLLLK3E0NI1VR0/wCMmS0EbJLV7TZSIwiOpJ+X9qE/ISOe&#xA;WfWLuV2cIsMSciT9ouzdT/kjJa88g1ezAJM5HyH3t/n3qMsc2j2kUjJRZ5ZOJIrUoq9P9U46CPMr&#xA;7T5SDCIPefuU/wAoJ57Xyx5n1eSRm9GP4GYk09CKSQ0/4MYdYLnGLHsGRjgy5CeQ+4EvOvLf1u98&#xA;w6ZaetIRcXUMbDk3RpAD+GZmShEnyef0nFPNCNneQ+99UZoH094t+fOozLrOmWccrJ6Vu8xCkj+9&#xA;fj2P/FWbTQR9JLxvtNlPiQiDyjfzP7E9/IiGY+X9QvJWZjNdempYk7RRqdq+8mU68+oDyc72aifC&#xA;lI9ZfcP2sX/PHU5z5rtraKVkS3tE5BSR8bu5PQ/y8cyNDH0X5us9pMx8cRB5R/SV+lT3Fl+Suq3L&#xA;SP699eBInLNXjyiUgGvgj4JgHOB3BlgkYdmzle8pfq/awbQfMuqaNq9tqVvM7PbuGaNmJV06Mjez&#xA;DbMvJiEokF0mm1k8OQTB5PcfPvmO1u/yxutVsJax30cSwsDRgZJVDqfBlHIHNVp8ZGUA9Hte09XG&#xA;WiOSB2kBXxLzD8pFubvz3YB5XeOFZZXUsSPhiYL1P8zDM/V0MZea7DEp6qNnYWfsTr8yvzU1KfUJ&#xA;tI0K4a1s7ZjHPdRGkkrqaNxcbqgO23X5ZVptKAOKXNzO1+2pymceI8MRzI5n9jBLPy35o1eNry10&#xA;+7vY2O9wsbuGPf46bnMuWSEdiQHR49JnyjijGUvOinvlK38/WvmOw0uCW/0xriVVZZFkVBGPidjH&#xA;IODcUBO4ynMcZiTsXO0MdVHNGAM4WfP7jshfzPvPrXnvV5K1CSrCPb0o1jP4rktKKxhq7ZycWqmf&#xA;OvkKVYNW/Mqy8sLZQx3tv5f9JmV1teMfpTEuzev6fLi3MmvLAYYjO9uL3so59bDBwgSGKv5u1Hzr&#xA;9Kr+Uw0I+crQ6oziYH/ceoA9M3H7PM1r/q0/awavi4DXxZ9h+F+Yjx8/4e6/P9Hmzb88vNPo2cHl&#xA;23f95c0nvado1P7tD/rMOX0DxzF0OKzxF3PtJraiMI67n3dPx5MM/LSy8uPLqV1rV9b2tLaS2tI5&#xA;3VSXuI2R3AJ/ZQ0+n2zK1MpbCI6un7Hx4SZyySEfSQL8xX497GNB1E6ZrdhqAJAtLiOZqd1RwWH0&#xA;jL8keKJDrdNl8PLGf80gvevzivRB5Cu1U/71SQxKR4eoJNvmEzUaON5A9z2/k4dLL+kQPtv9Dxby&#xA;L5gsfL/mW31a8ikmjt1kCpFTlykQp+0QOjHNpnxmceEPHdm6qODMMkgSBfL3UnH5lfmJB5sNnDaW&#xA;r29raF35SlTIzuAOi1oBTx3yrTafw7s83L7X7VGq4REVGPezX8h9FuLbStQ1WZCqXzpHb1FCUh5c&#xA;mHsWen0Zi6+YJA7nc+zOnMccsh/iqvgiPzM/NJNH9TR9GcSaoQVuLkbrb17Dxk/4jg02l4vVLk2d&#xA;sdteFePH9fU/zf2/c8s8oeUNX826uYYSwiDc76+erBAxqSSftO3Yd/vOZ+bNHHF5jQaDJqslDl1P&#xA;46vozQNA0zQdMi07TovTgj3Zju7uerue7H/PbNLkyGZsvoWl0sMEBCA2fP35neaf8QeaJ5IX5WFn&#xA;W3s6dCqn4nH+u2/ypm40uLgh5l4LtjW+PnJH0x2H6/iidUsfLlt+Wtklvf282tyXS3V1Cjq0ipJG&#xA;y+nQb/AONfeuCMpHKbHppszY8MdFGpROTis777jl8Nk1/InUvQ8y3dixol5bFlHi8LAj/hWbK9fG&#xA;4g9zlezWbhzSj/Oj934K78+bz1PMlhag1WC0DkeDSyMD+CDBoB6SfNPtNkvNGPdH7z+xgemeYtd0&#xA;qN49Nv57NJCGkWFygYgUqaZmSxxlzFujw6vLiFQkY33KWp6xquqzJNqV3LdyovBHmYuQta0BPucM&#xA;YCPIUxzajJlNzJkfN6ZoNNO/I3Vbnob2WQD39R47fb6FOYGT1agDu/tek037vsyZ/nE/aRFin5VW&#xA;n1rz7pakfDE0kzf884mYf8MBmRqzWMuq7Ex8Wqh5WfkH0lmkfRXzz+c10Z/PdzGf+PWGCIfSgl/5&#xA;mZudEKxh4D2gneqI7gB9l/pepfk9aiDyFYv+1cPNK3z9VkH4IMwNYbyF6bsGHDpYnvs/a8g/NO+W&#xA;88+ao6NySJ0gWhrQxRqjD/gwc2WljWMPJdtZOPVT8tvkP1sg81g6f+T/AJasKcXu5vrLdKlWEkn/&#xA;ADNXKcW+aR7nYa3932fij/ON/ef0h55Bpt5PZXV7DGXt7Mxi5cfseqSqEjwJFMzDIAgd7z8cMpRM&#xA;gNo1fxRqeZL9fLUvl8tys5LlLpKk/AVVgyj2YlT9HvkfDHHxdW4aufgnD/DxWyf8qPVtm8x6vH/e&#xA;afpM7Rnwcjmp/wCSRzH1e/DHvk7LsS4+LkH8GM/j7GJ+XdPj1PX9O0+U0ju7mKGQ9+LuA300zJyS&#xA;4Yk9wdXpMQyZYwPKUgHsP5k+fdS8oXun6VokVvHB9WDmN0JCryKIFCstB8BzWabTjICZd713a/ac&#xA;9JKOPEI1w9zEoPzr87zTxwpHZ85GCL+6fqxoP28yTosY73Ux9otSSABHfy/awjXbz67reoXla/Wb&#xA;maWv+vIW/jmVjFRA8nTanJx5ZS75E/aye5/NrzPNoH6DSK1t7T6uLT1Io39T0gnp0qzsu69wvyyg&#xA;aSAlxb27Kfbmc4vCAiI1w7A3XLvS3yHp0s3mC21J1ZNO0h1vr65p8KJbn1QCf5nK8VHU5PUSqNdT&#xA;s4/ZmInKJn6MfqJ92/2oHWdTv/MnmKe8ZS91qEwEUI3I5EJHGvyFFGThEQjXc0ajNPUZjL+KR/sD&#xA;J/8AlSvnn/fVv/yOH9Mo/O43Zf6HtV3R+bD9Y0m80jUrjTb1Qt1bNxlCmoqQDsfkcyYTEhYdTnwS&#xA;xTMJfUHo35i679f/AC18rVar3JDye720Zhc/8ExzB02Ossvxzeh7W1PiaPD5/wC9FJJ+WfkOw82S&#xA;akt5NNCtmkfpNCVH7yUtTkGVqj4O1Mu1Wc46rq4XY/ZkdUZcRI4a5edsVv7G60jVprO7iU3FlKUl&#xA;iYVRih+iqt+Iy+MhIWOrq8uOWLIYyG8S9m85+fhD+Xen3/l9ltW1FltlVKBoEVG9RUp9lkKhQadN&#xA;x2zWYdPeUiXR7DtDtOtHGeL08e3u23+XJ4azFiWY1Y7knqTm2eJZPo35j+aNFsEsNLkhtrZNyqwx&#xA;ksx6uzMCWY5jz00JGy7PT9rZ8MOCBAHuDMP+Vla435cXt5qFyH1PULl7Gw4KsZWMRoZZKIB0D0r4&#xA;kZjflo+KAOQFu2/lfL+TlKZ9cpcMfdQsvPvLXlbWPMd7JZ6XGryxRmWQuwRQoIHU+5zMy5YwFl0O&#xA;j0WTUS4YDcC0+vvyg852VlcXk0UHo20bzScZQW4xqWNBTc0GVR1kCac7J2DqYRMiBQF80r/L/Uv0&#xA;d5z0i5JopuFhc+Cz1iYn5B65ZqI8UCHF7LzeHqYS86+eyY/m7efWfPuoAGq24ihX/YxKW/4Zjlej&#xA;FYw5HbuTi1UvKh9j1v8AKvTLeLyJphkiRpJRJKzMoJPOViv/AAtM12qkfEL1fYuEDSwsc7P2l4v+&#xA;ZNwk/nnV2QBUSYQhVFAPRRY+gp/Lm00wrGHj+15cWqnXfXy2Zp5r/wBx35K6FaDY3jwsR4rIJLgn&#xA;76Zi4vVnke7+x3Gt/d9m44/zq+25PNdE13VdDvhfaXP9XugpQScEf4W6ikisPwzOnjExRec0+pyY&#xA;ZcUDUvx3sp0780vzDu9QtbUarvcSxxf7z237bBf99++Y8tLjAJr73Z4u2tXKYjx8yB9Mf1I387NA&#xA;vLXzOdY9Mmy1BIx6wqVEsaCMofA8UBHj9+R0OQGHD1Df7RaWUc/iV6Z18xsx/RfzE82aNpLaXp92&#xA;I7WrGOqKzR8zVuDMDSpNcunp4SNkOv0/aufDj4ISqP3e5DeVfLGqeaNajtIA7K7hry7ILCNCas7M&#xA;e57eJyWXKMcbLXotHPU5OEfE9zOPz1eG3l0LSoBwgtLeQxxjoFJWNB9AizE0G/ET1d17SkROPGOU&#xA;Qf0D9CP/ACR0W2vfLuui7j9S2vpEtZVPQqkZJ+ketkNdMiUa6OR7OaeM8OTiG0jX2fteaebfLd15&#xA;d1650uerLGeVvKf92Qt9h/u6+9czsOQTjbzeu0ktPlMD8PMPRvyV0VL7y55jSQlY9RAsmcdQPScN&#xA;T/kdmFrZ1KPlu9D7PacTw5Qf4/T9h/W8x1PTNV0DV2tbpWtr60cMjCo3U1SRG7jaoIzPjITjY5F5&#xA;vNhyYMnDLaUfxYZS/wCcfnCSFUkFo8qrx+sNApkNO+54/wDC5j/k4ebsz2/qCKPDffSU+RtI1DV/&#xA;NenvHbyTxR3cU15KiEqiLIHYuRstaZZnmIwPucTs3BPLnjQJHECfm9+/wH5L/wCrLZ/8iU/pmo/M&#xA;T7y95/Jmm/1OPyXJ5F8mKwYaJZVHjAhH3EEYPHn3lI7N0w/ycfkEwl0fSZdPbTns4TYPTla8FERo&#xA;Qw+ACnUDICZu73b5afGYcBiOHu6IO08m+VLO5jubXSbWG4iPKKVIlDKw7g0yZzTIoktMOz8ECJRh&#xA;EEeScZU5iU33lLyxf3T3d7pdtcXUtPUmkjVmbiAoqSOwAGWRzTAoFxMuhwZJcUoRMj5NS+UfK81r&#xA;BaS6XbPbWvM20LRqVj9QgvxHbkRviM0wbsrLQYDERMI1HltytE6XoWjaSJF02yhsxNQyiFAnLjWl&#xA;aeFcE8kpczbZh02PFfBERvuUL/yn5Z1C6a7vtLtrm5cAPNJGrMeIoKkjsBTDHLMCgWGXQ4ckuKUI&#xA;k+5a3k/ys1mlkdKtjaI5lSD0l4B2ABYCnUgY+NO7s2g6DBw8PBHh51Sh/gPyX/1ZbP8A5Ep/TJfm&#xA;J95YfyZpv9Tj8nf4D8l/9WWz/wCRKf0x/MT7yv8AJmm/1OPyVH8l+UnhjhfSLVoYeXpRmJeK8zVq&#xA;CnfB48+8sj2fpyAOCNDyRel6Bouk+p+jLGGzM1PVMKBOXGtK08KnIzySlzNtuHS48V8ERG+5GyRx&#xA;yxtHIoeNwVdTuCCKEHIAtxAIopKnkXycjq6aNaKykFWESggjoemW+PPvLhjs3Tj+CPyVLvyd5VvL&#xA;mS6utKtZ7iU8pJXiVmY+JJGIzTAoEsp6DBMmUoRJPkmltbW9rbx21tGsMEKhIokFFVRsAAMrJJNl&#xA;yYQEQABQCU3HkrylcTyXE+kWss8zNJLI0SlmdjVmJp1JOWDPMbWXFl2dp5EkwiSfJFXvl7Q761gt&#xA;LywgntrYAW8MiBlQAcQFB6bbZGOSQNgtmTS4pxEZRBA5eSB/wH5L/wCrLZ/8iU/pk/zE+8tP8mab&#xA;/U4/JUt/JXlK3njuINItYp4WWSKRYlDK6mqsDTqCMBzzO1llHs7TxIIhEEeSbXNtbXUDwXMSTwSC&#xA;jxSKHRh4FWqDlYJHJypwEhUhYSE/l15HLcv0NbVrXZaD7q0y38zk73B/knTfzIp1Y6fYWFuLext4&#xA;7WBekUKKi18aKBlUpEmy5mPFGAqIER5IXU/LPl/VJ1uNR06C7nVRGsk0auwQEkLU9qscnHLKOwNN&#xA;WbR4spucRI+YV9M0nTNLt2t9OtYrSBmMjRwqEUuQAWIHeijIymZGybbMOCGIVACI8lHVPLuharIk&#xA;mpWEF3JGCsbzIrkAmtAThjklHkaYZtJiym5xEq7wraZpGmaXA1vp1rHaQMxkaOFQilyAC1B3oowS&#xA;mZbk2zw4IYhUAIjyW6pomj6tEItSsobtF+wJkVitf5Sd1+jDCco8jSM2mx5RU4iXvSuL8vfJMTh1&#xA;0W1JHQMnMfc1RkzqMneXFj2Vpgb8OKewW9vbxLDbxJDEuyxxqFUfICgyoknm50YCIoCg891j80PM&#xA;sfnTVPK3l7yodcn0mKGW5m+vxWlFmjWQfDLHT9umzHAyTLyJ+Ztt5ml1SxvNOm0XWdFI/SOnzkSc&#xA;VNfiV1C8vs7/AA4qx3y5+bX5heZNKj1bRfy/+tafKzLHN+l7aOpQ8W+GWJG2I8MVT7U/zE1TSrzy&#xA;jp2paGLfVPM88kM9oLpZPqgiZOTeokZWWiyA0HH54qzjFXn17+cGn2/5m23khLEypIyQXOq+rRIr&#xA;mSNpI4fT4EMTRRXmOp22xVN/zJ89DyV5dXVxZfpCSS5itYrX1fR5NLU/b4SdAvhirHJ/ze1/RtSs&#xA;Lfzj5Pn0Ky1CZLaG/jvIb2MSP0D+kqgePWtO2KsjvvPX1b8xtO8lpY+q19ZPfyX3q8fSVTIoX0+B&#xA;5cmipXmOuKu/Mfz0fJmiW2orY/pGa7vIrGG29X0avMGYHkEl6cOnHFVvnn8xdL8qNaWZt5tT1zUT&#xA;x07SLQcppT05H+RK7V+4GhxVjT/nD5g0a8tT518oz6BpF64ji1NLlLtImboJhGq8f107HFWTecfP&#xA;i+XdV8tacln9dfzFerZq4l9MRIWQNL9h+fESV41FfHFUx86eZU8seVtR154PrIsI/UFvz9PmSwUL&#xA;z4vxqW60OKory9qj6toGm6q8H1Z9QtYbprblz9P1oxJw5USvHlStBirCLL8447n8vNb86NpXpwaT&#xA;dPaw2v1gH1wrRoj+p6Y4cmlpTienfFWXeTfNNh5q8t2Ou2PwxXcfJ4a8jFINpI2NBujAitN+uKpR&#xA;5Y/MnT9X8vazr9/Eul6bo97c2jTPL6oeK2C/vtkQqXL0CUJ+dcVY3b/m95y1mNr/AMreRbrUtEWp&#xA;S9uLmO1eZVNKxRsrV/2JbFWdeT/MreY9Ej1J9OutKlLvFNZXiGORHjPFqVpyWvQ0xVOsVdirsVdi&#xA;rsVdirsVdirsVdirsVdirwfyxcfmBP8AmN5/1Tynaadc/wCnLZXDai8qUNrzjURiMLX7PxV9sVVP&#xA;JuoLD5d/M3V9VEi+doY511xGCiFCkMotkt+PP938JFTXp4b4qjPyhj/Nay8l6DbWFjpH6Bcess88&#xA;k/1r0Z5mldiq0TlRzxHyxVM/Nn+nfn/5NsiKpp9hdXzj/jIssanp/PEO+Ks587+arTyr5W1DXbmj&#xA;C0iJhiJp6kzfDFH/ALJyK+A3xV833nmPyna/l3puoQavHeeek1mLzBfKEkEjTMx5RcygWiKVJ36g&#xA;0xV6X+fN1capa+SbDShHPLqmrQ3NmspKxOUQBOZG4X9/vTemKpb5uuPON35q8qWP5kW1tbeXJdQj&#xA;a0GksXSS/XaEXDTNzVPjI+EdK4qqanL5vuvz91ifyxb2VzeaTpcFtIuoNIkSpMElqpjFeX7z7q4q&#xA;hPzBn/MPUPMvkfRvNdrpkFtd6xFPCunvNIzegyCTmJRSgSXFWQeTPS1P89/Od7ejldaXBbWmnK9K&#xA;xwso5lB7kVr/AJR8cVTj8/bmwh/KvWFuytZvRjtVNKmYzIy8a13AUt8gcVYrc211L+YH5S6JeVNx&#xA;pmlPc3XLqJFtQCT7+pbeOKsh/wCci7toPyq1GMf8fM1tET7CZZP+ZeKszv5I9A8oXEgYJHpOnuwb&#xA;oALeE/L+XFXg/wBSltv+cbNG00gxzeYdTii49CfVu3dKb71SBWG30d8VZjZ3EX5YfmDeabIBF5R8&#xA;0LJe6YBtHb38S/vYRQGgk2pt/KB0OKsCnhkX8ivKFncSGK18wa7XU5B1MbTSjen/ABjD/Rir37zL&#xA;rEvlfQI59O0ebUorbjCLK0KJ6UKITz+MgBECUxV3kbzZD5t8sWmvwWz2kF4ZPThkYMwEUrREkrtu&#xA;UOKp9irsVdirsVdirsVdirsVdirsVdirsVeSaF+Wv5oeX5tVOjeYtPt4tWvJb2YyWrSurynsTQbD&#xA;tSmKplH+UU1t5F8waLDqZude8yN62p6xcJQPIzgtSNa8VpyoPfFVmi+UPzi0nTLHS7XzFpS2NjDH&#xA;bxL9TYt6cShBuTu1B1xVPI/I11/ytKXznNcxtbfo0WFvahT6ivzVi5bpSnIfTirXnvyJdebdV0Fb&#xA;m6SPQNLufrt9Y0YvcyoP3Sn9kKNwfZjiqZ+bfKOn695Z1PRhFFA99byQxT+mvwSEfu32FfhehxVg&#xA;2q/lV5xuLXyWbPWLSPUPKMDxRzTRO6SOQiI3HrskS9T1xVMbT8tvNGqeY9M1rzrrsepLosgn03Tr&#xA;OAQQrOKESu1eTEFQQPb5gqpt5V8j3ej+dPNHmO6uY5/088H1aNAQ0UcIZSrE7Go49PDFXeZPI91r&#xA;Pnvyz5hN0iWOgC4ZrUqS7yTJQMp+yKFV+7FUu84fltq115nTzf5R1VdG8x+kLe79WMSW9zENgJRQ&#xA;mtAorQ7KOhFcVQtp+V/mTW9Ys9U/MHW01eLTnEtjo1pF6NmJR0eSoBk+RH002xVU82/l95xvvzAg&#xA;836Bq1pZTW1iLCKO5hab4SzsxoKDcyYqjLvyJ5j8y+VNT0Hzrqdvdm7MbWVzYwekYGjPIPRj8R5U&#xA;+io74qkEn5X/AJmavp0Xl/zJ5ujl8txhEmW0g4XdxFHSiSSMNunWrV71xVlHmv8AL4atF5WsdPki&#xA;stK8u6hbXrWpViHjtRRI1oadCRviqK/MjyLZ+dfK1xo07iGfks1ldEcvSnSvFqbbEEqfY4qgH/K7&#xA;TL38s7PyRqknqLbW8aC7iFClxHv6sYav7ROx6g0xVJD5K/Ol9LbQpPNti+mvGbd9Ra1Zr0wsOBFC&#xA;ePLievLl/lV3xVnflHy3a+WfLdhoVrI00NhH6ayvQMxJLMxA6VZjiqb4q7FXYq7FXYq7FXYq7FXY&#xA;q7FXYq7FX//Z</xmpGImg:image>
               </rdf:li>
            </rdf:Alt>
         </xmp:Thumbnails>
         <xmpTPg:MaxPageSize rdf:parseType="Resource">
            <stDim:w>33.363957</stDim:w>
            <stDim:h>7.584722</stDim:h>
            <stDim:unit>Millimeters</stDim:unit>
         </xmpTPg:MaxPageSize>
         <xmpTPg:NPages>1</xmpTPg:NPages>
         <xmpTPg:HasVisibleTransparency>False</xmpTPg:HasVisibleTransparency>
         <xmpTPg:HasVisibleOverprint>False</xmpTPg:HasVisibleOverprint>
         <xmpTPg:PlateNames>
            <rdf:Seq>
               <rdf:li>Cyan</rdf:li>
               <rdf:li>Magenta</rdf:li>
               <rdf:li>Yellow</rdf:li>
               <rdf:li>Black</rdf:li>
            </rdf:Seq>
         </xmpTPg:PlateNames>
         <xmpTPg:SwatchGroups>
            <rdf:Seq>
               <rdf:li rdf:parseType="Resource">
                  <xmpG:groupName>Standard-Farbfeldgruppe</xmpG:groupName>
                  <xmpG:groupType>0</xmpG:groupType>
               </rdf:li>
            </rdf:Seq>
         </xmpTPg:SwatchGroups>
         <dc:format>image/svg+xml</dc:format>
      </rdf:Description>
   </rdf:RDF>
</x:xmpmeta>
                                                                                                    
                                                                                                    
                                                                                                    
                                                                                                    
                                                                                                    
                                                                                                    
                                                                                                    
                                                                                                    
                                                                                                    
                                                                                                    
                                                                                                    
                                                                                                    
                                                                                                    
                                                                                                    
                                                                                                    
                                                                                                    
                                                                                                    
                                                                                                    
                                                                                                    
                                                                                                    
                           
<?xpacket end="w"?>
	</metadata>
<g>
	<path class="st0" d="M6.6,2c2.1,0,3.1,0.9,3,2.4C9.5,5.4,9.1,6,8.3,6.3c0.9,0.3,1.4,1,1.3,2c-0.1,1.9-1.4,2.6-4.2,2.6H1.5L2.7,2
		H6.6z M5.6,8.7c0.9,0,1.3-0.3,1.4-0.9C7,7.4,6.7,7.2,6,7.2H4.7L4.5,8.7H5.6z M5.9,5.5C6.6,5.5,7,5.2,7,4.7c0-0.4-0.2-0.6-0.8-0.6
		H5.1L4.9,5.5H5.9z"/>
	<path class="st0" d="M12.8,9.5l-0.6,1.3H9.3L13.7,2h3.7l1.9,8.8h-2.8l-0.2-1.3H12.8z M15.4,5.1c-0.1-0.4-0.1-0.7-0.1-0.9h0
		c-0.1,0.3-0.2,0.6-0.4,1l-1,2h1.9L15.4,5.1z"/>
	<path class="st0" d="M24.9,2c2.7,0,3.8,1.1,3.6,3.1c-0.1,1.5-0.7,2.5-1.8,3l1.4,2.4l0,0.2h-2.9L24,8.6H23l-0.3,2.2H20L21.2,2H24.9z
		 M24.6,6.5c0.7,0,1.3-0.4,1.3-1.3c0-0.6-0.4-0.9-1.2-0.9h-1.1l-0.3,2.2H24.6z"/>
	<path class="st0" d="M33,8.5c0.7,0,1.2-0.1,1.8-0.1h2l-0.3,2.4h-7.8l0.3-2l4.7-4.5c-0.7,0-1.3,0-1.9,0h-1.9L30.3,2h7.4l-0.3,2.1
		L33,8.5z"/>
	<path class="st0" d="M40.4,9.5l-0.6,1.3h-2.9L41.3,2h3.7l1.9,8.8h-2.8l-0.2-1.3H40.4z M43,5.1c-0.1-0.4-0.1-0.7-0.1-0.9h0
		c-0.1,0.3-0.2,0.6-0.4,1l-1,2h1.9L43,5.1z"/>
	<path class="st0" d="M55.8,10.8h-2.7l0.4-3.2h-2.9l-0.4,3.2h-2.7L48.8,2h2.7L51,5.2h2.9L54.3,2H57L55.8,10.8z"/>
	<path class="st0" d="M63.7,10.8h-6.5L58.4,2h2.7l-0.9,6.3H64L63.7,10.8z"/>
	<path class="st0" d="M73.1,6.6c-0.4,3-1.9,4.4-4.6,4.4c-2.8,0-4-1.5-3.5-4.5L65.5,2h2.7l-0.6,4.5c-0.2,1.4,0.2,1.9,1.1,1.9
		c1,0,1.6-0.6,1.8-2L71.1,2h2.7L73.1,6.6z"/>
	<path class="st0" d="M79.7,10.8L77,6.4c0,0.3-0.1,0.6-0.1,0.8l-0.5,3.6h-2.7L75,2h2.4l2.7,4.5c0-0.3,0-0.5,0.1-0.8L80.7,2h2.7
		l-1.2,8.8H79.7z"/>
	<path class="st0" d="M92,9.8c-1.8,0.9-3.1,1.1-4.5,1.1c-2.7,0-4.1-1.7-3.8-4.1c0.2-3,2.1-5,5-5c1.1,0,2.6,0.3,3.8,0.8l-0.8,1.9
		c-1.2-0.3-2.1-0.4-2.9-0.4c-1.3,0-2.3,1.1-2.4,2.6c-0.1,1.2,0.5,1.8,1.5,1.8c0.7,0,1.1,0,1.9-0.2l0.1-0.7h-2l0.3-1.9h4.3L92,9.8z"
		/>
	<path class="st1" d="M1.7,20.5l0.7-5.8h1.7c0.3,0,0.6,0,0.8,0.1c0.2,0.1,0.4,0.1,0.5,0.3c0.1,0.1,0.2,0.3,0.3,0.4
		c0.1,0.2,0.1,0.3,0.1,0.5c0,0.2,0,0.3-0.1,0.5c0,0.2-0.1,0.3-0.2,0.4c-0.1,0.1-0.2,0.2-0.4,0.4c-0.2,0.1-0.3,0.2-0.5,0.2
		C5,17.6,5.3,17.8,5.5,18c0.2,0.2,0.3,0.4,0.3,0.7c0,0.3,0,0.5-0.1,0.7c-0.1,0.2-0.2,0.4-0.4,0.6s-0.4,0.3-0.7,0.4
		c-0.3,0.1-0.6,0.1-0.9,0.1H1.7z M2.8,17.9l-0.2,2h1.1c0.2,0,0.4,0,0.6-0.1c0.2-0.1,0.3-0.1,0.4-0.2c0.1-0.1,0.2-0.2,0.2-0.4
		c0.1-0.1,0.1-0.3,0.1-0.5c0-0.2-0.1-0.4-0.2-0.6s-0.4-0.2-0.8-0.2H2.8z M2.9,17.3h0.9c0.2,0,0.4,0,0.6-0.1c0.2-0.1,0.3-0.1,0.4-0.2
		c0.1-0.1,0.2-0.2,0.2-0.4C5,16.5,5,16.4,5,16.2c0-0.3-0.1-0.5-0.2-0.6c-0.2-0.1-0.4-0.2-0.8-0.2H3.1L2.9,17.3z"/>
	<path class="st1" d="M10.5,15.4H8l-0.2,1.9h2l-0.1,0.6h-2l-0.2,2H10l-0.1,0.7H6.6l0.7-5.8h3.3L10.5,15.4z"/>
	<path class="st1" d="M11.7,20.5h-0.8l0.7-5.8h0.8L11.7,20.5z"/>
	<path class="st1" d="M19.2,20.5h-0.6c-0.1,0-0.1,0-0.2-0.1c0,0-0.1-0.1-0.1-0.1L18,19h-2.3L15,20.4c0,0-0.1,0.1-0.1,0.1
		c-0.1,0-0.1,0.1-0.2,0.1h-0.6l2.8-5.8h0.8L19.2,20.5z M15.9,18.4h1.9l-0.5-2.3c0-0.1,0-0.2,0-0.3c0-0.1,0-0.2-0.1-0.3
		c0,0.1-0.1,0.2-0.1,0.3c0,0.1-0.1,0.2-0.1,0.3L15.9,18.4z"/>
	<path class="st1" d="M19.9,20.5l0.7-5.8h1.7c0.3,0,0.6,0,0.8,0.1c0.2,0.1,0.4,0.1,0.5,0.3c0.1,0.1,0.2,0.3,0.3,0.4
		c0.1,0.2,0.1,0.3,0.1,0.5c0,0.2,0,0.3-0.1,0.5c0,0.2-0.1,0.3-0.2,0.4c-0.1,0.1-0.2,0.2-0.4,0.4c-0.2,0.1-0.3,0.2-0.5,0.2
		c0.3,0.1,0.6,0.2,0.8,0.4c0.2,0.2,0.3,0.4,0.3,0.7c0,0.3,0,0.5-0.1,0.7c-0.1,0.2-0.2,0.4-0.4,0.6c-0.2,0.2-0.4,0.3-0.7,0.4
		c-0.3,0.1-0.6,0.1-0.9,0.1H19.9z M21,17.9l-0.2,2h1.1c0.2,0,0.4,0,0.6-0.1c0.2-0.1,0.3-0.1,0.4-0.2c0.1-0.1,0.2-0.2,0.2-0.4
		c0.1-0.1,0.1-0.3,0.1-0.5c0-0.2-0.1-0.4-0.2-0.6s-0.4-0.2-0.8-0.2H21z M21.1,17.3H22c0.2,0,0.4,0,0.6-0.1c0.2-0.1,0.3-0.1,0.4-0.2
		c0.1-0.1,0.2-0.2,0.2-0.4c0.1-0.1,0.1-0.3,0.1-0.5c0-0.3-0.1-0.5-0.2-0.6c-0.2-0.1-0.4-0.2-0.8-0.2h-0.9L21.1,17.3z"/>
	<path class="st1" d="M29.2,20.5h-0.8l0.3-2.6h-2.8l-0.3,2.6h-0.8l0.7-5.8h0.8L26,17.3h2.8l0.3-2.6h0.8L29.2,20.5z"/>
	<path class="st1" d="M35.9,17.2c0,0.3,0,0.6-0.1,0.9c-0.1,0.3-0.2,0.6-0.3,0.8c-0.1,0.2-0.3,0.5-0.5,0.7c-0.2,0.2-0.4,0.4-0.6,0.5
		c-0.2,0.1-0.5,0.2-0.7,0.3c-0.3,0.1-0.5,0.1-0.8,0.1c-0.4,0-0.7-0.1-1-0.2c-0.3-0.1-0.5-0.3-0.7-0.5c-0.2-0.2-0.4-0.5-0.5-0.8
		c-0.1-0.3-0.2-0.7-0.2-1c0-0.3,0-0.6,0.1-0.9c0.1-0.3,0.2-0.6,0.3-0.8c0.1-0.3,0.3-0.5,0.5-0.7c0.2-0.2,0.4-0.4,0.6-0.5
		c0.2-0.1,0.5-0.3,0.7-0.3c0.3-0.1,0.5-0.1,0.8-0.1c0.4,0,0.7,0.1,1,0.2c0.3,0.1,0.5,0.3,0.7,0.5c0.2,0.2,0.4,0.5,0.5,0.8
		C35.9,16.5,35.9,16.9,35.9,17.2z M35.1,17.2c0-0.3,0-0.6-0.1-0.8c-0.1-0.2-0.2-0.4-0.3-0.6c-0.1-0.2-0.3-0.3-0.5-0.4
		c-0.2-0.1-0.4-0.1-0.7-0.1c-0.3,0-0.6,0.1-0.9,0.2c-0.3,0.1-0.5,0.3-0.7,0.5c-0.2,0.2-0.3,0.5-0.4,0.8c-0.1,0.3-0.2,0.7-0.2,1.1
		c0,0.3,0,0.6,0.1,0.8c0.1,0.2,0.2,0.4,0.3,0.6s0.3,0.3,0.5,0.4c0.2,0.1,0.4,0.1,0.7,0.1c0.3,0,0.6-0.1,0.9-0.2
		c0.3-0.1,0.5-0.3,0.7-0.5c0.2-0.2,0.3-0.5,0.4-0.8C35.1,18,35.1,17.7,35.1,17.2z"/>
	<path class="st1" d="M37.5,19.9h2.3l-0.1,0.7h-3.1l0.7-5.8h0.8L37.5,19.9z"/>
	<path class="st1" d="M42.4,19.9c0.2,0,0.4,0,0.6-0.1c0.2-0.1,0.3-0.2,0.5-0.3s0.2-0.3,0.3-0.5c0.1-0.2,0.1-0.4,0.2-0.7l0.4-3.5h0.8
		l-0.4,3.5c0,0.3-0.1,0.6-0.3,0.9c-0.1,0.3-0.3,0.5-0.5,0.7c-0.2,0.2-0.5,0.4-0.7,0.5c-0.3,0.1-0.6,0.2-0.9,0.2
		c-0.3,0-0.6-0.1-0.9-0.2c-0.3-0.1-0.5-0.3-0.6-0.5c-0.2-0.2-0.3-0.5-0.3-0.7c-0.1-0.3-0.1-0.6,0-0.9l0.4-3.5h0.8l-0.4,3.5
		c0,0.2,0,0.5,0,0.7c0,0.2,0.1,0.4,0.2,0.5c0.1,0.1,0.2,0.3,0.4,0.3C42,19.9,42.2,19.9,42.4,19.9z"/>
	<path class="st1" d="M47.1,14.8c0,0,0.1,0.1,0.1,0.1l2.5,4.4c0-0.1,0-0.1,0-0.2c0-0.1,0-0.1,0-0.2l0.5-4.1h0.7l-0.7,5.8h-0.4
		c-0.1,0-0.1,0-0.2,0c0,0-0.1-0.1-0.1-0.1L47.1,16l0,0.3l-0.5,4.2h-0.7l0.7-5.8h0.4C47,14.7,47.1,14.7,47.1,14.8z"/>
	<path class="st1" d="M54,20c0.1,0,0.3,0,0.4,0c0.1,0,0.2,0,0.3-0.1c0.1,0,0.2-0.1,0.3-0.1c0.1,0,0.2-0.1,0.3-0.1l0.2-1.3h-0.8
		c-0.1,0-0.1,0-0.1,0c0,0,0-0.1,0-0.1l0-0.5h1.7L56,20c-0.1,0.1-0.3,0.2-0.5,0.3c-0.2,0.1-0.3,0.1-0.5,0.2c-0.2,0.1-0.4,0.1-0.5,0.1
		c-0.2,0-0.4,0-0.6,0c-0.4,0-0.7-0.1-1-0.2c-0.3-0.1-0.5-0.3-0.7-0.5c-0.2-0.2-0.4-0.5-0.5-0.8c-0.1-0.3-0.2-0.7-0.2-1
		c0-0.5,0.1-1,0.2-1.4c0.2-0.4,0.4-0.8,0.6-1.1c0.3-0.3,0.6-0.5,1-0.7c0.4-0.2,0.8-0.2,1.2-0.2c0.2,0,0.4,0,0.6,0.1
		c0.2,0,0.4,0.1,0.5,0.2c0.1,0.1,0.3,0.1,0.4,0.2c0.1,0.1,0.2,0.2,0.3,0.3l-0.3,0.3c0,0.1-0.1,0.1-0.2,0.1c-0.1,0-0.1,0-0.2,0
		c-0.1,0-0.1-0.1-0.2-0.1c-0.1-0.1-0.2-0.1-0.3-0.2c-0.1,0-0.2-0.1-0.4-0.1c-0.1,0-0.3-0.1-0.5-0.1c-0.3,0-0.6,0.1-0.9,0.2
		c-0.3,0.1-0.5,0.3-0.7,0.5c-0.2,0.2-0.3,0.5-0.5,0.8c-0.1,0.3-0.2,0.7-0.2,1.1c0,0.3,0,0.6,0.1,0.8c0.1,0.2,0.2,0.4,0.3,0.6
		c0.1,0.2,0.3,0.3,0.5,0.4C53.6,19.9,53.8,20,54,20z"/>
</g>
</svg>
