<?xml version="1.0" encoding="utf-8"?>
<!-- Generator: Adobe Illustrator 21.0.2, SVG Export Plug-In . SVG Version: 6.00 Build 0)  -->
<svg version="1.1" id="Zahlarten" xmlns="http://www.w3.org/2000/svg" xmlns:xlink="http://www.w3.org/1999/xlink" x="0px" y="0px"
	 viewBox="0 0 85.2 21.5" style="enable-background:new 0 0 85.2 21.5;" xml:space="preserve">
<style type="text/css">
	.st0{fill:#0045A8;}
	.st1{fill:#333333;}
</style>
<metadata><?xpacket begin="﻿" id="W5M0MpCehiHzreSzNTczkc9d"?>
<x:xmpmeta xmlns:x="adobe:ns:meta/" x:xmptk="Adobe XMP Core 5.6-c137 79.159768, 2016/08/11-13:24:42        ">
   <rdf:RDF xmlns:rdf="http://www.w3.org/1999/02/22-rdf-syntax-ns#">
      <rdf:Description rdf:about=""
            xmlns:xmp="http://ns.adobe.com/xap/1.0/"
            xmlns:xmpGImg="http://ns.adobe.com/xap/1.0/g/img/"
            xmlns:xmpTPg="http://ns.adobe.com/xap/1.0/t/pg/"
            xmlns:stDim="http://ns.adobe.com/xap/1.0/sType/Dimensions#"
            xmlns:xmpG="http://ns.adobe.com/xap/1.0/g/"
            xmlns:dc="http://purl.org/dc/elements/1.1/"
            xmlns:xmpMM="http://ns.adobe.com/xap/1.0/mm/"
            xmlns:stEvt="http://ns.adobe.com/xap/1.0/sType/ResourceEvent#">
         <xmp:CreatorTool>Adobe Illustrator CC 2017 (Windows)</xmp:CreatorTool>
         <xmp:CreateDate>2017-07-24T12:02:15+02:00</xmp:CreateDate>
         <xmp:Thumbnails>
            <rdf:Alt>
               <rdf:li rdf:parseType="Resource">
                  <xmpGImg:width>256</xmpGImg:width>
                  <xmpGImg:height>60</xmpGImg:height>
                  <xmpGImg:format>JPEG</xmpGImg:format>
                  <xmpGImg:image>/9j/4AAQSkZJRgABAgEASABIAAD/7QAsUGhvdG9zaG9wIDMuMAA4QklNA+0AAAAAABAASAAAAAEA&#xA;AQBIAAAAAQAB/+4ADkFkb2JlAGTAAAAAAf/bAIQABgQEBAUEBgUFBgkGBQYJCwgGBggLDAoKCwoK&#xA;DBAMDAwMDAwQDA4PEA8ODBMTFBQTExwbGxscHx8fHx8fHx8fHwEHBwcNDA0YEBAYGhURFRofHx8f&#xA;Hx8fHx8fHx8fHx8fHx8fHx8fHx8fHx8fHx8fHx8fHx8fHx8fHx8fHx8fHx8f/8AAEQgAPAEAAwER&#xA;AAIRAQMRAf/EAaIAAAAHAQEBAQEAAAAAAAAAAAQFAwIGAQAHCAkKCwEAAgIDAQEBAQEAAAAAAAAA&#xA;AQACAwQFBgcICQoLEAACAQMDAgQCBgcDBAIGAnMBAgMRBAAFIRIxQVEGE2EicYEUMpGhBxWxQiPB&#xA;UtHhMxZi8CRygvElQzRTkqKyY3PCNUQnk6OzNhdUZHTD0uIIJoMJChgZhJRFRqS0VtNVKBry4/PE&#xA;1OT0ZXWFlaW1xdXl9WZ2hpamtsbW5vY3R1dnd4eXp7fH1+f3OEhYaHiImKi4yNjo+Ck5SVlpeYmZ&#xA;qbnJ2en5KjpKWmp6ipqqusra6voRAAICAQIDBQUEBQYECAMDbQEAAhEDBCESMUEFURNhIgZxgZEy&#xA;obHwFMHR4SNCFVJicvEzJDRDghaSUyWiY7LCB3PSNeJEgxdUkwgJChgZJjZFGidkdFU38qOzwygp&#xA;0+PzhJSktMTU5PRldYWVpbXF1eX1RlZmdoaWprbG1ub2R1dnd4eXp7fH1+f3OEhYaHiImKi4yNjo&#xA;+DlJWWl5iZmpucnZ6fkqOkpaanqKmqq6ytrq+v/aAAwDAQACEQMRAD8Ahfmu68w6L5m1XSTqV3Sx&#xA;u5oEJnl3RHIRvtd1oc7rBGE8cZUNx3PM5TKMiLOxe9f84ya7dah5X1Wzu55Lie0vRIHlYuwSaJQB&#xA;ViduUTZz/beIRyRIFWHa9mzJgQe9k/50+d/8KeSbmW3k4apqFbTT6H4lZx8co/4xpUg/zUzF7N0v&#xA;i5Rf0jct+szeHDzL5YsvM3nm9vILO11nUZbm5kWGCJbqarO5Cqo+PuTnVywYogkxjQ8g6IZMhNAn&#xA;5voPzp+ZMX5YeV9N8t20h1bzR9WUyy3EjSKjNUvNKxPNuT14JXp7AV53TaL81kMz6cd/gO2zajwI&#xA;iI3k+ftf/MHzpr87y6prF1MGNfQWRo4V/wBWJOKD7s6LFpMWMemIdTkzznzKV22t61ayia1v7mCZ&#xA;fsyRTSIw+lSDlssUSKIDATkORez/AJO/nrrf6ZtfL/mi5N7aXriG11CX++ilbZFkf9tGbarbgnrT&#xA;NJ2j2XDhM8Yojo7LSa2XEIz3BZP/AM5O63d2Hl3RrS1uJLeW5vHlLxOUYrDEVIqtDSswzF7ExCU5&#xA;Ei6H4+5u7SmREAd750/xF5g/6ud3/wAj5P8AmrOk8GHcPk6fxJd5VIPNPmaCQSwavexSrurpcSqw&#xA;+RDYDgxnnEfJIyyHUvXvyc/PHzC2v2fl7zLcnULO/kW3tbyUAzxTPRYwzinNWbY8t6mte2aftHsu&#xA;HAZwFEdOjsNJrZcQjLcFkf8Azk35k1PS7HQbTTr2azluZbiWRreRomKxKigMUINKy5jdiYYyMjIX&#xA;VN3aWQxEQDTzj8mda80av+ZWi2lzq97PbB5JpopLmVkKwwvIAysxBBZQM2XaWLHDBIiIv3OHo5yl&#xA;lAJL1r86vzkh8sWsuhaHKH8xTrSWVaMtojftN/xYw+yvb7R7A6js3s45Txz+j7/2OfrNXwDhj9X3&#xA;PBvK11+ZPmjWodI0nVtRmu5jVmN3OEjQH4pJG5fCq13P0DfN/njgxR4pRjXuDq8RyzlQJ+b638me&#xA;WT5c0GDTZL2fUrkVe6vrmR5Hklb7RHMtxUUoqjoPepPH6nP4kzKhEdwd/hx8Eau2P/nT53/wp5Ju&#xA;ZbeThqmoVtNPofiVnHxyj/jGlSD/ADUzJ7N0vi5Rf0jctWszeHDzL5J/xF5g/wCrnd/8j5P+as6/&#xA;wYdw+Tz/AIku8vQfyJ826pD+ZWnW95ezzW1+ktq6yyu68mQumzE780UZru1dPE4CQBY3cvQ5SMos&#xA;831jnIu/fNf50fnXr0mu3nl3y7dPYWFg7W91dQHjPNMhpIBIPiRFb4fh3PjTbOn7N7MhwCcxZLpt&#xA;ZrJcRjE0A8VnnnnlaaeRpZXNXkclmJ8STvm7AA2DrCbRGn6zrGmuJNOvriykBqHt5XiNfGqEZGeO&#xA;MvqALKMzHkafTn/OPev+ddd0LUNR8w6g95YRyrb6eZlTnyReUzGQAMw+JQORPfOX7XxYscxGAo9f&#xA;0O70GScokyNh5R+Z/wCd/mPzDqlzZ6NeSafoETtHAtuxjknUbepK60ajdQvSnWpzbaHsyGOIMhc/&#xA;ucDU62UzUTUXmDOzsWclmY1LE1JObVwUw0vzJ5h0l1fS9TurJlNR9XmkjH0hSARleTDCf1AFnHJK&#xA;PIkPpHyl5l83yfkfrPmLzDetcXUlrdtpkhRY3WMRmKJmKBCSZakHrSm+czqMOP8ANxhAULFu5xZJ&#xA;+AZSPQ0+bP8AEXmD/q53f/I+T/mrOm8GHcPk6XxJd5d/iLzB/wBXO7/5Hyf81Y+DDuHyXxJd5T7y&#xA;FqGval520KxbUbp457+3WVTNKax+qpfav8oOY+rhCOKRofSejbglKUwLPNkX/ORmjfo/8yZ7lVpH&#xA;qlvDdCnTkAYW/GKv05j9j5OLAB/NNfpbu0IVlvvT7/nFjUvS8ya1ppNBdWaXAHibeTj+qc5j9uwu&#xA;EZdx+/8AsbuzJeojyY1+fPnb/EvnaW2t35aZo3K0tqdGkB/fyD/WdePyUZk9labwsVn6pb/qaNdm&#xA;450OQT3/AJxw8mx3esXXm3UFA0/RVZbZmHwm4Zas3/PKM1+bA5R2zqaiMY5y+79rb2fhuRmeQeX+&#xA;a/MN15i8x6hrVySZL2ZpAp/ZTpGnyRAF+jNrp8IxwEB0cHLkM5GR6vdvyI/KLy9ceXIfM2v2UeoX&#xA;N8WNlbXCh4Y4UYoGMbfCzOVJ+Ku1Kd80HavaExPw4GgObtdDpImPFIXaYfnv+WnlKPyPd65punW+&#xA;m6hppjcPaxpAsiSSrGyyKgVW+3UGlajK+ytbkOUQkTIS792Wu00OAyAoh8yxyPHIskbFXQhkYdQQ&#xA;agjOoIt0r2r/AJyf1R7jWPL1m+zxWLXTIKihuXCnYn/ijNH2HCozPnXy/tdl2lKzEeSR/wDOO+g2&#xA;er+f2+u20d1a2dlNO8UyCSMsWSJaqwK1/eVGZHbGUww7GiS1dnwEsm/QPRf+ch/LXkXTfJguoNOt&#xA;LHWZLiNLJ7aOOGR/9+chGF5qIx36Gma3sjNlllokmNb25mvx44wugC8H8i28tx520CGJeUj6jagD&#xA;/nspJ+jN/qjWKR/on7nVYBc4+8PSf+cotQ9XzlptiDVbWwDkeDzSvUf8DGuazsOFYie+Tm9py9YH&#xA;k868lecbzylqVzqlhGrag9rJbWkr7rE8pWsvH9oqgagO1evhmy1OmGaIieV24eHMcZsc6S21t9S1&#xA;7W4rcSevqWqXCoJZnALzTvSrux/aZtyctkY44X/DEfcwAM5eZfYf5a/lro/kfRxbWwE+pTgHUNQI&#xA;o0jD9lf5Y1/ZX6TvnF63Wyzys/T0D0Wn04xChzZhmG5D5C/PTzv/AIn87TRW8nPS9I5WlnQ1VmU/&#xA;vpR/ruKA91UZ2XZel8LFv9Utz+h57W5uOe3IKenfly7flDq3nO5QiUXEC6eP+KFlEU0nyZ3p7cT4&#xA;4z1n+ExxDuN+/osdP+5Myw7y/qsmka7p2qx152FzDcgDv6Th6fTTM3Nj44GPeKcbHLhkD3PvCORJ&#xA;I1kjYNG4DIw6EEVBGcCRT1T4c89aXe6X5x1mxvEKzxXkxPLbkruXRxXs6sGHzzu9LMTxRI7nl88T&#xA;GZB72Qflv+b+t+RopbW1s7a8sbiT1Zo5VKS1oF+GZd+i9GDDMfW9nQz7kkEfjk3afVyxbAWHrOkf&#xA;m1+T/nSRbHzJo0FheTnisl7FFJFyP8tyoDIfdgvzzT5Oz9Tg3hIkeX6nPhqsOTaQo+f63qtp5a0z&#xA;TPLT6FokK2VmIZY7ZFLMEM3IluTEsfievXNTLNKU+Oe5c8YxGPDHYPhq7tLmzu5rS6jaG5t3aKeJ&#xA;xRkdDxZSPEEZ3kZCQsci8wQQaL0f8u/z01rydpkekHTba/0uNmYLvBP8ZLGsqhg25/aQn3zWazsu&#xA;OaXFZEvmHM0+tljFVYepaF53/JX8w5k07U9Ht7TVZyFjiu4Y0d2P7MN1FQ1PgSpPYZqsul1WmHFG&#xA;RMfL9TnQzYM2xG/46pr+eZtND/KC602yQW9sfqtjaxA7LGkitxFSSf3cRGU9l3k1IkdzuWetqOGh&#xA;5B8mpw5rzqUqOQXrTvSudeXQvZx+a/5M/wDlv4v+At/6ZpPyGq/1X73ZfmsP8x6V+U0v5eeaYptc&#xA;0byrb6TNp04iimMcXPmUDEoyDagbNZrxmxHglMysOZpTjn6oxqmMf85UaNz0vQ9aVd4JpbOVh3Ey&#xA;iRK/L0m+/MrsLJ6pR+LT2nDYSeJeTPNt95W1SbUrEkXMlpcW0bD9lpkKq/8AsGo30ZvNTpxljwnl&#xA;YLrMOUwNjuSeztLq/vYbS2Rprq6kWKGMbs8kjBVHzJOXykIizyDWASaD7J0/ygnln8rbjQLH4riH&#xA;TrgSSJsZLmSJi7g9d3O3gKZxU9R4uoEzy4h8noo4uDFwjufF+ds84+vPyX85+W77yBpVol7BDe6d&#xA;ALe7tHkVJFMVRz4sQSrL8XIbfSDnHdpaacc0jRol6DR5onGBe4Yb/wA5DfmbodxoJ8qaRdx3tzdS&#xA;o+oyQMHjjjiYOqF1+Eu0gU0B2pvmb2RopifiSFAcnG1+piY8ANvEvI/l+bzD5t0rR40Li6uEEwG9&#xA;IVPKVv8AYxqxze6rMMeOUu4Osw4+OYDL/wDnIjUPrX5n3sQNRZQW9uPpjExH3y5h9jwrAD3kuT2h&#xA;K8p8nnVrfXto5e0uJLd2HFmidkJHWhKkZspRB5i3DEiOTVzd3d1J6t1NJPJSnOVi7U8KsTjGIHJS&#xA;Seb33/nHr8qbiGa3866sE4NGTo9uGDH4wVaZ6VA+GoUde5pQZz3a+vBBxR+P6na6DS/xn4PPfz51&#xA;A3v5paxQ1jtvRt0/55wpy/4ctmy7Khw6ePnf3uJrpXlLCtJ0jU9Xv4tP0y2ku72ckRQRDkxoKn6A&#xA;NyczcmSMBxSNBxoQMjQ5oVWkikDKSkiGqsKhlYHqPAjJ82L7S/Kzzonm/wAmWWpuwN9GPq2oqO1x&#xA;EAGNO3MEOPnnEa/TeDlMenMe56TS5vEgD16oH86fO/8AhTyTcy28nDVNQraafQ/ErOPjlH/GNKkH&#xA;+amWdm6Xxcov6RuWOszeHDzL45zs3nWfXn50earrykfKjW1jHpBt1tBHHC4dY0A4kMZD8Xw1qR1z&#xA;Xx7NxjJ4ly4rtyjrJmHBtTAc2DivtH8s/Mdve/lho2r3UoSK3seN3Mx2X6mDFI7f8iixzidbhMc8&#xA;ojqfvek02S8QJ7vuYle6t+SH5qRol7cra6og4QyTMLO8UdgrNWOUdwvxU8MzI49VpOQuPzH7HHlL&#xA;Bn58/kWE+cv+carnTNNudV0TWI7q1tomneC7URP6aKWPGVSUY08QozO03bQlIRnGie5xc3ZxiLiX&#xA;iObx1r66/LHzZDYfkppnmDW5yYLC2mEsnVilvcSQRItSKsVRUXfc5x+t05lqjCA5kfaLeg02WsAl&#xA;Lok1/p/5I/mrS7jvUtNbkADOjra3hIFKSRSArLTYcgG8A2XQnqtJtVx+Y/Y1Sjgz736vtedfmJ/z&#xA;j7qPlbR7nW7LVIr7TrUBpo5l9CZVZgo47uj7nxB8Bmz0fa8cshAxqR+Lh6jQGA4gbDyRWKkMpow3&#xA;BHUHNu4D3z88deurz8pPJQunLXeppb3twx6uyWg5saeLT1zn+y8QjqMlco2Pt/Y7XW5CcML6/qeP&#xA;eS/LD+Z/MtnoaXK2f1svW6kHJUEcbSEkVX+SnXNzqc/hYzOrp12HHxyEeT1X/oWT/v7LT/kT/wBf&#xA;c1P8t/0D8/2Of/Jv9IPXvyp8l2/k3y2+jJqEWoSvcSXUs0QCirqqD4eTHYRjvmn1+pOafFVbU7DS&#xA;4fDjw3aH/PDRTqv5Zayiryls0W9j9vq7B3P/ACK5YezMnBnj57fNGthxYj5bvjjO0ede0f8AONPk&#xA;oal5guPM11HW10genaVGzXUi7kf8Y4zX5spzSdtanhgMY5y5+52PZ2G5cR6PpogEUPTOXd2+Tvza&#xA;/JnWvLeq3WpaRaPd+XJmaWN4VLG2DGpjkUVIVf2W6U67513Z/aUcsRGRqf3uh1WjlA2B6fueXZtX&#xA;BTDRtA1vW7tbTSLGa+uGIHCBC9K92I2Ue52yvJlhAXI0GUMcpGgLfUP5L/k+PJtu+qasUl8wXacC&#xA;qHkltEdzGrftO23NvoG1SeV7S7R8Y8MfoH2u80ek8Pc/U+dPzN1A6h+YXmG5J5A388aE13SJzGnX&#xA;/JQZ0mihw4YD+iHT6mV5JHze4f8AONPl+yn8japc3tuky3948JWRAwaKOFB1PYl2GaLtrMRliAeQ&#xA;dn2djBxknqXiX5leTJ/J/m680hgTa19bT5G3520hPpmvcrQq3uDm90WpGbGJdevvdZqMPhzIesf8&#xA;4y+ezW48m3rkgBrrSieg7zxD7+Y/2WajtvS8so9x/Q7Ds3P/AAH4PGfO+ofpHzlrl8DVbi/uZEP+&#xA;QZW4j/gaZutLDhxRHdEOtzSuZPm+hP8AnGnyvplt5RbzCYFbVL+aWIXLbssETBQieALKSfH6BnO9&#xA;tZ5HJwX6R97t+zsQEOLqXlH58+S/8N+eZ7i3Qrp2scry2NPhEjH9/GP9Vzy9gwzb9lanxMVH6o7f&#xA;qcDXYeDJ5FGf849edpNC85Jo8zE6drpWBl3PG4FfRcfMngfn7ZDtfTeJi4hzh93VloM3DOukkB+e&#xA;nnf/ABP52mit5Oel6RytLOhqrMp/fSj/AF3FAe6qMs7L0vhYt/qluf0MNbm457cgifyh/Jz/AB1b&#xA;X99e3Utjp9q6wwyxqrGSYjk4+Lsila/PIdodo+AQALJZaTSeKCSaD0P/AKFW8v8A/V8u/wDkVHmt&#xA;/l2f80OZ/Jke8vB/OHl9vL3mjVNELGRbC4eKORgAzRg1jYgd2Qg50GnzeJjE+8OqzY+CZj3PU/y4&#xA;sfM3m/8AJ7V/KmhXUMF1bXwedZiy+pazIHESsobiWljY17jbNTrJY8OpjkmNjH7f7HO08ZZMJhE9&#xA;fseZ+YfIHnPy87DV9HubaNDQ3HAyQH5TJyjP/BZtMOrxZPpkD+O5wsmCcOYSP15/S9H1G9Lr6dTx&#xA;8enTL6HNqtmHkb8pvN/m67iFvaSWmmFh6+p3CFIlTuU5cfUb2X6adcw9V2hjwjc3LucjBpZ5DsNu&#xA;97r+aH5W+YdQ8iaT5Z8pSRDT9KAM1nM3CS4ZFohEn2K8izENQEmvbNBoddCOWWTJzl17na6nTSOM&#xA;RhyD5u13yf5p0CQprGl3NlQ09SWNvTNP5ZBVG+g502LUY8n0yBdNPDOH1CkrM08iLEXZkX7EZJIB&#xA;9hltDm129E/Lj8k/M/mi+gnv7aXTdBDBp7uZTG8iDfjAjUZi3TlTiPwzXaztPHiBAPFP8c3M0+jl&#xA;M77RZL/zlBPBDq3l3RoFEcFhZPJFEOipK4jUDfwt8xewwTGcj1P4+9u7SO8Y9weJZvHWuxV9Cf8A&#xA;OKmn0h8xaiy/aa2t42/1RI7j/hlzne3p7wj73bdlx+ovfs552zsVdirsVdiqX3Pl7QLqX1rnTLSe&#xA;bly9SSCN25eNWUmuWRzTGwJ+bA44nmAjLe2t7aIRW8SQxDpHGoVR9AoMgZE82QAHJUwJdiqncTej&#xA;byzcGk9NGf00BZm4itFA3JPbFXn0H5mecJdO8v3DeRr6O61q7ktri1Zpv9CiSRIxPcN9W+BW5lgH&#xA;VfhFa4q9FxVDnT7A7m2ir/qL/TJcZ70cIVo4o4kCRoqIOiqAB9wwE2ml2BXYq7FXYq7FXYq7FXYq&#xA;oiysw/qCCP1K8ufBa161rTrkuI96KCtkUuxVxAIoemKqMdlZxuHjgjRx0ZUUEV26gZIyJ6ooK2RS&#xA;7FXYq7FXYqx78w9bbQ/I2uaojlJbazlMDg0ImdeEX/DsMVeVeRvyr1HVPJWm+YtV8667YXV1bm7k&#xA;Md6yRRoxLI1XJIHp0JJbFWRf84/ebtf1/QdVttWuzqY0m8Ntaao27Tx0qOTHdiOtTvRhirH/AM8f&#xA;M3mLV9RvPLnli6mtYfLVnJq2v3tu7RsGCExQckKn7LciK9/8nFXp35b6udT/AC90DUZpecj2EP1i&#xA;Z2qTJGgSRmY/5SknFXk35Q/mV5nufzBkt/MFxcSaP5sW4uvL4nbkielPKFWME/AtEdePsvamKsy8&#xA;7a5rU35v+TPLOnXs1ramObUdUjhcqJYkqUWWh3Wtuy0/ysVSDzL5jjf/AJyBtlvNQNnoXlbTDdak&#xA;GkKxcmRmVnAO55XMVBQk7U64qutYvNP5va1HqLy3Oh/l3YyE2cUbNDc6gymhclSCFPSvQdB8VSFU&#xA;dp+r6rd/n6fL2nXk0Hl7y5pa/WLCORvQdzGOPMVozA3K9d/h9sVTX8+vOeq+VfI4udIuDa6peXcN&#xA;tbTKFZlHxSOQGDDdY+PTviqQ/nJf+YLPyn5O8s2+oTxa9rV5bW9xeRSNHNIyoEmaqFacpplJA2xV&#xA;LfP/AJB1DyL5Wu/MWnefNZjv7QxtbQXl3yinbmP3fp7cyRU0II8RTFWQ+c/O+pH/AJx/PmG4P1bV&#xA;dU0+3T938H7y7KozJvUVRmce2KsZ8p/kLe6v5Z0vVb7zZqltdX9tFcyQI5Kp6yh1WpauykVxVOvP&#xA;1jP+W/5K6lY2erXV1e3M6R2+oSuyz8p5FLAMpqKRI1KHFV9v+SWpR6Sl2PPOv2uofVxIzteMsSSl&#xA;Kty6NwB679MVYnZ+ePNfmH/nHnzDfXd9MdW0e8igh1KFzFJJEstux5SIV5MFkYHxFK74qzTzX5q1&#xA;GP8AJ/y7a2Ejf4h82Wlhp9ieZMnqXcKerIW+18KE/H2JBxVIvym89y6R+RGra9eXDXFxpU9zFC0z&#xA;tIWmdYzChLV2LzLiqReZbrzF5d/5x+sTf6hdza75ovYp3kkmkeZIn/fIqMxLKOEKVApuxxVktn/z&#xA;jlcvaQNdecNVjuWjUzoj1VXKjkAS3QHFXfnCNR8o/lpoPlTSNSuZNTvL2O1hvTIyXDqC0jEup5fb&#xA;dF+WKtfnN5o1XTNV8qeRLPV5NHsdRESaprXMrL6PMQD96TVfsszmvhU0rirvMP5WedPKVva6z+XO&#xA;u6pqd7HKv1rTL65jmimiP7QUiGMgdwd6GoIpiqP/ADc8zeZG1DyL5f0y4n0jUteukfUEt5CrxR/u&#xA;0dGdDuoMrdP5cVej+cNaGh+VNX1fkFaxs5p4695EQlB9L0GKvKNP86+abT/nHi/81apqMsutX/qi&#xA;0uSFSRPVmFpHw4BQOIUuCPniqf8A5E+atd1HR77QfM0kj+YtFlUztcNzle3ul9aFmJ69SPlTFW/y&#xA;81/V9c/Mnz1dTXsx0PSpo9PsrRnPoJJHVJnRegNYKk/5WKsQtdR81/nN5o1G3sNUuND8h6UwiZrV&#xA;ikt0STxqdqlwOVDVUFNidyqjNZ/KTzb5Hlsta/LnU9S1KaOdRqGj3k8bJPF1J6QpTbiQRXeoIpiq&#xA;a/8AOTmrta/l5HpsRJl1e9hg9MdSkVZj/wAPGmKpPc/84w6AmjOZvMV/C8cHKQytGbZGRaksvEfA&#xA;pHj0xVS/Kbz2PLH5D3utX8MUf1C6nt9MREWM3MjKnpcuNObeozKzdeK+2KoDyhpf5t2flTWbc+SR&#xA;qNx5tSafUdVm1C1imkW7jIWsTtVeKyE8W7k4qmPkbzO2nf8AONWqTSNwn0uO+08Ek1WWeQiMfQ1y&#xA;oGKov8yfJF3pn5UeWtU0xPT1vyTHa3SMo3oqp9ZqBT9tRI3spxVd+V+s2/nb83de8324P1Gz0uzs&#xA;7VW6o9wqyOp91eORcVYh5c/LeD80/OHnTzBd3rwWCXc9tYiL/dklCsDOf5I1VGKjrirOP+cdfMl5&#xA;+itS8kavWPV/LU7xrEx+L0GcggePpyVFfAriqn+R0YvPPH5i6zOwa8bUzbBP2kiWWYgeNDxUD/Vx&#xA;VS/OGJ/Mf5p+RvKUP7yOGU6jqEY3AhDqTy7D93A4FfHFUm/OGx/xn+dnlzycs8kMEFsWuJYjR42k&#xA;DzyFa1FfSiSmKpb+aX5G6L5R8qy+ZLXW7i4urCSEw22oiKWOUvKq8FUqKmnxcSCCAaimKp7+eF5e&#xA;6x5Z8geWZ41ttQ8wXNtJc28QoI3EaRMgHZQ91t8sVZEP+cbvIoAAvtWAGwAu1/6p4qx78+NLWceQ&#xA;vy7012SO5uUjVmPNkSFUt45H6ciFlck+xxVLvzO/KDzXpfkvUdVm886nrEdigkksLx5THJGXVXFW&#xA;ncCgPL7JrSmKsmttOsJf+cZ5xZWcdos2kSXU0UIJDSxjm8h5FmJb06kk7fRiqVfk3EfNet6JqT/H&#xA;pHkrR7eytAd1bUbmINM4944/gbwPE4q84/L+wutdms/y0XkbFtdm1DWN+lvaRJHSo/n4sP8AW44q&#xA;9L/Ouxg80fmZ5J8jEslqRJdXawkKwic78diAVjtXpttXFU+H/OOHkUEH69qx9jdj/qniqWfmEo1z&#xA;89fI/l1BW30iNtTlA+ypBMgBH/Rqn34qyrzfoP5dfmReXnla/mZ9c0IK7tEHiuLb11BBRnXhIrDj&#xA;yA5DpWhpiry+9Hn78lda0a2j1n9N+U9Sn9FLKZTyRVZQyqhLGNuL1UxtxJ+0uKsp1SP9Jf8AOTel&#xA;x3RCxaTpTTWsbdHZlk3HiQZSf9jiqZ/85H6u1p+XMmmwmt3rV1BZwxL9tgH9VuIG/wDusKfn74qk&#xA;X5m6MLPyz+XP5dKAWvb20hugu4aO1RUnY+xebmcVTr8xJk8lef8ARfPoBXS76NtG18L0AYc7aU9t&#xA;mWhJ7KB3xVJ/ywsdQT8iPMmrgE6nrserX6MB8ZkMTxJT/ZxEj54qiv8AnFySxb8u7qK2YfXE1CY3&#xA;YO5DNHHwNBQ8eAH44qlHmjTfzA8ueYfLmlv+Yd1qd9rmoRQHT1t1gZbUt++mLCWWir0Hw7706HFW&#xA;Rfnt/gP1vL/+LP0tz9Sf9F/onhX1axcuVd+f2eFPfFWIal/yr+o/xR/jz9H1X6z+l/rP1bhX/dv7&#xA;fH/V3xVP/Pv/ACrjh5C9b1/8GfWV/Rv1L0f0b6nJafWuf7ylK1/2dd64q9oxV88L/gz/AJV5rv1b&#xA;9J/oD/FUf6T9T0Pt84+XCm3pV9Pr8XTFXv2qfUP0Zd/pHj+j/Rk+uc/sejwPqcvbjWuKvIf+ccP8&#xA;L/4Y1/8AQX1vl9b/AH/r+n63D0h6XDh/sqV74qyX8jv8Ef4Pn/wd9b/Rv16X1/r3H1/rHpx8q8Nq&#xA;cOFMVSP/AJ1P/oYYfor69/iH6p/uX+r+j9R4elv6/L95y4+l9n9rj74qxHzPw/5WLrv/ACq/9M/p&#xA;3m/+I/qHo/UvW5Hn/fft8+fX9qvHFWafk9/hD9Nal6n6Q/5WBwP6X/Tf+9vpcl/uuP7v0a8acfau&#xA;1MVY55y/5Vx/ytTUa/4p/wAZfB6v6D+1w+rpT0fT/e8fRpXFV2hf8ql/xJZf4i/xD9c9X/cb/iz1&#xA;vq31jkPs8vg51/35t9OKpl+d/wDyrj/E+kf4p/TX6S+r/wC439FcONPVNaV+L1OVOnamKsNX/lVv&#xA;IV/xxSu9eVPppvir0LzF/hX/AJXx5Y+v/Xf0r9QP6Kp6X1DjxuKcq/veda09+OKsv/ND9F/8q+13&#xA;9K+t+jvqrfWPqvH1uNR9jn8Na+OKpB5d/Qv/ACod+H1n9C/oe9/3o9P6z9W4S15el8HLh0/HfFW/&#xA;yB/w3/yre0/QPqej68/1v1+PrfWOe/qcPhr6fClP2aYqx38l/wDAP/KwPOH6H+ufpz1ZfX+uejw9&#xA;L6y3q/VvS34epwry/wAnFUv/ADX/AOVX/wDKw3/Tn+IP8Q/V4vS/RfDh6PA09Knx/wA3L3riqXeX&#xA;f+VZ/wCINM9H/GPrfWofT+uc/q3L1Bx9an+66/a9sVZrpP8Ahj/oYLWef1z/ABF+jk9P1fS+pelw&#xA;g/uKfvedOvLb7ftirGPzg9H/AJWJF/gn9Jf8rD+qD63+jOHpehtw+t8u9OPXbjxr+zirEvLH6Q/5&#xA;Wbpf/K4f0j9c5r+hPrfH6p6/qDjz/Y4cqfY2rTltirPPzt/w7/i/Rf0X+kv+Viekf0f+h+Hqeh8f&#xA;9/z2pTn0/Z5cvhxVA+TP0d/jPTv+VmfpX/FnI/oH9Men9Q9Tnt9W9H936vKn2u/Gm/HFWV+cP0R/&#xA;yu7yX+kPrPrfV7r9HceH1X1eEnLnX4+X2aU78ffFU8/OT/D/APyrbW/09z+oektPSp6vrc19H067&#xA;cvU4/wAdsVRn5Zfor/lXnl/9GcvqH1GH0/Vpzrx+PnTblzrWmKvnnW/0J/jq+/5VR+nPVqf0l+h/&#xA;95vtHl6XH4vTr05fDX7O1MVZV5O/wH/ys/y39a/Tf+MOFx9a/TFPU+selJT6x6m/93/c+n8PTvir&#xA;/9k=</xmpGImg:image>
               </rdf:li>
            </rdf:Alt>
         </xmp:Thumbnails>
         <xmp:MetadataDate>2017-07-24T12:02:16+02:00</xmp:MetadataDate>
         <xmp:ModifyDate>2017-07-24T12:02:16+02:00</xmp:ModifyDate>
         <xmpTPg:MaxPageSize rdf:parseType="Resource">
            <stDim:w>30.044907</stDim:w>
            <stDim:h>7.584722</stDim:h>
            <stDim:unit>Millimeters</stDim:unit>
         </xmpTPg:MaxPageSize>
         <xmpTPg:NPages>1</xmpTPg:NPages>
         <xmpTPg:HasVisibleTransparency>False</xmpTPg:HasVisibleTransparency>
         <xmpTPg:HasVisibleOverprint>False</xmpTPg:HasVisibleOverprint>
         <xmpTPg:PlateNames>
            <rdf:Seq>
               <rdf:li>Cyan</rdf:li>
               <rdf:li>Magenta</rdf:li>
               <rdf:li>Yellow</rdf:li>
               <rdf:li>Black</rdf:li>
            </rdf:Seq>
         </xmpTPg:PlateNames>
         <xmpTPg:SwatchGroups>
            <rdf:Seq>
               <rdf:li rdf:parseType="Resource">
                  <xmpG:groupName>Standard-Farbfeldgruppe</xmpG:groupName>
                  <xmpG:groupType>0</xmpG:groupType>
               </rdf:li>
            </rdf:Seq>
         </xmpTPg:SwatchGroups>
         <dc:format>image/svg+xml</dc:format>
         <xmpMM:DerivedFrom rdf:parseType="Resource"/>
         <xmpMM:DocumentID>xmp.did:2ec49c98-8a20-e849-a085-02e5cb840531</xmpMM:DocumentID>
         <xmpMM:InstanceID>xmp.iid:2ec49c98-8a20-e849-a085-02e5cb840531</xmpMM:InstanceID>
         <xmpMM:OriginalDocumentID>xmp.did:2ec49c98-8a20-e849-a085-02e5cb840531</xmpMM:OriginalDocumentID>
         <xmpMM:History>
            <rdf:Seq>
               <rdf:li rdf:parseType="Resource">
                  <stEvt:action>saved</stEvt:action>
                  <stEvt:instanceID>xmp.iid:2ec49c98-8a20-e849-a085-02e5cb840531</stEvt:instanceID>
                  <stEvt:when>2017-07-24T12:02:16+02:00</stEvt:when>
                  <stEvt:softwareAgent>Adobe Illustrator CC 2017 (Windows)</stEvt:softwareAgent>
                  <stEvt:changed>/</stEvt:changed>
               </rdf:li>
            </rdf:Seq>
         </xmpMM:History>
      </rdf:Description>
   </rdf:RDF>
</x:xmpmeta>
                                                                                                    
                                                                                                    
                                                                                                    
                                                                                                    
                                                                                                    
                                                                                                    
                                                                                                    
                                                                                                    
                                                                                                    
                                                                                                    
                                                                                                    
                                                                                                    
                                                                                                    
                                                                                                    
                                                                                                    
                                                                                                    
                                                                                                    
                                                                                                    
                                                                                                    
                                                                                                    
                           
<?xpacket end="w"?>
	</metadata>
<g>
	<path class="st0" d="M2.5,11.6L0.1,1.2h3.5l1,6c0,0.4,0.1,0.7,0.1,1.1C4.9,7.8,5,7.5,5.2,7.1L8,1.3h3.4L6.3,11.6H2.5z"/>
	<path class="st0" d="M21.3,6.5c-0.5,3.4-2.7,5.3-6,5.3c-3.4,0-5.2-2-4.7-5.4s2.7-5.3,6-5.3C20.1,1.1,21.8,3,21.3,6.5z M18.1,6.3
		c0.2-1.6-0.5-2.4-1.8-2.4c-1.4,0-2.3,0.9-2.5,2.6c-0.2,1.6,0.4,2.4,1.7,2.4C17,8.9,17.9,8,18.1,6.3z"/>
	<path class="st0" d="M27.4,1.2c3.2,0,4.5,1.3,4.3,3.7c-0.1,1.7-0.9,2.9-2.1,3.6l1.6,2.9v0.2h-3.4L26.4,9h-1.2l-0.4,2.6h-3.2
		l1.5-10.4C23.1,1.2,27.4,1.2,27.4,1.2z M27.1,6.5c0.9,0,1.5-0.4,1.5-1.5c0.1-0.7-0.4-1.1-1.4-1.1h-1.3l-0.4,2.6H27.1z"/>
	<path class="st0" d="M39.4,5.8l2.8,5.5l-0.1,0.3h-3.4l-1.6-3.4l-1.6,1.7l-0.2,1.8h-3.2l1.5-10.4h3.2l-0.6,4.1l3.9-4.1h3.5l-0.1,0.2
		L39.4,5.8z"/>
	<path class="st0" d="M46.8,10.1l-0.7,1.5h-3.4l5.2-10.4h4.3l2.3,10.4h-3.3l-0.3-1.5H46.8z M49.8,4.9c-0.1-0.5-0.1-0.8-0.2-1.1l0,0
		c-0.1,0.3-0.3,0.7-0.5,1.1l-1.2,2.4h2.3L49.8,4.9z"/>
	<path class="st0" d="M64.3,4.3c-1.9-0.6-3-0.7-3.8-0.7c-0.7,0-1,0.2-1.1,0.5c0,0.4,0.4,0.5,2.4,1.1c2.1,0.6,2.8,1.5,2.7,3.2
		c-0.1,1.9-2,3.3-4.7,3.3c-1.5,0-3.4-0.6-5-1.4L56.1,8C57.7,8.8,59,9.1,60,9.1c0.7,0,1.1-0.2,1.1-0.6c0-0.4-0.4-0.6-2.2-1.1
		c-2.1-0.6-2.9-1.5-2.8-3.2C56.2,2.2,58,1,60.4,1c1.7,0,3,0.2,4.9,0.9L64.3,4.3z"/>
	<path class="st0" d="M74.6,4.3c-1.9-0.6-3-0.7-3.8-0.7c-0.7,0-1,0.2-1.1,0.5c0,0.4,0.4,0.5,2.4,1.1c2.1,0.6,2.8,1.5,2.7,3.2
		c-0.1,1.9-2,3.3-4.7,3.3c-1.5,0-3.4-0.6-5-1.4L66.4,8c1.6,0.8,2.9,1.1,3.9,1.1c0.7,0,1.1-0.2,1.1-0.6c0-0.4-0.4-0.6-2.2-1.1
		c-2.1-0.6-2.9-1.5-2.8-3.2c0.1-2,1.9-3.2,4.3-3.2c1.7,0,3,0.2,4.9,0.9L74.6,4.3z"/>
	<path class="st0" d="M79.6,5.2h4l-0.4,2.5h-4L79,8.9h4.9l-0.4,2.7h-8L77,1.2h7.9L84.5,4h-4.7L79.6,5.2z"/>
	<path class="st1" d="M2.7,14.6h2.1c0.3,0,0.6,0,0.8,0.1S6,14.8,6.1,15c0.2,0.1,0.3,0.3,0.4,0.5s0.1,0.4,0.1,0.6
		c0,0.3-0.1,0.6-0.2,0.8c-0.2,0.2-0.4,0.4-0.8,0.5c0.5,0.2,0.8,0.6,0.8,1.2c0,0.3-0.1,0.6-0.2,0.8c-0.1,0.3-0.3,0.5-0.5,0.6
		c-0.2,0.2-0.5,0.3-0.8,0.4s-0.7,0.1-1.2,0.1H1.4L2.7,14.6z M3.7,19.9c0.3,0,0.6,0,0.8,0c0.2,0,0.4-0.1,0.5-0.2
		c0.2-0.1,0.3-0.2,0.4-0.4c0.1-0.2,0.1-0.4,0.1-0.5s0-0.3-0.1-0.4s-0.1-0.2-0.2-0.3C5.1,18,5,18,4.8,18c-0.2,0-0.4,0-0.7,0H2.9
		l-0.4,2h1.2V19.9z M4.3,17.1c0.3,0,0.5,0,0.6-0.1s0.3-0.1,0.4-0.2s0.2-0.2,0.3-0.3s0.1-0.3,0.1-0.4c0-0.2-0.1-0.4-0.2-0.6
		c-0.1-0.1-0.2-0.1-0.3-0.2c-0.1,0-0.3,0-0.6,0H3.4L3,17.1H4.3z"/>
	<path class="st1" d="M8.4,18.9l-0.9,1.7H6.6l3.3-6h1l0.9,6H11l-0.2-1.7C10.8,18.9,8.4,18.9,8.4,18.9z M10.2,15.4l-1.5,2.8h1.9
		L10.2,15.4z"/>
	<path class="st1" d="M16.2,20.6l-1.7-4c0-0.1-0.1-0.1-0.1-0.2s0-0.1-0.1-0.2c0,0,0-0.1-0.1-0.1c0,0,0-0.1-0.1-0.2v-0.1
		c0,0.1,0,0.2,0,0.3c0,0.1,0,0.2-0.1,0.4c0,0.1,0,0.3-0.1,0.4s0,0.2-0.1,0.3l-0.7,3.5h-0.6l1.3-6h0.8l1.6,3.9
		c0.1,0.2,0.1,0.3,0.2,0.5s0.1,0.3,0.2,0.5c0-0.1,0-0.2,0-0.3c0-0.1,0-0.2,0-0.3s0-0.2,0.1-0.4s0.1-0.3,0.1-0.5l0.7-3.4h0.8l-1.3,6
		L16.2,20.6L16.2,20.6z"/>
	<path class="st1" d="M23.4,20.6h-1l-1.5-3l-1,0.9l-0.4,2h-0.9l1.3-6h0.9l-0.6,2.9l3-2.9h1.2l-2.7,2.4L23.4,20.6z"/>
	<path class="st1" d="M29.7,14.6l-0.8,3.7c-0.1,0.3-0.1,0.5-0.2,0.6c-0.1,0.2-0.1,0.3-0.2,0.5c-0.1,0.1-0.1,0.2-0.2,0.4
		c-0.1,0.1-0.2,0.2-0.3,0.3c-0.2,0.2-0.5,0.4-0.8,0.5s-0.6,0.2-1,0.2c-0.3,0-0.6,0-0.8-0.1s-0.5-0.2-0.6-0.3
		c-0.2-0.1-0.3-0.3-0.4-0.5s-0.1-0.4-0.1-0.7c0,0,0-0.1,0-0.2s0-0.2,0-0.2s0-0.2,0-0.3s0-0.2,0-0.2l0.8-3.6H26l-0.8,3.6
		c0,0.2-0.1,0.4-0.1,0.5s0,0.2,0,0.3c0,0.3,0.1,0.6,0.3,0.8c0.2,0.2,0.5,0.3,0.9,0.3c0.2,0,0.5,0,0.7-0.1s0.4-0.2,0.5-0.4
		c0.1-0.1,0.1-0.1,0.1-0.2s0.1-0.1,0.1-0.2s0.1-0.2,0.1-0.3s0.1-0.3,0.1-0.5l0.8-3.6h1V14.6z M27.3,13.9h-0.8l0.2-0.9h0.8L27.3,13.9
		z M28.9,13.9H28l0.2-0.9h0.9L28.9,13.9z"/>
	<path class="st1" d="M31.2,14.6h2.1c0.3,0,0.6,0,0.8,0.1s0.4,0.1,0.5,0.3c0.1,0.1,0.3,0.3,0.4,0.5c0.1,0.2,0.1,0.4,0.1,0.6
		c0,0.3-0.1,0.6-0.2,0.8c-0.2,0.2-0.4,0.4-0.8,0.5c0.5,0.2,0.8,0.6,0.8,1.2c0,0.3-0.1,0.6-0.2,0.8c-0.1,0.3-0.3,0.5-0.5,0.6
		c-0.2,0.2-0.5,0.3-0.8,0.4s-0.7,0.1-1.2,0.1h-2.3L31.2,14.6z M32.3,19.9c0.3,0,0.6,0,0.8,0s0.4-0.1,0.5-0.2
		c0.2-0.1,0.3-0.2,0.4-0.4c0.1-0.2,0.1-0.3,0.1-0.5c0-0.1,0-0.3-0.1-0.4s-0.1-0.2-0.2-0.3C33.7,18,33.6,18,33.4,18s-0.4,0-0.7,0
		h-1.2l-0.4,2h1.2V19.9z M32.8,17.1c0.3,0,0.5,0,0.6-0.1s0.3-0.1,0.4-0.2c0.1-0.1,0.2-0.2,0.3-0.3s0.1-0.3,0.1-0.4
		c0-0.2-0.1-0.4-0.2-0.6c-0.1-0.1-0.2-0.1-0.3-0.2c-0.1,0-0.3,0-0.6,0h-1.2l-0.4,1.8H32.8z"/>
	<path class="st1" d="M40.7,15.4h-2.9l-0.4,1.7h2.9l-0.2,0.7h-2.9l-0.4,2H40l-0.2,0.7h-4.1l1.3-6h3.8L40.7,15.4z"/>
	<path class="st1" d="M41.8,20.6h-0.9l1.3-6h2.2c0.3,0,0.6,0,0.8,0.1s0.4,0.1,0.6,0.3c0.2,0.1,0.3,0.3,0.4,0.5
		c0.1,0.2,0.1,0.5,0.1,0.7c0,0.4-0.1,0.8-0.3,1c-0.2,0.3-0.6,0.4-1,0.5c0.1,0,0.3,0.1,0.4,0.1c0.1,0.1,0.2,0.1,0.2,0.2
		c0.1,0.1,0.1,0.2,0.1,0.3c0,0.1,0,0.3,0,0.4s0,0.2,0,0.2V19v0.5v0.1c0,0,0,0,0,0.1v0.1v0.1c0,0.2,0,0.3,0,0.4s0.1,0.2,0.2,0.3h-1
		c0-0.1,0-0.2-0.1-0.2c0-0.1,0-0.1,0-0.2s0-0.1,0-0.3c0-0.1,0-0.2,0-0.3v-0.4c0-0.1,0-0.1,0-0.1V19c0-0.3-0.1-0.5-0.2-0.7
		c-0.2-0.1-0.4-0.2-0.8-0.2h-1.4L41.8,20.6z M43.7,17.3c0.3,0,0.6,0,0.8-0.1c0.2,0,0.4-0.1,0.5-0.2s0.2-0.2,0.3-0.3
		c0.1-0.1,0.1-0.3,0.1-0.5c0-0.3-0.1-0.5-0.3-0.7s-0.4-0.2-0.8-0.2h-1.5l-0.3,2H43.7z"/>
	<path class="st1" d="M47.7,20.6l-0.5-6h0.9l0.2,3.3c0,0.1,0,0.3,0,0.3v0.2v1.2c0-0.1,0.1-0.3,0.2-0.5c0.1-0.2,0.1-0.3,0.2-0.5
		c0.1-0.2,0.1-0.3,0.2-0.5C49,18,49,17.8,49,17.8l1.4-3.3h0.9l0.3,3.3c0,0.2,0,0.3,0,0.5s0,0.2,0,0.4s0,0.2,0,0.3s0,0.3,0,0.5v0.2
		c0-0.1,0.1-0.2,0.1-0.4s0.1-0.2,0.1-0.4s0.1-0.3,0.1-0.4s0.1-0.3,0.2-0.5l1.3-3.4h0.9l-2.5,6h-0.9l-0.3-3.2c0-0.1,0-0.2,0-0.3
		s0-0.3,0-0.4s0-0.3,0-0.4s0-0.2,0-0.3c0-0.1,0-0.2,0-0.3s0-0.2,0-0.3c-0.1,0.2-0.1,0.4-0.2,0.6s-0.1,0.3-0.2,0.5
		c-0.1,0.2-0.1,0.3-0.2,0.5c-0.1,0.2-0.2,0.4-0.3,0.7l-1.3,3h-0.7V20.6z"/>
	<path class="st1" d="M59,15.4h-2.9l-0.4,1.7h2.9l-0.2,0.7h-2.9l-0.4,2h3.2l-0.2,0.7H54l1.3-6h3.8L59,15.4z"/>
	<path class="st1" d="M60.1,20.6h-0.9l1.3-6h0.9L60.1,20.6z"/>
	<path class="st1" d="M65.8,16.2c0-0.3-0.1-0.6-0.4-0.7c-0.2-0.2-0.5-0.3-0.9-0.3s-0.7,0.1-0.9,0.2c-0.2,0.2-0.3,0.4-0.3,0.7
		c0,0.2,0.1,0.3,0.2,0.5s0.3,0.2,0.6,0.4l1,0.5c0.2,0.1,0.4,0.2,0.6,0.3c0.2,0.1,0.3,0.2,0.4,0.3c0.1,0.1,0.2,0.2,0.2,0.4
		s0.1,0.3,0.1,0.5s0,0.5-0.1,0.7s-0.2,0.4-0.4,0.6c-0.2,0.2-0.5,0.4-0.7,0.5c-0.3,0.1-0.6,0.1-1,0.1c-0.5,0-0.9-0.1-1.3-0.2
		s-0.6-0.4-0.8-0.7c-0.1-0.1-0.1-0.3-0.2-0.4c0-0.2,0-0.4-0.1-0.6h0.7v0.1c0,0.3,0.1,0.6,0.4,0.8c0.3,0.2,0.6,0.3,1.1,0.3
		c0.2,0,0.4,0,0.6-0.1s0.3-0.1,0.4-0.2s0.2-0.2,0.3-0.3c0.1-0.1,0.1-0.3,0.1-0.4c0-0.2-0.1-0.4-0.2-0.5s-0.3-0.3-0.7-0.4l-0.9-0.4
		c-0.4-0.2-0.8-0.4-1-0.7s-0.3-0.5-0.3-0.9c0-0.3,0.1-0.5,0.2-0.7s0.3-0.4,0.4-0.6c0.2-0.2,0.4-0.3,0.7-0.4c0.3-0.1,0.5-0.1,0.9-0.1
		c0.7,0,1.2,0.2,1.6,0.5s0.6,0.7,0.6,1.3L65.8,16.2L65.8,16.2z"/>
	<path class="st1" d="M72.8,14.6L72,18.3c-0.1,0.3-0.1,0.5-0.2,0.6c-0.1,0.2-0.1,0.3-0.2,0.5c-0.1,0.1-0.1,0.2-0.2,0.4
		c-0.1,0.1-0.2,0.2-0.3,0.3c-0.2,0.2-0.5,0.4-0.8,0.5s-0.6,0.2-1,0.2c-0.3,0-0.6,0-0.8-0.1s-0.5-0.2-0.6-0.3
		c-0.2-0.1-0.3-0.3-0.4-0.5s-0.1-0.4-0.1-0.7c0,0,0-0.1,0-0.2s0-0.2,0-0.2s0-0.2,0-0.3s0-0.2,0-0.2l0.8-3.6h0.9l-0.8,3.6
		c0,0.2-0.1,0.4-0.1,0.5s0,0.2,0,0.3c0,0.3,0.1,0.6,0.3,0.8c0.2,0.2,0.5,0.3,0.9,0.3c0.2,0,0.5,0,0.7-0.1s0.4-0.2,0.5-0.4
		c0.1-0.1,0.1-0.1,0.1-0.2s0.1-0.1,0.1-0.2s0.1-0.2,0.1-0.3s0.1-0.3,0.1-0.5l0.8-3.6h1V14.6z"/>
	<path class="st1" d="M76.8,20.6l-1.7-4c0-0.1-0.1-0.1-0.1-0.2s0-0.1-0.1-0.2c0,0,0-0.1-0.1-0.1c0,0,0-0.1-0.1-0.2v-0.1
		c0,0.1,0,0.2,0,0.3c0,0.1,0,0.2-0.1,0.4c0,0.1,0,0.3-0.1,0.4s0,0.2-0.1,0.3l-0.7,3.5h-0.8l1.3-6H75l1.6,3.9
		c0.1,0.2,0.1,0.3,0.2,0.5s0.1,0.3,0.2,0.5c0-0.1,0-0.2,0-0.3c0-0.1,0-0.2,0-0.3s0-0.2,0.1-0.4s0.1-0.3,0.1-0.5l0.7-3.4h0.8l-1.3,6
		L76.8,20.6L76.8,20.6z"/>
	<path class="st1" d="M85,17.4l-0.7,3.2h-0.7l0.1-0.7c-0.3,0.3-0.6,0.5-0.9,0.7c-0.3,0.1-0.6,0.2-1,0.2s-0.7-0.1-1-0.2
		s-0.5-0.3-0.7-0.5s-0.4-0.5-0.5-0.8c-0.1-0.4-0.1-0.7-0.1-1.1c0-0.5,0.1-1,0.3-1.5c0.2-0.5,0.4-0.9,0.8-1.3c0.3-0.3,0.6-0.6,1-0.7
		c0.4-0.2,0.8-0.3,1.3-0.3c0.7,0,1.2,0.2,1.6,0.5s0.6,0.8,0.6,1.4h-0.8c-0.1-0.4-0.2-0.6-0.4-0.8c-0.2-0.2-0.6-0.3-1-0.3
		c-0.6,0-1.1,0.2-1.5,0.7c-0.3,0.3-0.5,0.7-0.6,1.1s-0.2,0.8-0.2,1.3c0,0.6,0.2,1.1,0.5,1.4c0.1,0.1,0.3,0.2,0.5,0.3
		c0.2,0.1,0.4,0.1,0.6,0.1c0.3,0,0.5,0,0.7-0.1s0.4-0.2,0.6-0.4s0.3-0.4,0.5-0.6s0.2-0.5,0.3-0.8h-1.9l0.2-0.7L85,17.4L85,17.4z"/>
</g>
</svg>
