<svg id="icon_kundenkonto_step2_normal" xmlns="http://www.w3.org/2000/svg" width="75.46" height="34.59" viewBox="0 0 75.46 34.59">
  <defs>
    <style>
      .cls-1 {
        fill: none;
        stroke: #3d3d3d;
        stroke-miterlimit: 10;
      }

      .cls-2 {
        fill: #3d3d3d;
      }
    </style>
  </defs>
  <title>icon_kundenkonto_step2_normal</title>
  <g>
    <path class="cls-1" d="M104.23,175.13" transform="translate(-66.45 -147.95)"/>
    <g>
      <path class="cls-2" d="M106.65,161.51a6.28,6.28,0,1,1,6.55,6A6.3,6.3,0,0,1,106.65,161.51Zm1.72-.08a4.56,4.56,0,1,0,4.36-4.76A4.56,4.56,0,0,0,108.37,161.43Z" transform="translate(-66.45 -147.95)"/>
      <path class="cls-2" d="M86.8,162.14a6.28,6.28,0,1,1,6.55,6A6.29,6.29,0,0,1,86.8,162.14Zm1.72-.09a4.56,4.56,0,1,0,4.36-4.76A4.56,4.56,0,0,0,88.52,162Z" transform="translate(-66.45 -147.95)"/>
      <path class="cls-2" d="M99.19,161.77a2.29,2.29,0,1,1,2.39,2.18A2.28,2.28,0,0,1,99.19,161.77Zm1.24-.05a1,1,0,1,0,1-1.09A1.05,1.05,0,0,0,100.43,161.71Z" transform="translate(-66.45 -147.95)"/>
      <path class="cls-2" d="M102.46,161.23a0.62,0.62,0,0,1,0-.88l6.14-6.11a0.62,0.62,0,1,1,.87.88l-6.14,6.11a0.63,0.63,0,0,1-.41.18A0.65,0.65,0,0,1,102.46,161.23Z" transform="translate(-66.45 -147.95)"/>
      <path class="cls-2" d="M100.1,160.17l-3.26-7.3a0.61,0.61,0,0,1,1.12-.49l3.26,7.3a0.61,0.61,0,0,1-.31.81,0.68,0.68,0,0,1-.23.05A0.58,0.58,0,0,1,100.1,160.17Z" transform="translate(-66.45 -147.95)"/>
      <path class="cls-2" d="M108.82,155.8c-0.94-3-1.59-6-1.59-6.07a0.62,0.62,0,0,1,1.21-.26s0.63,3,1.55,6c1.72,5.4,2.79,5.32,2.83,5.32A0.62,0.62,0,1,1,113,162l-0.15,0C111.45,162,110.21,160.11,108.82,155.8Z" transform="translate(-66.45 -147.95)"/>
      <path class="cls-2" d="M110.61,150.88l-5.88-1.72a0.62,0.62,0,1,1,.34-1.19L111,149.7a0.62,0.62,0,0,1,.42.76,0.61,0.61,0,0,1-.56.44Z" transform="translate(-66.45 -147.95)"/>
      <path class="cls-2" d="M93.42,152.85a0.75,0.75,0,0,1,.71-0.77l5.91-.26a0.74,0.74,0,1,1,.06,1.48l-5.91.26A0.75,0.75,0,0,1,93.42,152.85Z" transform="translate(-66.45 -147.95)"/>
      <g>
        <path class="cls-2" d="M101.93,160.45a0.25,0.25,0,0,1-.14-0.32l0.78-1.88a0.24,0.24,0,0,1,.45.18l-0.78,1.88a0.25,0.25,0,0,1-.22.16Z" transform="translate(-66.45 -147.95)"/>
        <path class="cls-2" d="M101.69,158.27a0.24,0.24,0,0,1,.23-0.25l1.6-.07a0.24,0.24,0,1,1,0,.48l-1.6.07A0.24,0.24,0,0,1,101.69,158.27Z" transform="translate(-66.45 -147.95)"/>
      </g>
      <g>
        <path class="cls-2" d="M100.23,165a0.26,0.26,0,0,1-.12-0.33l0.82-1.87a0.25,0.25,0,1,1,.45.21l-0.82,1.87a0.24,0.24,0,0,1-.21.14Z" transform="translate(-66.45 -147.95)"/>
        <path class="cls-2" d="M101.22,165.09l-1.61,0a0.25,0.25,0,0,1,0-.5l1.6,0a0.25,0.25,0,0,1,.25.24,0.24,0.24,0,0,1-.23.25h0Z" transform="translate(-66.45 -147.95)"/>
      </g>
    </g>
    <g>
      <path class="cls-2" d="M71.09,182.45l-0.7-2H68l-0.71,2H66.45L68.81,176h0.75l2.36,6.45H71.09Zm-1-2.72-0.65-1.86-0.06-.19-0.08-.25-0.08-.27-0.07-.28-0.07.28-0.08.28-0.08.25-0.06.19-0.64,1.86h1.87Z" transform="translate(-66.45 -147.95)"/>
      <path class="cls-2" d="M77.53,179.18a4.38,4.38,0,0,1-.21,1.43,2.7,2.7,0,0,1-.61,1,2.51,2.51,0,0,1-1,.62,3.91,3.91,0,0,1-1.32.21H72.79V176h1.79a3.48,3.48,0,0,1,1.22.2,2.45,2.45,0,0,1,.93.6,2.71,2.71,0,0,1,.59,1A4.08,4.08,0,0,1,77.53,179.18Zm-0.87,0a3.77,3.77,0,0,0-.15-1.11,2,2,0,0,0-.42-0.77,1.7,1.7,0,0,0-.68-0.45,2.68,2.68,0,0,0-.92-0.15H73.61v5h0.71a2.26,2.26,0,0,0,1.75-.64A2.73,2.73,0,0,0,76.66,179.2Z" transform="translate(-66.45 -147.95)"/>
      <path class="cls-2" d="M79.77,179.8v2.65H79V176h1.56a2.72,2.72,0,0,1,1.73.45,1.66,1.66,0,0,1,.56,1.37,1.88,1.88,0,0,1-.11.67,1.59,1.59,0,0,1-.29.49,1.67,1.67,0,0,1-.41.34,2.68,2.68,0,0,1-.47.22l1.75,2.88h-1l-1.54-2.65h-1Zm0-.69h0.72a2.52,2.52,0,0,0,.67-0.08,1.17,1.17,0,0,0,.46-0.23,0.87,0.87,0,0,0,.26-0.38,1.56,1.56,0,0,0,.08-0.53,1.41,1.41,0,0,0-.09-0.54,0.86,0.86,0,0,0-.27-0.36,1.17,1.17,0,0,0-.46-0.2,3,3,0,0,0-.66-0.06h-0.7v2.38Z" transform="translate(-66.45 -147.95)"/>
      <path class="cls-2" d="M87.6,182.45H84.26V176H87.6v0.72H85.08v2h2.35v0.71H85.08v2.29H87.6v0.72Z" transform="translate(-66.45 -147.95)"/>
      <path class="cls-2" d="M92.39,180.73a1.82,1.82,0,0,1-.15.76,1.55,1.55,0,0,1-.43.57,1.92,1.92,0,0,1-.69.35,3.16,3.16,0,0,1-.91.12,5.06,5.06,0,0,1-.91-0.08,2.48,2.48,0,0,1-.71-0.23v-0.78l0.34,0.14,0.4,0.12,0.44,0.09a3.12,3.12,0,0,0,.44,0,1.68,1.68,0,0,0,1-.26,0.91,0.91,0,0,0,.34-0.76,1.23,1.23,0,0,0-.06-0.41,0.83,0.83,0,0,0-.22-0.32,2,2,0,0,0-.43-0.29q-0.27-.14-0.68-0.3a4.06,4.06,0,0,1-.68-0.34,2,2,0,0,1-.47-0.41,1.52,1.52,0,0,1-.28-0.52,2.2,2.2,0,0,1-.09-0.66,1.62,1.62,0,0,1,.14-0.69,1.43,1.43,0,0,1,.4-0.51,1.79,1.79,0,0,1,.61-0.32,2.62,2.62,0,0,1,.78-0.11,4.06,4.06,0,0,1,.94.1,3.8,3.8,0,0,1,.74.25L92,177a4.36,4.36,0,0,0-.65-0.22,3,3,0,0,0-.75-0.09,1.25,1.25,0,0,0-.83.25,0.83,0.83,0,0,0-.29.67,1.27,1.27,0,0,0,.07.43,0.86,0.86,0,0,0,.22.33,1.72,1.72,0,0,0,.41.28,6.57,6.57,0,0,0,.62.27,6,6,0,0,1,.7.33,2.11,2.11,0,0,1,.5.38,1.42,1.42,0,0,1,.31.49A1.89,1.89,0,0,1,92.39,180.73Z" transform="translate(-66.45 -147.95)"/>
      <path class="cls-2" d="M97.07,180.73a1.82,1.82,0,0,1-.15.76,1.55,1.55,0,0,1-.43.57,1.92,1.92,0,0,1-.69.35,3.16,3.16,0,0,1-.91.12,5.06,5.06,0,0,1-.91-0.08,2.48,2.48,0,0,1-.71-0.23v-0.78l0.34,0.14,0.4,0.12,0.44,0.09a3.12,3.12,0,0,0,.44,0,1.68,1.68,0,0,0,1-.26,0.91,0.91,0,0,0,.34-0.76,1.23,1.23,0,0,0-.06-0.41,0.83,0.83,0,0,0-.22-0.32,2,2,0,0,0-.43-0.29q-0.27-.14-0.68-0.3a4.06,4.06,0,0,1-.68-0.34,2,2,0,0,1-.47-0.41,1.52,1.52,0,0,1-.28-0.52,2.2,2.2,0,0,1-.09-0.66,1.62,1.62,0,0,1,.14-0.69,1.43,1.43,0,0,1,.4-0.51,1.79,1.79,0,0,1,.61-0.32,2.62,2.62,0,0,1,.78-0.11,4.06,4.06,0,0,1,.94.1,3.8,3.8,0,0,1,.74.25l-0.29.69a4.36,4.36,0,0,0-.65-0.22,3,3,0,0,0-.75-0.09,1.25,1.25,0,0,0-.83.25,0.83,0.83,0,0,0-.29.67,1.27,1.27,0,0,0,.07.43,0.86,0.86,0,0,0,.22.33,1.72,1.72,0,0,0,.41.28,6.57,6.57,0,0,0,.62.27,6,6,0,0,1,.7.33,2.11,2.11,0,0,1,.5.38,1.42,1.42,0,0,1,.31.49A1.89,1.89,0,0,1,97.07,180.73Z" transform="translate(-66.45 -147.95)"/>
      <path class="cls-2" d="M101.69,182.45H98.35V176h3.34v0.72H99.17v2h2.35v0.71H99.17v2.29h2.52v0.72Z" transform="translate(-66.45 -147.95)"/>
      <path class="cls-2" d="M105.49,176l-2.39,6.42h-0.79l2.4-6.42h0.78Z" transform="translate(-66.45 -147.95)"/>
      <path class="cls-2" d="M110.08,182.45h-4.13v-0.64l3.12-5.06h-3V176h4v0.64l-3.12,5.06h3.21v0.73Z" transform="translate(-66.45 -147.95)"/>
      <path class="cls-2" d="M115.07,182.45l-0.7-2H112l-0.71,2h-0.83L112.8,176h0.75l2.36,6.45h-0.83Zm-1-2.72-0.65-1.86-0.06-.19-0.08-.25-0.08-.27-0.07-.28-0.07.28-0.08.28-0.08.25-0.06.19-0.64,1.86h1.87Z" transform="translate(-66.45 -147.95)"/>
      <path class="cls-2" d="M121.35,182.45h-0.82v-3H117.6v3h-0.82V176h0.82v2.71h2.93V176h0.82v6.42Z" transform="translate(-66.45 -147.95)"/>
      <path class="cls-2" d="M123.09,182.45V176h0.82v5.7h2.52v0.73h-3.34Z" transform="translate(-66.45 -147.95)"/>
      <path class="cls-2" d="M131.28,182.45l-0.7-2h-2.4l-0.71,2h-0.83L129,176h0.75l2.36,6.45h-0.83Zm-1-2.72-0.65-1.86-0.06-.19-0.08-.25-0.08-.27-0.07-.28-0.07.28-0.08.28-0.08.25-0.06.19-0.64,1.86h1.87Z" transform="translate(-66.45 -147.95)"/>
      <path class="cls-2" d="M133.8,179.8v2.65H133V176h1.56a2.72,2.72,0,0,1,1.73.45,1.66,1.66,0,0,1,.56,1.37,1.88,1.88,0,0,1-.11.67,1.59,1.59,0,0,1-.29.49,1.67,1.67,0,0,1-.41.34,2.68,2.68,0,0,1-.47.22l1.75,2.88h-1l-1.54-2.65h-1Zm0-.69h0.72a2.52,2.52,0,0,0,.67-0.08,1.17,1.17,0,0,0,.46-0.23,0.87,0.87,0,0,0,.26-0.38,1.56,1.56,0,0,0,.08-0.53,1.41,1.41,0,0,0-.09-0.54,0.86,0.86,0,0,0-.27-0.36,1.17,1.17,0,0,0-.46-0.2,3,3,0,0,0-.66-0.06h-0.7v2.38Z" transform="translate(-66.45 -147.95)"/>
      <path class="cls-2" d="M140.08,182.45h-0.82v-5.7h-1.84V176h4.49v0.72h-1.83v5.7Z" transform="translate(-66.45 -147.95)"/>
    </g>
  </g>
</svg>
