<svg id="icon_kundenkonto_step1_done" xmlns="http://www.w3.org/2000/svg" width="63.45" height="34.59" viewBox="0 0 63.45 34.59">
  <defs>
    <style>
      .cls-1, .cls-2 {
        fill: gray;
      }

      .cls-1 {
        stroke: #3d3d3d;
        stroke-miterlimit: 10;
      }
    </style>
  </defs>
  <title>icon_kundenkonto_step1_done</title>
  <g>
    <path class="cls-1" d="M104.23,175.13" transform="translate(-72.66 -147.95)"/>
    <g>
      <path class="cls-2" d="M106.65,161.51a6.28,6.28,0,1,1,6.55,6A6.3,6.3,0,0,1,106.65,161.51Zm1.72-.08a4.56,4.56,0,1,0,4.36-4.76A4.56,4.56,0,0,0,108.37,161.43Z" transform="translate(-72.66 -147.95)"/>
      <path class="cls-2" d="M86.8,162.14a6.28,6.28,0,1,1,6.55,6A6.29,6.29,0,0,1,86.8,162.14Zm1.72-.09a4.56,4.56,0,1,0,4.36-4.76A4.56,4.56,0,0,0,88.52,162Z" transform="translate(-72.66 -147.95)"/>
      <path class="cls-2" d="M99.19,161.77a2.29,2.29,0,1,1,2.39,2.18A2.28,2.28,0,0,1,99.19,161.77Zm1.24-.05a1,1,0,1,0,1-1.09A1.05,1.05,0,0,0,100.43,161.71Z" transform="translate(-72.66 -147.95)"/>
      <path class="cls-2" d="M102.46,161.23a0.62,0.62,0,0,1,0-.88l6.14-6.11a0.62,0.62,0,1,1,.87.88l-6.14,6.11a0.63,0.63,0,0,1-.41.18A0.65,0.65,0,0,1,102.46,161.23Z" transform="translate(-72.66 -147.95)"/>
      <path class="cls-2" d="M100.1,160.17l-3.26-7.3a0.61,0.61,0,0,1,1.12-.49l3.26,7.3a0.61,0.61,0,0,1-.31.81,0.68,0.68,0,0,1-.23.05A0.58,0.58,0,0,1,100.1,160.17Z" transform="translate(-72.66 -147.95)"/>
      <path class="cls-2" d="M108.82,155.8c-0.94-3-1.59-6-1.59-6.07a0.62,0.62,0,0,1,1.21-.26s0.63,3,1.55,6c1.72,5.4,2.79,5.32,2.83,5.32A0.62,0.62,0,1,1,113,162l-0.15,0C111.45,162,110.21,160.11,108.82,155.8Z" transform="translate(-72.66 -147.95)"/>
      <path class="cls-2" d="M110.61,150.88l-5.88-1.72a0.62,0.62,0,1,1,.34-1.19L111,149.7a0.62,0.62,0,0,1,.42.76,0.61,0.61,0,0,1-.56.44Z" transform="translate(-72.66 -147.95)"/>
      <path class="cls-2" d="M93.42,152.85a0.75,0.75,0,0,1,.71-0.77l5.91-.26a0.74,0.74,0,1,1,.06,1.48l-5.91.26A0.75,0.75,0,0,1,93.42,152.85Z" transform="translate(-72.66 -147.95)"/>
      <g>
        <path class="cls-2" d="M101.93,160.45a0.25,0.25,0,0,1-.14-0.32l0.78-1.88a0.24,0.24,0,0,1,.45.18l-0.78,1.88a0.25,0.25,0,0,1-.22.16Z" transform="translate(-72.66 -147.95)"/>
        <path class="cls-2" d="M101.69,158.27a0.24,0.24,0,0,1,.23-0.25l1.6-.07a0.24,0.24,0,1,1,0,.48l-1.6.07A0.24,0.24,0,0,1,101.69,158.27Z" transform="translate(-72.66 -147.95)"/>
      </g>
      <g>
        <path class="cls-2" d="M100.23,165a0.26,0.26,0,0,1-.12-0.33l0.82-1.87a0.25,0.25,0,1,1,.45.21l-0.82,1.87a0.24,0.24,0,0,1-.21.14Z" transform="translate(-72.66 -147.95)"/>
        <path class="cls-2" d="M101.22,165.09l-1.61,0a0.25,0.25,0,0,1,0-.5l1.6,0a0.25,0.25,0,0,1,.25.24,0.24,0.24,0,0,1-.23.25h0Z" transform="translate(-72.66 -147.95)"/>
      </g>
    </g>
    <g>
      <path class="cls-2" d="M77,182.45H76.07l-2-3.07-0.61.5v2.57H72.66V176h0.82v3.21L74,178.5,76,176h0.92l-2.29,2.8Z" transform="translate(-72.66 -147.95)"/>
      <path class="cls-2" d="M82.47,176v4.17a2.9,2.9,0,0,1-.15.93,2.05,2.05,0,0,1-.44.75,2,2,0,0,1-.73.5,2.76,2.76,0,0,1-1,.18,2.71,2.71,0,0,1-1-.17,2,2,0,0,1-.72-0.48,2.05,2.05,0,0,1-.44-0.75,3,3,0,0,1-.15-1V176h0.82v4.18A1.71,1.71,0,0,0,79,181.4a1.47,1.47,0,0,0,1.15.42,1.72,1.72,0,0,0,.67-0.12,1.2,1.2,0,0,0,.46-0.33,1.4,1.4,0,0,0,.27-0.51,2.41,2.41,0,0,0,.09-0.65V176h0.82Z" transform="translate(-72.66 -147.95)"/>
      <path class="cls-2" d="M89,182.45H88l-3.16-5.32h0q0,0.34,0,.67t0,0.6c0,0.21,0,.39,0,0.56v3.48H84.16V176h0.94l3.15,5.29h0q0-.33,0-0.66c0-.09,0-0.19,0-0.29v-0.29c0-.1,0-0.19,0-0.28s0-.17,0-0.25V176H89v6.42Z" transform="translate(-72.66 -147.95)"/>
      <path class="cls-2" d="M95.45,179.18a4.38,4.38,0,0,1-.21,1.43,2.7,2.7,0,0,1-.61,1,2.51,2.51,0,0,1-1,.62,3.91,3.91,0,0,1-1.32.21H90.72V176h1.79a3.48,3.48,0,0,1,1.22.2,2.45,2.45,0,0,1,.93.6,2.71,2.71,0,0,1,.59,1A4.08,4.08,0,0,1,95.45,179.18Zm-0.87,0a3.77,3.77,0,0,0-.15-1.11,2,2,0,0,0-.42-0.77,1.7,1.7,0,0,0-.68-0.45,2.68,2.68,0,0,0-.92-0.15H91.54v5h0.71a2.26,2.26,0,0,0,1.75-.64A2.73,2.73,0,0,0,94.59,179.2Z" transform="translate(-72.66 -147.95)"/>
      <path class="cls-2" d="M100.21,182.45H96.88V176h3.34v0.72H97.69v2H100v0.71H97.69v2.29h2.52v0.72Z" transform="translate(-72.66 -147.95)"/>
      <path class="cls-2" d="M106.44,182.45h-0.94l-3.16-5.32h0q0,0.34,0,.67t0,0.6c0,0.21,0,.39,0,0.56v3.48h-0.76V176h0.94l3.15,5.29h0q0-.33,0-0.66c0-.09,0-0.19,0-0.29v-0.29c0-.1,0-0.19,0-0.28s0-.17,0-0.25V176h0.76v6.42Z" transform="translate(-72.66 -147.95)"/>
      <path class="cls-2" d="M112.52,182.45H111.6l-2-3.07-0.61.5v2.57h-0.82V176H109v3.21l0.53-.74,2-2.47h0.92l-2.29,2.8Z" transform="translate(-72.66 -147.95)"/>
      <path class="cls-2" d="M118.47,179.23a4.81,4.81,0,0,1-.18,1.35,2.94,2.94,0,0,1-.53,1,2.36,2.36,0,0,1-.87.67,2.87,2.87,0,0,1-1.2.24,3,3,0,0,1-1.24-.24,2.28,2.28,0,0,1-.87-0.67,2.86,2.86,0,0,1-.51-1,5.6,5.6,0,0,1,0-2.72,2.83,2.83,0,0,1,.51-1,2.32,2.32,0,0,1,.87-0.67,3,3,0,0,1,1.24-.23,2.87,2.87,0,0,1,1.2.23,2.37,2.37,0,0,1,.87.67,2.93,2.93,0,0,1,.53,1A4.82,4.82,0,0,1,118.47,179.23Zm-4.71,0a4.7,4.7,0,0,0,.11,1.08,2.36,2.36,0,0,0,.35.82,1.55,1.55,0,0,0,.6.51,2.19,2.19,0,0,0,1.73,0,1.55,1.55,0,0,0,.6-0.51,2.32,2.32,0,0,0,.35-0.82,5.41,5.41,0,0,0,0-2.17,2.28,2.28,0,0,0-.34-0.81,1.55,1.55,0,0,0-.59-0.51,1.92,1.92,0,0,0-.86-0.18,2,2,0,0,0-.87.18,1.57,1.57,0,0,0-.6.51,2.29,2.29,0,0,0-.35.81A4.7,4.7,0,0,0,113.76,179.23Z" transform="translate(-72.66 -147.95)"/>
      <path class="cls-2" d="M124.71,182.45h-0.94l-3.16-5.32h0q0,0.34,0,.67t0,0.6c0,0.21,0,.39,0,0.56v3.48H119.9V176h0.94l3.15,5.29h0q0-.33,0-0.66c0-.09,0-0.19,0-0.29v-0.29c0-.1,0-0.19,0-0.28s0-.17,0-0.25V176h0.76v6.42Z" transform="translate(-72.66 -147.95)"/>
      <path class="cls-2" d="M128.33,182.45h-0.82v-5.7h-1.84V176h4.49v0.72h-1.83v5.7Z" transform="translate(-72.66 -147.95)"/>
      <path class="cls-2" d="M136.11,179.23a4.81,4.81,0,0,1-.18,1.35,2.94,2.94,0,0,1-.53,1,2.36,2.36,0,0,1-.87.67,2.87,2.87,0,0,1-1.2.24,3,3,0,0,1-1.24-.24,2.28,2.28,0,0,1-.87-0.67,2.86,2.86,0,0,1-.51-1,5.6,5.6,0,0,1,0-2.72,2.83,2.83,0,0,1,.51-1,2.32,2.32,0,0,1,.87-0.67,3,3,0,0,1,1.24-.23,2.87,2.87,0,0,1,1.2.23,2.37,2.37,0,0,1,.87.67,2.93,2.93,0,0,1,.53,1A4.82,4.82,0,0,1,136.11,179.23Zm-4.71,0a4.7,4.7,0,0,0,.11,1.08,2.36,2.36,0,0,0,.35.82,1.55,1.55,0,0,0,.6.51,2.19,2.19,0,0,0,1.73,0,1.55,1.55,0,0,0,.6-0.51,2.32,2.32,0,0,0,.35-0.82,5.41,5.41,0,0,0,0-2.17,2.28,2.28,0,0,0-.34-0.81,1.55,1.55,0,0,0-.59-0.51,1.92,1.92,0,0,0-.86-0.18,2,2,0,0,0-.87.18,1.57,1.57,0,0,0-.6.51,2.29,2.29,0,0,0-.35.81A4.7,4.7,0,0,0,131.4,179.23Z" transform="translate(-72.66 -147.95)"/>
    </g>
  </g>
</svg>
