<svg id="icon_kundenkonto_step4_normal" xmlns="http://www.w3.org/2000/svg" width="55.45" height="34.59" viewBox="0 0 55.45 34.59">
  <defs>
    <style>
      .cls-1 {
        fill: none;
        stroke: #3d3d3d;
        stroke-miterlimit: 10;
      }

      .cls-2 {
        fill: #3d3d3d;
      }
    </style>
  </defs>
  <title>icon_kundenkonto_step4_normal</title>
  <g>
    <path class="cls-1" d="M104.23,175.13" transform="translate(-76.62 -147.95)"/>
    <g>
      <path class="cls-2" d="M106.65,161.51a6.28,6.28,0,1,1,6.55,6A6.3,6.3,0,0,1,106.65,161.51Zm1.72-.08a4.56,4.56,0,1,0,4.36-4.76A4.56,4.56,0,0,0,108.37,161.43Z" transform="translate(-76.62 -147.95)"/>
      <path class="cls-2" d="M86.8,162.14a6.28,6.28,0,1,1,6.55,6A6.29,6.29,0,0,1,86.8,162.14Zm1.72-.09a4.56,4.56,0,1,0,4.36-4.76A4.56,4.56,0,0,0,88.52,162Z" transform="translate(-76.62 -147.95)"/>
      <path class="cls-2" d="M99.19,161.77a2.29,2.29,0,1,1,2.39,2.18A2.28,2.28,0,0,1,99.19,161.77Zm1.24-.05a1,1,0,1,0,1-1.09A1.05,1.05,0,0,0,100.43,161.71Z" transform="translate(-76.62 -147.95)"/>
      <path class="cls-2" d="M102.46,161.23a0.62,0.62,0,0,1,0-.88l6.14-6.11a0.62,0.62,0,1,1,.87.88l-6.14,6.11a0.63,0.63,0,0,1-.41.18A0.65,0.65,0,0,1,102.46,161.23Z" transform="translate(-76.62 -147.95)"/>
      <path class="cls-2" d="M100.1,160.17l-3.26-7.3a0.61,0.61,0,0,1,1.12-.49l3.26,7.3a0.61,0.61,0,0,1-.31.81,0.68,0.68,0,0,1-.23.05A0.58,0.58,0,0,1,100.1,160.17Z" transform="translate(-76.62 -147.95)"/>
      <path class="cls-2" d="M108.82,155.8c-0.94-3-1.59-6-1.59-6.07a0.62,0.62,0,0,1,1.21-.26s0.63,3,1.55,6c1.72,5.4,2.79,5.32,2.83,5.32A0.62,0.62,0,1,1,113,162l-0.15,0C111.45,162,110.21,160.11,108.82,155.8Z" transform="translate(-76.62 -147.95)"/>
      <path class="cls-2" d="M110.61,150.88l-5.88-1.72a0.62,0.62,0,1,1,.34-1.19L111,149.7a0.62,0.62,0,0,1,.42.76,0.61,0.61,0,0,1-.56.44Z" transform="translate(-76.62 -147.95)"/>
      <path class="cls-2" d="M93.42,152.85a0.75,0.75,0,0,1,.71-0.77l5.91-.26a0.74,0.74,0,1,1,.06,1.48l-5.91.26A0.75,0.75,0,0,1,93.42,152.85Z" transform="translate(-76.62 -147.95)"/>
      <g>
        <path class="cls-2" d="M101.93,160.45a0.25,0.25,0,0,1-.14-0.32l0.78-1.88a0.24,0.24,0,0,1,.45.18l-0.78,1.88a0.25,0.25,0,0,1-.22.16Z" transform="translate(-76.62 -147.95)"/>
        <path class="cls-2" d="M101.69,158.27a0.24,0.24,0,0,1,.23-0.25l1.6-.07a0.24,0.24,0,1,1,0,.48l-1.6.07A0.24,0.24,0,0,1,101.69,158.27Z" transform="translate(-76.62 -147.95)"/>
      </g>
      <g>
        <path class="cls-2" d="M100.23,165a0.26,0.26,0,0,1-.12-0.33l0.82-1.87a0.25,0.25,0,1,1,.45.21l-0.82,1.87a0.24,0.24,0,0,1-.21.14Z" transform="translate(-76.62 -147.95)"/>
        <path class="cls-2" d="M101.22,165.09l-1.61,0a0.25,0.25,0,0,1,0-.5l1.6,0a0.25,0.25,0,0,1,.25.24,0.24,0.24,0,0,1-.23.25h0Z" transform="translate(-76.62 -147.95)"/>
      </g>
    </g>
    <g>
      <path class="cls-2" d="M76.62,176h1.75a5.06,5.06,0,0,1,1,.09,2,2,0,0,1,.72.28,1.21,1.21,0,0,1,.43.5,1.8,1.8,0,0,1,.15.76,1.48,1.48,0,0,1-.09.51,1.24,1.24,0,0,1-.25.42,1.37,1.37,0,0,1-.4.3,1.69,1.69,0,0,1-.54.16v0a3.24,3.24,0,0,1,.57.15,1.49,1.49,0,0,1,.46.27,1.22,1.22,0,0,1,.31.44,1.61,1.61,0,0,1,.11.64,2,2,0,0,1-.14.78,1.57,1.57,0,0,1-.41.58,1.85,1.85,0,0,1-.66.37,2.79,2.79,0,0,1-.87.13H76.62V176Zm0.82,2.72h1.07a2.53,2.53,0,0,0,.62-0.07,1,1,0,0,0,.4-0.2,0.73,0.73,0,0,0,.22-0.33,1.38,1.38,0,0,0,.07-0.46,0.85,0.85,0,0,0-.34-0.76,2,2,0,0,0-1.07-.23h-1v2Zm0,0.69v2.32H78.6a2.06,2.06,0,0,0,.65-0.09,1.08,1.08,0,0,0,.42-0.25A0.91,0.91,0,0,0,79.9,181a1.62,1.62,0,0,0,.07-0.49,1.35,1.35,0,0,0-.07-0.45,0.84,0.84,0,0,0-.24-0.35,1.14,1.14,0,0,0-.44-0.23,2.42,2.42,0,0,0-.68-0.08H77.43Z" transform="translate(-76.62 -147.95)"/>
      <path class="cls-2" d="M85.54,182.45H82.21V176h3.34v0.72H83v2h2.35v0.71H83v2.29h2.52v0.72Z" transform="translate(-76.62 -147.95)"/>
      <path class="cls-2" d="M90.34,180.73a1.82,1.82,0,0,1-.15.76,1.55,1.55,0,0,1-.43.57,1.92,1.92,0,0,1-.69.35,3.16,3.16,0,0,1-.91.12,5.06,5.06,0,0,1-.91-0.08,2.48,2.48,0,0,1-.71-0.23v-0.78l0.34,0.14,0.4,0.12,0.44,0.09a3.12,3.12,0,0,0,.44,0,1.68,1.68,0,0,0,1-.26,0.91,0.91,0,0,0,.34-0.76,1.23,1.23,0,0,0-.06-0.41,0.83,0.83,0,0,0-.22-0.32,2,2,0,0,0-.43-0.29q-0.27-.14-0.68-0.3a4.06,4.06,0,0,1-.68-0.34,2,2,0,0,1-.47-0.41,1.52,1.52,0,0,1-.28-0.52,2.2,2.2,0,0,1-.09-0.66,1.62,1.62,0,0,1,.14-0.69,1.43,1.43,0,0,1,.4-0.51,1.79,1.79,0,0,1,.61-0.32,2.62,2.62,0,0,1,.78-0.11,4.06,4.06,0,0,1,.94.1,3.8,3.8,0,0,1,.74.25l-0.29.69a4.36,4.36,0,0,0-.65-0.22,3,3,0,0,0-.75-0.09,1.25,1.25,0,0,0-.83.25,0.83,0.83,0,0,0-.29.67,1.27,1.27,0,0,0,.07.43,0.86,0.86,0,0,0,.22.33,1.72,1.72,0,0,0,.41.28,6.57,6.57,0,0,0,.62.27,6,6,0,0,1,.7.33,2.11,2.11,0,0,1,.5.38,1.42,1.42,0,0,1,.31.49A1.89,1.89,0,0,1,90.34,180.73Z" transform="translate(-76.62 -147.95)"/>
      <path class="cls-2" d="M93.5,182.45H92.68v-5.7H90.84V176h4.49v0.72H93.5v5.7Z" transform="translate(-76.62 -147.95)"/>
      <path class="cls-2" d="M99.52,182.45l-0.7-2h-2.4l-0.71,2H94.88L97.24,176H98l2.36,6.45H99.52Zm-3.14-7.62a0.43,0.43,0,0,1,.12-0.34,0.47,0.47,0,0,1,.6,0,0.52,0.52,0,0,1,0,.68,0.44,0.44,0,0,1-.3.11,0.43,0.43,0,0,1-.3-0.11A0.43,0.43,0,0,1,96.38,174.84Zm2.18,4.9-0.65-1.86-0.06-.19-0.08-.25-0.08-.27-0.07-.28-0.07.28-0.08.28-0.08.25-0.06.19-0.64,1.86h1.87ZM98,174.84a0.43,0.43,0,0,1,.12-0.34,0.44,0.44,0,0,1,.3-0.11l0.16,0a0.35,0.35,0,0,1,.13.08,0.41,0.41,0,0,1,.09.14,0.53,0.53,0,0,1,0,.2,0.43,0.43,0,0,1-.13.34,0.43,0.43,0,0,1-.29.11,0.43,0.43,0,0,1-.3-0.11A0.43,0.43,0,0,1,98,174.84Z" transform="translate(-76.62 -147.95)"/>
      <path class="cls-2" d="M102.56,182.45h-0.82v-5.7H99.9V176h4.49v0.72h-1.83v5.7Z" transform="translate(-76.62 -147.95)"/>
      <path class="cls-2" d="M107.18,182.45h-2.33V182l0.76-.18v-5.17l-0.76-.18V176h2.33v0.45l-0.76.18v5.17l0.76,0.18v0.45Z" transform="translate(-76.62 -147.95)"/>
      <path class="cls-2" d="M110.88,179.06H113v3.15l-0.49.14-0.51.1-0.54.06-0.62,0a3.05,3.05,0,0,1-1.22-.23,2.44,2.44,0,0,1-.9-0.66,2.91,2.91,0,0,1-.55-1,4.66,4.66,0,0,1-.19-1.38,4.21,4.21,0,0,1,.21-1.37,2.85,2.85,0,0,1,.61-1,2.64,2.64,0,0,1,1-.66,3.62,3.62,0,0,1,1.34-.23,4.43,4.43,0,0,1,.94.1,3.78,3.78,0,0,1,.83.28l-0.32.71-0.34-.14-0.38-.12-0.4-.08a2.74,2.74,0,0,0-.41,0,2.37,2.37,0,0,0-.95.18,1.82,1.82,0,0,0-.69.51,2.28,2.28,0,0,0-.42.81,3.73,3.73,0,0,0-.15,1.08,4.22,4.22,0,0,0,.12,1,2.21,2.21,0,0,0,.38.82,1.76,1.76,0,0,0,.68.53,2.43,2.43,0,0,0,1,.19h0.35l0.3,0,0.26,0,0.23,0v-1.92h-1.31v-0.72Z" transform="translate(-76.62 -147.95)"/>
      <path class="cls-2" d="M119.13,176v4.17a2.9,2.9,0,0,1-.15.93,2.05,2.05,0,0,1-.44.75,2,2,0,0,1-.73.5,2.76,2.76,0,0,1-1,.18,2.71,2.71,0,0,1-1-.17,2,2,0,0,1-.72-0.48,2.05,2.05,0,0,1-.44-0.75,3,3,0,0,1-.15-1V176h0.82v4.18a1.71,1.71,0,0,0,.38,1.19,1.47,1.47,0,0,0,1.15.42,1.72,1.72,0,0,0,.67-0.12,1.2,1.2,0,0,0,.46-0.33,1.4,1.4,0,0,0,.27-0.51,2.41,2.41,0,0,0,.09-0.65V176h0.82Z" transform="translate(-76.62 -147.95)"/>
      <path class="cls-2" d="M125.63,182.45h-0.94l-3.16-5.32h0q0,0.34,0,.67t0,0.6c0,0.21,0,.39,0,0.56v3.48h-0.76V176h0.94l3.15,5.29h0q0-.33,0-0.66c0-.09,0-0.19,0-0.29v-0.29c0-.1,0-0.19,0-0.28s0-.17,0-0.25V176h0.76v6.42Z" transform="translate(-76.62 -147.95)"/>
      <path class="cls-2" d="M129.94,179.06h2.13v3.15l-0.49.14-0.51.1-0.54.06-0.62,0a3.05,3.05,0,0,1-1.22-.23,2.44,2.44,0,0,1-.9-0.66,2.91,2.91,0,0,1-.55-1,4.66,4.66,0,0,1-.19-1.38,4.21,4.21,0,0,1,.21-1.37,2.85,2.85,0,0,1,.61-1,2.64,2.64,0,0,1,1-.66,3.62,3.62,0,0,1,1.34-.23,4.43,4.43,0,0,1,.94.1,3.78,3.78,0,0,1,.83.28l-0.32.71-0.34-.14-0.38-.12-0.4-.08a2.74,2.74,0,0,0-.41,0,2.37,2.37,0,0,0-.95.18,1.82,1.82,0,0,0-.69.51,2.28,2.28,0,0,0-.42.81,3.73,3.73,0,0,0-.15,1.08,4.22,4.22,0,0,0,.12,1,2.21,2.21,0,0,0,.38.82,1.76,1.76,0,0,0,.68.53,2.43,2.43,0,0,0,1,.19h0.35l0.3,0,0.26,0,0.23,0v-1.92h-1.31v-0.72Z" transform="translate(-76.62 -147.95)"/>
    </g>
  </g>
</svg>
