<?xml version="1.0" encoding="utf-8"?>
<!-- Generator: Adobe Illustrator 26.5.0, SVG Export Plug-In . SVG Version: 6.00 Build 0)  -->
<svg version="1.1" id="Ebene_2_00000130606659186393221060000016522218877181332616_"
	 xmlns="http://www.w3.org/2000/svg" xmlns:xlink="http://www.w3.org/1999/xlink" x="0px" y="0px" viewBox="0 0 100 100"
	 style="enable-background:new 0 0 100 100;" xml:space="preserve">
<style type="text/css">
	.st0{fill:#888989;}
</style>
<g id="Ebene_1-2">
	<path class="st0" d="M99.5,80.4c0-2.8-1.4-5.6-3.8-7.3L67.2,53l-1.4-1l-9.6-6.8l0.1-0.5c0.6-2.4,1-4.8,1-7.3c0-2.2-0.2-4.4-0.8-6.6
		C53.4,17.5,41.7,8.6,28.7,8.5l0,0h-0.2c-2.2,0-4.4,0.2-6.6,0.8c-13.4,3-22.4,14.9-22.4,28l0,0c0,2.2,0.2,4.4,0.8,6.6V44l0,0
		c3.2,13.3,15,22.2,28.1,22.2l0,0c2.2,0,4.4-0.2,6.6-0.8c3.3-0.8,6.4-2.1,9.2-3.9l0.5-0.3l12.8,9.2l1.3,0.9L83,88.4l0,0l1.2,0.9
		c1.6,1.1,3.4,1.7,5.2,1.7l0,0l0,0c2.8,0,5.6-1.3,7.4-3.8l1-1.4c1.1-1.5,1.6-3.3,1.7-5v-0.1L99.5,80.4z M27.9,55.8
		c-10.5,0-19.1-8.6-19.1-19.1s8.5-19.1,19.1-19.1S47,26.1,47,36.7C47,47.2,38.5,55.7,27.9,55.8L27.9,55.8z"/>
</g>
</svg>
