<?xml version="1.0" encoding="utf-8"?>
<!-- Generator: Adobe Illustrator 21.1.0, SVG Export Plug-In . SVG Version: 6.00 Build 0)  -->
<svg version="1.1" id="Ebene_2_1_" xmlns="http://www.w3.org/2000/svg" xmlns:xlink="http://www.w3.org/1999/xlink" x="0px" y="0px"
	 viewBox="0 0 61 78" style="enable-background:new 0 0 61 78;" xml:space="preserve">
<style type="text/css">
	.st0{fill:#FFFFFF;}
	.st1{fill:#222222;}
</style>
<metadata><?xpacket begin="﻿" id="W5M0MpCehiHzreSzNTczkc9d"?>
<x:xmpmeta xmlns:x="adobe:ns:meta/" x:xmptk="Adobe XMP Core 5.6-c137 79.159768, 2016/08/11-13:24:42        ">
   <rdf:RDF xmlns:rdf="http://www.w3.org/1999/02/22-rdf-syntax-ns#">
      <rdf:Description rdf:about=""
            xmlns:xmp="http://ns.adobe.com/xap/1.0/"
            xmlns:xmpGImg="http://ns.adobe.com/xap/1.0/g/img/"
            xmlns:xmpTPg="http://ns.adobe.com/xap/1.0/t/pg/"
            xmlns:stDim="http://ns.adobe.com/xap/1.0/sType/Dimensions#"
            xmlns:xmpG="http://ns.adobe.com/xap/1.0/g/"
            xmlns:dc="http://purl.org/dc/elements/1.1/">
         <xmp:CreatorTool>Adobe Illustrator CC 2017 (Windows)</xmp:CreatorTool>
         <xmp:CreateDate>2017-11-06T15:55:10+01:00</xmp:CreateDate>
         <xmp:Thumbnails>
            <rdf:Alt>
               <rdf:li rdf:parseType="Resource">
                  <xmpGImg:width>200</xmpGImg:width>
                  <xmpGImg:height>256</xmpGImg:height>
                  <xmpGImg:format>JPEG</xmpGImg:format>
                  <xmpGImg:image>/9j/4AAQSkZJRgABAgEASABIAAD/7QAsUGhvdG9zaG9wIDMuMAA4QklNA+0AAAAAABAASAAAAAEA&#xA;AQBIAAAAAQAB/+4ADkFkb2JlAGTAAAAAAf/bAIQABgQEBAUEBgUFBgkGBQYJCwgGBggLDAoKCwoK&#xA;DBAMDAwMDAwQDA4PEA8ODBMTFBQTExwbGxscHx8fHx8fHx8fHwEHBwcNDA0YEBAYGhURFRofHx8f&#xA;Hx8fHx8fHx8fHx8fHx8fHx8fHx8fHx8fHx8fHx8fHx8fHx8fHx8fHx8fHx8f/8AAEQgBAADIAwER&#xA;AAIRAQMRAf/EAaIAAAAHAQEBAQEAAAAAAAAAAAQFAwIGAQAHCAkKCwEAAgIDAQEBAQEAAAAAAAAA&#xA;AQACAwQFBgcICQoLEAACAQMDAgQCBgcDBAIGAnMBAgMRBAAFIRIxQVEGE2EicYEUMpGhBxWxQiPB&#xA;UtHhMxZi8CRygvElQzRTkqKyY3PCNUQnk6OzNhdUZHTD0uIIJoMJChgZhJRFRqS0VtNVKBry4/PE&#xA;1OT0ZXWFlaW1xdXl9WZ2hpamtsbW5vY3R1dnd4eXp7fH1+f3OEhYaHiImKi4yNjo+Ck5SVlpeYmZ&#xA;qbnJ2en5KjpKWmp6ipqqusra6voRAAICAQIDBQUEBQYECAMDbQEAAhEDBCESMUEFURNhIgZxgZEy&#xA;obHwFMHR4SNCFVJicvEzJDRDghaSUyWiY7LCB3PSNeJEgxdUkwgJChgZJjZFGidkdFU38qOzwygp&#xA;0+PzhJSktMTU5PRldYWVpbXF1eX1RlZmdoaWprbG1ub2R1dnd4eXp7fH1+f3OEhYaHiImKi4yNjo&#xA;+DlJWWl5iZmpucnZ6fkqOkpaanqKmqq6ytrq+v/aAAwDAQACEQMRAD8A9U4q7FXYq7FXYq7FXYq7&#xA;FXYq7FXYq7FXYq7FXYq7FXYq7FXYq7FXYq7FXYq7FXYq7FXYq7FXYq7FXYq7FXYq7FXYq7FXYq7F&#xA;XYq7FXYq7FXYq7FXYq7FXYq7FXYq7FXYq7FXYq7FXYq7FXYq7FXYq7FXYq7FXYq7FXYq7FXYq7FX&#xA;Yq7FXYq7FXYq7FXYq7FXYq7FXYq7FXYq7FXYq7FXYq7FXYq7FXYq7FXYq7FXYq7FXYq7FXYq7FXY&#xA;q7FXYq7FXYq7FXYq7FXYq7FXYq7FXYq07oiF3YKiirMTQAe5OKpPL518mxOUl17To3HVWu4Ad/Yv&#xA;iqZ2l7ZXkfq2lxHcRdOcTq6/epOKq2KuxV2KuxV2KuxV2KuxV2KuxV2KuxV2KuxV2KuxV2KuxV2K&#xA;uxVqSRI0aSRgkaAs7saAAbkknFXzt+Z//OU8VpPNpXkaOO5kSqSa1MOUQPT/AEePbn/rtt7Eb4q8&#xA;KudR/Mjz/qBSSXUvMN1WogQSzqld/hjQcIx8gBiqdQ/84/fnDLCZl8uShAKkPPbI+/8AkNKG/DFU&#xA;l1Hyn+ZHkqYXt1p+paIyEBb+MSxIDXYCeI8a/wCyxV6R+Xn/ADlJ5p0eaO081qdb0yoU3ICpeRjx&#xA;BHFZfk+/+Vir6k8ueZNE8yaRBq+i3aXlhcCqSp1BHVXU0ZWXupFRiqZ4q7FXYq7FXYq7FXYq7FXY&#xA;q7FXYq7FXYq7FXYq7FXYq7FXy9/zkv8AnDcXV9P5H0K4KWVueGt3EZ3llHW2qP2E/b8W2PTdVJ/y&#xA;O/5x+fzXHH5i8zrJB5erWztFJSS7od2LdUi7VG7dqdcVfVmj6JpGi2Een6TZxWNlEKRwQIEUe+3U&#xA;nuTviqNxVqSNJEaORQ8bgq6MKgg7EEHFXg35wf8AONek6rbT615MgSw1ZAZJdLSi21wACSIlG0Uh&#xA;7AfCfbrirxP8o/zO1b8uvNP79ZDpE8gg1rTmBDAK3EyKhpSWLf57qfZV9w2l3bXlpDeWsizWtzGs&#xA;0EyGqvG4DKynwINcVVcVdirsVdirsVdirsVdirsVdirsVdirsVdirsVdirHfzE80Dyt5I1nXxT1b&#xA;G2Zrfl0M7kRwg+xldcVfF/5U+TZ/Pv5hWem3bvJbyO15q0xJLGCM85at15SMQlfFsVfd8EEFvBHb&#xA;wRrFBCqxxRIAqqiiiqoGwAHTFV+KuxV2KuxV8p/85Wfl9b6VrVp5u0+IR2+sMYdRVRRRdqvJX+cq&#xA;A191J6nFXoP/ADip5vl1fyNcaHcPzn0CYJETufq1xyeMH/VdZB8qYq9rxV2KuxV2KuxV2KuxV2Ku&#xA;xV2KuxV2KuxV2KuxV2KvG/8AnK2+e2/K5IVJAvdSt4GA7hUlm3+mLFWDf84dWEL6l5o1Aj9/bw2k&#xA;CH/InaV2/GBcVfTuKuxV2KuxV2KvMP8AnJPTY738odXkKhpLJ7a5hr2IuEjY/wDIuRsVePf84hXs&#xA;ieeNZshX059MMzDtyhuIlX/k8cVfWGKuxV2KuxV2KuxV2KuxV2KuxV2KuxV2KuxV2KuxV5F/zlJp&#xA;j3n5UzTqvL9HXttdNtWgJaCv/JfFXm3/ADh9rEMHmLzBo7ECS+tYbmOvf6rIyED3/wBJrir6mxV2&#xA;KuxV2KuxV5N/zk/rUWn/AJUXdmzAS6rc29rEK/EeEguGIp/kw0PzxV5f/wA4f6Y8nmrXtU4/BbWK&#xA;WpbfrcTBwPD/AI98VfVOKuxV2KuxV2KuxV2KuxV2KuxV2KuxV2KuxV2KuxVK/NOgWvmHy5qWh3W0&#xA;Go28luzd1LrRXHurUYYq+F/Lur65+W/5hw3c0JTUNEumhvbWtBIgJjmjqezoTxb5HFX3Z5f17S/M&#xA;GjWms6VMLiwvYxLDIPA7FWHZlOzDscVTDFXYq7FXEgCp2AxV8Z/85HfmZB5v82JpumSiXRND5xQy&#xA;qarNO5HrSjxUcQqn2JH2sVe8/wDOOPkeXyx+XkM95Hw1HW3+vzqQQyRMoEEZ/wBh8XsWIxV6nirs&#xA;VdirsVdirsVdirsVdirsVdirsVdirsVdirsVdirwv/nIn8k5vMsR81eXYOeu20dL+zQfFdQoPhZA&#xA;OsqDan7S7dQAVXh/5U/nH5i/Lu+eBUN7osz1vdKkYrRxsXiYg+nJ47UPfsQq+rvJv5zfl35shQ6f&#xA;qsVveNQHT7xlt7gMf2QrGj/7AsMVZsCCKjcHFUi8zeevKHliBptd1a2seI5CKRwZmH+RCtZG/wBi&#xA;uKvmj84f+ckrrzLaTaD5VSWw0aYFLy9k+G4uEOxRQpPpxnvvyYbGgqCqhPyB/JG5806hB5k16Ap5&#xA;ZtH5wwyD/e2RCfhAP+6lYfGe/wBkd6Kvr8AAUGwGKuxV2KuxV2KuxV2KuxV2KuxV2KuxV2KuxV2K&#xA;uxV5z+cn5yaZ+XumRxxxre+YL1S1jYsSEVAaGaYihCAigA3Y7DuQq+YNS/P/APNu+u2uTr8tsCar&#xA;BbJHFEo8AoXf/ZEnFWd/l/8A85W6/Yzpa+c4Bqlk2xv7ZEiuo/dkXhFIP+BPuemKsv8AM3k38lfz&#xA;eJ1Ly9rdvp3mWYcnZKRySsR/u+0kMbOa/tpv7nFXkfmX/nG/809Flf0NOXV7Va8bmwdXJHb90/CW&#xA;vyU/PFWLHyV+Z1s6236C1qFukcItbpa1NPhAXufDFU20T8i/zY1mUCLy/c2ysfjmvqWoWvciYo5+&#xA;hScVeveVP+cdPJflGOPW/wAyNZtZjF8a2LSCGz5DejvJwef/AFQAD0o2KqP5k/8AOUVtaRDRvy7j&#xA;QJCoj/S0kQESKooq20DClB4utPBT1xV5Pa/nx+bVtei7HmO4lfkGaKURvEd609MrxAPsBir6b/JX&#xA;86rL8wbKW0vIksvMVkge5tkJ9OWPYetDXcDkaMprx23NcVen4q7FXYq7FXYq7FXYq7FXYq7FXYq7&#xA;FXYqpXd1BaWs13cOI7e3jaWaQ9FRAWYn5AYq+CfM2s63+Y/5hzXUSNJe6zdrBp9sTtHGzCOCP2Cr&#xA;TkfmcVfZPkf8qPJ/lPy5HpENhBdyOgGoXlxEkkly5HxF+QPwV+ynQD6TirAPP/8Azix5X1mSS98s&#xA;T/oK9b4jaFTJZsfZR8cX+xqPBcVeH+Y/+cfPzW0NmJ0ZtSgWtLjTmFyGp4Rik33x4qkMfmX8zfLL&#xA;CFdS1jSOO3oNLcwL0IAMbFR28MVRw/Oz81wAB5nvdtt2U/rGKqFz+bH5p6ifRfzLqblxx9OGeSMk&#xA;b7UiK1xVfpn5Z/mp5puhLDomo3ckm31y7V40PznuCi/8Nir2HyD/AM4mOs0V751vlaNSG/RVkxPL&#xA;2lnIWnuEH+yxV7N5l/KryTrvlZ/Lkml29raLGVspLeJEktnp8MkRABqD1/m71rir4ysLvzB+Wf5j&#xA;LIwKaloN2UnjBIWaMGjrX+SaM7HwNcVfeOl6lZ6pplpqVk/qWl7DHcW8n80cqh1P3HFUVirsVdir&#xA;sVdirsVdirsVdirsVdirsVec/wDOQmuto/5Ta2yNxmvlSxj9xcOFkH/IrnirwX/nFPy4mpfmLNqk&#xA;ycotFtHljJ3pPORCn/CNIfoxV9gYq7FXYq4gEEEVB2IOKoOTRdGkZGksLd2jPJC0SEqfEVG2KoiG&#xA;2toARBEkQb7XBQtaeNMVVMVdirsVfKP/ADlx5ZSy82aX5giQKurWzQ3BA6zWhUcmPiY5EUf6uKvV&#xA;f+cYfMD6r+VltbSNyl0i5msiSatwqJo/oCzcR8sVes4q7FXYq7FXYq7FXYq7FXYq7FXYq7FXhn/O&#xA;XVzInkDS7ddlm1RGc+IS3moPvauKpR/zh1Zoul+Zr3bnLPaw+9I0kb/mZir6KxV2KuxV2KuxV2Ku&#xA;xV2KuxV4f/zlxYJN+XunXm3qWupxrU/ySwyhgNv5lXFUi/5w5u5GsvNVof7uGSylX/WlWdW/5NDF&#xA;X0birsVdirsVdirsVdirsVdirsVdirsVeD/85ff8oTo3/bSH/JiTFUN/zh7/AMo35h/5jIv+TWKv&#xA;oHFXYq7FXYq7FXYq7FXYq7FXjX/OV/8A5K+L/tp2/wDyblxViH/OG3/TX/8Abu/7GsVfSmKuxV2K&#xA;uxV2KuxV2KuxV2KuxV2KuxV4P/zl9/yhOjf9tIf8mJMVQ3/OHv8AyjfmH/mMi/5NYq+gcVdirsVd&#xA;irsVdirsVdirsVeNf85X/wDkr4v+2nb/APJuXFWIf84bf9Nf/wBu7/saxV9KYq7FXYq7FXYq7FXY&#xA;q7FXYq7FXYq7FXg//OX3/KE6N/20h/yYkxVjn/OLnnXyl5e0HXIdc1e102We6ieFLmVYyyiOhKhj&#xA;vvir23/lbv5X/wDU06b/ANJMf9cVd/yt38r/APqadN/6SY/64q7/AJW7+V//AFNOm/8ASTH/AFxV&#xA;3/K3fyv/AOpp03/pJj/rirv+Vu/lf/1NOm/9JMf9cVd/yt38r/8AqadN/wCkmP8Arirv+Vu/lf8A&#xA;9TTpv/STH/XFXf8AK3fyv/6mnTf+kmP+uKu/5W7+V/8A1NOm/wDSTH/XFXlP/OSnn3yVrv5eR2Wj&#xA;a3Z6heDUIJDBbzJI/BUkBainoKjFUv8A+cNv+mv/AO3d/wBjWKvpTFXYq7FXYq7FXYq7FXYq7FXY&#xA;q7FXYq8p/wCciPIPmfzp5Y02w8vW63NzbXvryq8iRAR+k6Vq5UHdhirwD/oWb83/APq1Q/8ASXb/&#xA;APNeKu/6Fm/N/wD6tUP/AEl2/wDzXirv+hZvzf8A+rVD/wBJdv8A814q7/oWb83/APq1Q/8ASXb/&#xA;APNeKu/6Fm/N/wD6tUP/AEl2/wDzXirv+hZvzf8A+rVD/wBJdv8A814q7/oWb83/APq1Q/8ASXb/&#xA;APNeKu/6Fm/N/wD6tUP/AEl2/wDzXirv+hZvzf8A+rVD/wBJdv8A814q7/oWb83/APq1Q/8ASXb/&#xA;APNeKu/6Fm/N/wD6tUP/AEl2/wDzXir2v/nG78svOHkj/EX+IrVLb9IfU/qvCWOXl6Hr86+mzUp6&#xA;q9cVe1Yq7FXYq7FXYq7FXYq7FXYq7FXYq7FXYq7FXYq7FXYq7FXYq7FXYq7FXYq7FXYq7FXYq7FX&#xA;Yq7FXYq7FXYq7FXYq7FXzH/zk75685aB59sLPRNavNOtZNKhmeC2meNDI1xcKXIU9eKAfRir6cxV&#xA;C6rqmn6TptzqeozLb2NnG01xO/RUQVJ9/kOuKvmHVPzn/Nr8yvMEmi/l7by6fYrUj0eCz+mNvUuL&#xA;lzxiHgFI8KscVVpvyy/5yi06H69b+Y7m9mj+L6omqzSMe5+C4KxNTwrirIfyf/5yD1e815PJ/n2M&#xA;Qaq0n1a2v2j9BzcA8fRuY9grsdgygb7Ed8Ve5a9rmmaDo13rGqTCCwsYzLPId6AdgO7MdgO5xV8x&#xA;X35wfnJ+ZuvTaX5Cgl07T49wltwWVY6kCS5unoEJ8FI8ByIriqLf8rf+cobGMXkHmW5u5o/iW1Gr&#xA;TyMT1pxnKxH6Tir0H8jPOv5q6xe6lovnbSpIxpiD/crNCbaQylqCEoFWOWq1YMlKAb15DFWB/nV5&#xA;685aV+dFnpWm61eWemv9Q5WkMzpEfUYB6qDT4u+KvXvz41fVNH/KjXNR0u6lsr+D6r6NzAxSROd5&#xA;CjcWG4qrEYq86/5x1/O+71mb/CXmm8afU2LPpWoTtV5h1aB2PVxuUJ6jbsKqvoPFXz15a85ea5/+&#xA;cmr/AECbVrqTRY5bsJpzSsYAEtiygJWmzb4q+hcVdirsVdirsVdirsVdirsVdir5G/5y6/8AJk6b&#xA;/wBsaD/qKucVfXOKvEf+cs9buLL8v7PTYWKjVL5FuKftRQI0nH/kZwP0Yqnv/ON/lqy0f8rtOuoo&#xA;1F5q/O8vJh1arssS18FjUbeNfHFXqOKvlr/nLjy7b2HmLQ/Mlmvo3Ooxyw3UkfwkyWhQxSEjflxk&#xA;pXwUYqmX/OQ/nG91H8ofJhL0bzCkF7fcKUZo7ZHZDT/iyatPEYq9N/5x+8s2Oh/ldo7wIv1nVIvr&#xA;95MB8TvN8SV/1I+K/Rir0Ka6toKevKkXKvHmwWtOtK4qtivbKZ+EVxHI/Xijqx+4HFXyZ+f3/k/L&#xA;H/t3f8TGKvb/APnI7/yTHmH/AKM/+o6DFXzin5WX035SaT+Yfl8yC/sZZzqkcRbmEhuG9O6iI3Ux&#xA;cRyp2o3Y1VfRn5G/m1B588vejeuqeZNOVV1CIUX1V6LcIo7N+0B0b2IxV5d5T/8AWttS/wCM17/1&#xA;CnFX07irsVdirsVdirsVdirsVdirsVfI3/OXX/kydN/7Y0H/AFFXOKvrnFXjX/OVPly51T8uYtRt&#xA;kLvo12lxOBuRBIrROR8mZCfauKon/nGbzlYa1+XVto/qqNU0Mtb3EFaMYWcvDIB/KVbjXxU4q9cx&#xA;V8o/85R+Z4vMfnXR/Kuj/wCl3GmcopFiPLleXjIohFOrKI1+lqYqyv8A5yI8h3dt+T/lr0R6zeVE&#xA;t7W6Za/3LQLA0n/IxE+/FWY/845+c9P1/wDLiw09JFGpaGgsry3qOQRSfRkp/K0dBXxBxVM/zX/J&#xA;/SvzGTTBfX89i+lmb0mhVGDC49PkGDeHpLTfFXg/5DaPHon/ADkBqOjRSNNFpjalZxysAGdbdzGG&#xA;IG1SFriq38/v/J+WP/bu/wCJjFXt/wDzkd/5JjzD/wBGf/UdBiqF/wCcaUR/yd0xHUMjS3asrCoI&#xA;Nw4IIOKvIPzQ8ma3+T3ny085+U6x6JczFoo9zHE7by2coHWJ1rw9vda4q1+U3mO28y/85I/p62ja&#xA;GHURdTrC9CyFrRqqSOtDtXFX1pirsVdirsVdirsVdirsVdirsVfPX/OQ35P+e/OfnSy1Ty/ZR3Nn&#xA;DpsVrI7zxRESrPO5HF2U/ZkXfFUB+hP+cvv+W/8A5Laf/TFXpX5TaT+aJ03WbT8zXW9W69OO0idr&#xA;eRWhZXWdWEApRqivLFXmnmv/AJxq826Drh138tNTaKjForRpjb3MPLqkc32ZE7fGQabHl1xVBT6J&#xA;/wA5datEdMup7iC3+xJMLiwg2avWWBhK3+xJxVnX5Pf8472vlDUE8weYbmPUtfjqbaOKpt7dmFC4&#xA;LgNJJvsxAp4V3xV7Fe2VpfWc9leRLPaXKNFPBIKq6OOLKwPYg4q+cvMX/ON3nPy3rZ1z8stXaKhJ&#xA;jtJJjBcRg7+msp/dyp7SU9+XXFVKX/ocO7iOnOrxbUkuUOlxtxP/ABchHSv7HxYqyn8l/wAiPMPl&#xA;bzJJ5t8zaotxq8yShrWItMS05q8k070LOd60HXfliqU/m1+T/nzzH+bNr5i0myjm0qL6nzmaeJGH&#xA;oMC/wMwbb5Yq9Q/ObyzrHmf8tdY0PR4ln1K7+rehEzrGD6V1FK3xOQo+BDiqh+SPlTW/Kv5d2Gi6&#xA;1CsGoQSXDSRq6yACSZnX4kJHQ4qyrzH5e0nzHol3ourQiewvUMcydCO6sp7MpAKnscVeC/lT+RHn&#xA;PyZ+bEOp3CRXHl+1FykWoLIgZ0kiZYyYa8wfiFRTb5Yq+jMVdirsVdirsVdirsVdirsVdirsVdir&#xA;sVdirsVdirsVdirsVdirsVdirsVdirsVdirsVdirsVdirsVdirsVdirsVdirsVdirsVdirsVdirs&#xA;VdirsVdirsVdirsVdirsVdirsVdirsVdirsVdirsVdirsVdirsVdirsVdirsVdirsVdirsVdirsV&#xA;dirsVdirsVdirsVdirsVdirsVdirsVdirsVdirsVdirsVdirsVdirsVdirsVdirsVdirsVdirsVd&#xA;irsVdirsVdirsVdirsVdirsVdirsVdirsVdirsVdirsVdirsVdirsVdirsVdirsVdirsVdirsVdi&#xA;rsVdirsVdirsVdirsVdirsVdirsVdirsVdirsVdirsVdirsVdirsVdirsVdirsVdirsVdirsVdir&#xA;sVdirsVdirsVdirsVdirsVdirsVdirsVdirsVdir/9k=</xmpGImg:image>
               </rdf:li>
            </rdf:Alt>
         </xmp:Thumbnails>
         <xmpTPg:MaxPageSize rdf:parseType="Resource">
            <stDim:w>21.519444</stDim:w>
            <stDim:h>27.516667</stDim:h>
            <stDim:unit>Millimeters</stDim:unit>
         </xmpTPg:MaxPageSize>
         <xmpTPg:NPages>1</xmpTPg:NPages>
         <xmpTPg:HasVisibleTransparency>False</xmpTPg:HasVisibleTransparency>
         <xmpTPg:HasVisibleOverprint>False</xmpTPg:HasVisibleOverprint>
         <xmpTPg:PlateNames>
            <rdf:Seq>
               <rdf:li>Cyan</rdf:li>
               <rdf:li>Magenta</rdf:li>
               <rdf:li>Yellow</rdf:li>
               <rdf:li>Black</rdf:li>
            </rdf:Seq>
         </xmpTPg:PlateNames>
         <xmpTPg:SwatchGroups>
            <rdf:Seq>
               <rdf:li rdf:parseType="Resource">
                  <xmpG:groupName>Standard-Farbfeldgruppe</xmpG:groupName>
                  <xmpG:groupType>0</xmpG:groupType>
               </rdf:li>
            </rdf:Seq>
         </xmpTPg:SwatchGroups>
         <dc:format>image/svg+xml</dc:format>
      </rdf:Description>
   </rdf:RDF>
</x:xmpmeta>
                                                                                                    
                                                                                                    
                                                                                                    
                                                                                                    
                                                                                                    
                                                                                                    
                                                                                                    
                                                                                                    
                                                                                                    
                                                                                                    
                                                                                                    
                                                                                                    
                                                                                                    
                                                                                                    
                                                                                                    
                                                                                                    
                                                                                                    
                                                                                                    
                                                                                                    
                                                                                                    
                           
<?xpacket end="w"?>
	</metadata>
<rect x="-0.1" class="st0" width="61" height="78"/>
<g>
	<path class="st1" d="M45,48H16v-9c0-2.8,0.9-7.4,3.5-8.8c0.8-0.5,2.1-0.8,3.8,0.3c3.7,2.3,11.5,2.4,14.5,0.1c1.1-0.9,2.3-1,3.4-0.5
		c2.5,1.2,3.8,6,3.8,9V48z M18,46h25v-7c0-2.7-1.2-6.5-2.7-7.2c-0.2-0.1-0.6-0.3-1.3,0.3c-3.6,2.8-12.3,2.8-16.7,0.1
		c-1-0.6-1.5-0.4-1.8-0.2C19,32.7,18,36.2,18,39V46z"/>
</g>
<g>
	<path class="st1" d="M30.7,31.4c-5.3,0-9.7-4.4-9.7-9.7s4.4-9.7,9.7-9.7s9.7,4.4,9.7,9.7S36,31.4,30.7,31.4z M30.7,14
		c-4.2,0-7.7,3.5-7.7,7.7c0,4.2,3.5,7.7,7.7,7.7s7.7-3.5,7.7-7.7C38.4,17.5,34.9,14,30.7,14z"/>
</g>
<g>
	<path class="st1" d="M14.5,59.1h3.6v1.2h-5v-8.6h1.4V59.1z"/>
	<path class="st1" d="M27,55.9c0,0.6-0.1,1.2-0.3,1.8s-0.5,1-0.9,1.4c-0.4,0.4-0.8,0.7-1.4,0.9c-0.5,0.2-1.1,0.3-1.8,0.3
		c-0.6,0-1.2-0.1-1.8-0.3c-0.5-0.2-1-0.5-1.4-0.9c-0.4-0.4-0.7-0.9-0.9-1.4s-0.3-1.1-0.3-1.8c0-0.6,0.1-1.2,0.3-1.8s0.5-1,0.9-1.4
		c0.4-0.4,0.8-0.7,1.4-0.9c0.5-0.2,1.1-0.3,1.8-0.3c0.6,0,1.2,0.1,1.8,0.3c0.5,0.2,1,0.5,1.4,0.9c0.4,0.4,0.7,0.9,0.9,1.4
		S27,55.3,27,55.9z M25.6,55.9c0-0.5-0.1-0.9-0.2-1.3c-0.1-0.4-0.3-0.7-0.6-1s-0.6-0.5-0.9-0.6c-0.4-0.1-0.8-0.2-1.2-0.2
		c-0.4,0-0.8,0.1-1.2,0.2c-0.4,0.1-0.7,0.4-0.9,0.6c-0.3,0.3-0.4,0.6-0.6,1c-0.1,0.4-0.2,0.8-0.2,1.3c0,0.5,0.1,0.9,0.2,1.3
		c0.1,0.4,0.3,0.7,0.6,1c0.3,0.3,0.6,0.5,0.9,0.6c0.4,0.1,0.8,0.2,1.2,0.2c0.4,0,0.8-0.1,1.2-0.2c0.4-0.1,0.7-0.4,0.9-0.6
		c0.3-0.3,0.4-0.6,0.6-1C25.5,56.9,25.6,56.4,25.6,55.9z"/>
	<path class="st1" d="M32.6,60.3c-0.7,0-1.3-0.1-1.9-0.3c-0.6-0.2-1-0.5-1.4-0.9c-0.4-0.4-0.7-0.9-0.9-1.4c-0.2-0.5-0.3-1.1-0.3-1.8
		c0-0.7,0.1-1.2,0.3-1.8s0.5-1,0.9-1.4c0.4-0.4,0.9-0.7,1.4-0.9c0.5-0.2,1.2-0.3,1.8-0.3c0.3,0,0.7,0,1,0.1c0.3,0.1,0.6,0.1,0.8,0.2
		c0.3,0.1,0.5,0.2,0.7,0.3s0.4,0.3,0.6,0.5l-0.4,0.6c-0.1,0.1-0.1,0.2-0.2,0.2c-0.1,0-0.2,0-0.3-0.1c-0.1-0.1-0.2-0.1-0.4-0.2
		S34,53,33.8,52.9c-0.2-0.1-0.4-0.1-0.6-0.2c-0.2,0-0.5-0.1-0.8-0.1c-0.5,0-0.9,0.1-1.2,0.2c-0.4,0.1-0.7,0.4-0.9,0.6
		c-0.3,0.3-0.5,0.6-0.6,1c-0.1,0.4-0.2,0.8-0.2,1.3c0,0.5,0.1,1,0.2,1.4c0.1,0.4,0.4,0.8,0.6,1c0.3,0.3,0.6,0.5,1,0.6
		c0.4,0.1,0.8,0.2,1.3,0.2c0.4,0,0.7,0,1-0.1c0.3-0.1,0.6-0.2,0.8-0.3v-1.7h-1.2c-0.1,0-0.2,0-0.2-0.1s-0.1-0.1-0.1-0.2V56h2.8v3.4
		C34.8,60,33.8,60.3,32.6,60.3z"/>
	<path class="st1" d="M38.7,60.2h-1.4v-8.6h1.4V60.2z"/>
	<path class="st1" d="M41.7,51.6c0,0,0.1,0,0.1,0c0,0,0.1,0,0.1,0.1c0,0,0.1,0.1,0.1,0.1l4.8,6.1c0-0.1,0-0.2,0-0.4s0-0.2,0-0.3
		v-5.6h1.2v8.6h-0.7c-0.1,0-0.2,0-0.3-0.1c-0.1,0-0.1-0.1-0.2-0.2L42,53.9c0,0.1,0,0.2,0,0.3s0,0.2,0,0.3v5.7h-1.2v-8.6h0.7
		C41.6,51.6,41.6,51.6,41.7,51.6z"/>
</g>
</svg>
