<?xml version="1.0" encoding="utf-8"?>
<!-- Generator: Adobe Illustrator 23.0.3, SVG Export Plug-In . SVG Version: 6.00 Build 0)  -->
<svg version="1.1" id="Ebene_1" xmlns="http://www.w3.org/2000/svg" xmlns:xlink="http://www.w3.org/1999/xlink" x="0px" y="0px"
	 viewBox="0 0 61 78" style="enable-background:new 0 0 61 78;" xml:space="preserve">
<style type="text/css">
	.st0{fill:#FFFFFF;}
	.st1{fill:#222222;}
	.st2{fill:#838383;}
	.st3{fill:#E81523;}
</style>
<g id="Ebene_3">
	<rect class="st0" width="61" height="78"/>
</g>
<g>
	<path class="st1" d="M10.7,51.6v1.1h-4v2.6h3.2v1.1H6.7v2.7h4v1.1H5.3v-8.6C5.3,51.6,10.7,51.6,10.7,51.6z"/>
	<path class="st1" d="M13.6,60.3h-1.4v-8.6h1.4V60.3z"/>
	<path class="st1" d="M16.5,51.6h0.1c0,0,0.1,0,0.1,0.1l0.1,0.1l4.8,6.1c0-0.1,0-0.2,0-0.4s0-0.2,0-0.3v-5.6h1.2v8.6h-0.7
		c-0.1,0-0.2,0-0.3-0.1s-0.1-0.1-0.2-0.2l-4.7-6.1c0,0.1,0,0.2,0,0.3s0,0.2,0,0.3v5.7h-1.2v-8.6L16.5,51.6
		C16.4,51.6,16.5,51.6,16.5,51.6z"/>
	<path class="st1" d="M26.3,55.3h0.4c0.2,0,0.3,0,0.4-0.1c0.1,0,0.2-0.1,0.3-0.2l2.6-3.1c0.1-0.1,0.2-0.2,0.3-0.2
		c0.1,0,0.2-0.1,0.4-0.1h1.2l-3.1,3.6c-0.1,0.1-0.2,0.2-0.2,0.3c-0.1,0.1-0.2,0.1-0.3,0.2c0.1,0,0.2,0.1,0.3,0.2s0.2,0.2,0.3,0.3
		l3.2,4.1h-1.2c-0.1,0-0.2,0-0.2,0c-0.1,0-0.1,0-0.2-0.1l-0.1-0.1L30.3,60l-2.7-3.3c0-0.1-0.1-0.1-0.1-0.1l-0.1-0.1
		c-0.1,0-0.1,0-0.2-0.1c-0.1,0-0.1,0-0.2,0h-0.7v3.9h-1.4v-8.6h1.4V55.3z"/>
	<path class="st1" d="M40.2,60.3h-1.1c-0.1,0-0.2,0-0.3-0.1s-0.1-0.1-0.2-0.2l-0.7-2h-3.7l-0.7,2c0,0.1-0.1,0.2-0.2,0.2
		c-0.1,0.1-0.2,0.1-0.3,0.1h-1.1l3.4-8.6h1.4L40.2,60.3z M34.6,57h3l-1.3-3.1c0-0.1-0.1-0.3-0.1-0.4c0-0.2-0.1-0.3-0.1-0.5
		c0,0.2-0.1,0.4-0.1,0.5c0,0.2-0.1,0.3-0.1,0.4L34.6,57z"/>
	<path class="st1" d="M44.4,59.1c0.3,0,0.6-0.1,0.9-0.2c0.3-0.1,0.5-0.3,0.7-0.5s0.3-0.4,0.4-0.7c0.1-0.3,0.1-0.6,0.1-0.9v-5.2h1.4
		v5.2c0,0.5-0.1,1-0.2,1.4c-0.2,0.4-0.4,0.8-0.7,1.1s-0.7,0.6-1.1,0.7c-0.4,0.2-0.9,0.3-1.5,0.3s-1-0.1-1.5-0.3
		c-0.4-0.2-0.8-0.4-1.1-0.7s-0.5-0.7-0.7-1.1c-0.2-0.4-0.2-0.9-0.2-1.4v-5.2h1.4v5.2c0,0.3,0,0.7,0.1,0.9s0.2,0.5,0.4,0.7
		s0.4,0.4,0.7,0.5C43.8,59.1,44.1,59.1,44.4,59.1z"/>
	<path class="st1" d="M55.3,51.6v1.1h-4v2.8h3.4v1.1h-3.4v3.6h-1.4v-8.6C49.9,51.6,55.3,51.6,55.3,51.6z"/>
</g>
<path class="st2" d="M38.7,27.6l-1.8-10.2l-2.9,0.5l1.7,9.7H25.3l2.3-9.8l-2.9-0.4l-2.4,10.2H10.7v4.1h3.9l2.8,15.7
	c0,0.9,0.8,1.8,1.7,1.8H42c1,0,1.7-1,1.7-1.8l2.8-15.7h3.4v-4.1H38.7z M23.3,30.5c-0.6,0-1.1-0.5-1.1-1.1s0.5-1.1,1.1-1.1
	s1.1,0.5,1.1,1.1S24,30.5,23.3,30.5z M37.7,30.5c-0.6,0-1.1-0.5-1.1-1.1s0.5-1.1,1.1-1.1c0.6,0,1.1,0.5,1.1,1.1S38.3,30.5,37.7,30.5
	z"/>
<g>
	<circle class="st3" cx="37.4" cy="18.4" r="14"/>
</g>
</svg>
