<?xml version="1.0" encoding="utf-8"?>
<!-- Generator: Adobe Illustrator 19.0.1, SVG Export Plug-In . SVG Version: 6.00 Build 0)  -->
<svg version="1.2" baseProfile="tiny" xmlns="http://www.w3.org/2000/svg" xmlns:xlink="http://www.w3.org/1999/xlink" x="0px"
	 y="0px" viewBox="0 0 61 78" xml:space="preserve">
<g id="menue" display="none">
	<g display="inline">
		<g>
			<rect x="0" y="50.1" fill="none" width="61" height="15.3"/>
			<path fill="#FFFFFF" d="M11.5,50.9h2.4l2,4.9l0.6,1.9h0.1l0.7-1.9l2-4.9h2.4v9.3h-1.6V53H20l-0.9,2.6l-1.8,4.3h-1.5l-1.8-4.3
				L13.1,53h-0.1v7.2h-1.6V50.9z"/>
			<path fill="#FFFFFF" d="M23.6,50.9H30v1.4h-4.6v2.5h4.3v1.4h-4.3v2.6h4.8v1.4h-6.5V50.9z"/>
			<path fill="#FFFFFF" d="M31.7,50.9h1.5l4.2,5.5l0.7,1.1h0.1v-6.6h1.6v9.3h-1.4l-4.2-5.5l-0.8-1.1h-0.1v6.6h-1.6V50.9z"/>
			<path fill="#FFFFFF" d="M45.6,60.3c-0.7,0-1.4-0.1-1.9-0.2c-0.5-0.2-0.9-0.4-1.2-0.7c-0.3-0.3-0.6-0.7-0.7-1.2
				c-0.1-0.5-0.2-1.1-0.2-1.8v-5.5h1.8v5.5c0,0.9,0.2,1.5,0.5,1.9c0.4,0.4,0.9,0.6,1.7,0.6c0.8,0,1.3-0.2,1.7-0.6
				c0.4-0.4,0.5-1,0.5-1.9v-5.5h1.8v5.5c0,0.7-0.1,1.3-0.2,1.8c-0.1,0.5-0.4,0.9-0.7,1.2c-0.3,0.3-0.7,0.6-1.2,0.7
				C47,60.2,46.3,60.3,45.6,60.3z M43.8,50.1c-0.3,0-0.6-0.1-0.8-0.2c-0.2-0.2-0.2-0.4-0.2-0.8c0-0.3,0.1-0.6,0.2-0.7
				s0.4-0.2,0.8-0.2c0.4,0,0.6,0.1,0.8,0.2c0.2,0.2,0.2,0.4,0.2,0.7c0,0.3-0.1,0.6-0.2,0.7S44.2,50.1,43.8,50.1z M47.3,50.1
				c-0.4,0-0.6-0.1-0.8-0.2c-0.2-0.2-0.2-0.4-0.2-0.8c0-0.3,0.1-0.6,0.2-0.7s0.4-0.2,0.8-0.2c0.3,0,0.6,0.1,0.8,0.2
				c0.2,0.2,0.2,0.4,0.2,0.7c0,0.3-0.1,0.6-0.2,0.7S47.6,50.1,47.3,50.1z"/>
		</g>
		<g>
			
				<line fill="none" stroke="#FFFFFF" stroke-width="3" stroke-linecap="round" stroke-linejoin="round" stroke-miterlimit="10" x1="13.5" y1="41.2" x2="47.5" y2="41.2"/>
			
				<line fill="none" stroke="#FFFFFF" stroke-width="3" stroke-linecap="round" stroke-linejoin="round" stroke-miterlimit="10" x1="13.5" y1="30" x2="47.5" y2="30"/>
			
				<line fill="none" stroke="#FFFFFF" stroke-width="3" stroke-linecap="round" stroke-linejoin="round" stroke-miterlimit="10" x1="13.5" y1="18.7" x2="47.5" y2="18.7"/>
		</g>
	</g>
</g>
<g id="suche" display="none">
	<g display="inline">
		<g>
			<rect x="0" y="49.6" fill="none" width="61" height="15.3"/>
			<path fill="#FFFFFF" d="M12,60.3c-0.2,0-0.5,0-0.8,0c-0.3,0-0.6,0-0.9-0.1c-0.3,0-0.6-0.1-0.9-0.1s-0.6-0.1-0.8-0.2v-1.5
				c0.6,0.1,1.2,0.2,1.7,0.3c0.5,0.1,1,0.1,1.5,0.1c1.3,0,2-0.4,2-1.2c0-0.2,0-0.4-0.1-0.6c-0.1-0.2-0.2-0.3-0.4-0.4
				s-0.4-0.2-0.6-0.3c-0.2-0.1-0.5-0.2-0.8-0.2c-0.5-0.1-1-0.3-1.4-0.4s-0.7-0.4-1-0.6c-0.3-0.2-0.4-0.5-0.6-0.8
				c-0.1-0.3-0.2-0.7-0.2-1.1c0-0.4,0.1-0.8,0.3-1.2c0.2-0.3,0.4-0.6,0.7-0.9s0.7-0.4,1.1-0.6c0.4-0.1,1-0.2,1.5-0.2
				c0.4,0,0.8,0,1.2,0.1c0.4,0.1,0.9,0.1,1.6,0.3v1.5c-0.4-0.1-0.9-0.2-1.3-0.3c-0.5-0.1-0.9-0.1-1.3-0.1c-0.6,0-1.1,0.1-1.4,0.3
				c-0.3,0.2-0.5,0.5-0.5,0.9c0,0.2,0,0.4,0.1,0.5c0.1,0.2,0.2,0.3,0.3,0.4c0.2,0.1,0.4,0.2,0.6,0.3s0.6,0.2,0.9,0.3
				c0.5,0.1,0.9,0.2,1.3,0.4c0.4,0.1,0.7,0.3,0.9,0.5c0.3,0.2,0.5,0.5,0.6,0.8s0.2,0.7,0.2,1.1c0,0.9-0.3,1.6-0.9,2.1
				S13.2,60.3,12,60.3z"/>
			<path fill="#FFFFFF" d="M21.2,60.3c-0.8,0-1.4-0.1-1.9-0.2c-0.5-0.2-1-0.4-1.3-0.7c-0.3-0.3-0.6-0.8-0.7-1.3
				c-0.1-0.5-0.2-1.1-0.2-1.8v-5.7h1.8v5.7c0,0.9,0.2,1.5,0.6,1.9c0.4,0.4,1,0.6,1.8,0.6c0.8,0,1.4-0.2,1.8-0.6
				c0.4-0.4,0.6-1,0.6-1.9v-5.7h1.8v5.7c0,0.7-0.1,1.3-0.2,1.8c-0.2,0.5-0.4,0.9-0.7,1.3c-0.3,0.3-0.8,0.6-1.3,0.7
				C22.6,60.2,22,60.3,21.2,60.3z"/>
			<path fill="#FFFFFF" d="M31.5,60.3c-1.6,0-2.7-0.4-3.5-1.2s-1.1-2.1-1.1-3.7s0.4-2.9,1.1-3.7c0.8-0.8,1.9-1.2,3.4-1.2
				c0.3,0,0.6,0,1,0.1c0.4,0,0.8,0.1,1.2,0.2v1.5C33.4,52,33.2,52,33,52c-0.2,0-0.4,0-0.5-0.1c-0.2,0-0.3,0-0.4,0
				c-0.1,0-0.3,0-0.4,0c-0.5,0-1,0.1-1.3,0.2c-0.4,0.1-0.7,0.3-0.9,0.6c-0.2,0.3-0.4,0.6-0.5,1.1s-0.2,1-0.2,1.6
				c0,0.6,0.1,1.2,0.2,1.6s0.3,0.8,0.5,1.1c0.2,0.3,0.5,0.5,0.9,0.6c0.4,0.1,0.8,0.2,1.3,0.2c0.1,0,0.3,0,0.5,0c0.2,0,0.4,0,0.6,0
				c0.2,0,0.4,0,0.6-0.1c0.2,0,0.3-0.1,0.4-0.1V60c-0.3,0.1-0.7,0.1-1,0.2C32.2,60.2,31.9,60.3,31.5,60.3z"/>
			<path fill="#FFFFFF" d="M35.1,50.5H37v4h4.7v-4h1.8v9.6h-1.8v-4.2H37v4.2h-1.8V50.5z"/>
			<path fill="#FFFFFF" d="M45.5,50.5h6.7V52h-4.8v2.6h4.4V56h-4.4v2.7h4.9v1.5h-6.8V50.5z"/>
		</g>
		<g>
			<circle fill="none" stroke="#FFFFFF" stroke-width="2" stroke-miterlimit="10" cx="24.7" cy="25.6" r="10.7"/>
			
				<line fill="none" stroke="#FFFFFF" stroke-width="3" stroke-linecap="round" stroke-miterlimit="10" x1="33.4" y1="32.4" x2="46.1" y2="42.1"/>
			
				<line fill="none" stroke="#FFFFFF" stroke-width="4" stroke-linecap="round" stroke-miterlimit="10" x1="40" y1="37.9" x2="46" y2="42.9"/>
		</g>
	</g>
</g>
<g id="filiale">
	<g>
		<g>
			<polygon fill="#FFFFFF" points="38.8,30.5 30.5,44.2 22.3,30.6 			"/>
			<path fill="#FFFFFF" d="M30.5,15.4c-5.4,0-9.8,4.4-9.8,9.8c0,2,0.6,3.8,1.6,5.3c1.7,2.7,4.8,4.5,8.2,4.5c3.5,0,6.5-1.8,8.3-4.5
				c1-1.5,1.5-3.3,1.5-5.3C40.3,19.8,35.9,15.4,30.5,15.4z M30.5,27.9c-1.4,0-2.6-1.2-2.6-2.6c0-1.4,1.2-2.6,2.6-2.6
				c1.4,0,2.6,1.2,2.6,2.6C33.1,26.7,31.9,27.9,30.5,27.9z"/>
		</g>
		<g>
			<rect y="49.8" fill="none" width="61" height="15.3"/>
			<path fill="#FFFFFF" d="M7.5,50.6h6.6v1.5H9.4v2.8h4.3v1.5H9.4v3.9H7.5V50.6z"/>
			<path fill="#FFFFFF" d="M15.5,50.6h1.8v9.6h-1.8V50.6z"/>
			<path fill="#FFFFFF" d="M19.4,50.6h1.8v8.2h4.2v1.4h-6.1V50.6z"/>
			<path fill="#FFFFFF" d="M26.7,50.6h1.8v9.6h-1.8V50.6z"/>
			<path fill="#FFFFFF" d="M29.6,60.2l3.3-9.5h2.7l3.3,9.5v0.1h-1.8l-0.9-2.5h-4l-0.9,2.5h-1.8V60.2z M35.7,56.3l-0.9-2.5l-0.6-1.8
				h-0.2l-0.6,1.8l-0.9,2.5H35.7z"/>
			<path fill="#FFFFFF" d="M39.9,50.6h1.8v8.2H46v1.4h-6.1V50.6z"/>
			<path fill="#FFFFFF" d="M47.1,50.6h6.7v1.5H49v2.6h4.4v1.5H49v2.7h4.9v1.5h-6.8V50.6z"/>
		</g>
	</g>
</g>
</svg>
