<?xml version="1.0" encoding="utf-8"?>
<!-- Generator: Adobe Illustrator 19.0.1, SVG Export Plug-In . SVG Version: 6.00 Build 0)  -->
<svg version="1.2" baseProfile="tiny" id="Ebene_1" xmlns="http://www.w3.org/2000/svg" xmlns:xlink="http://www.w3.org/1999/xlink"
	 x="0px" y="0px" viewBox="0 0 114 67" xml:space="preserve">
<path fill="#FFFFFF" d="M103.4,67C110,57.7,114,46.2,114,33.8c0-12.4-4-23.8-10.7-33.2H10.7C4,10,0,21.5,0,33.8
	C0,46.2,4,57.7,10.6,67H103.4z"/>
<g>
	<linearGradient id="SVGID_1_" gradientUnits="userSpaceOnUse" x1="57" y1="52.3012" x2="57" y2="15.3967">
		<stop  offset="0" style="stop-color:#004586"/>
		<stop  offset="0.1952" style="stop-color:#156BB2"/>
		<stop  offset="0.2151" style="stop-color:#176FB7"/>
		<stop  offset="0.2479" style="stop-color:#0E80BF"/>
		<stop  offset="0.292" style="stop-color:#068FC6"/>
		<stop  offset="0.3443" style="stop-color:#0197CA"/>
		<stop  offset="0.4247" style="stop-color:#009ACB"/>
		<stop  offset="0.4311" style="stop-color:#018ABC"/>
		<stop  offset="0.4443" style="stop-color:#026DA1"/>
		<stop  offset="0.4576" style="stop-color:#02598E"/>
		<stop  offset="0.4708" style="stop-color:#034D83"/>
		<stop  offset="0.4839" style="stop-color:#03497F"/>
		<stop  offset="0.5136" style="stop-color:#083C73"/>
		<stop  offset="0.5686" style="stop-color:#0F2B63"/>
		<stop  offset="0.6371" style="stop-color:#142058"/>
		<stop  offset="0.7332" style="stop-color:#171952"/>
		<stop  offset="1" style="stop-color:#181750"/>
	</linearGradient>
	<path fill="url(#SVGID_1_)" d="M87.4,15.4H38.8c-0.1,0-0.1,0-0.2,0c-0.1,0-0.1,0-0.2,0c-0.1,0-0.3,0-0.4,0.1c0,0,0,0,0,0
		c-10.7,1.3-15.6,10.4-15.6,18.4c0,9.8,6.6,17.4,16,18.4c0.1,0,0.3,0,0.4,0c0,0,0,0,0,0h47.4c2.4,0,4.3-1.9,4.3-4.3
		s-1.9-4.3-4.3-4.3H39.1c-6.1-0.7-8.2-5.7-8.2-9.9c0-4.5,2.6-9.4,8.2-10h48.3c2.4,0,4.3-1.9,4.3-4.3S89.8,15.4,87.4,15.4z"/>
	<linearGradient id="SVGID_2_" gradientUnits="userSpaceOnUse" x1="62.4957" y1="38.1071" x2="62.4957" y2="29.5907">
		<stop  offset="0" style="stop-color:#004586"/>
		<stop  offset="0.1952" style="stop-color:#156BB2"/>
		<stop  offset="0.2151" style="stop-color:#176FB7"/>
		<stop  offset="0.2479" style="stop-color:#0E80BF"/>
		<stop  offset="0.292" style="stop-color:#068FC6"/>
		<stop  offset="0.3443" style="stop-color:#0197CA"/>
		<stop  offset="0.4247" style="stop-color:#009ACB"/>
		<stop  offset="0.4311" style="stop-color:#018ABC"/>
		<stop  offset="0.4443" style="stop-color:#026DA1"/>
		<stop  offset="0.4576" style="stop-color:#02598E"/>
		<stop  offset="0.4708" style="stop-color:#034D83"/>
		<stop  offset="0.4839" style="stop-color:#03497F"/>
		<stop  offset="0.5136" style="stop-color:#083C73"/>
		<stop  offset="0.5686" style="stop-color:#0F2B63"/>
		<stop  offset="0.6371" style="stop-color:#142058"/>
		<stop  offset="0.7332" style="stop-color:#171952"/>
		<stop  offset="1" style="stop-color:#181750"/>
	</linearGradient>
	<path fill="url(#SVGID_2_)" d="M86.2,29.6H38.8c-2.4,0-4.3,1.9-4.3,4.3s1.9,4.3,4.3,4.3h47.4c2.4,0,4.3-1.9,4.3-4.3
		S88.6,29.6,86.2,29.6z"/>
</g>
<g>
</g>
<g>
</g>
<g>
</g>
<g>
</g>
<g>
</g>
<g>
</g>
<g>
</g>
<g>
</g>
<g>
</g>
<g>
</g>
<g>
</g>
</svg>
