<svg id="bestellprozess_step1_active" xmlns="http://www.w3.org/2000/svg" viewBox="0 0 1090.03 52.59"><defs><style>.cls-1,.cls-2{fill:#3d3d3d;}.cls-1,.cls-3{stroke:#3d3d3d;stroke-miterlimit:10;}.cls-3{fill:#666;}.cls-4{fill:gray;}.cls-5{fill:#ea5901;}</style></defs><title>bestellprozess_step4_active</title><path class="cls-1" d="M1089.37,49.62" transform="translate(0.03 -6.76)"/><path class="cls-2" d="M1051.8,45.8c-13.62,0-26.65-.09-38.82-0.18-15.79-.11-30.71-0.22-44.7-0.12-180,1.26-229.65-3.9-273.43-8.46C623.56,29.62,562,23.21,0,44.5l0-1C562,22.21,623.62,28.62,694.94,36c43.75,4.56,93.36,9.73,273.32,8.45,14-.1,28.92,0,44.72.12,23.18,0.17,49.45.35,77-.12l0,1C1076.91,45.73,1064.11,45.8,1051.8,45.8Z" transform="translate(0.03 -6.76)"/><path class="cls-3" d="M55.29,49.62" transform="translate(0.03 -6.76)"/><path class="cls-4" d="M63.19,33.9a7.78,7.78,0,1,1,8.11,7.43A7.8,7.8,0,0,1,63.19,33.9Zm2.13-.09a5.65,5.65,0,1,0,5.39-5.89A5.65,5.65,0,0,0,65.32,33.81Z" transform="translate(0.03 -6.76)"/><path class="cls-4" d="M38.61,34.68a7.78,7.78,0,1,1,8.11,7.43A7.79,7.79,0,0,1,38.61,34.68Zm2.13-.11a5.65,5.65,0,1,0,5.39-5.89A5.65,5.65,0,0,0,40.74,34.57Z" transform="translate(0.03 -6.76)"/><path class="cls-4" d="M54,34.22a2.83,2.83,0,1,1,3,2.7A2.83,2.83,0,0,1,54,34.22Zm1.53-.07a1.3,1.3,0,1,0,1.24-1.36A1.3,1.3,0,0,0,55.48,34.16Z" transform="translate(0.03 -6.76)"/><path class="cls-4" d="M58,33.56a0.76,0.76,0,0,1,0-1.08l7.6-7.57A0.77,0.77,0,1,1,66.69,26l-7.6,7.57a0.77,0.77,0,0,1-.51.22A0.8,0.8,0,0,1,58,33.56Z" transform="translate(0.03 -6.76)"/><path class="cls-4" d="M55.08,32.24l-4-9a0.76,0.76,0,0,1,1.39-.61l4,9a0.76,0.76,0,0,1-.39,1,0.85,0.85,0,0,1-.28.06A0.72,0.72,0,0,1,55.08,32.24Z" transform="translate(0.03 -6.76)"/><path class="cls-4" d="M65.88,26.83c-1.16-3.68-2-7.48-2-7.52a0.77,0.77,0,0,1,1.5-.32s0.78,3.75,1.92,7.37c2.13,6.69,3.46,6.58,3.51,6.58a0.76,0.76,0,0,1,.22,1.51,0.68,0.68,0,0,1-.18,0C69.14,34.56,67.6,32.17,65.88,26.83Z" transform="translate(0.03 -6.76)"/><path class="cls-4" d="M68.1,20.75l-7.28-2.13a0.76,0.76,0,1,1,.42-1.47l7.28,2.13a0.76,0.76,0,0,1,.52.94,0.75,0.75,0,0,1-.69.55A1.29,1.29,0,0,1,68.1,20.75Z" transform="translate(0.03 -6.76)"/><path class="cls-4" d="M46.81,23.18a0.92,0.92,0,0,1,.87-1L55,21.91a0.92,0.92,0,0,1,.08,1.83l-7.32.32A0.92,0.92,0,0,1,46.81,23.18Z" transform="translate(0.03 -6.76)"/><path class="cls-4" d="M57.35,32.59a0.31,0.31,0,0,1-.17-0.39l1-2.33a0.3,0.3,0,1,1,.56.23l-1,2.33a0.31,0.31,0,0,1-.27.2Z" transform="translate(0.03 -6.76)"/><path class="cls-4" d="M57,29.89a0.3,0.3,0,0,1,.29-0.31l2-.09a0.3,0.3,0,0,1,0,.6l-2,.09A0.3,0.3,0,0,1,57,29.89Z" transform="translate(0.03 -6.76)"/><path class="cls-4" d="M55.24,38.18a0.32,0.32,0,0,1-.15-0.41l1-2.31a0.31,0.31,0,0,1,.56.26l-1,2.31a0.3,0.3,0,0,1-.26.18Z" transform="translate(0.03 -6.76)"/><path class="cls-4" d="M56.46,38.33l-2,0a0.31,0.31,0,0,1,0-.62l2,0a0.31,0.31,0,0,1,.31.3,0.3,0.3,0,0,1-.29.31h0Z" transform="translate(0.03 -6.76)"/><path class="cls-4" d="M20.44,59.23H18.37l-2-3.58-0.68.51v3.08H13.88V50.62h1.83v4.15l0.72-1.22,2-2.93h2L17.67,54.5Z" transform="translate(0.03 -6.76)"/><path class="cls-4" d="M28.05,50.62v5.57a3.73,3.73,0,0,1-.2,1.25,2.69,2.69,0,0,1-.62,1,2.9,2.9,0,0,1-1,.67,4.05,4.05,0,0,1-1.47.24,4,4,0,0,1-1.41-.23,2.73,2.73,0,0,1-1-.64,2.76,2.76,0,0,1-.62-1,3.81,3.81,0,0,1-.21-1.3V50.62h1.82V56a3.08,3.08,0,0,0,.09.82,1.41,1.41,0,0,0,.28.55,1.09,1.09,0,0,0,.46.31,1.89,1.89,0,0,0,.65.1,1.32,1.32,0,0,0,1.12-.45A2.19,2.19,0,0,0,26.23,56v-5.4h1.82Z" transform="translate(0.03 -6.76)"/><path class="cls-4" d="M37.44,59.23H35.13l-3.39-6.52H31.68q0,0.45.06,0.9c0,0.26,0,.52,0,0.8s0,0.53,0,.76v4.05H30.16V50.62h2.3l3.38,6.45h0q0-.45,0-0.88c0-.13,0-0.25,0-0.39s0-.26,0-0.4,0-.26,0-0.38,0-.23,0-0.33V50.62h1.64v8.61Z" transform="translate(0.03 -6.76)"/><path class="cls-4" d="M46.28,54.84a5.61,5.61,0,0,1-.3,1.91A3.46,3.46,0,0,1,43.74,59a5.75,5.75,0,0,1-1.86.28H39.61V50.62h2.52a5.09,5.09,0,0,1,1.71.27,3.5,3.5,0,0,1,1.31.8A3.56,3.56,0,0,1,46,53,5.26,5.26,0,0,1,46.28,54.84Zm-1.85,0a4.69,4.69,0,0,0-.14-1.24,2.38,2.38,0,0,0-.42-0.86,1.67,1.67,0,0,0-.67-0.51,2.35,2.35,0,0,0-.91-0.17H41.44v5.61h0.67A2.11,2.11,0,0,0,43.85,57,3.3,3.3,0,0,0,44.43,54.89Z" transform="translate(0.03 -6.76)"/><path class="cls-4" d="M53,59.23h-5V50.62h5v1.5H49.89V54h2.92v1.5H49.89v2.22H53v1.51Z" transform="translate(0.03 -6.76)"/><path class="cls-4" d="M62.1,59.23H59.78L56.4,52.72H56.34q0,0.45.06,0.9c0,0.26,0,.52,0,0.8s0,0.53,0,.76v4.05H54.82V50.62h2.3l3.38,6.45h0q0-.45,0-0.88c0-.13,0-0.25,0-0.39s0-.26,0-0.4,0-.26,0-0.38,0-.23,0-0.33V50.62H62.1v8.61Z" transform="translate(0.03 -6.76)"/><path class="cls-4" d="M70.84,59.23H68.76l-2-3.58-0.68.51v3.08H64.27V50.62H66.1v4.15l0.72-1.22,2-2.93h2L68.06,54.5Z" transform="translate(0.03 -6.76)"/><path class="cls-4" d="M79,54.92a6.62,6.62,0,0,1-.23,1.81,3.85,3.85,0,0,1-.71,1.4,3.17,3.17,0,0,1-1.21.9,4.79,4.79,0,0,1-3.44,0,3.14,3.14,0,0,1-1.2-.9,3.86,3.86,0,0,1-.71-1.41,7.23,7.23,0,0,1,0-3.64,3.78,3.78,0,0,1,.71-1.39,3.17,3.17,0,0,1,1.2-.89,4.84,4.84,0,0,1,3.44,0,3.14,3.14,0,0,1,1.2.9,3.85,3.85,0,0,1,.71,1.4A6.64,6.64,0,0,1,79,54.92Zm-5.85,0a5.71,5.71,0,0,0,.12,1.22,2.72,2.72,0,0,0,.36.91,1.69,1.69,0,0,0,.62.57,1.83,1.83,0,0,0,.88.2,1.88,1.88,0,0,0,.9-0.2A1.64,1.64,0,0,0,76.67,57,2.76,2.76,0,0,0,77,56.13a6.5,6.5,0,0,0,0-2.43,2.8,2.8,0,0,0-.35-0.92,1.64,1.64,0,0,0-.61-0.58,1.85,1.85,0,0,0-.89-0.2,1.87,1.87,0,0,0-.89.2,1.67,1.67,0,0,0-.62.58,2.75,2.75,0,0,0-.36.92A5.71,5.71,0,0,0,73.18,54.92Z" transform="translate(0.03 -6.76)"/><path class="cls-4" d="M88.08,59.23H85.76l-3.39-6.52H82.32q0,0.45.06,0.9c0,0.26,0,.52,0,0.8s0,0.53,0,.76v4.05H80.8V50.62h2.3l3.38,6.45h0q0-.45,0-0.88c0-.13,0-0.25,0-0.39s0-.26,0-0.4,0-.26,0-0.38,0-.23,0-0.33V50.62h1.64v8.61Z" transform="translate(0.03 -6.76)"/><path class="cls-4" d="M93.39,59.23H91.57V52.14H89.41V50.62h6.14v1.52H93.39v7.09Z" transform="translate(0.03 -6.76)"/><path class="cls-4" d="M103.86,54.92a6.62,6.62,0,0,1-.23,1.81,3.85,3.85,0,0,1-.71,1.4,3.17,3.17,0,0,1-1.21.9,4.79,4.79,0,0,1-3.44,0,3.14,3.14,0,0,1-1.2-.9,3.86,3.86,0,0,1-.71-1.41,7.23,7.23,0,0,1,0-3.64,3.78,3.78,0,0,1,.71-1.39,3.17,3.17,0,0,1,1.2-.89,4.84,4.84,0,0,1,3.44,0,3.14,3.14,0,0,1,1.2.9,3.85,3.85,0,0,1,.71,1.4A6.64,6.64,0,0,1,103.86,54.92Zm-5.85,0a5.71,5.71,0,0,0,.12,1.22,2.72,2.72,0,0,0,.36.91,1.69,1.69,0,0,0,.62.57,1.83,1.83,0,0,0,.88.2,1.88,1.88,0,0,0,.9-0.2A1.64,1.64,0,0,0,101.5,57a2.76,2.76,0,0,0,.35-0.91,6.5,6.5,0,0,0,0-2.43,2.8,2.8,0,0,0-.35-0.92,1.64,1.64,0,0,0-.61-0.58A1.85,1.85,0,0,0,100,52a1.87,1.87,0,0,0-.89.2,1.67,1.67,0,0,0-.62.58,2.75,2.75,0,0,0-.36.92A5.71,5.71,0,0,0,98,54.92Z" transform="translate(0.03 -6.76)"/><path class="cls-4" d="M387.41,23.6a7.8,7.8,0,1,1,8.1,7.49A7.82,7.82,0,0,1,387.41,23.6Zm2.14-.08A5.66,5.66,0,1,0,395,17.64,5.67,5.67,0,0,0,389.54,23.52Z" transform="translate(0.03 -6.76)"/><path class="cls-4" d="M362.75,24.26a7.8,7.8,0,1,1,8.1,7.49A7.81,7.81,0,0,1,362.75,24.26Zm2.14-.1a5.66,5.66,0,1,0,5.44-5.88A5.67,5.67,0,0,0,364.89,24.16Z" transform="translate(0.03 -6.76)"/><path class="cls-4" d="M378.14,23.88a2.84,2.84,0,1,1,2.95,2.73A2.84,2.84,0,0,1,378.14,23.88Zm1.54-.06a1.3,1.3,0,1,0,1.25-1.35A1.3,1.3,0,0,0,379.67,23.82Z" transform="translate(0.03 -6.76)"/><path class="cls-4" d="M382.21,23.24a0.77,0.77,0,0,1,0-1.09l7.66-7.55A0.77,0.77,0,1,1,391,15.69l-7.66,7.55a0.78,0.78,0,0,1-.51.22A0.8,0.8,0,0,1,382.21,23.24Z" transform="translate(0.03 -6.76)"/><path class="cls-4" d="M379.28,21.9l-4-9.09a0.76,0.76,0,0,1,1.4-.61l4,9.09a0.76,0.76,0,0,1-.4,1,0.85,0.85,0,0,1-.28.06A0.72,0.72,0,0,1,379.28,21.9Z" transform="translate(0.03 -6.76)"/><path class="cls-4" d="M390.14,16.53C389,12.83,388.21,9,388.21,9a0.77,0.77,0,0,1,1.51-.31c0,0.05.76,3.77,1.89,7.4,2.1,6.72,3.43,6.62,3.48,6.62a0.76,0.76,0,0,1,.21,1.51,0.69,0.69,0,0,1-.18,0C393.37,24.29,391.84,21.89,390.14,16.53Z" transform="translate(0.03 -6.76)"/><path class="cls-4" d="M392.39,10.44L385.1,8.26a0.77,0.77,0,1,1,.43-1.47L392.82,9a0.77,0.77,0,0,1,.52.95,0.75,0.75,0,0,1-.7.55A1.29,1.29,0,0,1,392.39,10.44Z" transform="translate(0.03 -6.76)"/><path class="cls-4" d="M371,12.77a0.93,0.93,0,0,1,.88-1l7.35-.29a0.92,0.92,0,0,1,.07,1.84l-7.35.29A0.93,0.93,0,0,1,371,12.77Z" transform="translate(0.03 -6.76)"/><path class="cls-4" d="M381.55,22.26a0.31,0.31,0,0,1-.17-0.39l1-2.33a0.3,0.3,0,0,1,.56.23l-1,2.33a0.31,0.31,0,0,1-.28.19Z" transform="translate(0.03 -6.76)"/><path class="cls-4" d="M381.26,19.55a0.3,0.3,0,0,1,.29-0.31l2-.08a0.3,0.3,0,0,1,0,.6l-2,.08A0.3,0.3,0,0,1,381.26,19.55Z" transform="translate(0.03 -6.76)"/><path class="cls-4" d="M379.41,27.86a0.32,0.32,0,0,1-.15-0.41l1-2.31a0.31,0.31,0,1,1,.56.26l-1,2.31a0.3,0.3,0,0,1-.26.18Z" transform="translate(0.03 -6.76)"/><path class="cls-4" d="M380.64,28l-2,0a0.31,0.31,0,0,1,0-.62l2,0a0.31,0.31,0,0,1,.31.31,0.3,0.3,0,0,1-.29.31h0Z" transform="translate(0.03 -6.76)"/><path class="cls-4" d="M333.12,58.73l-0.62-2.16h-3.13l-0.63,2.16h-1.94l2.95-9.1h2.35l3,9.1h-1.94ZM332.06,55l-0.58-2-0.11-.37-0.16-.56c-0.06-.21-0.11-0.41-0.16-0.62s-0.08-.38-0.11-0.53c0,0.09,0,.2-0.06.32s-0.06.26-.09,0.39l-0.11.42-0.11.4-0.09.33-0.06.21-0.58,2h2.21Z" transform="translate(0.03 -6.76)"/><path class="cls-4" d="M343.22,54.11a5.9,5.9,0,0,1-.31,2,3.65,3.65,0,0,1-2.36,2.32,6.07,6.07,0,0,1-2,.29h-2.39V49.67h2.65a5.38,5.38,0,0,1,1.8.29,3.7,3.7,0,0,1,1.37.85,3.74,3.74,0,0,1,.88,1.39A5.53,5.53,0,0,1,343.22,54.11Zm-1.95,0a5,5,0,0,0-.15-1.31,2.51,2.51,0,0,0-.44-0.91,1.76,1.76,0,0,0-.71-0.53,2.49,2.49,0,0,0-1-.17h-0.89v5.9h0.71a2.23,2.23,0,0,0,1.83-.74A3.47,3.47,0,0,0,341.27,54.16Z" transform="translate(0.03 -6.76)"/><path class="cls-4" d="M347,55.25v3.48H345.1V49.67h2.48a4.06,4.06,0,0,1,2.57.67,2.47,2.47,0,0,1,.83,2,2.7,2.7,0,0,1-.12.84,2.53,2.53,0,0,1-.33.67,2.58,2.58,0,0,1-.48.51,3.07,3.07,0,0,1-.57.37l1.23,2,0.46,0.73,0.39,0.63,0.29,0.45L352,58.73h-2.13l-2-3.48H347Zm0-1.56h0.52a1.67,1.67,0,0,0,1.15-.32,1.21,1.21,0,0,0,.35-0.94,1.06,1.06,0,0,0-.37-0.92,2,2,0,0,0-1.15-.27H347v2.45Z" transform="translate(0.03 -6.76)"/><path class="cls-4" d="M358.32,58.73H353.1V49.67h5.22v1.58H355v2h3.07v1.57H355v2.34h3.3v1.59Z" transform="translate(0.03 -6.76)"/><path class="cls-4" d="M365.18,56.22a2.76,2.76,0,0,1-.21,1.09,2.24,2.24,0,0,1-.61.83,2.77,2.77,0,0,1-1,.53,4.32,4.32,0,0,1-1.33.19,5.8,5.8,0,0,1-1.27-.14,4.54,4.54,0,0,1-1.13-.41V56.53l0.6,0.28c0.2,0.09.41,0.17,0.62,0.24a5,5,0,0,0,.63.17,3.22,3.22,0,0,0,.62.06,1.81,1.81,0,0,0,.54-0.07A1,1,0,0,0,363,57a0.76,0.76,0,0,0,.2-0.3,1.11,1.11,0,0,0,.06-0.39,0.91,0.91,0,0,0-.11-0.45,1.37,1.37,0,0,0-.3-0.37,3.19,3.19,0,0,0-.47-0.33l-0.62-.34-0.64-.36a3.41,3.41,0,0,1-.67-0.52,2.68,2.68,0,0,1-.52-0.76,2.46,2.46,0,0,1-.21-1.06A2.79,2.79,0,0,1,360,51a2.23,2.23,0,0,1,.57-0.81,2.51,2.51,0,0,1,.9-0.5,3.79,3.79,0,0,1,1.19-.17,4.77,4.77,0,0,1,.64,0,5.42,5.42,0,0,1,.62.12,6,6,0,0,1,.62.2l0.64,0.27-0.62,1.49L364,51.44l-0.47-.17a3.3,3.3,0,0,0-.45-0.1,2.93,2.93,0,0,0-.44,0,1,1,0,0,0-.74.26,0.92,0.92,0,0,0-.26.68,1,1,0,0,0,.08.41,1,1,0,0,0,.25.33,2.74,2.74,0,0,0,.44.32l0.65,0.37q0.47,0.25.86,0.5a3.52,3.52,0,0,1,.67.57,2.32,2.32,0,0,1,.44.71A2.55,2.55,0,0,1,365.18,56.22Z" transform="translate(0.03 -6.76)"/><path class="cls-4" d="M371.83,56.22a2.76,2.76,0,0,1-.21,1.09,2.24,2.24,0,0,1-.61.83,2.77,2.77,0,0,1-1,.53,4.32,4.32,0,0,1-1.33.19,5.8,5.8,0,0,1-1.27-.14,4.54,4.54,0,0,1-1.13-.41V56.53l0.6,0.28c0.2,0.09.41,0.17,0.62,0.24a5,5,0,0,0,.63.17,3.22,3.22,0,0,0,.62.06,1.81,1.81,0,0,0,.54-0.07,1,1,0,0,0,.37-0.2,0.76,0.76,0,0,0,.2-0.3,1.11,1.11,0,0,0,.06-0.39,0.91,0.91,0,0,0-.11-0.45,1.37,1.37,0,0,0-.3-0.37,3.19,3.19,0,0,0-.47-0.33l-0.62-.34-0.64-.36a3.41,3.41,0,0,1-.67-0.52,2.68,2.68,0,0,1-.52-0.76,2.46,2.46,0,0,1-.21-1.06,2.79,2.79,0,0,1,.2-1.09,2.23,2.23,0,0,1,.57-0.81,2.51,2.51,0,0,1,.9-0.5,3.79,3.79,0,0,1,1.19-.17,4.77,4.77,0,0,1,.64,0,5.42,5.42,0,0,1,.62.12,6,6,0,0,1,.62.2l0.64,0.27-0.62,1.49-0.52-.23-0.47-.17a3.3,3.3,0,0,0-.45-0.1,2.93,2.93,0,0,0-.44,0,1,1,0,0,0-.74.26,0.92,0.92,0,0,0-.26.68,1,1,0,0,0,.08.41,1,1,0,0,0,.25.33,2.74,2.74,0,0,0,.44.32l0.65,0.37q0.47,0.25.86,0.5a3.52,3.52,0,0,1,.67.57,2.32,2.32,0,0,1,.44.71A2.55,2.55,0,0,1,371.83,56.22Z" transform="translate(0.03 -6.76)"/><path class="cls-4" d="M378.74,58.73h-5.22V49.67h5.22v1.58h-3.3v2h3.07v1.57h-3.07v2.34h3.3v1.59Z" transform="translate(0.03 -6.76)"/><path class="cls-4" d="M384.67,49.67l-3.38,9.07h-1.72L383,49.67h1.72Z" transform="translate(0.03 -6.76)"/><path class="cls-4" d="M391.28,58.73H385V57.49l3.84-6.23h-3.72V49.67h6v1.24l-3.83,6.24h3.95v1.59Z" transform="translate(0.03 -6.76)"/><path class="cls-4" d="M397.9,58.73l-0.62-2.16h-3.13l-0.63,2.16h-1.94l2.95-9.1h2.35l3,9.1H397.9ZM396.83,55l-0.58-2-0.11-.37L396,52.05c-0.06-.21-0.11-0.41-0.16-0.62s-0.08-.38-0.11-0.53c0,0.09,0,.2-0.06.32s-0.06.26-.09,0.39l-0.11.42-0.11.4-0.09.33-0.06.21-0.58,2h2.21Z" transform="translate(0.03 -6.76)"/><path class="cls-4" d="M407.9,58.73H406V54.82H402.9v3.91H401V49.67h1.92v3.55H406V49.67h1.92v9.07Z" transform="translate(0.03 -6.76)"/><path class="cls-4" d="M410.19,58.73V49.67h1.92v7.48h3.3v1.59h-5.22Z" transform="translate(0.03 -6.76)"/><path class="cls-4" d="M422.15,58.73l-0.62-2.16h-3.13l-0.63,2.16h-1.94l2.95-9.1h2.35l3,9.1h-1.94ZM421.09,55l-0.58-2-0.11-.37-0.16-.56c-0.06-.21-0.11-0.41-0.16-0.62S420,51.05,420,50.91c0,0.09,0,.2-0.06.32s-0.06.26-.09,0.39l-0.11.42-0.11.4-0.09.33-0.06.21-0.58,2h2.21Z" transform="translate(0.03 -6.76)"/><path class="cls-4" d="M427.16,55.25v3.48h-1.92V49.67h2.48a4.06,4.06,0,0,1,2.57.67,2.47,2.47,0,0,1,.83,2,2.7,2.7,0,0,1-.12.84,2.53,2.53,0,0,1-.33.67,2.58,2.58,0,0,1-.48.51,3.07,3.07,0,0,1-.57.37l1.23,2,0.46,0.73,0.39,0.63L432,58.56l0.11,0.17H430l-2-3.48h-0.84Zm0-1.56h0.52a1.67,1.67,0,0,0,1.15-.32,1.21,1.21,0,0,0,.35-0.94,1.06,1.06,0,0,0-.37-0.92,2,2,0,0,0-1.15-.27h-0.49v2.45Z" transform="translate(0.03 -6.76)"/><path class="cls-4" d="M436.42,58.73H434.5V51.27h-2.28v-1.6h6.46v1.6h-2.27v7.47Z" transform="translate(0.03 -6.76)"/><path class="cls-4" d="M712.91,30.62A7.68,7.68,0,1,1,720,38.88,7.7,7.7,0,0,1,712.91,30.62Zm2.1,0.16a5.58,5.58,0,1,0,6-5.12A5.58,5.58,0,0,0,715,30.78Z" transform="translate(0.03 -6.76)"/><path class="cls-4" d="M688.73,28.43a7.68,7.68,0,1,1,7.06,8.26A7.69,7.69,0,0,1,688.73,28.43Zm2.1,0.15a5.58,5.58,0,1,0,6-5.12A5.58,5.58,0,0,0,690.83,28.58Z" transform="translate(0.03 -6.76)"/><path class="cls-4" d="M703.82,29.82a2.8,2.8,0,1,1,2.57,3A2.79,2.79,0,0,1,703.82,29.82Zm1.51,0.12a1.28,1.28,0,1,0,1.38-1.18A1.28,1.28,0,0,0,705.32,29.94Z" transform="translate(0.03 -6.76)"/><path class="cls-4" d="M707.87,29.66A0.76,0.76,0,0,1,708,28.6l8.36-6.51a0.76,0.76,0,1,1,.93,1.19l-8.36,6.51a0.77,0.77,0,0,1-.52.16A0.79,0.79,0,0,1,707.87,29.66Z" transform="translate(0.03 -6.76)"/><path class="cls-4" d="M705.16,28l-2.86-9.35a0.75,0.75,0,0,1,1.44-.43l2.86,9.35a0.75,0.75,0,0,1-.5.93,0.84,0.84,0,0,1-.28,0A0.71,0.71,0,0,1,705.16,28Z" transform="translate(0.03 -6.76)"/><path class="cls-4" d="M716.4,24c-0.7-3.75-1-7.57-1-7.6a0.76,0.76,0,0,1,1.51-.13s0.32,3.77,1,7.45c1.28,6.82,2.6,6.87,2.65,6.87a0.75,0.75,0,0,1,0,1.5,0.67,0.67,0,0,1-.18,0C718.66,32,717.44,29.46,716.4,24Z" transform="translate(0.03 -6.76)"/><path class="cls-4" d="M719.3,18.32l-6.88-3A0.75,0.75,0,1,1,713,14l6.88,3a0.75,0.75,0,0,1,.4,1,0.74,0.74,0,0,1-.75.45A1.27,1.27,0,0,1,719.3,18.32Z" transform="translate(0.03 -6.76)"/><path class="cls-4" d="M698.15,18.14a0.91,0.91,0,0,1,1-.83l7.22,0.57a0.9,0.9,0,1,1-.14,1.8L699,19.12A0.91,0.91,0,0,1,698.15,18.14Z" transform="translate(0.03 -6.76)"/><path class="cls-4" d="M707.34,28.63a0.3,0.3,0,0,1-.12-0.41l1.23-2.16a0.3,0.3,0,0,1,.52.29l-1.23,2.16a0.3,0.3,0,0,1-.29.16Z" transform="translate(0.03 -6.76)"/><path class="cls-4" d="M707.37,25.94a0.29,0.29,0,0,1,.32-0.27l2,0.15a0.3,0.3,0,0,1,0,.59l-2-.15A0.29,0.29,0,0,1,707.37,25.94Z" transform="translate(0.03 -6.76)"/><path class="cls-4" d="M704.6,33.86a0.32,0.32,0,0,1-.1-0.42l1.27-2.14a0.31,0.31,0,1,1,.52.32L705,33.76a0.29,0.29,0,0,1-.28.14Z" transform="translate(0.03 -6.76)"/><path class="cls-4" d="M705.79,34.15l-2-.2a0.3,0.3,0,0,1,.06-0.61l1.95,0.2a0.31,0.31,0,0,1,.27.33,0.29,0.29,0,0,1-.32.27h0Z" transform="translate(0.03 -6.76)"/><path class="cls-4" d="M679.9,59h-2.18l-2.08-3.77-0.72.53V59H673V50h1.92v4.37L675.67,53,677.74,50h2.13L677,54Z" transform="translate(0.03 -6.76)"/><path class="cls-4" d="M688.51,54.48a7,7,0,0,1-.24,1.91,4.06,4.06,0,0,1-.75,1.48,3.32,3.32,0,0,1-1.27.95,5,5,0,0,1-3.62,0,3.31,3.31,0,0,1-1.27-.95,4.1,4.1,0,0,1-.74-1.48,7.64,7.64,0,0,1,0-3.83,4,4,0,0,1,.75-1.47,3.33,3.33,0,0,1,1.27-.94,4.55,4.55,0,0,1,1.81-.33,4.5,4.5,0,0,1,1.8.33,3.3,3.3,0,0,1,1.26.94,4.07,4.07,0,0,1,.74,1.47A7,7,0,0,1,688.51,54.48Zm-6.15,0a6.07,6.07,0,0,0,.12,1.28,2.86,2.86,0,0,0,.38,1,1.77,1.77,0,0,0,.65.6,1.93,1.93,0,0,0,.93.21,2,2,0,0,0,.95-0.21,1.72,1.72,0,0,0,.65-0.6,2.92,2.92,0,0,0,.37-1,6.89,6.89,0,0,0,0-2.56,3,3,0,0,0-.37-1,1.73,1.73,0,0,0-.64-0.61,2,2,0,0,0-.94-0.21,2,2,0,0,0-.94.21,1.75,1.75,0,0,0-.65.61,2.9,2.9,0,0,0-.38,1A6.07,6.07,0,0,0,682.36,54.48Z" transform="translate(0.03 -6.76)"/><path class="cls-4" d="M698,59h-2.44L692,52.16H692q0,0.48.06,0.95t0,0.85q0,0.44,0,.8V59h-1.72V50h2.42l3.56,6.79h0q0-.47,0-0.93c0-.13,0-0.27,0-0.41s0-.28,0-0.42,0-.27,0-0.4,0-.24,0-0.35V50H698V59Z" transform="translate(0.03 -6.76)"/><path class="cls-4" d="M703.64,59h-1.92V51.56h-2.28V50h6.46v1.6h-2.27V59Z" transform="translate(0.03 -6.76)"/><path class="cls-4" d="M709.23,55.54V59H707.3V50h2.48a4.06,4.06,0,0,1,2.57.67,2.48,2.48,0,0,1,.83,2,2.71,2.71,0,0,1-.12.84,2.53,2.53,0,0,1-.33.67,2.58,2.58,0,0,1-.48.51,3,3,0,0,1-.57.37l1.23,2,0.46,0.73,0.39,0.63,0.29,0.45L714.16,59H712l-2-3.48h-0.84Zm0-1.56h0.52a1.67,1.67,0,0,0,1.15-.32,1.21,1.21,0,0,0,.35-0.94,1.06,1.06,0,0,0-.37-0.92,2,2,0,0,0-1.15-.27h-0.49V54Z" transform="translate(0.03 -6.76)"/><path class="cls-4" d="M723,54.48a7,7,0,0,1-.24,1.91,4.06,4.06,0,0,1-.75,1.48,3.32,3.32,0,0,1-1.27.95,5,5,0,0,1-3.62,0,3.31,3.31,0,0,1-1.27-.95,4.1,4.1,0,0,1-.74-1.48,7.64,7.64,0,0,1,0-3.83,4,4,0,0,1,.75-1.47,3.33,3.33,0,0,1,1.27-.94,4.55,4.55,0,0,1,1.81-.33,4.5,4.5,0,0,1,1.8.33,3.3,3.3,0,0,1,1.26.94,4.07,4.07,0,0,1,.74,1.47A7,7,0,0,1,723,54.48Zm-6.15,0a6.07,6.07,0,0,0,.12,1.28,2.86,2.86,0,0,0,.38,1,1.77,1.77,0,0,0,.65.6,1.93,1.93,0,0,0,.93.21,2,2,0,0,0,.95-0.21,1.72,1.72,0,0,0,.65-0.6,2.92,2.92,0,0,0,.37-1,6.89,6.89,0,0,0,0-2.56,3,3,0,0,0-.37-1,1.73,1.73,0,0,0-.64-0.61,2,2,0,0,0-.94-0.21,2,2,0,0,0-.94.21,1.75,1.75,0,0,0-.65.61,2.9,2.9,0,0,0-.38,1A6.07,6.07,0,0,0,716.88,54.48Z" transform="translate(0.03 -6.76)"/><path class="cls-4" d="M724.9,59V50h1.92v7.48h3.3V59H724.9Z" transform="translate(0.03 -6.76)"/><path class="cls-4" d="M731.7,59V50h1.92v7.48h3.3V59H731.7Z" transform="translate(0.03 -6.76)"/><path class="cls-4" d="M743.72,59H738.5V50h5.22v1.58h-3.3v2h3.07V55.1h-3.07v2.34h3.3V59Z" transform="translate(0.03 -6.76)"/><path class="cls-5" d="M1035.6,37a7.92,7.92,0,1,1,8,7.82A7.94,7.94,0,0,1,1035.6,37Zm2.17,0a5.75,5.75,0,1,0,5.68-5.83A5.76,5.76,0,0,0,1037.77,37Z" transform="translate(0.03 -6.76)"/><path class="cls-5" d="M1010.55,37a7.92,7.92,0,1,1,8,7.82A7.93,7.93,0,0,1,1010.55,37Zm2.17,0a5.75,5.75,0,1,0,5.68-5.83A5.76,5.76,0,0,0,1012.73,37Z" transform="translate(0.03 -6.76)"/><path class="cls-5" d="M1026.18,37.06a2.88,2.88,0,1,1,2.92,2.85A2.88,2.88,0,0,1,1026.18,37.06Zm1.56,0A1.32,1.32,0,1,0,1029,35.7,1.33,1.33,0,0,0,1027.74,37Z" transform="translate(0.03 -6.76)"/><path class="cls-5" d="M1030.33,36.52a0.78,0.78,0,0,1,0-1.1l8-7.47a0.78,0.78,0,1,1,1.07,1.14l-8,7.47a0.79,0.79,0,0,1-.52.21A0.81,0.81,0,0,1,1030.33,36.52Z" transform="translate(0.03 -6.76)"/><path class="cls-5" d="M1027.4,35.08l-3.82-9.33a0.77,0.77,0,0,1,1.43-.58l3.82,9.33a0.77,0.77,0,0,1-.43,1,0.86,0.86,0,0,1-.29.05A0.73,0.73,0,0,1,1027.4,35.08Z" transform="translate(0.03 -6.76)"/><path class="cls-5" d="M1038.56,29.91c-1.07-3.79-1.76-7.68-1.76-7.71a0.78,0.78,0,0,1,1.54-.27c0,0.05.68,3.84,1.73,7.56,2,6.88,3.31,6.81,3.36,6.81a0.78,0.78,0,0,1,.17,1.54,0.7,0.7,0,0,1-.19,0C1041.63,37.88,1040.14,35.4,1038.56,29.91Z" transform="translate(0.03 -6.76)"/><path class="cls-5" d="M1041,23.78l-7.35-2.4a0.78,0.78,0,0,1,.47-1.48l7.35,2.4a0.78,0.78,0,0,1,.51,1,0.76,0.76,0,0,1-.72.54A1.31,1.31,0,0,1,1041,23.78Z" transform="translate(0.03 -6.76)"/><path class="cls-5" d="M1019.26,25.6a0.94,0.94,0,0,1,.92-0.95l7.46-.1a0.93,0.93,0,1,1,0,1.87l-7.46.1A0.94,0.94,0,0,1,1019.26,25.6Z" transform="translate(0.03 -6.76)"/><path class="cls-5" d="M1029.69,35.51a0.31,0.31,0,0,1-.16-0.41l1.06-2.34a0.31,0.31,0,0,1,.56.25l-1.06,2.34a0.31,0.31,0,0,1-.29.19Z" transform="translate(0.03 -6.76)"/><path class="cls-5" d="M1029.47,32.74a0.3,0.3,0,0,1,.3-0.31l2,0a0.31,0.31,0,0,1,0,.61l-2,0A0.3,0.3,0,0,1,1029.47,32.74Z" transform="translate(0.03 -6.76)"/><path class="cls-5" d="M1027.37,41.14a0.33,0.33,0,0,1-.14-0.42l1.11-2.32a0.31,0.31,0,0,1,.56.28L1027.8,41a0.3,0.3,0,0,1-.27.17Z" transform="translate(0.03 -6.76)"/><path class="cls-5" d="M1028.61,41.32l-2,0a0.31,0.31,0,0,1,0-.63l2,0a0.32,0.32,0,0,1,.31.32,0.3,0.3,0,0,1-.3.31h0Z" transform="translate(0.03 -6.76)"/><path class="cls-5" d="M989.72,50h2.65a8.28,8.28,0,0,1,1.5.12,3.14,3.14,0,0,1,1.08.39,1.76,1.76,0,0,1,.65.71,2.38,2.38,0,0,1,.22,1.08,2.69,2.69,0,0,1-.09.72,1.89,1.89,0,0,1-.27.59A1.66,1.66,0,0,1,995,54a1.51,1.51,0,0,1-.59.23v0.06a3,3,0,0,1,.64.21,1.6,1.6,0,0,1,.51.38,1.75,1.75,0,0,1,.35.62,2.82,2.82,0,0,1,.13.91,2.69,2.69,0,0,1-.22,1.11,2.26,2.26,0,0,1-.62.83,2.86,2.86,0,0,1-1,.52,4.42,4.42,0,0,1-1.31.18h-3.2V50Zm1.92,3.59h1a2.33,2.33,0,0,0,.6-0.07,1,1,0,0,0,.39-0.2,0.73,0.73,0,0,0,.21-0.33,1.43,1.43,0,0,0,.07-0.46,0.85,0.85,0,0,0-.33-0.75,1.84,1.84,0,0,0-1-.23h-0.91v2Zm0,1.53v2.36h1.13a2,2,0,0,0,.63-0.09,1,1,0,0,0,.42-0.25,0.93,0.93,0,0,0,.23-0.39,1.79,1.79,0,0,0,.07-0.51,1.49,1.49,0,0,0-.07-0.46,0.82,0.82,0,0,0-.23-0.36,1.11,1.11,0,0,0-.43-0.23,2.32,2.32,0,0,0-.66-0.08h-1.08Z" transform="translate(0.03 -6.76)"/><path class="cls-5" d="M1003.1,59h-5.22V50h5.22v1.58h-3.3v2h3.07V55.1H999.8v2.34h3.3V59Z" transform="translate(0.03 -6.76)"/><path class="cls-5" d="M1010,56.5a2.76,2.76,0,0,1-.21,1.09,2.25,2.25,0,0,1-.61.83,2.77,2.77,0,0,1-1,.53,4.32,4.32,0,0,1-1.33.19,5.81,5.81,0,0,1-1.27-.14,4.53,4.53,0,0,1-1.13-.41V56.81l0.6,0.28c0.2,0.09.41,0.17,0.62,0.24a4.91,4.91,0,0,0,.63.17,3.22,3.22,0,0,0,.62.06,1.81,1.81,0,0,0,.54-0.07,1,1,0,0,0,.37-0.2A0.75,0.75,0,0,0,1008,57a1.13,1.13,0,0,0,.07-0.39,0.91,0.91,0,0,0-.11-0.45,1.39,1.39,0,0,0-.3-0.37,3.16,3.16,0,0,0-.47-0.33l-0.62-.34-0.64-.36a3.44,3.44,0,0,1-.67-0.52,2.7,2.7,0,0,1-.52-0.76,2.46,2.46,0,0,1-.21-1.06,2.8,2.8,0,0,1,.2-1.09,2.24,2.24,0,0,1,.57-0.81,2.51,2.51,0,0,1,.9-0.5,3.78,3.78,0,0,1,1.19-.17,4.77,4.77,0,0,1,.64,0,5.44,5.44,0,0,1,.62.12,6,6,0,0,1,.62.2l0.64,0.27L1009.3,52l-0.52-.23-0.47-.17a3.33,3.33,0,0,0-.45-0.1,2.92,2.92,0,0,0-.44,0,1,1,0,0,0-.74.26,0.93,0.93,0,0,0-.26.68,0.92,0.92,0,0,0,.33.74,2.79,2.79,0,0,0,.44.32l0.65,0.37q0.47,0.25.86,0.5a3.47,3.47,0,0,1,.67.57,2.31,2.31,0,0,1,.44.71A2.55,2.55,0,0,1,1010,56.5Z" transform="translate(0.03 -6.76)"/><path class="cls-5" d="M1014.95,59H1013V51.56h-2.28V50h6.46v1.6h-2.27V59Z" transform="translate(0.03 -6.76)"/><path class="cls-5" d="M1023,59l-0.62-2.16h-3.12L1018.65,59h-1.94l2.95-9.1H1022l3,9.1H1023Zm-4.3-10.81a1,1,0,0,1,.07-0.37,0.73,0.73,0,0,1,.18-0.26,0.72,0.72,0,0,1,.27-0.15,1.17,1.17,0,0,1,.68,0,0.75,0.75,0,0,1,.28.15,0.74,0.74,0,0,1,.19.26,0.9,0.9,0,0,1,.07.38,0.87,0.87,0,0,1-.07.37,0.75,0.75,0,0,1-.19.26,0.77,0.77,0,0,1-.28.15,1.19,1.19,0,0,1-.68,0,0.73,0.73,0,0,1-.27-0.15,0.74,0.74,0,0,1-.18-0.26A0.91,0.91,0,0,1,1018.72,48.21Zm3.24,7-0.58-2-0.11-.37-0.16-.56c-0.06-.21-0.11-0.41-0.16-0.62s-0.08-.38-0.11-0.53c0,0.09,0,.2-0.07.32s-0.06.26-.09,0.39l-0.11.42-0.11.4-0.09.33-0.06.21-0.58,2H1022Zm-0.74-7a1,1,0,0,1,.07-0.37,0.71,0.71,0,0,1,.19-0.26,0.74,0.74,0,0,1,.28-0.15,1.17,1.17,0,0,1,.35,0,1.1,1.1,0,0,1,.33,0,0.78,0.78,0,0,1,.28.15,0.72,0.72,0,0,1,.19.26,0.9,0.9,0,0,1,.07.38,0.87,0.87,0,0,1-.07.37,0.74,0.74,0,0,1-.19.26,0.8,0.8,0,0,1-.28.15,1.1,1.1,0,0,1-.33,0,1,1,0,0,1-.63-0.2A0.75,0.75,0,0,1,1021.22,48.21Z" transform="translate(0.03 -6.76)"/><path class="cls-5" d="M1028.65,59h-1.92V51.56h-2.28V50h6.46v1.6h-2.27V59Z" transform="translate(0.03 -6.76)"/><path class="cls-5" d="M1035.7,59h-4.12V57.93l1.1-.51V51.56l-1.1-.51V50h4.12V51l-1.1.51v5.87l1.1,0.51V59Z" transform="translate(0.03 -6.76)"/><path class="cls-5" d="M1040.57,53.93h3.6v4.7l-0.73.21q-0.37.1-.76,0.16t-0.83.1q-0.43,0-.91,0a5,5,0,0,1-1.8-.3,3.39,3.39,0,0,1-1.32-.89,4,4,0,0,1-.82-1.46,6.62,6.62,0,0,1-.28-2,5.65,5.65,0,0,1,.31-1.93,3.92,3.92,0,0,1,.92-1.47,4.06,4.06,0,0,1,1.49-.93,5.84,5.84,0,0,1,2-.33,6.49,6.49,0,0,1,1.42.16,7.22,7.22,0,0,1,1.27.4l-0.64,1.54a5.12,5.12,0,0,0-1-.35,4.28,4.28,0,0,0-1.11-.14,2.81,2.81,0,0,0-1.14.22,2.47,2.47,0,0,0-.87.62,2.77,2.77,0,0,0-.55,1,4,4,0,0,0-.19,1.27,5.25,5.25,0,0,0,.13,1.22,2.76,2.76,0,0,0,.42,1,2,2,0,0,0,.74.63,2.4,2.4,0,0,0,1.08.22,5.49,5.49,0,0,0,.69,0l0.53-.09V55.53h-1.72v-1.6Z" transform="translate(0.03 -6.76)"/><path class="cls-5" d="M1053.2,50v5.87a3.94,3.94,0,0,1-.21,1.32,2.82,2.82,0,0,1-.65,1.05,3,3,0,0,1-1.09.7,4.77,4.77,0,0,1-3,0,2.8,2.8,0,0,1-1.73-1.74,4,4,0,0,1-.22-1.37V50h1.92v5.7a3.22,3.22,0,0,0,.1.86,1.48,1.48,0,0,0,.29.58,1.15,1.15,0,0,0,.49.33,2,2,0,0,0,.68.11,1.39,1.39,0,0,0,1.18-.47,2.31,2.31,0,0,0,.36-1.42V50h1.92Z" transform="translate(0.03 -6.76)"/><path class="cls-5" d="M1063.08,59h-2.44l-3.57-6.86H1057q0,0.48.06,0.95t0,0.85q0,0.44,0,.8V59h-1.72V50h2.42l3.56,6.79h0q0-.47,0-0.93c0-.13,0-0.27,0-0.41s0-.28,0-0.42,0-.27,0-0.4,0-.24,0-0.35V50h1.72V59Z" transform="translate(0.03 -6.76)"/><path class="cls-5" d="M1068.8,53.93h3.6v4.7l-0.73.21q-0.37.1-.76,0.16t-0.83.1q-0.43,0-.91,0a5,5,0,0,1-1.8-.3,3.39,3.39,0,0,1-1.32-.89,4,4,0,0,1-.82-1.46,6.62,6.62,0,0,1-.28-2,5.65,5.65,0,0,1,.31-1.93,3.92,3.92,0,0,1,.92-1.47,4.06,4.06,0,0,1,1.49-.93,5.84,5.84,0,0,1,2-.33,6.49,6.49,0,0,1,1.42.16,7.22,7.22,0,0,1,1.27.4l-0.64,1.54a5.12,5.12,0,0,0-1-.35,4.28,4.28,0,0,0-1.11-.14,2.81,2.81,0,0,0-1.14.22,2.47,2.47,0,0,0-.87.62,2.77,2.77,0,0,0-.55,1,4,4,0,0,0-.19,1.27,5.25,5.25,0,0,0,.13,1.22,2.76,2.76,0,0,0,.42,1,2,2,0,0,0,.74.63,2.4,2.4,0,0,0,1.08.22,5.49,5.49,0,0,0,.69,0l0.53-.09V55.53h-1.72v-1.6Z" transform="translate(0.03 -6.76)"/></svg>