<?xml version="1.0" encoding="UTF-8"?><svg id="Ebene_2" xmlns="http://www.w3.org/2000/svg" viewBox="0 0 47.43 33.92"><defs><style>.cls-1{fill:#fff;}</style></defs><g id="Ebene_2-2"><g><circle class="cls-1" cx="19.52" cy="24.96" r="8.01"/><path class="cls-1" d="M34.14,3.49h-1.9s-.07,.03-.07,.07V14.2s.03,.07,.07,.07h1.34c1.78,0,3.23-1.45,3.23-3.23V6.16c0-1.47-1.2-2.67-2.67-2.67Z"/><path class="cls-1" d="M38.3,4.68l8.64-3.67c.27-.11,.39-.42,.28-.69-.11-.27-.42-.39-.69-.28l-8.64,3.67c-.27,.11-.39,.42-.28,.69,.11,.27,.42,.39,.69,.28Z"/><path class="cls-1" d="M45.79,15.55l-7.92-1.87c-.28-.07-.56,.11-.63,.39s.11,.56,.39,.63l7.92,1.87c.28,.07,.56-.11,.63-.39s-.11-.56-.39-.63Z"/><path class="cls-1" d="M42.7,3.27h.03c.29,0,.52,.24,.52,.52V12.17c0,.29-.23,.52-.52,.52h-.03c-.29,0-.52-.23-.52-.52V3.8c0-.29,.24-.52,.52-.52Z" transform="translate(34.04 50.56) rotate(-89.07)"/><path class="cls-1" d="M29.46,3.08H12.94c-.12,0-.22,.09-.25,.2-1.06,0-10.35-.03-12.19-.01-.19,0-.35,.14-.38,.33-.2,1.16-.08,4.17-.02,5.5,.02,.39,.27,.73,.64,.85l11.94,3.99v.08c0,.14,.11,.26,.26,.26H29.62c.5,0,.9-.4,.9-.9V4.14c0-.58-.47-1.06-1.06-1.06Z"/><path class="cls-1" d="M19.52,16c-4,0-7.38,2.62-8.54,6.23v-2.07c0-.28-.22-.5-.5-.5h-1.28c-.15-.52-.61-.9-1.18-.9H3.13c-.68,0-1.23,.55-1.23,1.23v9.52c0,.68,.55,1.23,1.23,1.23h4.9c.57,0,1.05-.39,1.18-.92h1.3c.26,0,.47-.21,.47-.47v-1.66c1.15,3.62,4.54,6.23,8.54,6.23,4.95,0,8.96-4.01,8.96-8.96s-4.01-8.96-8.96-8.96Zm0,16.97c-4.42,0-8.01-3.58-8.01-8.01s3.58-8.01,8.01-8.01,8.01,3.58,8.01,8.01-3.58,8.01-8.01,8.01Z"/><path class="cls-1" d="M3.06,33.2c0,.33,.27,.6,.6,.6h3.46c.32,0,.57-.26,.57-.57v-.96H3.06v.93Z"/><path class="cls-1" d="M16.21,1.1c0-.57-.47-1.04-1.04-1.04h-4.16c-.39,0-.7,.31-.7,.7v.97h5.9v-.63Z"/></g></g></svg>