<?xml version="1.0" encoding="UTF-8"?><svg id="Ebene_2" xmlns="http://www.w3.org/2000/svg" viewBox="0 0 47.83 30.08"><defs><style>.cls-1{fill:#fff;}</style></defs><g id="Ebene_2-2"><path class="cls-1" d="M38.05,10.53c-.22,0-.44,0-.66,.02l-1.83-1.76c.02-1.22,.04-2.44,.06-3.65,1.16-.24,2.31-.49,3.47-.73,.09-.09,.47-.47,.46-1.04-.01-.62-.5-1.21-1.22-1.4-1.44,.14-2.88,.28-4.32,.43-.2,.09-.6,.29-.94,.73-.31,.4-.42,.79-.46,1l.04,1.55h-11.13c-.06-.42-.12-.85-.19-1.27,.69,0,1.37,0,2.06,.01,.32,0,.47-.39,.24-.61-.81-.74-1.92-1.6-3.36-2.34C18.68,.66,17.21,.23,16.07,.01c-.33-.07-.65,.19-.65,.53-.01,1.03-.03,2.05-.04,3.08,0,.42,.33,.76,.74,.76,.73,0,1.46,0,2.19,.01l.61,1.24c-1.54,2-3.08,4-4.61,6.01-1.53-.8-3.29-1.21-5.15-1.1C4.18,10.86,.19,14.96,0,19.94c-.2,5.55,4.26,10.14,9.77,10.14,4.91,0,8.99-3.64,9.67-8.37,.54,0,1.08,0,1.61,.01,0,0,0,0,0,0,.29,.02,.79,0,1.32-.25,.79-.37,1.16-1.02,1.27-1.23,0-.02,0-.04,0-.06,1.91-2.24,2.84-3.33,4.75-5.57h1.17s.35,.29,.35,.29c-1.17,1.75-1.79,3.91-1.6,6.2,.38,4.76,4.23,8.59,9,8.95,5.73,.43,10.52-4.11,10.52-9.75s-4.38-9.77-9.77-9.77Zm-17.59,8.22c-.35,0-.7,0-1.04-.01-.32-1.98-1.24-3.75-2.55-5.14,.79-1.03,1.57-2.06,2.36-3.09,.41,2.75,.83,5.5,1.24,8.25Zm-5.23-3.02c.71,.85,1.23,1.87,1.49,2.98l-3.73-.04c.75-.98,1.5-1.96,2.25-2.94Zm-5.46,11.72c-4.09,0-7.39-3.47-7.12-7.62,.24-3.57,3.15-6.45,6.72-6.64,1.17-.06,2.29,.16,3.28,.6-1.34,1.75-2.68,3.5-4.03,5.24-.03,.07-.4,1.06,.21,1.89,.4,.55,.99,.7,1.16,.73l6.77,.05c-.65,3.27-3.54,5.75-7,5.75ZM21.97,8.78c3.14-.02,6.28-.04,9.43-.06-2.77,2.52-5.55,5.04-8.32,7.56-.37-2.5-.73-5-1.1-7.5Zm15.57,18.64c-3.47-.24-6.3-3.03-6.6-6.5-.24-2.77,1.12-5.25,3.26-6.62l1.76,5c.35,.82,1.28,1.18,2.01,.88,.62-.25,1.01-.95,.91-1.67-.61-1.76-1.21-3.51-1.82-5.27,.32-.05,.66-.07,.99-.07,3.93,0,7.14,3.2,7.14,7.14s-3.48,7.41-7.65,7.12Z"/></g></svg>