<?xml version="1.0" encoding="UTF-8"?><svg id="Ebene_2" xmlns="http://www.w3.org/2000/svg" viewBox="0 0 28.77 47.98"><defs><style>.cls-1{fill:#fff;}</style></defs><g id="Ebene_2-2"><path class="cls-1" d="M28.29,17.08c.31-.49,.48-1,.48-1.53,0-.59-.21-1.15-.59-1.69,.66-1.6-.14-4.35-.24-4.67v-.04c-.05-.1-4.18-10-15.06-9.09C1.96,.96,.47,13.32,.46,13.44l-.08,.76c-.24,.43-.37,.88-.37,1.34,0,.71,.3,1.4,.86,2.03v26.15s-.24,4.01,13.69,4.24c14.55,.24,13.74-4.47,13.74-4.47V17.08ZM12.96,.99c10.06-.84,13.85,7.9,14.1,8.49,.21,.69,.59,2.43,.39,3.58-2.01-1.8-6.12-3.11-11.02-3.39-.03,0-.06,0-.1-.01-1.13-.13-2.2-.18-3.21-.18-5.95,0-9.87,1.96-11.56,3.01C2.15,9.56,4.53,1.69,12.96,.99Zm1.42,9.63c6.34,0,11.48,2.21,11.48,4.93s-5.14,4.93-11.48,4.93S2.9,18.28,2.9,15.55s5.14-4.93,11.48-4.93Zm11.07,18.66c-.36,.4-.86,.51-.86,.51-.11,.02-.76,.16-1.26-.26-.34-.28-.43-.67-.47-.81-.17-.73,.26-1.09,.21-1.91-.03-.43-.17-.76-.27-.95-.12-.45-.6-.69-.99-.54-.35,.14-.55,.57-.41,.97-.1,.56-.18,1.21-.2,1.91-.04,1.14,.07,2.14,.22,2.95,.42,.9,.36,1.88-.18,2.52-.08,.1-.62,.71-1.36,.65-.79-.07-1.34-.87-1.5-1.48-.15-.55,.06-.77,.18-2.05,0,0,.05-.5,.06-1.53,.01-1.57-.27-3.2-.51-4.33-.12-.34-.41-.59-.74-.64-.43-.06-.88,.22-1.03,.69-.32,1.4-.22,2.33-.05,2.93,.06,.2,.2,.65,.09,1.21-.04,.23-.15,.75-.63,1.09-.04,.03-.61,.42-1.23,.23-.82-.25-1.19-1.36-1.05-2.01,.02-.1,.06-.2,.22-.83,.06-.24,.11-.44,.14-.57-.09-1.51-.19-3.02-.28-4.53,1.48,.18,3.94,.28,6.8-.54,2.34-.67,4.09-1.71,5.21-2.5-.16,1.78-.23,3.7-.16,5.74,.02,.45,.04,.89,.07,1.33,.52,1.04,.52,2.14-.02,2.75Z"/></g></svg>