<?xml version="1.0" encoding="UTF-8"?><svg id="Ebene_2" xmlns="http://www.w3.org/2000/svg" viewBox="0 0 48.85 39.8"><defs><style>.cls-1{fill:#fff;}</style></defs><g id="Ebene_2-2"><g><path class="cls-1" d="M18.66,21.94c-1.19,.1-2.18,.05-2.61,.02l-.74-1.28-1.38,1.62-1.72,.53,4.36,7.56c-.55,.43-.71,1.2-.36,1.82l3.98,6.89c.39,.68,1.26,.91,1.93,.52l2.91-1.68c.68-.39,.91-1.26,.52-1.93l-3.98-6.89c-.36-.62-1.11-.86-1.75-.6l-2.07-3.58s.08-.05,.12-.08c2.87-2.05,10.37-3.79,10.37-3.79v-.28h-7.21s-1.03,.64-2.4,1.15Z"/><path class="cls-1" d="M48.83,11.53c-.6-3.51-13.34,.03-23.1-.9C18.77,9.97,14.87,3.92,8.49,.55,4.31-1.65,.12,3.31,.03,5.03c-.17,2.48,0,8.32,9.18,12.1-.33,.49-.52,1.08-.52,1.72,0,1.67,1.32,3.03,2.94,3.03s2.94-1.36,2.94-3.03c0-.03,0-.06,0-.09,1.04,.23,2.15,.43,3.34,.59,20.7,2.92,31.48-4.56,30.92-7.83ZM11.63,20.45c-.83,0-1.51-.72-1.51-1.61,0-.47,.19-.89,.5-1.19,.77,.27,1.59,.52,2.47,.75,.04,.14,.06,.29,.06,.44,0,.89-.68,1.61-1.51,1.61Z"/></g></g></svg>