<?xml version="1.0" encoding="UTF-8"?><svg id="Ebene_2" xmlns="http://www.w3.org/2000/svg" viewBox="0 0 35.8 49.21"><defs><style>.cls-1{fill:#fff;}</style></defs><g id="Ebene_2-2"><g><path class="cls-1" d="M26.33,28.41l-.12,.55h3.53c.49,0,.88-.39,.88-.88v-.14c0-.49-.39-.88-.88-.88h-4.07c-.49,0-.88,.39-.88,.88v.14c0,.07,.01,.14,.03,.21l.05-.21,1.47,.33Z"/><path class="cls-1" d="M11.88,42.6l.1-.43h-3.11c-.49,0-.88,.39-.88,.88v.14c0,.49,.39,.88,.88,.88h4.07c.49,0,.88-.39,.88-.88v-.14c0-.28-.13-.53-.34-.69l-.13,.57-1.47-.33Z"/><path class="cls-1" d="M34.92,1.68h-4.17c-.05,.1-.15,.17-.26,.17h-3.12c-.1,0-.18-.05-.24-.13-.36,.11-.63,.44-.63,.84v.46c.12-.09,.19-.14,.19-.14l1.38,1.27s-.05,.03-.14,.09h6.99c.49,0,.88-.39,.88-.88v-.8c0-.49-.39-.88-.88-.88Z"/><path class="cls-1" d="M8.05,2.26c-.12-.34-.44-.58-.82-.58H.88c-.49,0-.88,.39-.88,.88v.8c0,.49,.39,.88,.88,.88H7.22c.4,0,.74-.27,.84-.64-.05,0-.09-.02-.13-.02-.08-.76,.04-1.15,.12-1.32Z"/><path class="cls-1" d="M17.93,19.05v-.32h-.19c-1.27,0-2.3,1.03-2.3,2.3v.14h2.38v.13h2.64v-.29h2.38c0-1.26-1.03-2.28-2.3-2.28h-.19v.32h-2.41Z"/><polygon class="cls-1" points="15.43 21.17 15.43 21.3 15.43 27.22 15.84 27.22 15.84 27.06 17.28 27.06 17.28 27.22 17.81 27.22 17.81 21.3 17.81 21.17 15.43 21.17"/><polygon class="cls-1" points="20.45 21.3 20.45 27.06 20.92 27.06 20.92 26.91 22.36 26.91 22.36 27.06 22.83 27.06 22.83 21.3 22.83 21.03 22.83 21.01 22.83 21.01 20.45 21.01 20.45 21.3"/><polygon class="cls-1" points="15.84 27.06 15.84 27.22 15.84 34.97 17.15 34.97 17.15 35.94 17.28 35.94 17.28 27.22 17.28 27.06 15.84 27.06"/><polygon class="cls-1" points="20.92 26.91 20.92 27.06 20.92 35.79 21.05 35.79 21.05 34.97 22.36 34.97 22.36 27.06 22.36 26.91 20.92 26.91"/><polygon class="cls-1" points="21.05 35.79 21.05 36.09 24.78 36.09 24.78 35.27 24.73 35.48 23.26 35.15 23.3 34.97 22.36 34.97 21.05 34.97 21.05 35.79"/><polygon class="cls-1" points="15.84 34.97 13.42 34.97 13.42 35.8 13.48 35.53 14.96 35.86 14.9 36.09 17.15 36.09 17.15 35.94 17.15 34.97 15.84 34.97"/><polygon class="cls-1" points="24.73 35.48 24.78 35.27 26.21 28.96 26.33 28.41 24.86 28.08 24.81 28.29 23.3 34.97 23.26 35.15 24.73 35.48"/><polygon class="cls-1" points="13.48 35.53 13.42 35.8 11.98 42.17 11.88 42.6 13.36 42.93 13.49 42.36 14.9 36.09 14.96 35.86 13.48 35.53"/><path class="cls-1" d="M19.13,24.2c-.49,0-.88,.4-.88,.88v23.25c0,.49,.4,.88,.88,.88s.88-.4,.88-.88V25.08c0-.49-.4-.88-.88-.88Z"/><polygon class="cls-1" points="17.93 18.73 17.93 19.05 20.34 19.05 20.34 18.73 20.34 10.76 17.93 10.76 17.93 18.73"/><path class="cls-1" d="M22.72,6.96s.03-.02,.09-.07c-.31-.41-.79-.67-1.34-.67h-4.34c-.62,0-1.15,.33-1.45,.82,.32,.2,.43,.34,.43,.34l-.45,1.4s-.08,0-.21-.03v.31c0,.93,.76,1.69,1.69,1.69h4.34c.93,0,1.69-.76,1.69-1.69v-.34c-.05,.01-.1,.02-.16,.03-1.96,.29-.27-1.8-.27-1.8Z"/><path class="cls-1" d="M30.77,1.01v.08h3.25c.29,0,.53-.24,.53-.53v-.03c0-.29-.24-.53-.53-.53h-4.79c-.29,0-.53,.24-.53,.53v.03c0,.06,.01,.11,.03,.16h1.76c.16,0,.29,.13,.29,.29Z"/><path class="cls-1" d="M27.36,1.85h3.12c.12,0,.22-.07,.26-.17,.02-.04,.03-.08,.03-.12v-.55c0-.16-.13-.29-.29-.29h-3.12c-.16,0-.29,.13-.29,.29v.55c0,.06,.02,.11,.05,.16,.05,.08,.14,.13,.24,.13Z"/><path class="cls-1" d="M26.69,2.88s-.07,.05-.19,.14c-.44,.33-1.54,1.21-2.12,2.12-.6,.94-1.32,1.55-1.57,1.75-.06,.05-.09,.07-.09,.07,0,0-1.69,2.09,.27,1.8,.06,0,.11-.02,.16-.03,1.82-.35,2.22-1.84,2.73-2.69,.44-.71,1.63-1.54,2.04-1.81,.09-.06,.14-.09,.14-.09l-1.38-1.27Z"/><path class="cls-1" d="M16.1,7.39s-.11-.14-.43-.34c-.11-.07-.23-.14-.39-.21-.62-.3-1.05-.9-2.23-3-3.04-2.04-4.95-1.67-4.95-1.67,0,0-.02,.03-.06,.1-.08,.17-.19,.56-.12,1.32,.05,0,.09,.02,.13,.02,3.48,.62,2.47,1.29,3.66,1.67,1.54,2.8,3.14,3.37,3.71,3.49,.14,.03,.21,.03,.21,.03l.45-1.4Z"/></g></g></svg>