<?xml version="1.0" encoding="utf-8"?>
<!-- Generator: Adobe Illustrator 19.0.1, SVG Export Plug-In . SVG Version: 6.00 Build 0)  -->
<svg version="1.2" baseProfile="tiny" xmlns="http://www.w3.org/2000/svg" xmlns:xlink="http://www.w3.org/1999/xlink" x="0px"
	 y="0px" viewBox="0 0 35 35" xml:space="preserve">
<g id="Ebene_2">
	<circle fill="#FFFFFF" cx="17.5" cy="17.5" r="17.5"/>
</g>
<g id="Ebene_1" display="none">
	<g display="inline">
		<g>
			<polygon points="24.8,18.1 17.3,13.1 9.8,18.1 9.8,25.7 16,25.7 16,20.6 19.3,20.6 19.3,25.7 24.8,25.7 			"/>
		</g>
		<path fill="none" stroke="#000000" stroke-width="2" stroke-linecap="round" stroke-miterlimit="10" d="M7.4,17.1l10.1-6.7
			c0,0,0,0,0,0c0,0,0.1,0.1,0.1,0.1l10.1,6.7"/>
		<rect x="22.4" y="9.3" width="2" height="4.5"/>
	</g>
</g>
<g id="Ebene_3">
	<circle fill="none" stroke="#1F1F1F" stroke-width="2" stroke-miterlimit="10" cx="17.8" cy="18.5" r="9.6"/>
	<circle fill="none" stroke="#1F1F1F" stroke-miterlimit="10" cx="17.8" cy="18.5" r="7.1"/>
	<line fill="none" stroke="#1F1F1F" stroke-miterlimit="10" x1="17.5" y1="14.5" x2="17.5" y2="18.8"/>
	<line fill="none" stroke="#1F1F1F" stroke-miterlimit="10" x1="17.5" y1="18.3" x2="21.8" y2="18.3"/>
	<line fill="none" stroke="#1F1F1F" stroke-miterlimit="10" x1="17.6" y1="6.6" x2="17.6" y2="8.2"/>
	<line fill="none" stroke="#1F1F1F" stroke-width="2" stroke-miterlimit="10" x1="14.3" y1="5.6" x2="20.9" y2="5.6"/>
</g>
<g id="Ebene_5" display="none">
	<path display="inline" fill="none" stroke="#1F1F1F" stroke-width="3" stroke-miterlimit="10" d="M23.4,21.2c0,2.8-3.6,2.4-6.5,0.1
		L14,19c-3-2.3-4.3-6.5-1.3-8.2"/>
	<path display="inline" fill="#1F1F1F" d="M12.7,15.2c0,0-0.1-1.1,0.8-1.9c0.7-0.5,1.9-1.1,1.9-1.1L12.3,8c0,0-1.7,0.6-2.4,2.3
		c-0.8,1.9-0.3,4.4-0.3,4.4l0.4-0.3l0.9,1L12.7,15.2z"/>
	<path display="inline" fill="#1F1F1F" d="M20.3,21.5l0.9-0.2c0,0,0.2-0.2,0.5-0.6c0.3-0.5,0.3-1.7,0.3-1.7l4.8,2.1
		c0,0-0.8,2.3-2.1,3.1c-1.2,0.7-4.1,0.1-4.1,0.1s-0.8-0.3-0.9-0.6c-0.1-0.3-0.4-0.8-0.4-1.2c0-0.3,0.3-0.8,0.3-0.8L20.3,21.5z"/>
</g>
</svg>
