<svg id="Ebene_1" data-name="Ebene 1" xmlns="http://www.w3.org/2000/svg" viewBox="0 0 12.78 19.07"><defs><style>.cls-1{fill:#9c9c9c;}.cls-2{fill:#6e6e6e;}.cls-3{fill:#ffeb00;}</style></defs><title>icon-merken-active</title><rect class="cls-1" x="3.92" y="16.43" width="5" height="2.2" rx="0.62" ry="0.62"/><path class="cls-2" d="M609.69,213.28H607a1.54,1.54,0,1,1,0-3.09h2.73A1.54,1.54,0,1,1,609.69,213.28Zm-2.73-2.2a0.66,0.66,0,1,0,0,1.32h2.73a0.66,0.66,0,1,0,0-1.32H607Z" transform="translate(-601.91 -194.2)"/><rect class="cls-1" x="3.92" y="14.28" width="5" height="2.2" rx="0.62" ry="0.62"/><path class="cls-2" d="M609.69,211.13H607a1.54,1.54,0,1,1,0-3.09h2.73A1.54,1.54,0,1,1,609.69,211.13Zm-2.73-2.2a0.66,0.66,0,1,0,0,1.32h2.73a0.66,0.66,0,1,0,0-1.32H607Z" transform="translate(-601.91 -194.2)"/><path class="cls-3" d="M613.88,202.41h0a5.56,5.56,0,0,0,.39-2,5.94,5.94,0,0,0-11.88,0,5.56,5.56,0,0,0,.39,2h0l0.07,0.12a5.67,5.67,0,0,0,.81,1.35l2.52,4.37h4.48l2.4-4.37a5.67,5.67,0,0,0,.8-1.35Z" transform="translate(-601.91 -194.2)"/><path class="cls-2" d="M606.12,208.7a0.45,0.45,0,0,1-.4-0.23l-2.52-4.37a5.74,5.74,0,0,1-.83-1.41l0-.06a0.45,0.45,0,0,1-.06-0.22,6,6,0,0,1-.36-2,6.4,6.4,0,0,1,12.78,0,6,6,0,0,1-.37,2,0.39,0.39,0,0,1-.06.21l-0.07.12a5.7,5.7,0,0,1-.83,1.39L611,208.45a0.46,0.46,0,0,1-.4.23h-4.48Zm-2.91-6.34a5.47,5.47,0,0,0,.75,1.26l2.43,4.2h3.94l2.28-4.13a5.48,5.48,0,0,0,.78-1.3v0a0.4,0.4,0,0,1,0-.09,5.17,5.17,0,0,0,.36-1.86,5.49,5.49,0,0,0-11,0,5.17,5.17,0,0,0,.36,1.86A0.58,0.58,0,0,1,603.21,202.35Z" transform="translate(-601.91 -194.2)"/></svg>