<svg id="Ebene_1" data-name="Ebene 1" xmlns="http://www.w3.org/2000/svg" viewBox="0 0 12.83 19.06"><defs><style>.cls-1{fill:#6e6e6e;}</style></defs><title>icon-merken-normal</title><path class="cls-1" d="M484.7,207.43H482a1.54,1.54,0,1,1,0-3.08h2.74A1.54,1.54,0,1,1,484.7,207.43Zm-2.74-2.2a0.66,0.66,0,1,0,0,1.32h2.74a0.66,0.66,0,1,0,0-1.32H482Z" transform="translate(-476.89 -188.37)"/><path class="cls-1" d="M484.7,205.28H482a1.54,1.54,0,1,1,0-3.08h2.74A1.54,1.54,0,1,1,484.7,205.28Zm-2.74-2.2a0.66,0.66,0,1,0,0,1.32h2.74a0.66,0.66,0,1,0,0-1.32H482Z" transform="translate(-476.89 -188.37)"/><path class="cls-1" d="M481.12,202.85a0.46,0.46,0,0,1-.4-0.23l-2.53-4.37a5.73,5.73,0,0,1-.83-1.41l0-.06a0.44,0.44,0,0,1-.06-0.23,5.93,5.93,0,0,1-.36-2,6.42,6.42,0,0,1,12.83,0,5.94,5.94,0,0,1-.37,2,0.38,0.38,0,0,1-.05.21l-0.07.12a5.72,5.72,0,0,1-.83,1.39l-2.37,4.3a0.46,0.46,0,0,1-.4.23h-4.5Zm-2.92-6.34a5.45,5.45,0,0,0,.76,1.26l2.43,4.2h4l2.28-4.13a5.55,5.55,0,0,0,.78-1.3v0a0.52,0.52,0,0,1,0-.09,5.13,5.13,0,0,0,.37-1.86,5.5,5.5,0,0,0-11,0,5.14,5.14,0,0,0,.37,1.86A0.43,0.43,0,0,1,478.19,196.52Z" transform="translate(-476.89 -188.37)"/></svg>