<?xml version="1.0" encoding="UTF-8"?><svg id="Ebene_2" xmlns="http://www.w3.org/2000/svg" viewBox="0 0 48.13 30.75"><defs><style>.cls-1{fill:#fff;}</style></defs><g id="Ebene_2-2"><g><path class="cls-1" d="M45.06,5.87h-14.6c-.16,.35-.51,.6-.92,.6h-10.91c-.35,0-.65-.19-.83-.46-1.27,.38-2.21,1.54-2.21,2.94v1.62c.42-.31,.67-.5,.67-.5l4.84,4.44s-.19,.12-.5,.32h24.46c1.7,0,3.07-1.38,3.07-3.08v-2.81c0-1.7-1.38-3.08-3.07-3.08Z"/><path class="cls-1" d="M30.54,3.54v.28h11.36c1.03,0,1.86-.83,1.86-1.86v-.11c0-1.03-.83-1.86-1.86-1.86H25.14c-1.03,0-1.86,.83-1.86,1.86v.11c0,.2,.04,.38,.1,.56h6.15c.56,0,1.01,.45,1.01,1.01Z"/><path class="cls-1" d="M18.62,6.47h10.91c.41,0,.76-.25,.92-.6,.06-.13,.09-.26,.09-.41v-1.91c0-.56-.45-1.01-1.01-1.01h-10.91c-.56,0-1.01,.45-1.01,1.01v1.91c0,.21,.08,.39,.19,.55,.18,.27,.48,.46,.83,.46Z"/><path class="cls-1" d="M16.26,10.07s-.26,.18-.67,.5c-1.54,1.17-5.39,4.24-7.42,7.43-2.1,3.29-4.61,5.42-5.48,6.11-.2,.16-.32,.24-.32,.24,0,0-5.91,7.31,.96,6.3,.2-.03,.37-.07,.56-.11,6.37-1.23,7.76-6.45,9.56-9.4,1.53-2.5,5.72-5.38,7.15-6.32,.31-.2,.5-.32,.5-.32l-4.84-4.44Z"/></g></g></svg>