<?xml version="1.0" encoding="UTF-8"?><svg id="Ebene_2" xmlns="http://www.w3.org/2000/svg" viewBox="0 0 47.63 46.77"><defs><style>.cls-1{fill:#fff;}</style></defs><g id="Ebene_2-2"><g><path class="cls-1" d="M18.33,26.67l-.07,.11h.14s-.05-.07-.07-.11Z"/><path class="cls-1" d="M30.38,22.36l.03-.03h-.04s0,.01,0,.03Z"/><path class="cls-1" d="M28.11,28.16l.04,.02v-.04s-.03,.02-.04,.02Z"/><circle class="cls-1" cx="23.82" cy="23.38" r="2.72"/><path class="cls-1" d="M23.82,0C10.68,0,0,10.49,0,23.38s10.68,23.39,23.82,23.39,23.82-10.49,23.82-23.39S36.95,0,23.82,0Zm13.19,36.38l-2.98-4.61,5.08,2.2c-.63,.86-1.33,1.67-2.09,2.41Zm-13.3,5.31l-1.32-7.1,1.56-2.84,1.35,2.55-.66,7.36c-.27,.01-.54,.02-.81,.02-.04,0-.08,0-.12,0Zm-15.47-8.15l5.58-1.88-3.19,4.72c-.89-.86-1.69-1.81-2.39-2.83ZM21.36,12.17l-.46,3-2.17-1.97-1.45-6.97c.28-.1,.57-.2,.85-.29l3.22,6.23Zm-2.29-6.49c1.09-.28,2.22-.46,3.37-.54l-.84,5.44-2.54-4.9Zm10.15,.19c.38,.11,.75,.23,1.11,.36l-1.26,6.85-2.53,2.21-.38-3.17,3.07-6.26Zm-3.28,4.52l-.63-5.24c1.01,.08,2.01,.24,2.97,.47l-2.34,4.77Zm12.94,2.15l-5.26,2.51,3.16-4.83c.76,.72,1.47,1.49,2.1,2.33Zm-4.49,6.32l-3.36,.15,1.59-2.43,6.82-3.25c.16,.23,.31,.47,.46,.71l-5.51,4.81Zm6-3.97c.62,1.15,1.12,2.36,1.48,3.63l-5.95,.27,4.47-3.9Zm-16.5,12.19c-1.51,0-2.82-.76-3.51-1.88l-.25-.47-.12-.36c-.08-.28-.13-.58-.14-.88v-.36c.17-1.9,1.91-3.4,4.03-3.4,1.37,0,2.59,.63,3.32,1.59v.02s.02,0,.02,0c.44,.59,.7,1.3,.7,2.07,0,2.03-1.81,3.68-4.03,3.68Zm5.03-7.97l.15-.83,1.89-.9-1.11,1.69-.94,.04Zm-1.65-1.03c-.14-.08-.29-.16-.44-.23l-.17-1.4,2.12-1.85-.56,3.02-.95,.45Zm-1.44-.62c-.08-.02-.16-.04-.24-.06l.21-.19,.03,.25Zm-4.35,.16l.08-.54,.41,.37c-.17,.05-.33,.11-.49,.17Zm-1.04,.5s-.07,.04-.1,.06l-.65-.31-.63-3.06,1.66,1.51-.28,1.8Zm-2.01,1.83l-.22-.35h.51c-.1,.11-.2,.23-.28,.35Zm-.63,5.8l-.71,1.04h-2.06s2.53-1.73,2.53-1.73c.07,.24,.15,.47,.24,.69Zm.51,.94s.04,.07,.07,.11h-.14s.07-.11,.07-.11Zm.71,1.06l-.29,1.25-2.57,.87,1.44-2.12h1.42Zm.84,.58c.09,.07,.19,.14,.29,.2l-.36,.12,.08-.32Zm.57,1.11l.19,1.03-1.58,1.34,.49-2.07,.9-.31Zm.92-.28c.19,.08,.39,.14,.59,.2l-.48,.4-.11-.61Zm1.54,.65l.51,.97-1.31,2.37-.43-2.3,1.22-1.04Zm.99-.17s0,0,0,0c.05,0,.1,0,.15,0l-.08,.15-.07-.14Zm1.2,.07l.57,.51-.21,2.38-.95-1.81,.59-1.08Zm1.64-.69c.14-.07,.29-.13,.42-.21l1.24,.54,.53,2.47-2.26-2,.07-.8Zm1.38-.83s.02-.02,.03-.02v.04s-.03-.02-.03-.02Zm.84-.79s.04-.04,.06-.07l1.02,.04,1.49,2.3-2.29-.99-.27-1.27Zm1.43-5.01s0-.03,0-.04h.04s-.03,.04-.03,.04Zm-.32-1.14c-.06-.14-.12-.29-.19-.43l.53-.82,2.85-.13-2.01,1.75-1.19-.38Zm1.93-5.4l-2.68,1.28,.65-3.53,5.33-4.66c.27,.21,.54,.42,.8,.64l-4.1,6.26Zm-1.76-3.76l1.01-5.49c1.15,.48,2.23,1.08,3.24,1.77l-4.26,3.72Zm-4.55,3.98l-.85,.74-.49-.95,1.05-2.15,.28,2.35Zm-1.72,1.12s-.03,0-.05,0c-.07,0-.14,0-.21,.01l.13-.27,.13,.26Zm-1.18-.29l-1.03-.94,.36-2.34,1.17,2.25-.5,1.02Zm-5.24-4.77l-4.24-3.86c.97-.65,2.01-1.2,3.09-1.66l1.15,5.52Zm.33,1.59l.75,3.63-2.58-1.24-4.22-6.75c.22-.18,.45-.36,.68-.53l5.37,4.88Zm1,4.81l.02,.11-1.25,.03-.65-1.04,1.88,.9Zm-2.34,.16l-3.45,.08-5.36-4.7-.03,.04c.15-.24,.3-.48,.46-.72l7.23,3.47,1.15,1.83Zm.59,.94l.79,1.26c-.11,.22-.2,.45-.28,.69l-1.03,.28-2.46-2.16,2.98-.07Zm.1,4.03l-1.87-.48,1.01-.28,.86,.75Zm-.52,.85l-3.32,2.27-7.94-.04v.14c-.06-.31-.11-.61-.16-.93l8.22-2.26,3.2,.82Zm-4.71,3.21l-5.11,3.49c-.54-1.12-.97-2.29-1.27-3.52l6.38,.03Zm1.68,0h2.81s-1.78,2.65-1.78,2.65l-6.92,2.34,.1,.3c-.2-.31-.39-.63-.57-.95l6.35-4.33Zm1.64,3.45l3.19-1.08-.65,2.75-5.72,4.85c-.27-.21-.53-.43-.79-.65l3.97-5.87Zm2.17,3.23l-1.34,5.69c-1.14-.5-2.22-1.11-3.22-1.82l4.56-3.87Zm1.22-1.04l2.15-1.82,.54,2.91-3.49,6.32c-.29-.1-.58-.2-.87-.31l1.67-7.1Zm2.96,2.56l1.07,5.75c-1.34-.08-2.64-.29-3.89-.63l2.83-5.13Zm4.45-.05l2.72,5.16c-1.05,.28-2.13,.48-3.24,.59l.52-5.75Zm.16-1.75l.28-3.15,2.71,2.39,1.51,7.02c-.33,.13-.67,.25-1.01,.36l-3.49-6.63Zm4.19,.31l4.31,3.8c-.97,.68-2.01,1.28-3.1,1.78l-1.2-5.58Zm-.34-1.57l-.66-3.07,2.98,1.29,3.85,5.95c-.24,.21-.49,.42-.74,.62l-5.42-4.79Zm2.96-2.53l-1.9-2.94,2.73,.1,6.14,4.99,.04-.05c-.15,.25-.3,.5-.46,.74l-6.56-2.85Zm-2.53-3.91l-.52-.8c.05-.13,.1-.25,.15-.38l.67-.22,1.83,1.49-2.13-.08Zm-.03-2.91l.94-.82,1.72,.55-2.14,.7-.53-.43Zm1.78-1.56l2.47-2.16,7.32-.33v-.07c.06,.28,.12,.57,.17,.86l-7.54,2.48-2.43-.78ZM24.35,5.09l.83,6.86-1.39,2.83-1.44-2.78,1.07-6.92c.13,0,.26,0,.4,0,.18,0,.36,0,.54,.01Zm-13.27,4.88l3.35,5.35-5.73-2.75c.71-.94,1.5-1.81,2.38-2.6Zm-3.85,4.91l4.44,3.9-6.03,.14c.37-1.42,.9-2.77,1.59-4.04Zm-1.74,4.68v.31s7.24-.17,7.24-.17l2.76,2.43-2.02,.55-7.9-2.01-.24,.92,6.28,1.6-6.47,1.78c-.05-.52-.07-1.05-.07-1.59,0-1.31,.14-2.59,.41-3.82Zm35.04,12.07l-5.04-4.09,7.14,.46v-1l-8.37-.46-2.34-1.9,2.8-.92,7.9,2.28v-1l-6.36-1.79,6.14-2.02c.09,.72,.14,1.45,.14,2.19,0,2.97-.73,5.77-2.02,8.25Z"/></g></g></svg>