<?xml version="1.0" encoding="UTF-8"?><svg id="Ebene_2" xmlns="http://www.w3.org/2000/svg" viewBox="0 0 47.93 46.43"><defs><style>.cls-1{fill:#fff;}</style></defs><g id="Ebene_2-2"><g><path class="cls-1" d="M32.53,31.74v-.03s-.02,.01-.03,.02h.03Z"/><path class="cls-1" d="M34.32,27.12h-.03s0,.01,0,.02l.02-.02Z"/><path class="cls-1" d="M24.83,30.63s-.04-.06-.05-.09l-.06,.08h.11Z"/><circle class="cls-1" cx="29.11" cy="27.95" r="2.15"/><path class="cls-1" d="M29.11,9.47c-10.38,0-18.82,8.29-18.82,18.48s8.44,18.48,18.82,18.48,18.82-8.29,18.82-18.48S39.49,9.47,29.11,9.47Zm14.58,15.99l-5.96,1.96-1.92-.61,1.96-1.71,5.79-.26v-.06c.05,.22,.09,.45,.14,.68Zm-9.66,.78c-.05-.11-.09-.23-.15-.34l.42-.65,2.25-.1-1.59,1.38-.94-.3Zm.28,.88l-.02,.02s0-.02,0-.03h.03Zm-.42-2.59l-.74,.03,.12-.66,1.5-.71-.88,1.34Zm-.69,6.52l.81,.03,1.17,1.81-1.81-.79-.22-1.01s.03-.04,.05-.05Zm.82-1.34c.04-.1,.08-.2,.12-.3l.53-.18,1.45,1.18-1.69-.06-.41-.64Zm.39-1.66l.75-.65,1.36,.44-1.69,.56-.42-.34Zm8.97-3.94l-4.7,.21,3.53-3.08c.49,.91,.88,1.87,1.17,2.87Zm-1.55-3.54l-4.36,3.8-2.65,.12,1.26-1.92,5.39-2.57c.13,.19,.25,.37,.36,.56Zm-.81-1.19l-4.15,1.98,2.5-3.82c.6,.57,1.16,1.18,1.66,1.84Zm-2.22-2.35l-3.24,4.95-2.12,1.01,.51-2.79,4.21-3.68c.22,.16,.43,.33,.63,.51Zm-1.26-.96l-3.36,2.94,.8-4.34c.91,.38,1.76,.85,2.56,1.4Zm-3.28-1.68l-1,5.42-2,1.75-.3-2.5,2.42-4.95c.3,.09,.59,.18,.88,.29Zm-5.09,16.47c-1.19,0-2.23-.6-2.78-1.49l-.19-.37-.1-.29c-.07-.22-.11-.46-.11-.7v-.29c.14-1.5,1.51-2.68,3.18-2.68,1.09,0,2.05,.5,2.62,1.26h0s.02,.02,.02,.02c.35,.47,.55,1.03,.55,1.63,0,1.6-1.43,2.91-3.19,2.91Zm.12,2l-.06,.12-.06-.11s0,0,0,0c.04,0,.08,0,.12,0Zm-.9,.14l.4,.77-1.03,1.87-.34-1.82,.97-.82Zm-1.12-.03l-.09-.48c.15,.06,.31,.11,.47,.16l-.38,.32Zm-1.53-.01l.71-.24,.15,.82-1.25,1.06,.39-1.64Zm-.38-11.8l1.31,1.2-.22,1.42s-.05,.03-.08,.04l-.52-.25-.5-2.42Zm.59,10.93l.06-.26c.07,.05,.15,.11,.23,.16l-.29,.1Zm1.71-8.84c-.13,.04-.26,.08-.39,.13l.07-.42,.32,.29Zm-.18-1.18l.28-1.85,.92,1.78-.39,.81-.81-.74Zm1.53,.98l.1-.21,.11,.2s-.03,0-.04,0c-.06,0-.11,0-.17,0Zm.9-.3l-.39-.75,.83-1.7,.22,1.86-.67,.58Zm.78,.32l.02,.2c-.06-.02-.13-.03-.19-.05l.17-.15Zm1.16,.69c-.11-.06-.23-.13-.35-.18l-.13-1.1,1.67-1.46-.44,2.39-.75,.36Zm.68,7.99h-.03s.01-.03,.02-.03v.03Zm-1.11,.65c.11-.05,.23-.11,.34-.16l.98,.42,.42,1.95-1.79-1.58,.06-.63Zm1.23-18.48l-1.85,3.77-.5-4.14c.8,.06,1.59,.19,2.35,.37Zm-3.53-.42c.14,0,.28,0,.42,.01l.65,5.42-1.1,2.24-1.14-2.2,.84-5.47c.11,0,.21,0,.31,0Zm-1.08,.04l-.66,4.3-2-3.87c.86-.22,1.75-.36,2.67-.43Zm-3.41,.64l2.55,4.92-.37,2.37-1.71-1.56-1.14-5.51c.22-.08,.45-.16,.67-.23Zm.06,10.77h.4c-.08,.08-.15,.18-.23,.28l-.17-.28Zm.14,5.69h-.11s.06-.09,.06-.09c.02,.03,.04,.06,.05,.09Zm-.6-6.43l-.51-.82,1.48,.71,.02,.08-.99,.02Zm-.41,.76l.62,.99c-.08,.18-.16,.36-.22,.54l-.81,.22-1.94-1.7,2.35-.06Zm.08,3.19l-1.48-.38,.8-.22,.68,.6Zm.28,1.11c.05,.19,.12,.37,.19,.54l-.56,.82h-1.63s2-1.37,2-1.37Zm.03,2.12h1.13s-.23,.99-.23,.99l-2.03,.68,1.13-1.68Zm-.97-16.71l.91,4.36-3.35-3.05c.77-.51,1.58-.95,2.44-1.31Zm-3.07,1.76l4.24,3.86,.6,2.87-2.04-.98-3.34-5.33c.18-.14,.36-.28,.54-.42Zm-1.12,.92l2.65,4.23-4.52-2.17c.56-.74,1.19-1.43,1.88-2.06Zm-2.32,2.68l5.71,2.74,.91,1.45-2.72,.06-4.23-3.71-.03,.03c.12-.19,.24-.38,.36-.57Zm-.72,1.2l3.51,3.08-4.76,.11c.29-1.12,.71-2.19,1.25-3.19Zm-1.7,6.72c0-1.04,.11-2.05,.33-3.02l.49,.07,5.23,.04,2.18,1.92-1.59,.44-6.82-1.4v1l5.35,.8-5.11,1.4c-.04-.41-.06-.83-.06-1.25Zm.27,2.74c-.05-.24-.09-.49-.12-.73l6.5-1.79,2.53,.65-2.62,1.79-6.28-.03v.11Zm1.14,3.42c-.43-.88-.76-1.81-1-2.78l5.04,.02-4.04,2.76Zm.35,.67l5.02-3.42h2.22s-1.41,2.09-1.41,2.09l-5.47,1.85,.08,.24c-.16-.25-.31-.5-.45-.75Zm.73,1.19l4.41-1.49-2.52,3.73c-.7-.68-1.34-1.43-1.89-2.24Zm2.45,2.75l3.13-4.64,2.52-.85-.51,2.17-4.52,3.83c-.21-.17-.42-.34-.63-.52Zm1.25,.98l3.61-3.06-1.06,4.5c-.9-.4-1.75-.88-2.55-1.44Zm3.25,1.73l1.32-5.61,1.7-1.44,.43,2.3-2.76,5c-.23-.08-.46-.16-.69-.24Zm1.43,.46l2.23-4.05,.84,4.55c-1.06-.06-2.09-.23-3.08-.5Zm4.58,.51c-.21,0-.43,.02-.64,.02-.03,0-.06,0-.09,0l-1.04-5.61,1.24-2.24,1.06,2.02-.52,5.82Zm-.11-8.63l.47-.85,.45,.4-.17,1.88-.75-1.43Zm.87,8.58l.41-4.54,2.15,4.08c-.83,.22-1.68,.38-2.56,.46Zm3.29-.68l-2.76-5.24,.22-2.49,2.14,1.89,1.19,5.55c-.26,.1-.53,.2-.8,.29Zm1.5-.58l-.95-4.41,3.4,3.01c-.77,.54-1.59,1.01-2.45,1.4Zm3.07-1.86l-4.29-3.79-.52-2.42,2.35,1.02,3.04,4.7c-.19,.17-.39,.33-.59,.49Zm1.15-1l-2.36-3.65,4.01,1.74c-.5,.68-1.05,1.32-1.65,1.91Zm2.09-2.54l-5.18-2.25-1.5-2.32,2.16,.08,4.86,3.94,.03-.04c-.12,.2-.24,.39-.36,.58Zm.7-1.21l-3.98-3.23,5.78,.76v-1l-6.75-.55-1.85-1.5,2.22-.73,6.38,1.78v-1l-5.17-1.18,4.85-1.6c.07,.57,.11,1.15,.11,1.73,0,2.34-.58,4.56-1.6,6.52ZM14.63,24.93l.49,.07,5.23,.04"/><path class="cls-1" d="M16.37,11.97c12.7-10.72,22.09-.34,23.36-8.41,.31-3.28-14.24-7.33-26.94,3.39C.09,17.66-2.01,34.28,1.55,38.49c3.56,4.22,2.12-15.81,14.82-26.52Z"/></g></g></svg>