<svg id="Ebene_1" data-name="Ebene 1" xmlns="http://www.w3.org/2000/svg" viewBox="0 0 123.88 35"><defs><style>.cls-1{fill:#180445;}.cls-2{fill:#fff;}</style></defs><title>stoerer_neu-im-shop</title><path class="cls-1" d="M255.4,201.45h-110v-35h111l12.9,17.5Z" transform="translate(-145.42 -166.45)"/><path class="cls-2" d="M164.3,183.68q0,0.16,0,.37t0,0.42q0,0.22,0,.44t0,0.43q0,0.48,0,1h0l-3.76-7.14H158v9.54h1.81v-4.49q0-.37,0-0.84t0-.89q0-.5-0.07-1h0.06l3.76,7.21h2.57v-9.54H164.3v4.51Zm4.23,5H174V187h-3.48v-2.46h3.24v-1.66h-3.24v-2.09H174v-1.66h-5.51v9.54Zm12.73-3.55a2.42,2.42,0,0,1-.38,1.49,1.47,1.47,0,0,1-1.24.5,2.12,2.12,0,0,1-.72-0.11,1.21,1.21,0,0,1-.51-0.35,1.56,1.56,0,0,1-.31-0.61,3.39,3.39,0,0,1-.1-0.9v-6h-2v6.14a4.21,4.21,0,0,0,.24,1.44,3,3,0,0,0,1.82,1.83,5,5,0,0,0,3.19,0,3.21,3.21,0,0,0,1.15-.74,3,3,0,0,0,.69-1.11,4.12,4.12,0,0,0,.23-1.38v-6.17h-2v6Zm7.07-4.83,1.16,0.53V187l-1.16.53v1.15h4.35v-1.15l-1.16-.53v-6.17l1.16-.53v-1.15h-4.35v1.15Zm10.86,6.14h0l-2.07-7.29h-2.76v9.54h1.81v-4.43q0-.18,0-0.41t0-.48l0-.5q0-.25,0-0.5,0-.56-0.07-1.16h0.06l2.1,7.48H200l2.26-7.47h0.05q0,0.59,0,1.14,0,0.23,0,.48t0,0.49q0,0.24,0,.46t0,0.38v4.51h1.89v-9.54H201.4Zm15.47-2.13a3.65,3.65,0,0,0-.71-0.6q-0.41-.27-0.9-0.53l-0.69-.38a2.92,2.92,0,0,1-.46-0.33,1,1,0,0,1-.34-0.78,1,1,0,0,1,.27-0.72,1.06,1.06,0,0,1,.78-0.27,3.07,3.07,0,0,1,.47,0,3.62,3.62,0,0,1,.47.11L214,181l0.55,0.24,0.65-1.57q-0.35-.16-0.67-0.29a6.48,6.48,0,0,0-.65-0.21,5.63,5.63,0,0,0-.65-0.13,5,5,0,0,0-.68,0,4,4,0,0,0-1.25.18,2.65,2.65,0,0,0-1,.53,2.34,2.34,0,0,0-.61.85,2.93,2.93,0,0,0-.21,1.14,2.58,2.58,0,0,0,.22,1.12,2.83,2.83,0,0,0,.55.8,3.61,3.61,0,0,0,.7.55l0.67,0.38,0.65,0.36a3.26,3.26,0,0,1,.5.35,1.45,1.45,0,0,1,.32.38,1,1,0,0,1,.11.47,1.17,1.17,0,0,1-.07.41,0.8,0.8,0,0,1-.22.32,1,1,0,0,1-.39.21,1.92,1.92,0,0,1-.57.08,3.39,3.39,0,0,1-.66-0.07,5.29,5.29,0,0,1-.66-0.18q-0.33-.11-0.65-0.25l-0.63-.29v1.88a4.83,4.83,0,0,0,1.19.43,6.14,6.14,0,0,0,1.34.14,4.61,4.61,0,0,0,1.4-.2,2.94,2.94,0,0,0,1-.56,2.36,2.36,0,0,0,.64-0.87,2.9,2.9,0,0,0,.22-1.15,2.67,2.67,0,0,0-.16-1A2.42,2.42,0,0,0,214.66,184.33Zm7.69-1.43H219.1v-3.74h-2v9.54h2v-4.12h3.25v4.12h2v-9.54h-2v3.74Zm11.55-2.55a3.48,3.48,0,0,0-1.33-1,5.4,5.4,0,0,0-3.82,0,3.52,3.52,0,0,0-1.34,1,4.19,4.19,0,0,0-.79,1.54,8,8,0,0,0,0,4,4.27,4.27,0,0,0,.79,1.56,3.49,3.49,0,0,0,1.33,1,5.34,5.34,0,0,0,3.81,0,3.52,3.52,0,0,0,1.34-1,4.25,4.25,0,0,0,.79-1.55,8,8,0,0,0,0-4A4.25,4.25,0,0,0,233.89,180.36Zm-1.18,4.91a3,3,0,0,1-.39,1,1.81,1.81,0,0,1-.68.64,2.09,2.09,0,0,1-1,.22,2,2,0,0,1-1-.22,1.87,1.87,0,0,1-.68-0.64,3,3,0,0,1-.4-1,7,7,0,0,1,0-2.69,3,3,0,0,1,.4-1,1.85,1.85,0,0,1,.69-0.64,2.08,2.08,0,0,1,1-.22,2.06,2.06,0,0,1,1,.22,1.81,1.81,0,0,1,.68.64,3.09,3.09,0,0,1,.39,1A7.17,7.17,0,0,1,232.72,185.27Zm9.55-5.31a3,3,0,0,0-1.11-.59,5.47,5.47,0,0,0-1.59-.21h-2.66v9.54h2v-3.39h0.46a5.13,5.13,0,0,0,1.76-.26,3.09,3.09,0,0,0,1.15-.7,2.55,2.55,0,0,0,.62-1,3.8,3.8,0,0,0,.19-1.2,3.5,3.5,0,0,0-.21-1.25A2.31,2.31,0,0,0,242.27,180Zm-1.64,3.36a2.08,2.08,0,0,1-1.29.34h-0.4v-2.83h0.52a1.83,1.83,0,0,1,1.22.34A1.61,1.61,0,0,1,240.63,183.32Zm5.81,2.22,0.33-6.37h-2.26l0.33,6.37h1.6Zm0,1.37a1,1,0,0,0-.36-0.19,1.58,1.58,0,0,0-.44-0.06,1.67,1.67,0,0,0-.45.06,1,1,0,0,0-.37.19,0.87,0.87,0,0,0-.25.34,1.35,1.35,0,0,0-.09.52,1.29,1.29,0,0,0,.09.5,0.93,0.93,0,0,0,.25.35,1,1,0,0,0,.37.2,1.59,1.59,0,0,0,.45.06,1.51,1.51,0,0,0,.44-0.06,0.95,0.95,0,0,0,.61-0.54,1.25,1.25,0,0,0,.09-0.5,1.31,1.31,0,0,0-.09-0.52A0.9,0.9,0,0,0,246.44,186.91Z" transform="translate(-145.42 -166.45)"/></svg>