<svg id="Ebene_1" data-name="Ebene 1" xmlns="http://www.w3.org/2000/svg" viewBox="0 0 259.88 35"><defs><style>.cls-1{fill:#ea5901;}.cls-2{fill:#fff;}</style></defs><title>stoerer_auspacken-losfahren</title><path class="cls-1" d="M391.4,236.78h-246v-35h247l12.9,17.5Z" transform="translate(-145.42 -201.79)"/><path class="cls-2" d="M164.63,224.86l-0.68-2.38H160.5l-0.69,2.38h-2.14l3.25-10h2.59l3.26,10h-2.14Zm-1.18-4.16-0.64-2.19-0.12-.4-0.17-.62q-0.09-.34-0.17-0.68t-0.12-.58q0,0.15-.07.36T162,217l-0.12.46-0.12.44-0.1.36-0.06.23L161,220.71h2.44Z" transform="translate(-145.42 -201.79)"/><path class="cls-2" d="M175.46,214.87v6.47a4.34,4.34,0,0,1-.24,1.45,3.12,3.12,0,0,1-.72,1.16,3.36,3.36,0,0,1-1.21.77,5.25,5.25,0,0,1-3.33,0,3.09,3.09,0,0,1-1.9-1.91,4.42,4.42,0,0,1-.25-1.51v-6.44h2.11v6.28a3.58,3.58,0,0,0,.11.95,1.64,1.64,0,0,0,.32.64,1.26,1.26,0,0,0,.54.37,2.21,2.21,0,0,0,.75.12,1.53,1.53,0,0,0,1.3-.52,2.55,2.55,0,0,0,.4-1.57v-6.27h2.11Z" transform="translate(-145.42 -201.79)"/><path class="cls-2" d="M183.38,222.09a3,3,0,0,1-.23,1.21,2.47,2.47,0,0,1-.67.92,3.07,3.07,0,0,1-1.08.58,4.8,4.8,0,0,1-1.47.21,6.4,6.4,0,0,1-1.4-.15,5,5,0,0,1-1.25-.45v-2l0.66,0.3q0.33,0.15.68,0.26a5.47,5.47,0,0,0,.69.18,3.54,3.54,0,0,0,.69.07,2,2,0,0,0,.6-0.08A1.06,1.06,0,0,0,181,223a0.84,0.84,0,0,0,.23-0.33,1.23,1.23,0,0,0,.07-0.43,1,1,0,0,0-.12-0.5,1.52,1.52,0,0,0-.33-0.4,3.4,3.4,0,0,0-.52-0.37l-0.68-.38-0.7-.4a3.77,3.77,0,0,1-.73-0.58,3,3,0,0,1-.58-0.83,2.71,2.71,0,0,1-.23-1.17,3.08,3.08,0,0,1,.22-1.2,2.45,2.45,0,0,1,.63-0.9,2.77,2.77,0,0,1,1-.56,4.2,4.2,0,0,1,1.31-.19,5.17,5.17,0,0,1,.71,0,5.86,5.86,0,0,1,.68.14,6.73,6.73,0,0,1,.68.22q0.34,0.13.7,0.3l-0.68,1.65-0.57-.25-0.52-.18a3.71,3.71,0,0,0-.5-0.11,3.21,3.21,0,0,0-.49,0,1.11,1.11,0,0,0-.82.28,1,1,0,0,0-.28.76,1.1,1.1,0,0,0,.09.45,1.09,1.09,0,0,0,.27.37,3.08,3.08,0,0,0,.49.35l0.72,0.4q0.51,0.27.94,0.56a3.82,3.82,0,0,1,.74.63,2.53,2.53,0,0,1,.48.78A2.81,2.81,0,0,1,183.38,222.09Z" transform="translate(-145.42 -201.79)"/><path class="cls-2" d="M191.73,218a4,4,0,0,1-.2,1.26,2.67,2.67,0,0,1-.65,1.06,3.23,3.23,0,0,1-1.2.73,5.35,5.35,0,0,1-1.84.27h-0.49v3.55h-2.12v-10H188a5.7,5.7,0,0,1,1.66.22,3.1,3.1,0,0,1,1.16.62,2.42,2.42,0,0,1,.67,1A3.67,3.67,0,0,1,191.73,218Zm-4.37,1.59h0.42a2.17,2.17,0,0,0,1.35-.36,1.69,1.69,0,0,0,0-2.26,1.91,1.91,0,0,0-1.27-.36h-0.54v3Z" transform="translate(-145.42 -201.79)"/><path class="cls-2" d="M198.76,224.86l-0.68-2.38h-3.45l-0.69,2.38H191.8l3.25-10h2.59l3.26,10h-2.14Zm-1.18-4.16-0.64-2.19-0.12-.4-0.17-.62q-0.09-.34-0.17-0.68t-0.12-.58q0,0.15-.07.36t-0.1.43l-0.12.46-0.12.44-0.1.36-0.06.23-0.64,2.19h2.44Z" transform="translate(-145.42 -201.79)"/><path class="cls-2" d="M206.26,216.49a2.36,2.36,0,0,0-1.08.24,2.15,2.15,0,0,0-.79.68,3.19,3.19,0,0,0-.48,1.07,5.65,5.65,0,0,0-.16,1.42,6.2,6.2,0,0,0,.15,1.42,3,3,0,0,0,.45,1,2,2,0,0,0,.78.65,2.65,2.65,0,0,0,1.13.22,5.57,5.57,0,0,0,1.22-.14,11.8,11.8,0,0,0,1.33-.39v1.78a6.54,6.54,0,0,1-.65.23,6.23,6.23,0,0,1-.66.16q-0.33.06-.69,0.09t-0.76,0a5,5,0,0,1-2-.37,3.7,3.7,0,0,1-1.4-1,4.36,4.36,0,0,1-.82-1.61,7.71,7.71,0,0,1-.27-2.1,6.71,6.71,0,0,1,.31-2.08,4.63,4.63,0,0,1,.9-1.63,4.06,4.06,0,0,1,1.47-1.06,5,5,0,0,1,2-.38,6.11,6.11,0,0,1,1.49.19,7.56,7.56,0,0,1,1.43.52l-0.68,1.72a11.32,11.32,0,0,0-1.13-.46A3.36,3.36,0,0,0,206.26,216.49Z" transform="translate(-145.42 -201.79)"/><path class="cls-2" d="M218.55,224.86h-2.41l-2.3-4.16-0.79.59v3.57h-2.12v-10h2.12v4.81l0.83-1.42,2.28-3.4h2.35l-3.19,4.5Z" transform="translate(-145.42 -201.79)"/><path class="cls-2" d="M225.57,224.86h-5.76v-10h5.76v1.74h-3.64v2.19h3.38v1.74h-3.38v2.58h3.64v1.75Z" transform="translate(-145.42 -201.79)"/><path class="cls-2" d="M236.1,224.86h-2.69l-3.93-7.56h-0.06q0,0.53.07,1t0,0.93q0,0.49,0,.88v4.7h-1.89v-10h2.67l3.92,7.49h0q0-.52,0-1c0-.15,0-0.29,0-0.45s0-.31,0-0.46,0-.3,0-0.44,0-.27,0-0.38v-4.73h1.9v10Z" transform="translate(-145.42 -201.79)"/><path class="cls-2" d="M237.78,222v-1.71h3.67V222h-3.67Z" transform="translate(-145.42 -201.79)"/><path class="cls-2" d="M243.12,224.86v-10h2.12v8.24h3.64v1.75h-5.76Z" transform="translate(-145.42 -201.79)"/><path class="cls-2" d="M259,219.85a7.68,7.68,0,0,1-.27,2.11,4.46,4.46,0,0,1-.82,1.63,3.68,3.68,0,0,1-1.4,1,5.56,5.56,0,0,1-4,0,3.65,3.65,0,0,1-1.39-1,4.49,4.49,0,0,1-.82-1.63,8.4,8.4,0,0,1,0-4.22,4.39,4.39,0,0,1,.82-1.62,3.67,3.67,0,0,1,1.4-1,5.62,5.62,0,0,1,4,0,3.64,3.64,0,0,1,1.39,1,4.46,4.46,0,0,1,.82,1.62A7.7,7.7,0,0,1,259,219.85Zm-6.78,0a6.63,6.63,0,0,0,.14,1.41,3.16,3.16,0,0,0,.42,1.06,2,2,0,0,0,.71.67,2.13,2.13,0,0,0,1,.23,2.18,2.18,0,0,0,1-.23,1.89,1.89,0,0,0,.71-0.67,3.2,3.2,0,0,0,.41-1.06,7.54,7.54,0,0,0,0-2.82,3.23,3.23,0,0,0-.41-1.06,1.9,1.9,0,0,0-.71-0.67,2.15,2.15,0,0,0-1-.23,2.17,2.17,0,0,0-1,.23,1.93,1.93,0,0,0-.72.67,3.2,3.2,0,0,0-.42,1.06A6.63,6.63,0,0,0,252.21,219.85Z" transform="translate(-145.42 -201.79)"/><path class="cls-2" d="M266.54,222.09a3,3,0,0,1-.23,1.21,2.47,2.47,0,0,1-.67.92,3.07,3.07,0,0,1-1.08.58,4.8,4.8,0,0,1-1.47.21,6.4,6.4,0,0,1-1.4-.15,5,5,0,0,1-1.25-.45v-2l0.66,0.3q0.33,0.15.68,0.26a5.47,5.47,0,0,0,.69.18,3.54,3.54,0,0,0,.69.07,2,2,0,0,0,.6-0.08,1.06,1.06,0,0,0,.4-0.22,0.84,0.84,0,0,0,.23-0.33,1.23,1.23,0,0,0,.07-0.43,1,1,0,0,0-.12-0.5,1.52,1.52,0,0,0-.33-0.4,3.4,3.4,0,0,0-.52-0.37l-0.68-.38-0.7-.4a3.77,3.77,0,0,1-.73-0.58,3,3,0,0,1-.58-0.83,2.71,2.71,0,0,1-.23-1.17,3.08,3.08,0,0,1,.22-1.2,2.45,2.45,0,0,1,.63-0.9,2.77,2.77,0,0,1,1-.56,4.2,4.2,0,0,1,1.31-.19,5.17,5.17,0,0,1,.71,0,5.86,5.86,0,0,1,.68.14,6.73,6.73,0,0,1,.68.22q0.34,0.13.7,0.3l-0.68,1.65-0.57-.25-0.52-.18a3.71,3.71,0,0,0-.5-0.11,3.21,3.21,0,0,0-.49,0,1.11,1.11,0,0,0-.82.28,1,1,0,0,0-.28.76,1.1,1.1,0,0,0,.09.45,1.09,1.09,0,0,0,.27.37,3.08,3.08,0,0,0,.49.35l0.72,0.4q0.51,0.27.94,0.56a3.82,3.82,0,0,1,.74.63,2.53,2.53,0,0,1,.48.78A2.81,2.81,0,0,1,266.54,222.09Z" transform="translate(-145.42 -201.79)"/><path class="cls-2" d="M270.48,224.86H268.4v-10h5.73v1.74h-3.64v2.58h3.39v1.73h-3.39v4Z" transform="translate(-145.42 -201.79)"/><path class="cls-2" d="M281.5,224.86l-0.68-2.38h-3.45l-0.69,2.38h-2.14l3.25-10h2.59l3.26,10H281.5Zm-1.18-4.16-0.64-2.19-0.12-.4-0.17-.62q-0.09-.34-0.17-0.68t-0.12-.58q0,0.15-.07.36t-0.1.43l-0.12.46-0.12.44-0.1.36-0.06.23-0.64,2.19h2.44Z" transform="translate(-145.42 -201.79)"/><path class="cls-2" d="M292.53,224.86h-2.11v-4.31H287v4.31H284.9v-10H287v3.92h3.4v-3.92h2.11v10Z" transform="translate(-145.42 -201.79)"/><path class="cls-2" d="M297.17,221v3.83H295v-10h2.73a4.47,4.47,0,0,1,2.84.74,2.73,2.73,0,0,1,.92,2.25,3,3,0,0,1-.14.93,2.75,2.75,0,0,1-.37.74,2.86,2.86,0,0,1-.53.57,3.42,3.42,0,0,1-.63.41l1.36,2.17,0.5,0.8,0.43,0.7,0.31,0.49,0.12,0.19h-2.35L298.09,221h-0.92Zm0-1.72h0.57A1.84,1.84,0,0,0,299,219a1.34,1.34,0,0,0,.38-1,1.17,1.17,0,0,0-.41-1,2.16,2.16,0,0,0-1.27-.3h-0.54v2.7Z" transform="translate(-145.42 -201.79)"/><path class="cls-2" d="M309.62,224.86h-5.76v-10h5.76v1.74H306v2.19h3.38v1.74H306v2.58h3.64v1.75Z" transform="translate(-145.42 -201.79)"/><path class="cls-2" d="M320.15,224.86h-2.69l-3.93-7.56h-0.06q0,0.53.07,1t0,0.93q0,0.49,0,.88v4.7h-1.89v-10h2.67l3.92,7.49h0q0-.52,0-1c0-.15,0-0.29,0-0.45s0-.31,0-0.46,0-.3,0-0.44,0-.27,0-0.38v-4.73h1.9v10Z" transform="translate(-145.42 -201.79)"/><path class="cls-2" d="M321.83,222v-1.71h3.67V222h-3.67Z" transform="translate(-145.42 -201.79)"/><path class="cls-2" d="M332.65,222.09a3,3,0,0,1-.23,1.21,2.46,2.46,0,0,1-.67.92,3.06,3.06,0,0,1-1.08.58,4.79,4.79,0,0,1-1.47.21,6.39,6.39,0,0,1-1.4-.15,5,5,0,0,1-1.25-.45v-2l0.66,0.3q0.34,0.15.68,0.26a5.46,5.46,0,0,0,.69.18,3.55,3.55,0,0,0,.69.07,2,2,0,0,0,.6-0.08,1.07,1.07,0,0,0,.4-0.22,0.84,0.84,0,0,0,.22-0.33,1.21,1.21,0,0,0,.07-0.43,1,1,0,0,0-.12-0.5,1.51,1.51,0,0,0-.34-0.4,3.33,3.33,0,0,0-.52-0.37l-0.68-.38-0.7-.4a3.79,3.79,0,0,1-.74-0.58,3,3,0,0,1-.58-0.83,2.71,2.71,0,0,1-.23-1.17,3.09,3.09,0,0,1,.22-1.2,2.46,2.46,0,0,1,.63-0.9,2.77,2.77,0,0,1,1-.56,4.2,4.2,0,0,1,1.31-.19,5.19,5.19,0,0,1,.71,0,5.92,5.92,0,0,1,.68.14,6.77,6.77,0,0,1,.68.22c0.23,0.09.46,0.19,0.7,0.3l-0.68,1.65-0.57-.25-0.52-.18a3.74,3.74,0,0,0-.5-0.11,3.22,3.22,0,0,0-.49,0,1.11,1.11,0,0,0-.82.28,1,1,0,0,0-.28.76,1.09,1.09,0,0,0,.09.45,1.08,1.08,0,0,0,.27.37,3.09,3.09,0,0,0,.48.35l0.72,0.4q0.51,0.27.94,0.56a3.8,3.8,0,0,1,.74.63,2.53,2.53,0,0,1,.48.78A2.8,2.8,0,0,1,332.65,222.09Z" transform="translate(-145.42 -201.79)"/><path class="cls-2" d="M340.27,224.86h-5.76v-10h5.76v1.74h-3.64v2.19H340v1.74h-3.38v2.58h3.64v1.75Z" transform="translate(-145.42 -201.79)"/><path class="cls-2" d="M344.47,221v3.83h-2.12v-10h2.73a4.47,4.47,0,0,1,2.84.74,2.73,2.73,0,0,1,.92,2.25,3,3,0,0,1-.14.93,2.75,2.75,0,0,1-.37.74,2.86,2.86,0,0,1-.53.57,3.42,3.42,0,0,1-.63.41l1.36,2.17,0.5,0.8,0.43,0.7,0.31,0.49,0.12,0.19h-2.35L345.4,221h-0.92Zm0-1.72H345a1.84,1.84,0,0,0,1.26-.35,1.34,1.34,0,0,0,.38-1,1.17,1.17,0,0,0-.41-1,2.16,2.16,0,0,0-1.27-.3h-0.54v2.7Z" transform="translate(-145.42 -201.79)"/><path class="cls-2" d="M356.31,214.87h2.14l-3.12,10H353l-3.11-10h2.14l1.7,6c0,0.08.05,0.21,0.09,0.39l0.12,0.6,0.13,0.66q0.06,0.33.1,0.55,0-.23.1-0.55t0.13-.65q0.07-.32.13-0.6l0.1-.4Z" transform="translate(-145.42 -201.79)"/><path class="cls-2" d="M363.45,224.86H358.9v-1.2l1.22-.56v-6.47l-1.22-.56v-1.2h4.55v1.2l-1.22.56v6.47l1.22,0.56v1.2Z" transform="translate(-145.42 -201.79)"/><path class="cls-2" d="M369.27,216.49a2.37,2.37,0,0,0-1.08.24,2.15,2.15,0,0,0-.79.68,3.17,3.17,0,0,0-.48,1.07,5.65,5.65,0,0,0-.16,1.42,6.23,6.23,0,0,0,.15,1.42,3,3,0,0,0,.45,1,2,2,0,0,0,.78.65,2.66,2.66,0,0,0,1.13.22,5.56,5.56,0,0,0,1.22-.14,11.78,11.78,0,0,0,1.33-.39v1.78a6.58,6.58,0,0,1-.65.23,6.18,6.18,0,0,1-.66.16q-0.34.06-.69,0.09t-0.76,0a5,5,0,0,1-2-.37,3.7,3.7,0,0,1-1.4-1,4.36,4.36,0,0,1-.82-1.61,7.71,7.71,0,0,1-.27-2.1,6.71,6.71,0,0,1,.31-2.08,4.63,4.63,0,0,1,.9-1.63,4.06,4.06,0,0,1,1.47-1.06,5,5,0,0,1,2-.38,6.09,6.09,0,0,1,1.49.19,7.55,7.55,0,0,1,1.43.52l-0.68,1.72a11.42,11.42,0,0,0-1.13-.46A3.36,3.36,0,0,0,369.27,216.49Z" transform="translate(-145.42 -201.79)"/><path class="cls-2" d="M379.7,224.86h-5.76v-10h5.76v1.74h-3.64v2.19h3.38v1.74h-3.38v2.58h3.64v1.75Z" transform="translate(-145.42 -201.79)"/></svg>