<svg id="Ebene_1" data-name="Ebene 1" xmlns="http://www.w3.org/2000/svg" viewBox="0 0 178.88 35"><defs><style>.cls-1{fill:#3a802c;}.cls-2{fill:#fff;}</style></defs><title>stoerer_versandkostenfrei</title><path class="cls-1" d="M310.9,272.35h-165v-35h166l12.9,17.5Z" transform="translate(-145.92 -237.35)"/><path class="cls-2" d="M163.06,250.27h2.14l-3.12,10h-2.31l-3.11-10h2.14l1.7,6q0,0.12.09,0.39l0.12,0.6,0.13,0.66q0.06,0.33.1,0.55,0-.23.1-0.55t0.13-.65q0.07-.32.13-0.6l0.1-.4Z" transform="translate(-145.92 -237.35)"/><path class="cls-2" d="M172.22,260.26h-5.76v-10h5.76V252h-3.64v2.19H172v1.74h-3.38v2.58h3.64v1.75Z" transform="translate(-145.92 -237.35)"/><path class="cls-2" d="M176.42,256.43v3.83H174.3v-10H177a4.47,4.47,0,0,1,2.84.74,2.73,2.73,0,0,1,.92,2.25,3,3,0,0,1-.14.93,2.78,2.78,0,0,1-.37.74,2.85,2.85,0,0,1-.53.57,3.38,3.38,0,0,1-.63.41l1.36,2.17,0.5,0.8,0.43,0.7,0.31,0.49,0.12,0.19h-2.35l-2.17-3.83h-0.92Zm0-1.72H177a1.84,1.84,0,0,0,1.26-.35,1.34,1.34,0,0,0,.38-1,1.17,1.17,0,0,0-.41-1A2.16,2.16,0,0,0,177,252h-0.54v2.7Z" transform="translate(-145.92 -237.35)"/><path class="cls-2" d="M188.6,257.49a3,3,0,0,1-.23,1.21,2.47,2.47,0,0,1-.67.92,3.07,3.07,0,0,1-1.08.58,4.8,4.8,0,0,1-1.47.21,6.4,6.4,0,0,1-1.4-.15,5,5,0,0,1-1.25-.45v-2l0.66,0.3q0.33,0.15.68,0.26a5.47,5.47,0,0,0,.69.18,3.54,3.54,0,0,0,.69.07,2,2,0,0,0,.6-0.08,1.06,1.06,0,0,0,.4-0.22,0.84,0.84,0,0,0,.23-0.33,1.23,1.23,0,0,0,.07-0.43,1,1,0,0,0-.12-0.5,1.52,1.52,0,0,0-.33-0.4,3.4,3.4,0,0,0-.52-0.37l-0.68-.38-0.7-.4a3.77,3.77,0,0,1-.73-0.58,3,3,0,0,1-.58-0.83,2.71,2.71,0,0,1-.23-1.17,3.08,3.08,0,0,1,.22-1.2,2.45,2.45,0,0,1,.63-0.9,2.77,2.77,0,0,1,1-.56,4.2,4.2,0,0,1,1.31-.19,5.17,5.17,0,0,1,.71,0,5.86,5.86,0,0,1,.68.14,6.73,6.73,0,0,1,.68.22q0.34,0.13.7,0.3l-0.68,1.65-0.57-.25-0.52-.18a3.71,3.71,0,0,0-.5-0.11,3.21,3.21,0,0,0-.49,0,1.11,1.11,0,0,0-.82.28,1,1,0,0,0-.28.76,1.1,1.1,0,0,0,.09.45,1.09,1.09,0,0,0,.27.37,3.08,3.08,0,0,0,.49.35l0.72,0.4q0.51,0.27.94,0.56a3.82,3.82,0,0,1,.74.63,2.53,2.53,0,0,1,.48.78A2.81,2.81,0,0,1,188.6,257.49Z" transform="translate(-145.92 -237.35)"/><path class="cls-2" d="M196.16,260.26l-0.68-2.38H192l-0.69,2.38H189.2l3.25-10H195l3.26,10h-2.14ZM195,256.11l-0.64-2.19-0.12-.4L194,252.9q-0.09-.34-0.17-0.68t-0.12-.58q0,0.15-.07.36t-0.1.43l-0.12.46-0.12.44-0.1.36-0.06.23-0.64,2.19H195Z" transform="translate(-145.92 -237.35)"/><path class="cls-2" d="M208,260.26h-2.69l-3.93-7.56h-0.06q0,0.53.07,1t0,0.93q0,0.49,0,.88v4.7h-1.89v-10h2.67l3.92,7.49h0q0-.52,0-1c0-.15,0-0.29,0-0.45s0-.31,0-0.46,0-.3,0-0.44,0-.27,0-0.38v-4.73H208v10Z" transform="translate(-145.92 -237.35)"/><path class="cls-2" d="M218.25,255.17a6.51,6.51,0,0,1-.35,2.22,4,4,0,0,1-2.6,2.55,6.69,6.69,0,0,1-2.16.32h-2.63v-10h2.93a5.91,5.91,0,0,1,2,.31,4.06,4.06,0,0,1,1.51.93,4.12,4.12,0,0,1,1,1.53A6.1,6.1,0,0,1,218.25,255.17Zm-2.15.05a5.43,5.43,0,0,0-.17-1.44,2.76,2.76,0,0,0-.49-1,1.94,1.94,0,0,0-.78-0.59,2.74,2.74,0,0,0-1.06-.19h-1v6.51h0.78a2.45,2.45,0,0,0,2-.82A3.83,3.83,0,0,0,216.1,255.23Z" transform="translate(-145.92 -237.35)"/><path class="cls-2" d="M227.94,260.26h-2.41l-2.3-4.16-0.79.59v3.57h-2.12v-10h2.12v4.81l0.83-1.42,2.28-3.4h2.35l-3.19,4.5Z" transform="translate(-145.92 -237.35)"/><path class="cls-2" d="M237.43,255.25a7.68,7.68,0,0,1-.27,2.11,4.46,4.46,0,0,1-.82,1.63,3.68,3.68,0,0,1-1.4,1,5.56,5.56,0,0,1-4,0,3.65,3.65,0,0,1-1.39-1,4.49,4.49,0,0,1-.82-1.63,8.4,8.4,0,0,1,0-4.22,4.39,4.39,0,0,1,.82-1.62,3.67,3.67,0,0,1,1.4-1,5.62,5.62,0,0,1,4,0,3.64,3.64,0,0,1,1.39,1,4.46,4.46,0,0,1,.82,1.62A7.7,7.7,0,0,1,237.43,255.25Zm-6.78,0a6.63,6.63,0,0,0,.14,1.41,3.16,3.16,0,0,0,.42,1.06,2,2,0,0,0,.71.67,2.13,2.13,0,0,0,1,.23,2.18,2.18,0,0,0,1-.23,1.89,1.89,0,0,0,.71-0.67,3.2,3.2,0,0,0,.41-1.06,7.54,7.54,0,0,0,0-2.82,3.23,3.23,0,0,0-.41-1.06,1.9,1.9,0,0,0-.71-0.67,2.15,2.15,0,0,0-1-.23,2.17,2.17,0,0,0-1,.23,1.93,1.93,0,0,0-.72.67,3.2,3.2,0,0,0-.42,1.06A6.63,6.63,0,0,0,230.65,255.25Z" transform="translate(-145.92 -237.35)"/><path class="cls-2" d="M245,257.49a3,3,0,0,1-.23,1.21,2.47,2.47,0,0,1-.67.92,3.07,3.07,0,0,1-1.08.58,4.8,4.8,0,0,1-1.47.21,6.4,6.4,0,0,1-1.4-.15,5,5,0,0,1-1.25-.45v-2l0.66,0.3q0.33,0.15.68,0.26a5.47,5.47,0,0,0,.69.18,3.54,3.54,0,0,0,.69.07,2,2,0,0,0,.6-0.08,1.06,1.06,0,0,0,.4-0.22,0.84,0.84,0,0,0,.23-0.33,1.23,1.23,0,0,0,.07-0.43,1,1,0,0,0-.12-0.5,1.52,1.52,0,0,0-.33-0.4,3.4,3.4,0,0,0-.52-0.37l-0.68-.38-0.7-.4a3.77,3.77,0,0,1-.73-0.58,3,3,0,0,1-.58-0.83A2.71,2.71,0,0,1,239,253a3.08,3.08,0,0,1,.22-1.2,2.45,2.45,0,0,1,.63-0.9,2.77,2.77,0,0,1,1-.56,4.2,4.2,0,0,1,1.31-.19,5.17,5.17,0,0,1,.71,0,5.86,5.86,0,0,1,.68.14,6.73,6.73,0,0,1,.68.22q0.34,0.13.7,0.3l-0.68,1.65-0.57-.25-0.52-.18a3.71,3.71,0,0,0-.5-0.11,3.21,3.21,0,0,0-.49,0,1.11,1.11,0,0,0-.82.28,1,1,0,0,0-.28.76,1.1,1.1,0,0,0,.09.45,1.09,1.09,0,0,0,.27.37,3.08,3.08,0,0,0,.49.35l0.72,0.4q0.51,0.27.94,0.56a3.82,3.82,0,0,1,.74.63,2.53,2.53,0,0,1,.48.78A2.81,2.81,0,0,1,245,257.49Z" transform="translate(-145.92 -237.35)"/><path class="cls-2" d="M250.48,260.26h-2.11V252h-2.51v-1.76H253V252h-2.5v8.23Z" transform="translate(-145.92 -237.35)"/><path class="cls-2" d="M260.27,260.26h-5.76v-10h5.76V252h-3.64v2.19H260v1.74h-3.38v2.58h3.64v1.75Z" transform="translate(-145.92 -237.35)"/><path class="cls-2" d="M270.8,260.26h-2.69l-3.93-7.56h-0.06q0,0.53.07,1t0,0.93q0,0.49,0,.88v4.7h-1.89v-10H265l3.92,7.49h0q0-.52,0-1c0-.15,0-0.29,0-0.45s0-.31,0-0.46,0-.3,0-0.44,0-.27,0-0.38v-4.73h1.9v10Z" transform="translate(-145.92 -237.35)"/><path class="cls-2" d="M275.41,260.26h-2.08v-10h5.73V252h-3.64v2.58h3.39v1.73h-3.39v4Z" transform="translate(-145.92 -237.35)"/><path class="cls-2" d="M283.12,256.43v3.83H281v-10h2.73a4.47,4.47,0,0,1,2.84.74,2.73,2.73,0,0,1,.92,2.25,3,3,0,0,1-.14.93,2.78,2.78,0,0,1-.37.74,2.85,2.85,0,0,1-.53.57,3.38,3.38,0,0,1-.63.41l1.36,2.17,0.5,0.8,0.43,0.7,0.31,0.49,0.12,0.19h-2.35L284,256.43h-0.92Zm0-1.72h0.57a1.84,1.84,0,0,0,1.26-.35,1.34,1.34,0,0,0,.38-1,1.17,1.17,0,0,0-.41-1,2.16,2.16,0,0,0-1.27-.3h-0.54v2.7Z" transform="translate(-145.92 -237.35)"/><path class="cls-2" d="M295.58,260.26h-5.76v-10h5.76V252h-3.64v2.19h3.38v1.74h-3.38v2.58h3.64v1.75Z" transform="translate(-145.92 -237.35)"/><path class="cls-2" d="M301.4,260.26h-4.55v-1.2l1.22-.56V252l-1.22-.56v-1.2h4.55v1.2l-1.22.56v6.47l1.22,0.56v1.2Z" transform="translate(-145.92 -237.35)"/></svg>