<?xml version="1.0" encoding="UTF-8"?><svg id="Ebene_2" xmlns="http://www.w3.org/2000/svg" viewBox="0 0 47.51 47.23"><defs><style>.cls-1{fill:#fff;}</style></defs><g id="Ebene_2-2"><g><path class="cls-1" d="M23.67,15.51c-4.51,0-8.18,3.66-8.18,8.18s3.66,8.18,8.18,8.18,8.18-3.66,8.18-8.18-3.66-8.18-8.18-8.18Zm0,11.84c-2.02,0-3.66-1.64-3.66-3.66s1.64-3.66,3.66-3.66,3.66,1.64,3.66,3.66-1.64,3.66-3.66,3.66Z"/><path class="cls-1" d="M46.41,23.55c-.01-1,.83-2.54,.81-3.03-.02-.38-1.48-1.87-1.69-2.68-.3-1.16,.18-3.17,.09-3.34-.15-.28-1.85-1.47-2.43-2.4-.51-.83-.62-2.92-.72-3.02-.21-.2-2.05-.63-2.66-1.24-.84-.83-1.31-3.14-1.57-3.26-.35-.16-1.75,.31-3.59-.67-1.34-.71-1.2-2.1-1.82-2.3-.34-.11-1.83,.17-2.67-.02C29.02,1.35,27.33,0,26.94,0c-.55,0-2.33,.97-3.39,.97C22.58,.97,21-.04,20.66,0c-.43,.06-1.96,1.66-2.94,1.91-.94,.24-2.62-.34-2.98-.19-.42,.17-1.37,1.79-2.32,2.31-.85,.47-2.7,.37-3.04,.65-.3,.24-.88,2.29-1.59,2.94-.84,.78-2.66,1.25-2.87,1.54-.19,.26-.36,2.58-.88,3.42-.61,.99-2.24,1.61-2.34,1.89-.14,.38,.52,2.35,.25,3.36-.25,.95-1.65,2.14-1.85,2.67l1.06,3.31C1.16,24.81,0,26.3,0,26.69c0,.27,1.8,1.55,1.98,2.32,.29,1.22-.38,3.21-.28,3.74,.05,.23,2.1,1.2,2.59,2.05,.6,1.03,.36,2.01,.55,3.43,.03,.21,2.29,.61,2.92,1.23,.82,.81,1.18,2.74,1.47,3.06,.14,.16,2.6,.21,3.45,.68,.99,.55,1.2,1.83,2.04,2.44,.19,.14,2.3-.5,3.15-.28,1.04,.27,2.33,1.68,2.89,1.88l3.22-.93c1.11-.05,2.68,.85,2.92,.89,.35-.07,.93-1.6,3.02-1.89,1.02-.14,2.74,.27,3.07,.23,.34-.14,.58-1.6,2.11-2.31,.8-.37,3.04-.55,3.2-.68,.19-.16,.82-2.26,1.52-2.94,.75-.73,2.79-1.32,2.85-1.48,.15-.41-.21-1.8,.82-3.29,.57-.82,2.16-1.99,2.26-2.18,.15-.29-.41-2.53-.04-3.86,.27-.98,1.62-1.78,1.8-2.21l-1.1-3.02Zm-22.74,11.29c-6.16,0-11.15-4.99-11.15-11.15s4.99-11.15,11.15-11.15,11.15,4.99,11.15,11.15-4.99,11.15-11.15,11.15Z"/></g></g></svg>